<svg width="1492" height="1182" viewBox="0 0 1492 1182" fill="none" xmlns="http://www.w3.org/2000/svg">
<circle r="137.333" transform="matrix(0.867377 0.497651 -0.502352 0.864663 1211.57 703.639)" fill="#010AC9" stroke="black" stroke-width="5.33333"/>
<path d="M1129.15 751.036L1166.59 717.008L1137.44 710.714L1151.19 687.046L1131.24 669.39L1158.86 659.718L1162.46 629.436L1185.16 647.732L1215.81 632.29L1218.14 658.717L1243.04 647.912L1247.8 676.412L1276.45 671.702L1276.15 695.316L1296.52 705.018L1284.28 721.501L1293.59 743.63L1269.9 743.931L1260.03 767.921L1238.57 748.522L1221.12 757.084L1211 734.036L1191.83 741.92L1189.04 725.944L1129.15 751.036Z" fill="#F2F2F2"/>
<circle r="137.333" transform="matrix(-0.709319 0.704887 -0.709319 -0.704887 587.537 704.219)" fill="#FF1A87" stroke="black" stroke-width="5.33333"/>
<path d="M562.943 612.873L586.255 657.591L599.961 631.212L619.376 650.506L641.725 635.89L643.932 664.9L672.416 676.153L648.73 693.242L655.753 726.655L629.471 722.089L633.487 748.781L604.558 746.014L601.675 774.743L578.81 768.377L564.082 785.44L551.253 769.447L527.328 772.698L533.203 749.871L512.465 734.214L536.898 718.601L533.122 699.644L558.151 695.851L555.482 675.413L571.73 676.844L562.943 612.873Z" fill="#F2F2F2"/>
<circle r="137.333" transform="matrix(0.867377 -0.497651 0.502352 0.864663 191.762 448.309)" fill="#FFD916" stroke="black" stroke-width="5.33333"/>
<path d="M191.856 542.943L180.926 493.699L160.862 515.644L147.112 491.977L121.749 500.319L127.13 471.715L102.541 453.472L129.835 443.086L131.706 408.981L155.899 420.193L158.934 393.36L186.148 403.518L196.371 376.502L216.799 388.569L235.437 375.891L243.684 394.664L267.626 397.712L256.043 418.251L272.012 438.746L244.378 447.512L243.115 466.808L217.967 463.998L215.253 484.438L199.935 478.852L191.856 542.943Z" fill="#010AC9"/>
<mask id="path-7-inside-1_68_22" fill="white">
<path fill-rule="evenodd" clip-rule="evenodd" d="M988.734 334.016C988.791 332.468 987.35 331.286 985.852 331.685V331.685C911.253 351.548 867.096 428.17 887.226 502.824C907.355 577.477 984.147 621.893 1058.75 602.029V602.029C1059.84 601.737 1060.33 600.467 1059.73 599.503C1035.77 561.21 1017 518.785 1004.64 472.94C992.097 426.435 987.042 379.701 988.734 334.016Z"/>
</mask>
<path fill-rule="evenodd" clip-rule="evenodd" d="M988.734 334.016C988.791 332.468 987.35 331.286 985.852 331.685V331.685C911.253 351.548 867.096 428.17 887.226 502.824C907.355 577.477 984.147 621.893 1058.75 602.029V602.029C1059.84 601.737 1060.33 600.467 1059.73 599.503C1035.77 561.21 1017 518.785 1004.64 472.94C992.097 426.435 987.042 379.701 988.734 334.016Z" fill="#FF5903"/>
<path d="M1059.73 599.503L1055.2 602.318L1059.73 599.503ZM892.379 501.451C873.015 429.634 915.495 355.938 987.24 336.834L984.463 326.535C907.01 347.159 861.178 426.706 882.072 504.196L892.379 501.451ZM1057.36 596.88C985.612 615.984 911.744 573.269 892.379 501.451L882.072 504.196C902.966 581.686 982.681 627.803 1060.13 607.179L1057.36 596.88ZM1064.25 596.689C1040.57 558.837 1022.01 516.898 1009.79 471.568L999.482 474.312C1011.98 520.672 1030.97 563.582 1055.2 602.318L1064.25 596.689ZM1009.79 471.568C997.391 425.585 992.395 379.385 994.068 334.227L983.4 333.805C981.688 380.018 986.802 427.286 999.482 474.312L1009.79 471.568ZM1060.13 607.179C1064.77 605.944 1066.71 600.624 1064.25 596.689L1055.2 602.318C1053.94 600.309 1054.92 597.53 1057.36 596.88L1060.13 607.179ZM987.24 336.834C985.16 337.388 983.329 335.73 983.4 333.805L994.068 334.227C994.254 329.205 989.541 325.183 984.463 326.535L987.24 336.834Z" fill="black" mask="url(#path-7-inside-1_68_22)"/>
<path d="M1058.48 599.341C985.305 618.825 909.974 575.259 890.228 502.024C870.481 428.788 913.799 353.63 986.971 334.146C1060.14 314.662 1135.47 358.227 1155.22 431.463C1174.97 504.698 1131.65 579.857 1058.48 599.341Z" stroke="black" stroke-width="5.33333"/>
<path fill-rule="evenodd" clip-rule="evenodd" d="M1058.97 600.221C1060.63 553.814 1055.47 506.357 1042.73 459.133C1030.26 412.873 1011.39 370.027 987.321 331.293C985.663 377.7 990.83 425.157 1003.56 472.381C1016.04 518.641 1034.91 561.487 1058.97 600.221Z" fill="#D04700"/>
<path fill-rule="evenodd" clip-rule="evenodd" d="M1058.77 602.023C1056.52 602.614 1054.15 601.671 1052.92 599.7C1029.33 561.771 1010.84 519.816 998.625 474.524C986.159 428.289 981.111 381.813 982.759 336.356C982.843 334.04 984.435 332.054 986.681 331.463C988.927 330.873 991.3 331.816 992.526 333.787C1016.12 371.716 1034.61 413.671 1046.82 458.963C1059.29 505.198 1064.34 551.674 1062.69 597.13C1062.6 599.446 1061.01 601.433 1058.77 602.023ZM1052.35 588.601C1031.44 553.321 1014.92 514.664 1003.73 473.166C992.286 430.737 987.165 388.111 987.789 346.282C987.833 343.327 987.906 340.376 988.007 337.43C988.016 337.167 988.36 337.076 988.499 337.3C990.054 339.811 991.587 342.339 993.096 344.886C1014.01 380.165 1030.53 418.823 1041.72 460.321C1053.16 502.749 1058.28 545.375 1057.66 587.205C1057.61 590.16 1057.54 593.111 1057.44 596.057C1057.43 596.32 1057.09 596.41 1056.95 596.186C1055.39 593.676 1053.86 591.147 1052.35 588.601Z" fill="black"/>
<mask id="path-12-inside-2_68_22" fill="white">
<path fill-rule="evenodd" clip-rule="evenodd" d="M525.398 1057.41C523.883 1057.75 523.115 1059.44 523.894 1060.78V1060.78C562.674 1127.53 648.48 1150.45 715.545 1111.97C782.61 1073.49 805.539 988.189 766.759 921.438V921.438C766.188 920.457 764.83 920.314 764.054 921.141C733.222 954.004 697.03 982.931 655.845 1006.56C614.067 1030.53 570.108 1047.35 525.398 1057.41Z"/>
</mask>
<path fill-rule="evenodd" clip-rule="evenodd" d="M525.398 1057.41C523.883 1057.75 523.115 1059.44 523.894 1060.78V1060.78C562.674 1127.53 648.48 1150.45 715.545 1111.97C782.61 1073.49 805.539 988.189 766.759 921.438V921.438C766.188 920.457 764.83 920.314 764.054 921.141C733.222 954.004 697.03 982.931 655.845 1006.56C614.067 1030.53 570.108 1047.35 525.398 1057.41Z" fill="#FF5903"/>
<path d="M764.054 921.141L760.142 917.504L764.054 921.141ZM712.866 1107.36C648.348 1144.38 565.817 1122.32 528.52 1058.13L519.268 1063.43C559.532 1132.74 648.611 1156.52 718.224 1116.58L712.866 1107.36ZM762.133 924.093C799.43 988.289 777.383 1070.34 712.866 1107.36L718.224 1116.58C787.837 1076.64 811.649 988.089 771.385 918.784L762.133 924.093ZM760.142 917.504C729.666 949.987 693.889 978.585 653.166 1001.95L658.524 1011.17C700.172 987.278 736.778 958.02 767.966 924.778L760.142 917.504ZM653.166 1001.95C611.857 1025.65 568.4 1042.28 524.206 1052.22L526.59 1062.6C571.816 1052.43 616.278 1035.41 658.524 1011.17L653.166 1001.95ZM771.385 918.784C768.974 914.636 763.311 914.127 760.142 917.504L767.966 924.778C766.349 926.501 763.402 926.278 762.133 924.093L771.385 918.784ZM528.52 1058.13C529.601 1059.99 528.475 1062.18 526.59 1062.6L524.206 1052.22C519.291 1053.32 516.628 1058.89 519.268 1063.43L528.52 1058.13Z" fill="black" mask="url(#path-12-inside-2_68_22)"/>
<path d="M764.224 922.385C802.263 987.859 779.775 1071.54 713.984 1109.29C648.193 1147.03 564.024 1124.55 525.985 1059.07C487.946 993.599 510.434 909.92 576.226 872.172C642.017 834.425 726.185 856.911 764.224 922.385Z" stroke="black" stroke-width="5.33333"/>
<path fill-rule="evenodd" clip-rule="evenodd" d="M764.947 921.682C719.547 931.955 674.916 949.069 632.492 973.41C590.935 997.253 554.36 1026.39 523.13 1059.47C568.531 1049.19 613.162 1032.08 655.585 1007.74C697.143 983.894 733.717 954.761 764.947 921.682Z" fill="#D04700"/>
<path fill-rule="evenodd" clip-rule="evenodd" d="M766.748 921.419C767.909 923.431 767.616 925.957 766.027 927.642C735.453 960.059 699.643 988.599 658.955 1011.94C617.42 1035.77 573.708 1052.52 529.231 1062.56C526.965 1063.07 524.624 1062.05 523.463 1060.04C522.302 1058.03 522.595 1055.5 524.184 1053.82C554.758 1021.4 590.568 992.858 631.256 969.514C672.792 945.684 716.503 928.935 760.98 918.894C763.246 918.383 765.587 919.408 766.748 921.419ZM755.422 931.03C726.715 960.195 693.583 985.99 656.303 1007.38C618.187 1029.25 578.226 1045.08 537.531 1055.18C534.656 1055.89 531.778 1056.58 528.897 1057.23C528.64 1057.29 528.462 1056.99 528.643 1056.79C530.668 1054.65 532.717 1052.53 534.789 1050.43C563.496 1021.26 596.628 995.468 633.908 974.079C672.024 952.21 711.986 936.376 752.68 926.277C755.555 925.564 758.433 924.879 761.314 924.223C761.571 924.164 761.749 924.472 761.568 924.663C759.543 926.802 757.494 928.925 755.422 931.03Z" fill="black"/>
<mask id="path-17-inside-3_68_22" fill="white">
<path fill-rule="evenodd" clip-rule="evenodd" d="M323.556 311.643C322.017 311.447 320.716 312.775 320.987 314.302V314.302C334.474 390.313 407.147 441.113 483.306 427.768C559.465 414.423 610.271 341.986 596.784 265.975V265.975C596.586 264.857 595.36 264.26 594.348 264.773C554.127 285.183 510.225 300.064 463.455 308.259C416.012 316.572 368.975 317.418 323.556 311.643Z"/>
</mask>
<path fill-rule="evenodd" clip-rule="evenodd" d="M323.556 311.643C322.017 311.447 320.716 312.775 320.987 314.302V314.302C334.474 390.313 407.147 441.113 483.306 427.768C559.465 414.423 610.271 341.986 596.784 265.975V265.975C596.586 264.857 595.36 264.26 594.348 264.773C554.127 285.183 510.225 300.064 463.455 308.259C416.012 316.572 368.975 317.418 323.556 311.643Z" fill="#010AC9"/>
<path d="M594.348 264.773L596.771 269.528L594.348 264.773ZM482.374 422.517C409.108 435.355 339.211 386.484 326.24 313.381L315.734 315.222C329.737 394.141 405.185 446.872 484.238 433.02L482.374 422.517ZM591.531 266.895C604.502 339.998 555.64 409.679 482.374 422.517L484.238 433.02C563.291 419.168 616.041 343.973 602.038 265.054L591.531 266.895ZM591.925 260.019C552.168 280.192 508.768 294.904 462.523 303.008L464.387 313.51C511.682 305.223 556.085 290.173 596.771 269.528L591.925 260.019ZM462.523 303.008C415.613 311.227 369.114 312.062 324.219 306.354L322.893 316.931C368.837 322.773 416.412 321.917 464.387 313.51L462.523 303.008ZM602.038 265.054C601.199 260.33 596.058 257.922 591.925 260.019L596.771 269.528C594.662 270.598 591.973 269.384 591.531 266.895L602.038 265.054ZM326.24 313.381C326.616 315.501 324.808 317.175 322.893 316.931L324.219 306.354C319.226 305.719 314.816 310.049 315.734 315.222L326.24 313.381Z" fill="black" mask="url(#path-17-inside-3_68_22)"/>
<path d="M594.08 266.002C607.309 340.559 557.475 411.618 482.763 424.709C408.05 437.801 336.765 387.965 323.536 313.408C310.307 238.851 360.141 167.792 434.853 154.7C509.566 141.609 580.851 191.445 594.08 266.002Z" stroke="black" stroke-width="5.33333"/>
<path fill-rule="evenodd" clip-rule="evenodd" d="M594.999 265.586C548.858 259.78 501.09 260.671 452.914 269.113C405.721 277.383 361.39 292.327 320.72 312.804C366.862 318.61 414.63 317.719 462.806 309.277C509.999 301.007 554.33 286.063 594.999 265.586Z" fill="#000579"/>
<path fill-rule="evenodd" clip-rule="evenodd" d="M596.78 265.954C597.179 268.241 596.037 270.518 593.967 271.561C554.14 291.64 510.731 306.286 464.526 314.382C417.358 322.647 370.578 323.508 325.384 317.797C323.081 317.506 321.235 315.744 320.837 313.456C320.438 311.169 321.58 308.892 323.65 307.849C363.476 287.77 406.886 273.124 453.091 265.028C500.259 256.763 547.038 255.902 592.233 261.613C594.535 261.904 596.381 263.666 596.78 265.954ZM582.85 271.135C545.892 288.79 505.938 301.766 463.603 309.184C420.319 316.769 377.374 318.047 335.709 313.681C332.766 313.372 329.829 313.036 326.899 312.671C326.638 312.638 326.577 312.288 326.812 312.17C329.448 310.848 332.099 309.549 334.766 308.275C371.724 290.621 411.679 277.644 454.014 270.226C497.298 262.641 540.243 261.363 581.908 265.729C584.851 266.038 587.788 266.375 590.717 266.739C590.979 266.772 591.04 267.122 590.805 267.24C588.169 268.562 585.517 269.861 582.85 271.135Z" fill="black"/>
<mask id="path-22-inside-4_68_22" fill="white">
<path fill-rule="evenodd" clip-rule="evenodd" d="M933.052 223.996C931.501 224.069 930.451 225.601 930.984 227.057V227.057C957.534 299.546 1038 336.991 1110.71 310.692C1183.42 284.393 1220.84 204.31 1194.29 131.821V131.821C1193.9 130.754 1192.59 130.379 1191.68 131.059C1155.61 158.1 1114.95 180.335 1070.3 196.486C1025.01 212.868 978.81 221.83 933.052 223.996Z"/>
</mask>
<path fill-rule="evenodd" clip-rule="evenodd" d="M933.052 223.996C931.501 224.069 930.451 225.601 930.984 227.057V227.057C957.534 299.546 1038 336.991 1110.71 310.692C1183.42 284.393 1220.84 204.31 1194.29 131.821V131.821C1193.9 130.754 1192.59 130.379 1191.68 131.059C1155.61 158.1 1114.95 180.335 1070.3 196.486C1025.01 212.868 978.81 221.83 933.052 223.996Z" fill="#FFD916"/>
<path d="M1191.68 131.059L1188.46 126.798L1191.68 131.059ZM1108.88 305.684C1038.93 330.984 961.533 294.959 935.999 225.243L925.969 228.871C953.534 304.133 1037.07 342.998 1112.54 315.7L1108.88 305.684ZM1189.27 133.635C1214.81 203.35 1178.82 280.384 1108.88 305.684L1112.54 315.7C1188.02 288.402 1226.87 205.269 1199.3 130.006L1189.27 133.635ZM1188.46 126.798C1152.81 153.526 1112.62 175.509 1068.47 191.478L1072.13 201.494C1117.29 185.162 1158.41 162.674 1194.9 135.32L1188.46 126.798ZM1068.47 191.478C1023.68 207.676 978.012 216.535 932.782 218.675L933.321 229.316C979.608 227.126 1026.33 218.06 1072.13 201.494L1068.47 191.478ZM1199.3 130.006C1197.65 125.501 1192.17 124.019 1188.46 126.798L1194.9 135.32C1193 136.738 1190.14 136.008 1189.27 133.635L1199.3 130.006ZM935.999 225.243C936.74 227.265 935.25 229.225 933.321 229.316L932.782 218.675C927.752 218.913 924.162 223.937 925.969 228.871L935.999 225.243Z" fill="black" mask="url(#path-22-inside-4_68_22)"/>
<path d="M1191.63 132.314C1217.67 203.417 1180.97 281.975 1109.64 307.775C1038.31 333.574 959.381 296.839 933.34 225.737C907.298 154.634 944.001 76.0754 1015.33 50.2761C1086.66 24.4769 1165.59 61.2116 1191.63 132.314Z" stroke="black" stroke-width="5.33333"/>
<path fill-rule="evenodd" clip-rule="evenodd" d="M1192.46 131.746C1145.99 134.006 1099.08 143.139 1053.09 159.775C1008.03 176.071 966.959 198.443 930.461 225.629C976.936 223.369 1023.84 214.236 1069.84 197.6C1114.89 181.304 1155.97 158.932 1192.46 131.746Z" fill="#C76C00"/>
<path fill-rule="evenodd" clip-rule="evenodd" d="M1194.28 131.8C1195.07 133.983 1194.35 136.421 1192.49 137.806C1156.75 164.454 1116.54 186.373 1072.42 202.328C1027.39 218.616 981.451 227.548 935.926 229.738C933.607 229.85 931.48 228.434 930.688 226.251C929.896 224.068 930.624 221.63 932.482 220.245C968.219 193.598 1008.43 171.679 1052.55 155.723C1097.58 139.436 1143.52 130.503 1189.04 128.313C1191.36 128.202 1193.49 129.617 1194.28 131.8ZM1181.46 139.308C1148.13 163.073 1111.02 182.752 1070.61 197.371C1029.28 212.318 987.194 220.999 945.381 223.901C942.427 224.106 939.475 224.283 936.525 224.43C936.262 224.443 936.14 224.109 936.351 223.952C938.717 222.195 941.103 220.458 943.509 218.743C976.843 194.978 1013.94 175.299 1054.36 160.68C1095.69 145.734 1137.78 137.053 1179.59 134.15C1182.54 133.945 1185.49 133.769 1188.44 133.621C1188.71 133.608 1188.83 133.942 1188.62 134.099C1186.25 135.857 1183.87 137.593 1181.46 139.308Z" fill="black"/>
<mask id="path-27-inside-5_68_22" fill="white">
<path fill-rule="evenodd" clip-rule="evenodd" d="M988.639 647.031C990.015 646.309 990.32 644.479 989.22 643.386V643.386C934.462 588.97 845.611 589.04 790.767 643.541C735.923 698.043 735.853 786.338 790.611 840.754V840.754C791.416 841.555 792.766 841.341 793.301 840.342C814.586 800.636 842.07 763.343 875.75 729.873C909.915 695.922 948.038 668.307 988.639 647.031Z"/>
</mask>
<path fill-rule="evenodd" clip-rule="evenodd" d="M988.639 647.031C990.015 646.309 990.32 644.479 989.22 643.386V643.386C934.462 588.97 845.611 589.04 790.767 643.541C735.923 698.043 735.853 786.338 790.611 840.754V840.754C791.416 841.555 792.766 841.341 793.301 840.342C814.586 800.636 842.07 763.343 875.75 729.873C909.915 695.922 948.038 668.307 988.639 647.031Z" fill="#010AC9"/>
<path d="M794.55 647.301C847.311 594.87 932.774 594.811 985.437 647.146L993.003 639.627C936.15 583.129 843.912 583.21 786.984 639.782L794.55 647.301ZM794.394 836.995C741.731 784.661 741.789 699.732 794.55 647.301L786.984 639.782C730.056 696.354 729.975 788.016 786.828 844.514L794.394 836.995ZM798.023 842.842C819.062 803.594 846.231 766.727 879.533 733.632L871.967 726.113C837.909 759.959 810.11 797.678 788.579 837.842L798.023 842.842ZM879.533 733.632C913.314 700.062 951.003 672.764 991.135 651.733L986.144 642.328C945.074 663.85 906.515 691.781 871.967 726.113L879.533 733.632ZM786.828 844.514C790.231 847.896 795.836 846.922 798.023 842.842L788.579 837.842C789.696 835.76 792.601 835.214 794.394 836.995L786.828 844.514ZM985.437 647.146C983.91 645.628 984.432 643.225 986.144 642.328L991.135 651.733C995.598 649.394 996.73 643.33 993.003 639.627L985.437 647.146Z" fill="black" mask="url(#path-27-inside-5_68_22)"/>
<path d="M792.815 839.185C739.104 785.81 739.168 699.197 792.971 645.731C846.773 592.265 933.93 592.201 987.641 645.576C1041.35 698.951 1041.29 785.563 987.485 839.03C933.682 892.496 846.525 892.56 792.815 839.185Z" stroke="black" stroke-width="5.33333"/>
<path fill-rule="evenodd" clip-rule="evenodd" d="M792.299 840.051C833.511 818.386 872.208 790.316 906.901 755.84C940.886 722.067 968.685 684.476 990.299 644.458C949.087 666.123 910.39 694.193 875.697 728.669C841.712 762.442 813.913 800.033 792.299 840.051Z" fill="#000579"/>
<path fill-rule="evenodd" clip-rule="evenodd" d="M790.627 840.77C788.985 839.128 788.614 836.614 789.713 834.576C810.864 795.366 838.079 758.546 871.352 725.481C905.319 691.726 943.222 664.246 983.602 643.046C985.659 641.966 988.187 642.35 989.83 643.992C991.472 645.634 991.843 648.148 990.744 650.186C969.593 689.396 942.378 726.215 909.104 759.281C875.138 793.035 837.234 820.515 796.855 841.716C794.797 842.796 792.27 842.412 790.627 840.77ZM799.083 828.561C819.273 792.975 844.61 759.498 875.097 729.202C906.267 698.227 940.783 672.6 977.493 652.321C980.086 650.889 982.69 649.483 985.305 648.104C985.538 647.981 985.789 648.233 985.664 648.464C984.261 651.053 982.831 653.632 981.374 656.201C961.184 691.787 935.846 725.264 905.36 755.56C874.19 786.535 839.673 812.162 802.964 832.441C800.371 833.873 797.767 835.279 795.152 836.658C794.919 836.781 794.667 836.529 794.793 836.298C796.196 833.709 797.626 831.129 799.083 828.561Z" fill="black"/>
<path fill-rule="evenodd" clip-rule="evenodd" d="M412.859 776.573C373.499 751.933 329.817 732.679 282.554 720.094C236.255 707.766 189.712 702.687 144.136 704.16C183.495 728.8 227.178 748.055 274.441 760.64C320.74 772.968 367.282 778.046 412.859 776.573Z" fill="#D04700"/>
<path fill-rule="evenodd" clip-rule="evenodd" d="M414.317 777.654C413.706 779.894 411.703 781.477 409.382 781.553C364.74 783.019 319.159 778.057 273.829 765.987C227.556 753.666 184.782 734.799 146.24 710.643C144.277 709.412 143.353 707.04 143.964 704.8C144.575 702.559 146.579 700.976 148.899 700.9C193.542 699.434 239.123 704.396 284.452 716.466C330.726 728.788 373.499 747.655 412.041 771.811C414.005 773.041 414.929 775.413 414.317 777.654ZM399.486 776.498C358.475 776.972 316.736 771.949 275.204 760.89C232.74 749.583 193.264 732.705 157.351 711.249C154.814 709.733 152.295 708.195 149.794 706.634C149.571 706.495 149.665 706.152 149.928 706.144C152.88 706.052 155.836 705.99 158.795 705.955C199.807 705.481 241.545 710.504 283.078 721.563C325.542 732.87 365.017 749.749 400.93 771.204C403.467 772.72 405.986 774.258 408.487 775.819C408.71 775.958 408.617 776.302 408.353 776.31C405.402 776.401 402.446 776.464 399.486 776.498Z" fill="black"/>
<path fill-rule="evenodd" clip-rule="evenodd" d="M389.041 736.629L395.489 732.908L391.777 726.48L396.889 721.055L391.634 716.123L394.915 709.697L388.553 706.473L389.928 699.475L382.894 698.118L382.273 690.989L374.993 691.639L372.314 684.857L365.31 687.629L360.64 681.748L354.907 686.29L348.926 682.108L344.802 687.972L338.03 685.656L335.699 692.399L328.567 692.03L328.175 699.225L323.561 700.314L322.786 691.427L310.651 692.511L306.185 681.209L294.509 685.828L286.725 676.027L277.173 683.597L267.205 676.628L262.062 683.94L258.616 680.705L261.897 674.279L255.534 671.055L256.909 664.057L249.88 662.701L249.26 655.571L241.975 656.221L239.296 649.439L232.292 652.211L227.621 646.33L221.889 650.872L215.907 646.69L211.782 652.556L205.01 650.239L202.679 656.983L195.55 656.612L195.159 663.808L188.126 665.468L189.823 672.707L183.375 676.429L187.087 682.856L181.975 688.281L187.23 693.213L183.949 699.639L190.311 702.863L188.937 709.861L195.965 711.218L196.587 718.345L203.87 717.698L206.55 724.48L213.554 721.707L215.815 724.555L212.98 726.191L219.167 736.903L210.646 745.945L219.405 754.165L213.939 764.876L224.543 770.25L222.252 781.913L233.97 784.178L235.006 796.057L247.144 794.975L251.609 806.277L263.278 801.656L271.063 811.457L280.62 803.888L290.587 810.858L297.461 801.085L308.748 804.945L312.632 793.706L324.519 794.321L325.173 782.329L336.894 779.562L334.062 767.496L344.807 761.293L343.176 758.469L346.572 757.125L351.242 763.006L356.975 758.464L362.955 762.646L367.079 756.782L373.852 759.098L376.182 752.355L383.314 752.724L383.706 745.528L390.738 743.868L389.041 736.629ZM391.18 726.485C391.186 726.432 391.193 726.38 391.2 726.327L391.296 726.418L391.18 726.485ZM346.711 756.603L346.849 756.64L346.661 756.79L346.573 756.567L346.711 756.603ZM365.033 688.116L365.222 687.966L365.31 688.19L365.172 688.153C365.131 688.14 365.092 688.13 365.054 688.121L365.033 688.116ZM388.528 736.33L388.595 736.445L388.466 736.476L388.477 736.447L388.484 736.43L388.495 736.402C388.505 736.378 388.515 736.353 388.526 736.329L388.528 736.33ZM190.337 673.007L190.27 672.891L190.399 672.861L190.379 672.91C190.365 672.943 190.352 672.976 190.338 673.007L190.337 673.007ZM187.683 682.851C187.68 682.872 187.677 682.892 187.675 682.913C187.671 682.945 187.666 682.976 187.663 683.008L187.567 682.918L187.683 682.851ZM213.694 721.186L213.833 721.223L213.644 721.372L213.556 721.149L213.694 721.186ZM232.013 652.697L232.201 652.547L232.289 652.771L232.151 652.734C232.113 652.722 232.074 652.713 232.036 652.703L232.013 652.697ZM220.153 737.002C220.157 736.967 220.162 736.932 220.166 736.897L219.972 737.008L220.133 737.159C220.139 737.107 220.146 737.055 220.153 737.003L220.153 737.002ZM263.743 800.848L263.512 800.787C263.488 800.78 263.463 800.773 263.438 800.766C263.387 800.752 263.335 800.738 263.281 800.725L263.429 801.097L263.743 800.848ZM294.358 686.389L294.043 686.638L294.045 686.639C294.071 686.646 294.097 686.652 294.123 686.659C294.174 686.672 294.225 686.685 294.275 686.7L294.505 686.761L294.358 686.389ZM333.204 766.997C333.192 767.024 333.18 767.052 333.169 767.079C333.156 767.109 333.143 767.139 333.129 767.17C333.119 767.193 333.109 767.216 333.099 767.238L333.313 767.187L333.204 766.997Z" fill="#000579"/>
<mask id="path-35-inside-6_68_22" fill="white">
<path fill-rule="evenodd" clip-rule="evenodd" d="M147.199 704.298C145.887 703.474 144.143 704.131 143.739 705.628V705.628C123.642 780.164 167.919 856.716 242.635 876.611C317.351 896.506 394.213 852.211 414.31 777.674V777.674C414.606 776.578 413.748 775.522 412.613 775.563C367.471 777.162 321.345 772.207 275.461 759.989C228.917 747.596 185.917 728.606 147.199 704.298Z"/>
</mask>
<path fill-rule="evenodd" clip-rule="evenodd" d="M147.199 704.298C145.887 703.474 144.143 704.131 143.739 705.628V705.628C123.642 780.164 167.919 856.716 242.635 876.611C317.351 896.506 394.213 852.211 414.31 777.674V777.674C414.606 776.578 413.748 775.522 412.613 775.563C367.471 777.162 321.345 772.207 275.461 759.989C228.917 747.596 185.917 728.606 147.199 704.298Z" fill="#FF5903"/>
<path d="M244.023 871.462C172.146 852.323 129.564 778.685 148.893 707L138.585 704.256C117.719 781.644 163.692 861.11 241.246 881.761L244.023 871.462ZM409.156 776.302C389.828 847.987 315.901 890.601 244.023 871.462L241.246 881.761C318.801 902.412 398.598 856.435 419.464 779.047L409.156 776.302ZM412.438 770.237C367.818 771.818 322.218 766.92 276.85 754.84L274.073 765.138C320.471 777.493 367.125 782.506 412.787 780.888L412.438 770.237ZM276.85 754.84C230.828 742.585 188.32 723.812 150.049 699.784L144.349 708.812C183.515 733.401 227.007 752.606 274.073 765.138L276.85 754.84ZM419.464 779.047C420.713 774.414 417.076 770.072 412.438 770.237L412.787 780.888C410.42 780.972 408.499 778.742 409.156 776.302L419.464 779.047ZM148.893 707C148.332 709.079 145.981 709.836 144.349 708.812L150.049 699.784C145.793 697.112 139.953 699.183 138.585 704.256L148.893 707Z" fill="black" mask="url(#path-35-inside-6_68_22)"/>
<path d="M411.848 776.563C392.135 849.674 316.741 893.129 243.444 873.612C170.147 854.094 126.718 779 146.431 705.889C166.144 632.779 241.538 589.324 314.835 608.841C388.132 628.358 431.561 703.453 411.848 776.563Z" stroke="black" stroke-width="5.33333"/>
<path fill-rule="evenodd" clip-rule="evenodd" d="M1420.32 454.762C1388.66 420.826 1351.43 390.974 1309.01 366.633C1267.45 342.79 1223.78 325.88 1179.33 315.543C1210.99 349.479 1248.22 379.331 1290.64 403.672C1332.2 427.515 1375.87 444.425 1420.32 454.762Z" fill="#A0004C"/>
<path fill-rule="evenodd" clip-rule="evenodd" d="M1421.45 456.181C1420.27 458.185 1417.93 459.196 1415.66 458.671C1372.12 448.568 1329.35 432.019 1288.66 408.674C1247.12 384.844 1210.67 355.599 1179.68 322.342C1178.11 320.648 1177.83 318.12 1179 316.115C1180.17 314.111 1182.52 313.1 1184.78 313.625C1228.32 323.729 1271.1 340.278 1311.79 363.622C1353.32 387.453 1389.77 416.697 1420.76 449.954C1422.34 451.649 1422.62 454.176 1421.45 456.181ZM1407.41 451.239C1367.64 441.115 1328.59 425.499 1291.31 404.11C1253.2 382.241 1219.42 355.767 1190.27 325.794C1188.21 323.676 1186.17 321.542 1184.16 319.39C1183.98 319.198 1184.16 318.891 1184.42 318.951C1187.29 319.625 1190.17 320.327 1193.04 321.057C1232.81 331.181 1271.85 346.797 1309.13 368.186C1347.25 390.055 1381.03 416.53 1410.18 446.503C1412.24 448.62 1414.27 450.754 1416.29 452.906C1416.47 453.098 1416.29 453.405 1416.03 453.345C1413.15 452.671 1410.28 451.969 1407.41 451.239Z" fill="black"/>
<path fill-rule="evenodd" clip-rule="evenodd" d="M1407.66 410.066L1414.86 408.139L1412.94 400.978L1419.29 397.06L1415.49 390.945L1420.33 385.589L1415.02 380.836L1418.17 374.437L1411.72 371.312L1412.97 364.273L1405.76 363.021L1404.93 355.785L1397.44 356.653L1394.45 349.772L1387.73 352.677L1383.04 347.098L1377.53 351.693L1371.58 347.71L1367.58 353.617L1360.78 351.42L1358.53 358.264L1353.79 358.124L1355.35 349.347L1343.33 347.262L1341.95 335.202L1329.46 336.648L1324.48 325.18L1313.28 330.022L1305.46 320.724L1298.59 326.454L1296.1 322.443L1300.94 317.087L1295.62 312.334L1298.77 305.935L1292.32 302.813L1293.58 295.771L1286.37 294.519L1285.54 287.283L1278.05 288.151L1275.06 281.27L1268.34 284.175L1263.64 278.595L1258.13 283.193L1252.18 279.209L1248.18 285.116L1241.38 282.919L1239.14 289.763L1231.91 289.55L1231.67 296.975L1224.47 298.903L1226.39 306.063L1220.04 309.981L1223.84 316.096L1219 321.452L1224.31 326.205L1221.16 332.604L1227.61 335.727L1226.36 342.766L1233.57 344.02L1234.4 351.257L1241.89 350.388L1243.33 353.72L1240.17 354.567L1243.37 366.501L1232.78 373.03L1239.12 383.223L1231.05 392.15L1239.91 400.072L1234.67 410.738L1245.4 415.947L1243.32 427.679L1255.34 429.766L1256.72 441.825L1269.2 440.376L1274.18 451.844L1285.39 447.005L1293.21 456.303L1302.39 448.645L1312.3 455.283L1318.98 445.438L1330.31 449.099L1334.05 437.694L1346.1 438.047L1346.5 425.671L1358.5 422.457L1357.65 419.311L1361.28 418.89L1364.27 425.771L1370.99 422.866L1375.69 428.445L1381.2 423.85L1387.15 427.833L1391.15 421.925L1397.95 424.122L1400.19 417.278L1407.42 417.491L1407.66 410.066ZM1412.36 400.828C1412.38 400.779 1412.4 400.73 1412.42 400.681L1412.49 400.793L1412.36 400.828ZM1361.55 418.422L1361.68 418.493L1361.46 418.589L1361.43 418.351L1361.55 418.422ZM1397.05 357.051L1397.27 356.955L1397.3 357.194L1397.17 357.123C1397.14 357.1 1397.1 357.081 1397.07 357.062L1397.05 357.051ZM1407.24 409.645L1407.28 409.774L1407.15 409.77L1407.16 409.745L1407.18 409.73L1407.19 409.707C1407.21 409.685 1407.23 409.664 1407.24 409.644L1407.24 409.645ZM1232.09 297.397L1232.05 297.268L1232.18 297.272L1232.15 297.314C1232.13 297.343 1232.11 297.371 1232.09 297.398L1232.09 297.397ZM1226.96 306.213C1226.96 306.232 1226.95 306.251 1226.94 306.27C1226.93 306.3 1226.92 306.329 1226.9 306.359L1226.84 306.247L1226.96 306.213ZM1242.16 349.921L1242.28 349.992L1242.06 350.088L1242.03 349.85L1242.16 349.921ZM1277.65 288.548L1277.87 288.452L1277.9 288.691L1277.77 288.62C1277.74 288.598 1277.7 288.579 1277.67 288.56L1277.65 288.548ZM1244.3 366.852C1244.31 366.819 1244.32 366.786 1244.34 366.754L1244.12 366.811L1244.24 366.998C1244.26 366.949 1244.28 366.901 1244.3 366.853L1244.3 366.852ZM1269.86 439.717L1269.65 439.598C1269.63 439.585 1269.61 439.572 1269.59 439.559C1269.54 439.532 1269.49 439.505 1269.44 439.479L1269.49 439.876L1269.86 439.717ZM1329.17 337.15L1328.8 337.309L1328.81 337.31C1328.83 337.324 1328.85 337.337 1328.88 337.35C1328.92 337.375 1328.97 337.401 1329.01 337.429L1329.22 337.547L1329.17 337.15ZM1345.8 424.968C1345.78 424.991 1345.76 425.015 1345.74 425.038C1345.72 425.064 1345.7 425.09 1345.68 425.116C1345.67 425.135 1345.65 425.155 1345.63 425.174L1345.85 425.18L1345.8 424.968Z" fill="#000579"/>
<mask id="path-41-inside-7_68_22" fill="white">
<path fill-rule="evenodd" clip-rule="evenodd" d="M1182.26 316.467C1181.21 315.334 1179.35 315.517 1178.57 316.858V316.858C1139.79 383.609 1162.72 468.913 1229.78 507.392C1296.85 545.87 1382.65 522.951 1421.43 456.2V456.2C1422.01 455.219 1421.45 453.978 1420.34 453.724C1376.29 443.621 1332.98 426.938 1291.8 403.308C1250.02 379.338 1213.38 349.917 1182.26 316.467Z"/>
</mask>
<path fill-rule="evenodd" clip-rule="evenodd" d="M1182.26 316.467C1181.21 315.334 1179.35 315.517 1178.57 316.858V316.858C1139.79 383.609 1162.72 468.913 1229.78 507.392C1296.85 545.87 1382.65 522.951 1421.43 456.2V456.2C1422.01 455.219 1421.45 453.978 1420.34 453.724C1376.29 443.621 1332.98 426.938 1291.8 403.308C1250.02 379.338 1213.38 349.917 1182.26 316.467Z" fill="#FF1A87"/>
<path d="M1420.34 453.724L1421.56 448.539L1420.34 453.724ZM1182.26 316.467L1186.19 312.846L1182.26 316.467ZM1232.46 502.78C1167.95 465.764 1145.9 383.709 1183.2 319.512L1173.94 314.204C1133.68 383.508 1157.49 472.063 1227.1 512.003L1232.46 502.78ZM1416.81 453.546C1379.51 517.743 1296.98 539.796 1232.46 502.78L1227.1 512.003C1296.72 551.943 1385.8 528.159 1426.06 458.854L1416.81 453.546ZM1421.56 448.539C1378.01 438.553 1335.2 422.061 1294.48 398.696L1289.12 407.919C1330.76 431.814 1374.56 448.689 1419.13 458.909L1421.56 448.539ZM1294.48 398.696C1253.17 374.996 1216.95 345.91 1186.19 312.846L1178.33 320.088C1209.81 353.924 1246.87 383.681 1289.12 407.919L1294.48 398.696ZM1426.06 458.854C1428.47 454.706 1426.08 449.577 1421.56 448.539L1419.13 458.909C1416.82 458.379 1415.54 455.731 1416.81 453.546L1426.06 458.854ZM1183.2 319.512C1182.11 321.374 1179.64 321.498 1178.33 320.088L1186.19 312.846C1182.77 309.169 1176.58 309.661 1173.94 314.204L1183.2 319.512Z" fill="black" mask="url(#path-41-inside-7_68_22)"/>
<path d="M1419.34 454.492C1381.3 519.966 1297.14 542.452 1231.34 504.705C1165.55 466.957 1143.06 383.278 1181.1 317.804C1219.14 252.33 1303.31 229.844 1369.1 267.591C1434.89 305.339 1457.38 389.018 1419.34 454.492Z" stroke="black" stroke-width="5.33333"/>
<path fill-rule="evenodd" clip-rule="evenodd" d="M611.994 365.576C643.648 399.512 680.878 429.365 723.301 453.705C764.859 477.549 808.535 494.458 852.978 504.796C821.325 470.86 784.095 441.007 741.671 416.667C700.113 392.823 656.437 375.914 611.994 365.576Z" fill="#C76C00"/>
<path fill-rule="evenodd" clip-rule="evenodd" d="M610.865 364.158C612.038 362.153 614.386 361.142 616.649 361.667C660.187 371.771 702.963 388.32 743.651 411.664C785.187 435.495 821.639 464.739 852.627 497.997C854.206 499.691 854.483 502.219 853.311 504.223C852.138 506.228 849.79 507.239 847.527 506.714C803.989 496.61 761.213 480.061 720.525 456.717C678.989 432.886 642.537 403.641 611.549 370.384C609.97 368.69 609.693 366.162 610.865 364.158ZM624.903 369.1C664.674 379.223 703.719 394.84 740.999 416.229C779.115 438.097 812.895 464.572 842.043 494.545C844.102 496.662 846.138 498.797 848.151 500.949C848.33 501.14 848.151 501.447 847.894 501.387C845.017 500.714 842.143 500.012 839.273 499.281C799.502 489.158 760.457 473.541 723.177 452.152C685.061 430.283 651.281 403.809 622.133 373.836C620.074 371.719 618.038 369.584 616.025 367.432C615.846 367.24 616.025 366.933 616.282 366.993C619.159 367.667 622.033 368.369 624.903 369.1Z" fill="black"/>
<path fill-rule="evenodd" clip-rule="evenodd" d="M777.234 485.451C777.368 484.7 777.283 483.928 776.99 483.225C776.697 482.523 776.207 481.919 775.579 481.485C776.33 481.286 777.007 480.875 777.529 480.301C778.051 479.727 778.394 479.016 778.518 478.253C778.642 477.49 778.54 476.708 778.226 476.002C777.912 475.296 777.399 474.697 776.749 474.277C777.575 474.07 778.314 473.608 778.859 472.957C779.405 472.306 779.729 471.499 779.784 470.654C779.801 470.395 779.793 470.136 779.76 469.881C781.586 469.71 783.36 469.137 784.951 468.196C787.075 466.939 788.777 465.081 789.839 462.86C790.9 460.639 791.274 458.156 790.912 455.727C793.288 456.592 795.874 456.715 798.325 456.078C800.776 455.441 802.976 454.074 804.629 452.161C806.282 450.248 807.31 447.879 807.575 445.373C807.84 442.866 807.331 440.34 806.114 438.134C808.581 438.125 810.992 437.384 813.039 436.007C815.086 434.63 816.676 432.678 817.607 430.4C818.537 428.123 818.765 425.623 818.262 423.22C817.76 420.816 816.549 418.618 814.784 416.906C816.976 415.954 818.848 414.394 820.175 412.413C821.502 410.432 822.228 408.113 822.266 405.736C822.304 403.358 821.653 401.021 820.39 399.006C819.127 396.99 817.306 395.382 815.145 394.372C815.442 394.09 815.727 393.79 816.002 393.475C817.509 391.731 818.5 389.605 818.862 387.335C819.225 385.065 818.946 382.741 818.056 380.624C817.166 378.507 815.7 376.679 813.823 375.347C811.946 374.015 809.732 373.231 807.429 373.082C808.623 370.872 809.116 368.356 808.842 365.865C808.567 363.374 807.539 361.028 805.893 359.135C804.247 357.243 802.061 355.895 799.624 355.269C797.188 354.644 794.616 354.77 792.249 355.632C792.75 353.174 792.49 350.625 791.503 348.322C790.515 346.019 788.847 344.071 786.72 342.735C784.592 341.4 782.105 340.741 779.589 340.845C777.073 340.95 774.646 341.812 772.629 343.319C772.135 341.076 771.023 339.016 769.418 337.37C767.813 335.724 765.777 334.557 763.54 333.999C761.302 333.441 758.951 333.515 756.75 334.212C754.549 334.91 752.585 336.203 751.078 337.947C750.804 338.263 750.549 338.589 750.314 338.924C748.986 336.952 747.114 335.404 744.922 334.465C742.731 333.526 740.312 333.236 737.955 333.63C735.599 334.024 733.404 335.086 731.635 336.687C729.865 338.288 728.595 340.362 727.976 342.66C726.01 341.181 723.644 340.32 721.18 340.186C718.717 340.052 716.267 340.652 714.143 341.909C712.019 343.166 710.318 345.023 709.257 347.243C708.195 349.463 707.821 351.946 708.182 354.374C705.807 353.509 703.221 353.387 700.77 354.025C698.319 354.662 696.121 356.029 694.468 357.942C692.815 359.855 691.787 362.223 691.522 364.73C691.256 367.236 691.766 369.761 692.982 371.968C690.515 371.977 688.104 372.718 686.057 374.096C684.011 375.473 682.421 377.425 681.491 379.703C680.561 381.98 680.332 384.48 680.835 386.883C681.337 389.286 682.548 391.484 684.313 393.196C682.12 394.148 680.249 395.708 678.922 397.689C677.595 399.67 676.869 401.989 676.831 404.367C676.793 406.708 677.424 409.01 678.649 411.004C678.094 411.442 677.662 412.021 677.402 412.682C677.086 413.486 677.04 414.368 677.27 415.198C676.582 414.809 675.794 414.631 675.004 414.688C674.214 414.745 673.457 415.033 672.831 415.517C672.204 416 671.735 416.657 671.483 417.405C671.23 418.153 671.206 418.958 671.413 419.718C670.721 419.395 669.95 419.275 669.191 419.374C668.431 419.473 667.716 419.786 667.129 420.277C666.542 420.767 666.108 421.414 665.878 422.142C665.649 422.869 665.633 423.646 665.833 424.381C665.141 424.058 664.371 423.94 663.613 424.04C662.854 424.139 662.14 424.452 661.554 424.942C660.968 425.432 660.534 426.078 660.304 426.805C660.074 427.531 660.057 428.307 660.256 429.041C659.564 428.717 658.793 428.598 658.034 428.697C657.274 428.796 656.559 429.109 655.972 429.6C655.385 430.09 654.951 430.737 654.721 431.464C654.492 432.192 654.476 432.969 654.676 433.703C653.984 433.38 653.213 433.26 652.453 433.359C651.694 433.458 650.979 433.772 650.392 434.262C649.805 434.753 649.371 435.4 649.141 436.127C648.912 436.854 648.896 437.631 649.096 438.366C648.404 438.043 647.633 437.925 646.874 438.024C646.116 438.124 645.401 438.437 644.815 438.927C644.228 439.418 643.794 440.064 643.565 440.791C643.335 441.518 643.319 442.294 643.518 443.029C642.825 442.706 642.054 442.587 641.294 442.686C640.534 442.786 639.819 443.1 639.232 443.591C638.644 444.081 638.21 444.729 637.98 445.457C637.75 446.185 637.734 446.962 637.934 447.698C637.232 447.37 636.449 447.252 635.68 447.359C634.911 447.466 634.188 447.792 633.601 448.299C633.014 448.806 632.586 449.471 632.37 450.214C632.155 450.957 632.16 451.745 632.386 452.484C631.622 452.114 630.758 451.996 629.92 452.147C629.082 452.298 628.313 452.71 627.725 453.324C627.137 453.938 626.759 454.721 626.647 455.562C626.535 456.402 626.695 457.255 627.102 457.997C626.279 457.787 625.41 457.842 624.62 458.156C623.83 458.469 623.159 459.024 622.705 459.74C622.251 460.456 622.037 461.297 622.094 462.14C622.151 462.984 622.476 463.788 623.022 464.434C623.034 464.449 623.047 464.463 623.061 464.477C623.069 464.486 623.078 464.495 623.087 464.504C622.261 464.578 621.477 464.905 620.845 465.44C620.212 465.975 619.761 466.691 619.554 467.491C619.347 468.291 619.394 469.134 619.688 469.904C619.983 470.675 620.511 471.335 621.199 471.793C620.429 472.098 619.772 472.633 619.318 473.325C618.865 474.016 618.637 474.829 618.667 475.653C618.697 476.477 618.983 477.271 619.485 477.925C619.987 478.58 620.681 479.063 621.471 479.308C621.451 479.323 621.431 479.338 621.41 479.352C621.368 479.383 621.325 479.414 621.285 479.448C620.646 479.981 620.189 480.699 619.978 481.501C619.767 482.303 619.811 483.15 620.105 483.924C620.399 484.699 620.928 485.362 621.619 485.823C622.31 486.283 623.128 486.518 623.96 486.495C623.38 487.175 623.045 488.028 623.008 488.918C622.97 489.808 623.234 490.684 623.755 491.406C624.277 492.129 625.027 492.656 625.886 492.904C626.744 493.153 627.663 493.107 628.494 492.776C628.079 493.559 627.937 494.456 628.089 495.327C628.241 496.198 628.68 496.993 629.337 497.588C629.993 498.182 630.83 498.542 631.716 498.611C632.602 498.68 633.486 498.454 634.23 497.969C634.136 498.763 634.284 499.566 634.654 500.274C635.024 500.983 635.6 501.563 636.306 501.941C637.013 502.319 637.817 502.477 638.616 502.395C639.415 502.312 640.171 501.993 640.787 501.478C640.907 501.377 641.02 501.269 641.128 501.154C641.293 501.959 641.704 502.692 642.305 503.255C642.906 503.817 643.667 504.181 644.484 504.296C645.302 504.411 646.136 504.272 646.872 503.898C647.609 503.524 648.212 502.933 648.599 502.207C648.876 502.736 649.269 503.196 649.749 503.553C650.229 503.911 650.783 504.156 651.372 504.271C651.96 504.387 652.568 504.369 653.149 504.219C653.731 504.07 654.271 503.792 654.731 503.407C655.443 502.815 655.926 501.995 656.097 501.088C656.678 501.733 657.454 502.171 658.309 502.336C659.163 502.502 660.049 502.385 660.833 502.005C661.617 501.625 662.255 501.001 662.652 500.228C663.049 499.456 663.182 498.576 663.032 497.723C663.701 498.212 664.508 498.482 665.339 498.495C666.171 498.508 666.987 498.262 667.673 497.793C668.36 497.324 668.883 496.654 669.171 495.877C669.459 495.099 669.497 494.253 669.279 493.454C669.972 493.778 670.743 493.897 671.503 493.798C672.262 493.699 672.978 493.385 673.565 492.894C674.152 492.403 674.586 491.755 674.815 491.027C675.045 490.299 675.06 489.522 674.859 488.787C675.551 489.111 676.322 489.23 677.081 489.131C677.841 489.032 678.556 488.719 679.143 488.228C679.73 487.738 680.164 487.091 680.394 486.364C680.623 485.636 680.639 484.859 680.439 484.125C681.131 484.448 681.902 484.567 682.661 484.469C683.421 484.37 684.136 484.056 684.723 483.566C685.31 483.076 685.744 482.429 685.974 481.702C686.204 480.975 686.22 480.198 686.021 479.463C686.713 479.786 687.484 479.905 688.242 479.806C689.001 479.706 689.716 479.393 690.303 478.903C690.89 478.412 691.323 477.766 691.553 477.039C691.783 476.312 691.799 475.535 691.599 474.8C692.291 475.124 693.062 475.244 693.822 475.145C694.581 475.046 695.296 474.733 695.883 474.243C696.47 473.752 696.904 473.105 697.134 472.377C697.364 471.65 697.379 470.873 697.179 470.138C697.871 470.462 698.642 470.581 699.402 470.482C700.161 470.383 700.876 470.07 701.464 469.579C702.051 469.089 702.485 468.442 702.714 467.714C702.944 466.987 702.96 466.21 702.76 465.475C703.451 465.798 704.222 465.918 704.981 465.819C705.74 465.72 706.455 465.407 707.042 464.917C707.61 464.442 708.034 463.822 708.27 463.124C709.27 464.842 710.676 466.3 712.376 467.366C714.402 468.638 716.754 469.296 719.147 469.266C719.099 469.42 719.061 469.576 719.033 469.735C718.899 470.486 718.984 471.259 719.277 471.962C719.571 472.665 720.061 473.269 720.69 473.703C719.949 473.898 719.28 474.3 718.761 474.861C718.242 475.423 717.895 476.12 717.761 476.87C717.627 477.621 717.711 478.393 718.005 479.096C718.298 479.799 718.788 480.403 719.417 480.836C718.676 481.032 718.007 481.434 717.488 481.995C716.969 482.557 716.623 483.254 716.489 484.004C716.355 484.754 716.439 485.527 716.733 486.23C717.026 486.932 717.516 487.536 718.144 487.97C717.404 488.166 716.735 488.568 716.217 489.129C715.698 489.691 715.351 490.388 715.218 491.138C715.084 491.888 715.168 492.66 715.461 493.362C715.754 494.065 716.243 494.669 716.871 495.103C716.131 495.298 715.461 495.7 714.942 496.262C714.424 496.823 714.077 497.52 713.943 498.27C713.809 499.021 713.894 499.793 714.187 500.496C714.48 501.199 714.97 501.803 715.598 502.236C714.857 502.432 714.188 502.834 713.669 503.395C713.151 503.957 712.804 504.654 712.67 505.404C712.536 506.155 712.62 506.927 712.914 507.63C713.207 508.333 713.696 508.937 714.324 509.371C713.584 509.566 712.916 509.968 712.397 510.53C711.879 511.091 711.532 511.788 711.398 512.538C711.264 513.288 711.349 514.06 711.642 514.762C711.935 515.465 712.424 516.069 713.052 516.503C712.27 516.709 711.568 517.146 711.039 517.757C710.51 518.367 710.178 519.121 710.087 519.921C709.996 520.721 710.149 521.529 710.528 522.239C710.907 522.949 711.493 523.528 712.209 523.9C711.375 524.15 710.645 524.664 710.128 525.362C709.612 526.061 709.337 526.908 709.347 527.774C709.356 528.641 709.648 529.48 710.179 530.165C710.71 530.85 711.452 531.343 712.291 531.571C711.65 532.031 711.159 532.668 710.879 533.403C710.599 534.139 710.544 534.939 710.719 535.704C710.894 536.47 711.292 537.166 711.863 537.706C712.435 538.246 713.154 538.606 713.931 538.74C714.128 538.774 714.328 538.793 714.528 538.797C714.036 539.459 713.761 540.256 713.741 541.078C713.721 541.9 713.957 542.707 714.416 543.389C714.875 544.072 715.535 544.596 716.306 544.889C717.077 545.183 717.921 545.232 718.722 545.03C718.426 545.81 718.382 546.661 718.596 547.465C718.811 548.269 719.273 548.986 719.918 549.514C720.563 550.043 721.358 550.357 722.192 550.412C723.027 550.467 723.858 550.261 724.571 549.822C724.469 550.691 724.657 551.567 725.105 552.318C725.553 553.068 726.237 553.65 727.051 553.975C727.865 554.3 728.765 554.35 729.611 554.117C730.458 553.883 731.205 553.38 731.738 552.684C731.814 553.573 732.188 554.411 732.799 555.063C733.411 555.715 734.225 556.143 735.112 556.279C735.998 556.415 736.906 556.251 737.689 555.813C738.472 555.375 739.086 554.689 739.432 553.864C739.766 554.656 740.349 555.319 741.093 555.754C741.838 556.188 742.704 556.372 743.563 556.276C744.422 556.181 745.228 555.812 745.86 555.225C746.493 554.637 746.919 553.863 747.074 553.016C747.637 553.626 748.379 554.045 749.194 554.214C750.01 554.383 750.858 554.295 751.622 553.961C752.386 553.628 753.027 553.065 753.456 552.353C753.884 551.64 754.079 550.812 754.012 549.986C754.726 550.401 755.551 550.585 756.375 550.514C757.2 550.444 757.982 550.12 758.616 549.589C759.25 549.058 759.703 548.346 759.914 547.549C760.126 546.752 760.084 545.911 759.795 545.14C759.908 545.169 760.022 545.197 760.139 545.218C760.944 545.358 761.774 545.251 762.517 544.909C763.26 544.567 763.881 544.008 764.297 543.306C764.712 542.604 764.903 541.793 764.842 540.981C764.782 540.17 764.473 539.397 763.958 538.766C764.824 538.791 765.675 538.537 766.384 538.041C767.093 537.545 767.623 536.834 767.894 536.015C768.164 535.196 768.161 534.312 767.885 533.496C767.609 532.681 767.075 531.976 766.363 531.489C767.142 531.347 767.862 530.978 768.432 530.429C769.002 529.88 769.396 529.176 769.565 528.405C769.734 527.635 769.669 526.832 769.38 526.099C769.091 525.366 768.59 524.736 767.94 524.287C768.68 524.092 769.349 523.69 769.868 523.128C770.387 522.567 770.734 521.87 770.868 521.12C771.002 520.369 770.917 519.597 770.624 518.894C770.33 518.191 769.841 517.587 769.213 517.154C769.953 516.958 770.622 516.556 771.141 515.995C771.66 515.433 772.007 514.736 772.141 513.986C772.275 513.235 772.19 512.463 771.897 511.76C771.604 511.057 771.114 510.453 770.486 510.019C771.227 509.824 771.896 509.422 772.415 508.861C772.934 508.299 773.28 507.602 773.414 506.852C773.548 506.101 773.464 505.329 773.17 504.626C772.877 503.924 772.387 503.32 771.76 502.886C772.5 502.69 773.169 502.288 773.688 501.727C774.207 501.165 774.554 500.468 774.687 499.717C774.821 498.967 774.736 498.194 774.443 497.491C774.149 496.788 773.659 496.185 773.03 495.751C773.771 495.556 774.44 495.153 774.959 494.592C775.478 494.031 775.824 493.334 775.958 492.583C776.092 491.833 776.008 491.061 775.715 490.358C775.421 489.655 774.932 489.051 774.304 488.617C775.044 488.422 775.714 488.02 776.233 487.459C776.752 486.898 777.1 486.201 777.234 485.451Z" fill="#000579"/>
<mask id="path-47-inside-8_68_22" fill="white">
<path fill-rule="evenodd" clip-rule="evenodd" d="M850.052 503.872C851.107 505.005 852.963 504.822 853.742 503.481V503.481C892.523 436.73 869.594 351.426 802.528 312.947C735.463 274.469 649.658 297.388 610.877 364.138V364.138C610.307 365.12 610.861 366.361 611.97 366.615C656.025 376.718 699.33 393.401 740.516 417.031C782.293 441.001 818.933 470.422 850.052 503.872Z"/>
</mask>
<path fill-rule="evenodd" clip-rule="evenodd" d="M850.052 503.872C851.107 505.005 852.963 504.822 853.742 503.481V503.481C892.523 436.73 869.594 351.426 802.528 312.947C735.463 274.469 649.658 297.388 610.877 364.138V364.138C610.307 365.12 610.861 366.361 611.97 366.615C656.025 376.718 699.33 393.401 740.516 417.031C782.293 441.001 818.933 470.422 850.052 503.872Z" fill="#FFD916"/>
<path d="M611.97 366.615L613.183 361.43L613.183 361.43L611.97 366.615ZM799.849 317.559C864.366 354.575 886.413 436.63 849.116 500.827L858.368 506.135C898.633 436.831 874.821 348.276 805.207 308.336L799.849 317.559ZM615.503 366.793C652.8 302.596 735.332 280.542 799.849 317.559L805.207 308.336C735.594 268.395 646.515 292.18 606.251 361.484L615.503 366.793ZM610.756 371.8C654.302 381.786 697.113 398.278 737.836 421.643L743.195 412.42C701.547 388.525 657.747 371.649 613.183 361.43L610.756 371.8ZM737.836 421.643C779.145 445.343 815.365 474.429 846.125 507.492L853.979 500.251C822.501 466.415 785.441 436.658 743.195 412.42L737.836 421.643ZM606.251 361.484C603.841 365.633 606.229 370.762 610.756 371.8L613.183 361.43C615.494 361.959 616.772 364.607 615.503 366.793L606.251 361.484ZM849.116 500.827C850.198 498.965 852.667 498.841 853.979 500.251L846.125 507.492C849.546 511.17 855.729 510.678 858.368 506.135L849.116 500.827Z" fill="black" mask="url(#path-47-inside-8_68_22)"/>
<path d="M612.969 365.847C651.007 300.373 735.176 277.887 800.967 315.634C866.759 353.381 889.247 437.061 851.208 502.535C813.169 568.008 729.001 590.495 663.209 552.747C597.418 515 574.93 431.32 612.969 365.847Z" stroke="black" stroke-width="5.33333"/>
</svg>
