<svg width="394" height="394" viewBox="0 0 394 394" fill="none" xmlns="http://www.w3.org/2000/svg">
<path fill-rule="evenodd" clip-rule="evenodd" d="M391.624 196.339C329.122 177.085 262.72 166.72 193.896 166.72C126.477 166.72 61.382 176.667 0 195.172C62.502 214.425 128.904 224.791 197.727 224.791C265.147 224.791 330.242 214.844 391.624 196.339Z" fill="#000579"/>
<path fill-rule="evenodd" clip-rule="evenodd" d="M394 197.279C393.99 200.547 391.849 203.425 388.724 204.368C328.608 222.525 264.862 232.282 198.855 232.282C131.472 232.282 66.4467 222.114 5.23339 203.223C2.11451 202.26 -0.00979277 199.37 3.39498e-05 196.102C0.00986023 192.834 2.1515 189.956 5.27612 189.012C65.3924 170.855 129.138 161.099 195.146 161.099C262.528 161.099 327.554 171.266 388.767 190.158C391.886 191.12 394.01 194.011 394 197.279ZM373.426 201.077C317.881 216.571 259.334 224.854 198.855 224.854C137.019 224.854 77.2038 216.196 20.5506 200.024C16.4346 198.849 12.3353 197.635 8.25307 196.381C8.00146 196.304 8.00254 195.948 8.2546 195.872C12.3442 194.643 16.4507 193.453 20.5738 192.303C76.1196 176.809 134.667 168.527 195.146 168.527C256.981 168.527 316.796 177.185 373.45 193.356C377.566 194.531 381.665 195.746 385.747 196.999C385.999 197.077 385.998 197.433 385.746 197.508C381.656 198.738 377.55 199.927 373.426 201.077Z" fill="black"/>
<path d="M158.188 157.728L154.274 150.445L154.605 150.267L154.337 150.001L160.175 144.163L162.06 142.278L160.175 140.392L154.329 134.545L154.594 134.28L154.273 134.108L158.186 126.822L159.447 124.473L157.098 123.211L149.866 119.327L151.567 111.302L152.12 108.693L149.51 108.14L141.602 106.465L141.041 98.4029L140.857 95.7417L138.195 95.9276L130.099 96.493L127.314 88.8562L126.4 86.351L123.895 87.2647L116.055 90.1239L111.084 83.4242L109.495 81.2826L107.353 82.8716L100.718 87.7948L100.398 87.3611L100.077 87.7948L93.4419 82.8716L91.3004 81.2826L89.7114 83.4242L84.7404 90.1239L76.9005 87.2647L74.3953 86.351L73.4816 88.8562L70.6959 96.4936L62.5953 95.9304L59.9349 95.7454L59.7501 98.4058L59.1901 106.468L51.2855 108.14L48.6758 108.692L49.2287 111.302L50.9292 119.327L43.6973 123.211L41.3482 124.473L42.6096 126.822L46.5216 134.107L46.1999 134.28L46.466 134.546L40.6207 140.392L38.7351 142.277L40.6207 144.163L46.4573 150L46.188 150.267L46.5219 150.447L42.6097 157.732L41.3481 160.081L43.6973 161.343L50.9292 165.227L49.2287 173.252L48.6759 175.861L51.285 176.414L59.1939 178.089L59.754 186.151L59.9388 188.812L62.5998 188.626L70.6964 188.062L73.4817 195.695L74.3954 198.199L76.8996 197.287L84.7399 194.43L89.7114 201.131L91.3005 203.272L93.4421 201.683L100.08 196.757L100.398 197.184L100.715 196.757L107.353 201.683L109.495 203.272L111.084 201.131L116.055 194.431L123.895 197.289L126.4 198.203L127.314 195.698L130.099 188.061L138.199 188.623L140.86 188.808L141.044 186.148L141.604 178.086L149.513 176.411L152.122 175.858L151.57 173.249L149.869 165.224L157.101 161.34L159.451 160.078L158.188 157.728Z" fill="#F2F2F2" stroke="black" stroke-width="5.33333"/>
<path d="M352.899 157.732L348.987 150.447L349.322 150.267L349.052 149.999L354.888 144.163L356.773 142.278L354.888 140.392L349.042 134.545L349.306 134.28L348.986 134.108L352.899 126.822L354.16 124.473L351.811 123.211L344.579 119.327L346.28 111.302L346.832 108.693L344.223 108.14L336.315 106.465L335.755 98.4029L335.57 95.7418L332.909 95.9275L324.805 96.4931L322.02 88.8588L321.106 86.3541L318.601 87.2675L310.768 90.1239L305.797 83.4242L304.208 81.2826L302.066 82.8716L295.434 87.7929L295.12 87.368L294.798 87.8008L288.155 82.8716L286.013 81.2826L284.424 83.4242L279.453 90.1238L271.614 87.2647L269.109 86.351L268.196 88.8559L265.41 96.4907L257.31 95.9275L254.65 95.7425L254.465 98.4029L253.905 106.465L245.996 108.14L243.387 108.692L243.94 111.301L245.639 119.327L238.407 123.211L236.058 124.473L237.32 126.822L241.233 134.108L240.913 134.28L241.178 134.546L235.332 140.392L233.446 142.277L235.332 144.163L241.169 150L240.901 150.267L241.233 150.446L237.32 157.732L236.058 160.081L238.407 161.343L245.639 165.227L243.94 173.253L243.387 175.861L245.996 176.414L253.905 178.089L254.465 186.151L254.65 188.811L257.31 188.626L265.41 188.064L268.196 195.698L269.109 198.203L271.614 197.289L279.453 194.431L284.424 201.131L286.013 203.272L288.155 201.683L294.792 196.758L295.109 197.184L295.427 196.756L302.066 201.683L304.208 203.272L305.797 201.131L310.768 194.431L318.606 197.289L321.111 198.203L322.025 195.698L324.81 188.064L332.911 188.626L335.572 188.811L335.756 186.151L336.316 178.089L344.224 176.414L346.833 175.861L346.281 173.252L344.58 165.227L351.812 161.343L354.161 160.081L352.899 157.732Z" fill="#F2F2F2" stroke="black" stroke-width="5.33333"/>
<path d="M296.12 197.655L285.128 186.663L292.498 172.942L293.76 170.593L291.411 169.331L278.186 162.226L281.295 147.546L281.848 144.938L279.239 144.385L264.746 141.315L263.719 126.54L263.534 123.88L260.874 124.065L246.038 125.095L240.937 111.114L240.023 108.609L237.518 109.523L223.212 114.741L214.136 102.511L212.547 100.37L210.406 101.958L197.906 111.231L197.746 111.016L197.589 111.228L185.097 101.959L182.955 100.369L181.366 102.511L172.294 114.741L157.984 109.523L155.479 108.61L154.565 111.114L149.464 125.096L134.632 124.065L131.972 123.88L131.787 126.54L130.76 141.315L116.266 144.385L113.658 144.938L114.21 147.546L117.32 162.226L104.092 169.33L101.743 170.592L103.004 172.941L110.366 186.648L110.359 186.651L110.372 186.664L99.3783 197.655L97.4921 199.541L99.3781 201.426L110.371 212.419L103.002 226.139L101.74 228.488L104.089 229.75L117.317 236.855L114.21 251.535L113.658 254.143L116.266 254.696L130.76 257.766L131.787 272.541L131.972 275.201L134.632 275.016L149.467 273.986L154.569 287.966L155.483 290.471L157.987 289.558L172.298 284.339L181.372 296.569L182.962 298.712L185.103 297.122L197.591 287.852L197.752 288.068L197.911 287.854L210.402 297.122L212.542 298.711L214.132 296.57L223.212 284.339L237.522 289.558L240.026 290.472L240.94 287.967L246.042 273.986L260.877 275.017L263.537 275.202L263.722 272.541L264.749 257.767L279.243 254.697L281.851 254.144L281.299 251.535L278.189 236.856L291.417 229.751L293.767 228.489L292.504 226.14L285.131 212.418L296.121 201.426L298.006 199.541L296.12 197.655Z" fill="#F2F2F2" stroke="black" stroke-width="5.33333"/>
<path d="M185.035 196.332C183.263 196.332 181.827 197.769 181.827 199.54C181.827 201.312 183.263 202.749 185.035 202.749H209.593C211.365 202.749 212.801 201.312 212.801 199.54C212.801 197.769 211.365 196.332 209.593 196.332H185.035Z" fill="black"/>
<path d="M194.107 211.82C194.107 213.591 195.543 215.028 197.315 215.028C199.087 215.028 200.523 213.591 200.523 211.82V187.261C200.523 185.489 199.087 184.053 197.315 184.053C195.543 184.053 194.107 185.489 194.107 187.261V211.82Z" fill="black"/>
<path d="M190.902 188.589C189.649 187.337 187.618 187.337 186.365 188.589C185.112 189.842 185.112 191.874 186.365 193.126L203.73 210.492C204.983 211.745 207.014 211.745 208.267 210.492C209.52 209.239 209.52 207.208 208.267 205.955L190.902 188.589Z" fill="black"/>
<path d="M186.366 205.955C185.113 207.208 185.113 209.239 186.366 210.492C187.619 211.745 189.65 211.745 190.903 210.492L208.269 193.126C209.522 191.873 209.522 189.842 208.269 188.589C207.016 187.336 204.985 187.336 203.732 188.589L186.366 205.955Z" fill="black"/>
<path d="M230.232 197.263C228.98 198.516 228.98 200.547 230.232 201.8C231.485 203.053 233.517 203.053 234.769 201.8L252.135 184.434C253.388 183.182 253.388 181.15 252.135 179.897C250.882 178.645 248.851 178.645 247.598 179.897L230.232 197.263Z" fill="black"/>
<path d="M234.768 197.282C233.515 196.029 231.484 196.029 230.231 197.282C228.978 198.535 228.978 200.566 230.231 201.819L247.596 219.185C248.849 220.438 250.881 220.438 252.133 219.185C253.386 217.932 253.386 215.901 252.133 214.648L234.768 197.282Z" fill="black"/>
<mask id="path-12-inside-1_39_654" fill="white">
<path fill-rule="evenodd" clip-rule="evenodd" d="M4.21374 194.248C2.12921 193.603 0 195.127 0 197.309V197.309C0 305.938 88.2 394 197 394C305.8 394 394 305.938 394 197.309V197.309C394 195.712 392.448 194.586 390.92 195.052C330.176 213.572 265.691 223.535 198.876 223.535C131.1 223.535 65.7226 213.283 4.21374 194.248Z"/>
</mask>
<path fill-rule="evenodd" clip-rule="evenodd" d="M4.21374 194.248C2.12921 193.603 0 195.127 0 197.309V197.309C0 305.938 88.2 394 197 394C305.8 394 394 305.938 394 197.309V197.309C394 195.712 392.448 194.586 390.92 195.052C330.176 213.572 265.691 223.535 198.876 223.535C131.1 223.535 65.7226 213.283 4.21374 194.248Z" fill="#010AC9"/>
<path d="M390.92 195.052L389.365 189.951L390.92 195.052ZM197 388.666C91.1376 388.666 5.33333 302.985 5.33333 197.309H-5.33333C-5.33333 308.892 85.2624 399.333 197 399.333V388.666ZM388.667 197.309C388.667 302.985 302.863 388.666 197 388.666V399.333C308.738 399.333 399.334 308.892 399.334 197.309H388.667ZM389.365 189.951C329.119 208.318 265.158 218.201 198.876 218.201V228.868C266.224 228.868 331.232 218.825 392.475 200.154L389.365 189.951ZM198.876 218.201C131.641 218.201 66.7944 208.032 5.79046 189.153L2.63701 199.343C64.6508 218.534 130.56 228.868 198.876 228.868V218.201ZM399.334 197.309C399.334 192.049 394.243 188.464 389.365 189.951L392.475 200.154C390.654 200.709 388.667 199.374 388.667 197.309H399.334ZM5.33333 197.309C5.33333 198.831 3.87638 199.726 2.63701 199.343L5.79046 189.153C0.382036 187.479 -5.33333 191.424 -5.33333 197.309H5.33333Z" fill="black" mask="url(#path-12-inside-1_39_654)"/>
<path d="M391.334 196.69C391.334 303.843 304.331 390.714 197 390.714C89.6687 390.714 2.66667 303.843 2.66667 196.69C2.66667 89.538 89.6687 2.66667 197 2.66667C304.331 2.66667 391.334 89.538 391.334 196.69Z" fill="#010AC9" fill-opacity="0.04" stroke="black" stroke-width="5.33333"/>
</svg>
