<svg width="320" height="320" viewBox="0 0 320 320" fill="none" xmlns="http://www.w3.org/2000/svg">
<path fill-rule="evenodd" clip-rule="evenodd" d="M318.07 159.462C267.307 143.824 213.377 135.406 157.479 135.406C102.722 135.406 49.8534 143.484 0 158.514C50.7631 174.151 104.693 182.57 160.591 182.57C215.347 182.57 268.216 174.491 318.07 159.462Z" fill="#A0004C"/>
<path fill-rule="evenodd" clip-rule="evenodd" d="M320 160.226C319.992 162.881 318.253 165.218 315.715 165.984C266.89 180.731 215.117 188.655 161.507 188.655C106.779 188.655 53.9673 180.397 4.25095 165.054C1.71785 164.272 -0.00746523 161.925 0.000515855 159.27C0.00849658 156.616 1.7479 154.279 4.28566 153.512C53.111 138.766 104.884 130.842 158.494 130.842C213.221 130.842 266.034 139.099 315.75 154.443C318.283 155.225 320.008 157.572 320 160.226ZM303.291 163.312C258.177 175.895 210.627 182.622 161.507 182.622C111.285 182.622 62.704 175.59 16.6913 162.456C13.4011 161.517 10.1239 160.547 6.86029 159.545C6.60867 159.468 6.60974 159.112 6.86183 159.037C10.1314 158.055 13.4143 157.105 16.7102 156.185C61.8234 143.601 109.374 136.875 158.494 136.875C208.716 136.875 257.297 143.907 303.31 157.041C306.6 157.98 309.877 158.95 313.141 159.951C313.392 160.029 313.391 160.384 313.139 160.46C309.869 161.442 306.587 162.392 303.291 163.312Z" fill="black"/>
<path d="M128.919 127.866L125.977 122.392L126.4 122.164L126.06 121.825L130.445 117.44L132.331 115.554L130.445 113.669L126.051 109.274L126.389 108.937L125.976 108.715L128.917 103.238L130.179 100.889L127.829 99.6275L122.287 96.6507L123.59 90.4999L124.143 87.8909L121.534 87.3384L115.48 86.0563L115.051 79.8854L114.866 77.2241L112.205 77.41L106.006 77.8429L103.873 71.9947L102.959 69.4896L100.454 70.4032L94.4374 72.5974L90.6227 67.4562L89.0338 65.3146L86.8922 66.9036L81.9062 70.6032L81.5413 70.1097L81.1764 70.6032L76.1904 66.9036L74.0488 65.3146L72.4598 67.4562L68.6452 72.5974L62.6289 70.4032L60.1237 69.4896L59.21 71.9947L57.0767 77.8436L50.8736 77.4123L48.2132 77.2273L48.0284 79.8877L47.5997 86.0582L41.5496 87.3382L38.9398 87.8904L39.4928 90.4999L40.796 96.6507L35.2532 99.6275L32.9041 100.889L34.1656 103.238L37.1061 108.715L36.6925 108.937L37.0306 109.275L32.6373 113.669L30.7517 115.554L32.6373 117.44L37.0223 121.825L36.6805 122.164L37.1063 122.393L34.1656 127.869L32.904 130.218L35.2532 131.48L40.796 134.457L39.4928 140.608L38.9399 143.217L41.549 143.769L47.6028 145.051L48.0315 151.222L48.2164 153.883L50.8773 153.698L57.0771 153.265L59.2101 159.111L60.1237 161.615L62.628 160.702L68.6447 158.51L72.4598 163.652L74.0489 165.794L76.1905 164.205L81.1798 160.502L81.5413 160.989L81.9027 160.502L86.892 164.205L89.0336 165.794L90.6227 163.652L94.4375 158.511L100.454 160.704L102.959 161.618L103.873 159.113L106.006 153.265L112.208 153.695L114.869 153.88L115.053 151.22L115.482 145.049L121.536 143.767L124.145 143.214L123.592 140.605L122.289 134.454L127.832 131.478L130.182 130.215L128.919 127.866Z" fill="#F2F2F2" stroke="black" stroke-width="5.33333"/>
<path d="M287.061 127.869L284.12 122.394L284.547 122.164L284.204 121.824L288.588 117.44L290.474 115.554L288.589 113.669L284.195 109.274L284.532 108.937L284.119 108.715L287.06 103.238L288.322 100.889L285.972 99.6275L280.43 96.6507L281.733 90.4999L282.286 87.891L279.677 87.3384L273.624 86.0563L273.195 79.8854L273.01 77.2243L270.349 77.41L264.143 77.8431L262.01 71.9969L261.096 69.4921L258.591 70.4056L252.581 72.5975L248.766 67.4562L247.177 65.3146L245.035 66.9036L240.051 70.6016L239.693 70.1166L239.327 70.6088L234.334 66.9036L232.192 65.3146L230.603 67.4562L226.788 72.5973L220.773 70.4033L218.268 69.4896L217.354 71.9945L215.221 77.8412L209.018 77.4099L206.358 77.225L206.173 79.8854L205.744 86.0563L199.691 87.3384L197.082 87.8909L197.634 90.4997L198.937 96.6506L193.394 99.6275L191.045 100.889L192.306 103.239L195.248 108.715L194.836 108.937L195.173 109.275L190.779 113.669L188.893 115.554L190.779 117.44L195.165 121.825L194.824 122.164L195.248 122.392L192.307 127.869L191.045 130.218L193.394 131.48L198.937 134.457L197.634 140.608L197.082 143.217L199.691 143.769L205.744 145.051L206.173 151.222L206.358 153.882L209.018 153.698L215.221 153.267L217.354 159.113L218.268 161.618L220.773 160.704L226.788 158.511L230.603 163.652L232.192 165.794L234.334 164.205L239.322 160.503L239.683 160.989L240.045 160.501L245.035 164.205L247.177 165.794L248.766 163.652L252.581 158.511L258.595 160.704L261.1 161.618L262.014 159.113L264.147 153.267L270.351 153.698L273.011 153.882L273.196 151.222L273.624 145.051L279.677 143.769L282.287 143.217L281.734 140.608L280.43 134.457L285.973 131.48L288.323 130.218L287.061 127.869Z" fill="#F2F2F2" stroke="black" stroke-width="5.33333"/>
<path d="M80.361 163.948L88.9387 172.525L88.8075 172.656L88.9591 172.737L83.2168 183.428L81.955 185.778L84.3043 187.039L94.7171 192.632L92.2715 204.187L91.7195 206.796L94.3278 207.348L105.729 209.763L106.537 221.386L106.722 224.046L109.382 223.862L121.056 223.051L125.069 234.052L125.983 236.557L128.488 235.643L139.76 231.533L146.907 241.166L148.496 243.308L150.638 241.718L160.379 234.487L160.614 234.803L160.846 234.49L170.588 241.719L172.729 243.307L174.318 241.167L181.47 231.533L192.741 235.644L195.246 236.557L196.16 234.053L200.174 223.052L211.847 223.862L214.507 224.047L214.692 221.387L215.5 209.764L226.902 207.349L229.51 206.796L228.958 204.188L226.51 192.633L236.923 187.04L239.273 185.778L238.01 183.429L232.258 172.724L232.4 172.647L232.281 172.529L240.86 163.948L242.745 162.062L240.86 160.177L232.283 151.6L232.406 151.476L232.258 151.396L238.005 140.697L239.267 138.348L236.918 137.086L226.507 131.493L228.955 119.937L229.507 117.329L226.899 116.776L215.497 114.361L214.689 102.738L214.504 100.078L211.844 100.263L200.171 101.073L196.157 90.0725L195.243 87.5676L192.738 88.4813L181.47 92.5914L174.322 82.9582L172.733 80.8172L170.591 82.4056L160.841 89.6386L160.607 89.3245L160.377 89.6357L150.633 82.4058L148.491 80.8166L146.902 82.9587L139.757 92.5914L128.485 88.4812L125.98 87.5679L125.066 90.0725L121.052 101.074L109.382 100.263L106.722 100.078L106.537 102.738L105.729 114.361L94.3278 116.776L91.719 117.329L92.2716 119.937L94.7192 131.492L84.3066 137.085L81.9574 138.347L83.2192 140.696L88.9613 151.387L88.8003 151.473L88.9342 151.606L80.3612 160.177L78.4751 162.062L80.361 163.948Z" fill="#F2F2F2" stroke="black" stroke-width="5.33333"/>
<path d="M150.282 159.457C148.843 159.457 147.676 160.623 147.676 162.062C147.676 163.501 148.843 164.668 150.282 164.668H170.228C171.667 164.668 172.833 163.501 172.833 162.062C172.833 160.623 171.667 159.457 170.228 159.457H150.282Z" fill="black"/>
<path d="M157.65 172.035C157.65 173.474 158.816 174.641 160.255 174.641C161.694 174.641 162.861 173.474 162.861 172.035V152.089C162.861 150.65 161.694 149.484 160.255 149.484C158.816 149.484 157.65 150.65 157.65 152.089V172.035Z" fill="black"/>
<path d="M155.047 153.168C154.029 152.15 152.38 152.15 151.362 153.168C150.344 154.185 150.344 155.835 151.362 156.853L165.466 170.957C166.483 171.974 168.133 171.974 169.151 170.957C170.168 169.939 170.168 168.289 169.151 167.272L155.047 153.168Z" fill="black"/>
<path d="M151.361 167.273C150.344 168.29 150.344 169.94 151.361 170.958C152.379 171.975 154.029 171.975 155.046 170.958L169.15 156.854C170.168 155.836 170.168 154.186 169.15 153.169C168.132 152.151 166.483 152.151 165.465 153.169L151.361 167.273Z" fill="black"/>
<path d="M186.989 160.213C185.971 161.23 185.971 162.88 186.989 163.898C188.006 164.915 189.656 164.915 190.673 163.898L204.777 149.794C205.795 148.776 205.795 147.127 204.777 146.109C203.76 145.091 202.11 145.091 201.093 146.109L186.989 160.213Z" fill="black"/>
<path d="M190.675 160.228C189.657 159.21 188.007 159.21 186.99 160.228C185.972 161.245 185.972 162.895 186.99 163.913L201.094 178.016C202.111 179.034 203.761 179.034 204.779 178.016C205.796 176.999 205.796 175.349 204.779 174.332L190.675 160.228Z" fill="black"/>
<mask id="path-12-inside-1_39_683" fill="white">
<path fill-rule="evenodd" clip-rule="evenodd" d="M3.42231 157.765C1.7293 157.241 0 158.479 0 160.252V160.252C0 248.478 71.6344 320 160 320C248.365 320 320 248.478 320 160.252V160.252C320 158.954 318.739 158.04 317.498 158.418C268.163 173.46 215.79 181.551 161.524 181.551C106.477 181.551 53.3787 173.225 3.42231 157.765Z"/>
</mask>
<path fill-rule="evenodd" clip-rule="evenodd" d="M3.42231 157.765C1.7293 157.241 0 158.479 0 160.252V160.252C0 248.478 71.6344 320 160 320C248.365 320 320 248.478 320 160.252V160.252C320 158.954 318.739 158.04 317.498 158.418C268.163 173.46 215.79 181.551 161.524 181.551C106.477 181.551 53.3787 173.225 3.42231 157.765Z" fill="#FF1A87"/>
<path d="M317.498 158.418L319.054 163.52L317.498 158.418ZM160 314.667C74.572 314.667 5.33333 245.525 5.33333 160.252H-5.33333C-5.33333 251.432 68.6968 325.333 160 325.333V314.667ZM314.667 160.252C314.667 245.525 245.428 314.667 160 314.667V325.333C251.303 325.333 325.333 251.432 325.333 160.252H314.667ZM315.943 153.317C267.106 168.206 215.257 176.218 161.524 176.218V186.885C216.322 186.885 269.219 178.713 319.054 163.52L315.943 153.317ZM161.524 176.218C107.018 176.218 54.4505 167.974 4.99904 152.67L1.84558 162.86C52.3069 178.476 105.937 186.885 161.524 186.885V176.218ZM325.333 160.252C325.333 155.291 320.534 151.917 315.943 153.317L319.054 163.52C316.945 164.163 314.667 162.617 314.667 160.252H325.333ZM5.33333 160.252C5.33333 162.183 3.4765 163.365 1.84558 162.86L4.99904 152.67C-0.0179045 151.118 -5.33333 154.776 -5.33333 160.252H5.33333Z" fill="black" mask="url(#path-12-inside-1_39_683)"/>
<path d="M317.333 159.748C317.333 246.498 246.897 316.83 160 316.83C73.1032 316.83 2.66667 246.498 2.66667 159.748C2.66667 72.9985 73.1032 2.66667 160 2.66667C246.897 2.66667 317.333 72.9985 317.333 159.748Z" fill="#FF1A87" fill-opacity="0.04" stroke="black" stroke-width="5.33333"/>
</svg>
