<svg width="458" height="1032" viewBox="0 0 458 1032" fill="none" xmlns="http://www.w3.org/2000/svg">
<path d="M70.5994 609.395C37.8706 621.732 15.3374 644.265 3 676.994L178.725 1028.38H191.611L194.195 986.518C221.543 958.103 252.926 952.569 288.343 969.918C344.03 1007.94 375.413 1002.4 382.49 953.317C405.692 901.388 437.075 895.854 476.638 936.716C501.992 951.608 533.374 946.075 570.786 920.115C598.857 895.803 630.239 890.269 664.933 903.514C713.839 928.736 745.222 923.202 759.081 886.914C780.574 854.703 806.149 845.639 835.805 859.722L678.994 1C683.578 38.3935 661.044 60.9267 611.395 68.5994C575.267 77.5383 552.734 100.071 543.795 136.199C530.552 176.631 508.019 199.164 476.196 203.798C431.664 204.333 409.131 226.866 408.596 271.398C417.473 306.519 394.939 329.052 340.997 338.997C306.477 349.543 283.944 372.076 273.398 406.596C259.822 444.146 237.289 466.679 205.798 474.196C166.869 480.333 144.336 502.866 138.199 541.795C138.913 573.873 116.38 596.406 70.5994 609.395Z" fill="#010AC9" stroke="black" stroke-width="5.33333"/>
<path fill-rule="evenodd" clip-rule="evenodd" d="M703.418 149.59C702.503 151.882 702 154.382 702 157C702 162.198 703.983 166.933 707.234 170.489L703.418 149.59ZM719.41 237.166C709.588 238.436 702 246.832 702 257C702 268.046 710.954 277 722 277C723.578 277 725.114 276.817 726.587 276.471L719.41 237.166ZM739.534 347.372C736.132 341.19 729.555 337 722 337C710.954 337 702 345.954 702 357C702 368.046 710.954 377 722 377C732.094 377 740.441 369.523 741.805 359.805L739.534 347.372ZM783.627 588.832C776.763 592 772 598.944 772 607C772 617.571 780.201 626.227 790.588 626.951L783.627 588.832ZM802.047 689.703C799.095 687.984 795.663 687 792 687C780.954 687 772 695.954 772 707C772 718.046 780.954 727 792 727C798.258 727 803.844 724.126 807.512 719.626L802.047 689.703ZM671.767 903.939C670.294 894.346 662.005 887 652 887C645.852 887 640.352 889.774 636.683 894.139C646.185 894.917 655.922 897.22 665.885 901.023L666.024 901.076L666.156 901.144C668.056 902.124 669.926 903.056 671.767 903.939ZM304.228 976.877C314.225 975.769 322 967.293 322 957C322 945.954 313.046 937 302 937C290.954 937 282 945.954 282 957C282 959.771 282.564 962.411 283.582 964.81C285.55 965.645 287.528 966.549 289.516 967.523L289.688 967.607L289.847 967.715C294.851 971.132 299.645 974.185 304.228 976.877ZM155.466 975.908C157.514 976.616 159.712 977 162 977C173.046 977 182 968.046 182 957C182 945.954 173.046 937 162 937C153.087 937 145.536 942.83 142.952 950.885L155.466 975.908ZM78.2684 821.541C81.8508 824.925 86.6831 827 92 827C103.046 827 112 818.046 112 807C112 795.954 103.046 787 92 787C80.9543 787 72 795.954 72 807C72 807.764 72.0428 808.517 72.1262 809.259L78.2684 821.541ZM8.14648 671.425C11.7407 674.878 16.6225 677 22 677C33.0457 677 42 668.046 42 657C42 648.752 37.0072 641.67 29.879 638.612C20.9377 647.845 13.697 658.779 8.14648 671.425ZM72.5348 611.614C74.6178 620.435 82.5423 627 92 627C103.046 627 112 618.046 112 607C112 603.036 110.847 599.341 108.857 596.232C98.9616 602.355 86.8319 607.469 72.5348 611.614ZM292.366 374.531C295.224 376.105 298.507 377 302 377C313.046 377 322 368.046 322 357C322 354.633 321.589 352.362 320.834 350.255C309.461 356.473 299.976 364.56 292.366 374.531ZM492.534 202.391C492.185 203.871 492 205.414 492 207C492 218.046 500.954 227 512 227C523.046 227 532 218.046 532 207C532 197.519 525.403 189.579 516.55 187.52C509.426 194.104 501.423 199.072 492.534 202.391ZM652 127C663.046 127 672 118.046 672 107C672 95.9543 663.046 87 652 87C640.954 87 632 95.9543 632 107C632 118.046 640.954 127 652 127ZM582 177C593.046 177 602 168.046 602 157C602 145.954 593.046 137 582 137C570.954 137 562 145.954 562 157C562 168.046 570.954 177 582 177ZM652 427C663.046 427 672 418.046 672 407C672 395.954 663.046 387 652 387C640.954 387 632 395.954 632 407C632 418.046 640.954 427 652 427ZM532 407C532 418.046 523.046 427 512 427C500.954 427 492 418.046 492 407C492 395.954 500.954 387 512 387C523.046 387 532 395.954 532 407ZM372 427C383.046 427 392 418.046 392 407C392 395.954 383.046 387 372 387C360.954 387 352 395.954 352 407C352 418.046 360.954 427 372 427ZM602 457C602 468.046 593.046 477 582 477C570.954 477 562 468.046 562 457C562 445.954 570.954 437 582 437C593.046 437 602 445.954 602 457ZM442 477C453.046 477 462 468.046 462 457C462 445.954 453.046 437 442 437C430.954 437 422 445.954 422 457C422 468.046 430.954 477 442 477ZM322 457C322 468.046 313.046 477 302 477C290.954 477 282 468.046 282 457C282 445.954 290.954 437 302 437C313.046 437 322 445.954 322 457ZM722 477C733.046 477 742 468.046 742 457C742 445.954 733.046 437 722 437C710.954 437 702 445.954 702 457C702 468.046 710.954 477 722 477ZM672 707C672 718.046 663.046 727 652 727C640.954 727 632 718.046 632 707C632 695.954 640.954 687 652 687C663.046 687 672 695.954 672 707ZM512 727C523.046 727 532 718.046 532 707C532 695.954 523.046 687 512 687C500.954 687 492 695.954 492 707C492 718.046 500.954 727 512 727ZM392 707C392 718.046 383.046 727 372 727C360.954 727 352 718.046 352 707C352 695.954 360.954 687 372 687C383.046 687 392 695.954 392 707ZM232 727C243.046 727 252 718.046 252 707C252 695.954 243.046 687 232 687C220.954 687 212 695.954 212 707C212 718.046 220.954 727 232 727ZM112 707C112 718.046 103.046 727 92 727C80.9543 727 72 718.046 72 707C72 695.954 80.9543 687 92 687C103.046 687 112 695.954 112 707ZM602 757C602 768.046 593.046 777 582 777C570.954 777 562 768.046 562 757C562 745.954 570.954 737 582 737C593.046 737 602 745.954 602 757ZM442 777C453.046 777 462 768.046 462 757C462 745.954 453.046 737 442 737C430.954 737 422 745.954 422 757C422 768.046 430.954 777 442 777ZM322 757C322 768.046 313.046 777 302 777C290.954 777 282 768.046 282 757C282 745.954 290.954 737 302 737C313.046 737 322 745.954 322 757ZM162 777C173.046 777 182 768.046 182 757C182 745.954 173.046 737 162 737C150.954 737 142 745.954 142 757C142 768.046 150.954 777 162 777ZM722 777C733.046 777 742 768.046 742 757C742 745.954 733.046 737 722 737C710.954 737 702 745.954 702 757C702 768.046 710.954 777 722 777ZM672 207C672 218.046 663.046 227 652 227C640.954 227 632 218.046 632 207C632 195.954 640.954 187 652 187C663.046 187 672 195.954 672 207ZM602 257C602 268.046 593.046 277 582 277C570.954 277 562 268.046 562 257C562 245.954 570.954 237 582 237C593.046 237 602 245.954 602 257ZM442 277C453.046 277 462 268.046 462 257C462 245.954 453.046 237 442 237C430.954 237 422 245.954 422 257C422 268.046 430.954 277 442 277ZM652 527C663.046 527 672 518.046 672 507C672 495.954 663.046 487 652 487C640.954 487 632 495.954 632 507C632 518.046 640.954 527 652 527ZM532 507C532 518.046 523.046 527 512 527C500.954 527 492 518.046 492 507C492 495.954 500.954 487 512 487C523.046 487 532 495.954 532 507ZM372 527C383.046 527 392 518.046 392 507C392 495.954 383.046 487 372 487C360.954 487 352 495.954 352 507C352 518.046 360.954 527 372 527ZM252 507C252 518.046 243.046 527 232 527C220.954 527 212 518.046 212 507C212 495.954 220.954 487 232 487C243.046 487 252 495.954 252 507ZM582 577C593.046 577 602 568.046 602 557C602 545.954 593.046 537 582 537C570.954 537 562 545.954 562 557C562 568.046 570.954 577 582 577ZM462 557C462 568.046 453.046 577 442 577C430.954 577 422 568.046 422 557C422 545.954 430.954 537 442 537C453.046 537 462 545.954 462 557ZM302 577C313.046 577 322 568.046 322 557C322 545.954 313.046 537 302 537C290.954 537 282 545.954 282 557C282 568.046 290.954 577 302 577ZM182 557C182 568.046 173.046 577 162 577C150.954 577 142 568.046 142 557C142 545.954 150.954 537 162 537C173.046 537 182 545.954 182 557ZM722 577C733.046 577 742 568.046 742 557C742 545.954 733.046 537 722 537C710.954 537 702 545.954 702 557C702 568.046 710.954 577 722 577ZM672 807C672 818.046 663.046 827 652 827C640.954 827 632 818.046 632 807C632 795.954 640.954 787 652 787C663.046 787 672 795.954 672 807ZM512 827C523.046 827 532 818.046 532 807C532 795.954 523.046 787 512 787C500.954 787 492 795.954 492 807C492 818.046 500.954 827 512 827ZM392 807C392 818.046 383.046 827 372 827C360.954 827 352 818.046 352 807C352 795.954 360.954 787 372 787C383.046 787 392 795.954 392 807ZM232 827C243.046 827 252 818.046 252 807C252 795.954 243.046 787 232 787C220.954 787 212 795.954 212 807C212 818.046 220.954 827 232 827ZM792 827C803.046 827 812 818.046 812 807C812 795.954 803.046 787 792 787C780.954 787 772 795.954 772 807C772 818.046 780.954 827 792 827ZM602 857C602 868.046 593.046 877 582 877C570.954 877 562 868.046 562 857C562 845.954 570.954 837 582 837C593.046 837 602 845.954 602 857ZM442 877C453.046 877 462 868.046 462 857C462 845.954 453.046 837 442 837C430.954 837 422 845.954 422 857C422 868.046 430.954 877 442 877ZM322 857C322 868.046 313.046 877 302 877C290.954 877 282 868.046 282 857C282 845.954 290.954 837 302 837C313.046 837 322 845.954 322 857ZM162 877C173.046 877 182 868.046 182 857C182 845.954 173.046 837 162 837C150.954 837 142 845.954 142 857C142 868.046 150.954 877 162 877ZM742 857C742 868.046 733.046 877 722 877C710.954 877 702 868.046 702 857C702 845.954 710.954 837 722 837C733.046 837 742 845.954 742 857ZM652 327C663.046 327 672 318.046 672 307C672 295.954 663.046 287 652 287C640.954 287 632 295.954 632 307C632 318.046 640.954 327 652 327ZM532 307C532 318.046 523.046 327 512 327C500.954 327 492 318.046 492 307C492 295.954 500.954 287 512 287C523.046 287 532 295.954 532 307ZM582 377C593.046 377 602 368.046 602 357C602 345.954 593.046 337 582 337C570.954 337 562 345.954 562 357C562 368.046 570.954 377 582 377ZM462 357C462 368.046 453.046 377 442 377C430.954 377 422 368.046 422 357C422 345.954 430.954 337 442 337C453.046 337 462 345.954 462 357ZM652 627C663.046 627 672 618.046 672 607C672 595.954 663.046 587 652 587C640.954 587 632 595.954 632 607C632 618.046 640.954 627 652 627ZM532 607C532 618.046 523.046 627 512 627C500.954 627 492 618.046 492 607C492 595.954 500.954 587 512 587C523.046 587 532 595.954 532 607ZM372 627C383.046 627 392 618.046 392 607C392 595.954 383.046 587 372 587C360.954 587 352 595.954 352 607C352 618.046 360.954 627 372 627ZM252 607C252 618.046 243.046 627 232 627C220.954 627 212 618.046 212 607C212 595.954 220.954 587 232 587C243.046 587 252 595.954 252 607ZM582 677C593.046 677 602 668.046 602 657C602 645.954 593.046 637 582 637C570.954 637 562 645.954 562 657C562 668.046 570.954 677 582 677ZM462 657C462 668.046 453.046 677 442 677C430.954 677 422 668.046 422 657C422 645.954 430.954 637 442 637C453.046 637 462 645.954 462 657ZM302 677C313.046 677 322 668.046 322 657C322 645.954 313.046 637 302 637C290.954 637 282 645.954 282 657C282 668.046 290.954 677 302 677ZM182 657C182 668.046 173.046 677 162 677C150.954 677 142 668.046 142 657C142 645.954 150.954 637 162 637C173.046 637 182 645.954 182 657ZM742 657C742 668.046 733.046 677 722 677C710.954 677 702 668.046 702 657C702 645.954 710.954 637 722 637C733.046 637 742 645.954 742 657ZM532 907C532 918.046 523.046 927 512 927C500.954 927 492 918.046 492 907C492 895.954 500.954 887 512 887C523.046 887 532 895.954 532 907ZM372 927C383.046 927 392 918.046 392 907C392 895.954 383.046 887 372 887C360.954 887 352 895.954 352 907C352 918.046 360.954 927 372 927ZM252 907C252 918.046 243.046 927 232 927C220.954 927 212 918.046 212 907C212 895.954 220.954 887 232 887C243.046 887 252 895.954 252 907Z" fill="#F2F2F2"/>
</svg>
