<svg width="457" height="1032" viewBox="0 0 457 1032" fill="none" xmlns="http://www.w3.org/2000/svg">
<path d="M386.412 609.395C419.136 621.732 441.666 644.265 454.001 676.994L278.304 1028.38H265.42L262.836 986.518C235.493 958.103 204.115 952.569 168.704 969.918C113.025 1007.94 81.6477 1002.4 74.5712 953.317C51.3731 901.388 19.9956 895.854 -19.5614 936.716C-44.9111 951.608 -76.2886 946.075 -113.694 920.115C-141.761 895.803 -173.138 890.269 -207.827 903.514C-256.725 928.736 -288.102 923.202 -301.959 886.914C-323.449 854.703 -349.02 845.639 -378.671 859.722L-221.885 1C-226.468 38.3935 -203.938 60.9267 -154.296 68.5994C-118.175 77.5383 -95.6453 100.071 -86.7079 136.199C-73.4668 176.631 -50.9372 199.164 -19.1192 203.798C25.4057 204.333 47.9351 226.866 48.4693 271.398C39.5946 306.519 62.1241 329.052 116.058 338.997C150.572 349.543 173.102 372.076 183.647 406.596C197.22 444.146 219.75 466.679 251.235 474.196C290.158 480.333 312.687 502.866 318.824 541.795C318.11 573.873 340.639 596.406 386.412 609.395Z" fill="#010AC9" stroke="black" stroke-width="5.33333"/>
<path fill-rule="evenodd" clip-rule="evenodd" d="M-246.305 149.59C-245.39 151.882 -244.887 154.382 -244.887 157C-244.887 162.198 -246.87 166.933 -250.12 170.49L-246.305 149.59ZM-262.294 237.166C-252.474 238.436 -244.887 246.832 -244.887 257C-244.887 268.046 -253.84 277 -264.884 277C-266.462 277 -267.998 276.817 -269.471 276.471L-262.294 237.166ZM-282.416 347.373C-279.014 341.19 -272.438 337 -264.884 337C-253.84 337 -244.887 345.954 -244.887 357C-244.887 368.046 -253.84 377 -264.884 377C-274.976 377 -283.322 369.522 -284.686 359.805L-282.416 347.373ZM-326.502 588.832C-319.639 592 -314.876 598.944 -314.876 607C-314.876 617.571 -323.076 626.227 -333.461 626.951L-326.502 588.832ZM-344.919 689.703C-341.967 687.984 -338.535 687 -334.873 687C-323.829 687 -314.876 695.954 -314.876 707C-314.876 718.046 -323.829 727 -334.873 727C-341.13 727 -346.715 724.126 -350.382 719.626L-344.919 689.703ZM-214.659 903.939C-213.186 894.346 -204.898 887 -194.895 887C-188.748 887 -183.249 889.774 -179.581 894.139C-189.081 894.917 -198.817 897.22 -208.778 901.023L-208.917 901.076L-209.049 901.144C-210.948 902.124 -212.819 903.056 -214.659 903.939ZM152.822 976.877C142.826 975.769 135.052 967.293 135.052 957C135.052 945.954 144.005 937 155.049 937C166.093 937 175.046 945.954 175.046 957C175.046 959.771 174.482 962.411 173.464 964.81C171.496 965.645 169.518 966.549 167.531 967.523L167.359 967.607L167.2 967.715C162.197 971.132 157.404 974.185 152.822 976.877ZM301.559 975.908C299.512 976.616 297.314 977 295.027 977C283.983 977 275.03 968.046 275.03 957C275.03 945.954 283.983 937 295.027 937C303.938 937 311.488 942.83 314.071 950.885L301.559 975.908ZM378.744 821.542C375.163 824.925 370.331 827 365.016 827C353.972 827 345.019 818.046 345.019 807C345.019 795.954 353.972 787 365.016 787C376.059 787 385.012 795.954 385.012 807C385.012 807.763 384.97 808.517 384.886 809.258L378.744 821.542ZM448.855 671.425C445.262 674.878 440.381 677 435.004 677C423.96 677 415.008 668.046 415.008 657C415.008 648.752 420 641.67 427.127 638.612C436.066 647.845 443.306 658.779 448.855 671.425ZM384.478 611.614C382.395 620.435 374.472 627 365.016 627C353.972 627 345.019 618.046 345.019 607C345.019 603.036 346.172 599.341 348.161 596.233C358.055 602.355 370.183 607.469 384.478 611.614ZM164.681 374.531C161.824 376.105 158.541 377 155.049 377C144.005 377 135.052 368.046 135.052 357C135.052 354.633 135.463 352.362 136.218 350.255C147.589 356.473 157.072 364.56 164.681 374.531ZM-35.4541 202.391C-35.1052 203.871 -34.9206 205.414 -34.9206 207C-34.9206 218.046 -43.8734 227 -54.9174 227C-65.9614 227 -74.9142 218.046 -74.9142 207C-74.9142 197.519 -68.3187 189.58 -59.4665 187.52C-52.3438 194.104 -44.3422 199.072 -35.4541 202.391ZM-194.895 127C-205.939 127 -214.892 118.046 -214.892 107C-214.892 95.9543 -205.939 87 -194.895 87C-183.851 87 -174.898 95.9543 -174.898 107C-174.898 118.046 -183.851 127 -194.895 127ZM-124.906 177C-135.95 177 -144.903 168.046 -144.903 157C-144.903 145.954 -135.95 137 -124.906 137C-113.862 137 -104.909 145.954 -104.909 157C-104.909 168.046 -113.862 177 -124.906 177ZM-194.895 427C-205.939 427 -214.892 418.046 -214.892 407C-214.892 395.954 -205.939 387 -194.895 387C-183.851 387 -174.898 395.954 -174.898 407C-174.898 418.046 -183.851 427 -194.895 427ZM-74.9142 407C-74.9142 418.046 -65.9614 427 -54.9174 427C-43.8734 427 -34.9206 418.046 -34.9206 407C-34.9206 395.954 -43.8734 387 -54.9174 387C-65.9614 387 -74.9142 395.954 -74.9142 407ZM85.0602 427C74.0163 427 65.0634 418.046 65.0634 407C65.0634 395.954 74.0163 387 85.0602 387C96.1042 387 105.057 395.954 105.057 407C105.057 418.046 96.1042 427 85.0602 427ZM-144.903 457C-144.903 468.046 -135.95 477 -124.906 477C-113.862 477 -104.909 468.046 -104.909 457C-104.909 445.954 -113.862 437 -124.906 437C-135.95 437 -144.903 445.954 -144.903 457ZM15.0714 477C4.0275 477 -4.92535 468.046 -4.92535 457C-4.92535 445.954 4.0275 437 15.0714 437C26.1154 437 35.0682 445.954 35.0682 457C35.0682 468.046 26.1154 477 15.0714 477ZM135.052 457C135.052 468.046 144.005 477 155.049 477C166.093 477 175.046 468.046 175.046 457C175.046 445.954 166.093 437 155.049 437C144.005 437 135.052 445.954 135.052 457ZM-264.884 477C-275.928 477 -284.881 468.046 -284.881 457C-284.881 445.954 -275.928 437 -264.884 437C-253.84 437 -244.887 445.954 -244.887 457C-244.887 468.046 -253.84 477 -264.884 477ZM-214.892 707C-214.892 718.046 -205.939 727 -194.895 727C-183.851 727 -174.898 718.046 -174.898 707C-174.898 695.954 -183.851 687 -194.895 687C-205.939 687 -214.892 695.954 -214.892 707ZM-54.9174 727C-65.9614 727 -74.9142 718.046 -74.9142 707C-74.9142 695.954 -65.9614 687 -54.9174 687C-43.8734 687 -34.9206 695.954 -34.9206 707C-34.9206 718.046 -43.8734 727 -54.9174 727ZM65.0634 707C65.0634 718.046 74.0163 727 85.0602 727C96.1042 727 105.057 718.046 105.057 707C105.057 695.954 96.1042 687 85.0602 687C74.0163 687 65.0634 695.954 65.0634 707ZM225.038 727C213.994 727 205.041 718.046 205.041 707C205.041 695.954 213.994 687 225.038 687C236.082 687 245.035 695.954 245.035 707C245.035 718.046 236.082 727 225.038 727ZM345.019 707C345.019 718.046 353.972 727 365.016 727C376.059 727 385.012 718.046 385.012 707C385.012 695.954 376.059 687 365.016 687C353.972 687 345.019 695.954 345.019 707ZM-144.903 757C-144.903 768.046 -135.95 777 -124.906 777C-113.862 777 -104.909 768.046 -104.909 757C-104.909 745.954 -113.862 737 -124.906 737C-135.95 737 -144.903 745.954 -144.903 757ZM15.0714 777C4.0275 777 -4.92535 768.046 -4.92535 757C-4.92535 745.954 4.0275 737 15.0714 737C26.1154 737 35.0682 745.954 35.0682 757C35.0682 768.046 26.1154 777 15.0714 777ZM135.052 757C135.052 768.046 144.005 777 155.049 777C166.093 777 175.046 768.046 175.046 757C175.046 745.954 166.093 737 155.049 737C144.005 737 135.052 745.954 135.052 757ZM295.027 777C283.983 777 275.03 768.046 275.03 757C275.03 745.954 283.983 737 295.027 737C306.071 737 315.023 745.954 315.023 757C315.023 768.046 306.071 777 295.027 777ZM-264.884 777C-275.928 777 -284.881 768.046 -284.881 757C-284.881 745.954 -275.928 737 -264.884 737C-253.84 737 -244.887 745.954 -244.887 757C-244.887 768.046 -253.84 777 -264.884 777ZM-214.892 207C-214.892 218.046 -205.939 227 -194.895 227C-183.851 227 -174.898 218.046 -174.898 207C-174.898 195.954 -183.851 187 -194.895 187C-205.939 187 -214.892 195.954 -214.892 207ZM-144.903 257C-144.903 268.046 -135.95 277 -124.906 277C-113.862 277 -104.909 268.046 -104.909 257C-104.909 245.954 -113.862 237 -124.906 237C-135.95 237 -144.903 245.954 -144.903 257ZM15.0714 277C4.0275 277 -4.92535 268.046 -4.92535 257C-4.92535 245.954 4.0275 237 15.0714 237C26.1154 237 35.0682 245.954 35.0682 257C35.0682 268.046 26.1154 277 15.0714 277ZM-194.895 527C-205.939 527 -214.892 518.046 -214.892 507C-214.892 495.954 -205.939 487 -194.895 487C-183.851 487 -174.898 495.954 -174.898 507C-174.898 518.046 -183.851 527 -194.895 527ZM-74.9142 507C-74.9142 518.046 -65.9614 527 -54.9174 527C-43.8734 527 -34.9206 518.046 -34.9206 507C-34.9206 495.954 -43.8734 487 -54.9174 487C-65.9614 487 -74.9142 495.954 -74.9142 507ZM85.0602 527C74.0163 527 65.0634 518.046 65.0634 507C65.0634 495.954 74.0163 487 85.0602 487C96.1042 487 105.057 495.954 105.057 507C105.057 518.046 96.1042 527 85.0602 527ZM205.041 507C205.041 518.046 213.994 527 225.038 527C236.082 527 245.035 518.046 245.035 507C245.035 495.954 236.082 487 225.038 487C213.994 487 205.041 495.954 205.041 507ZM-124.906 577C-135.95 577 -144.903 568.046 -144.903 557C-144.903 545.954 -135.95 537 -124.906 537C-113.862 537 -104.909 545.954 -104.909 557C-104.909 568.046 -113.862 577 -124.906 577ZM-4.92535 557C-4.92535 568.046 4.0275 577 15.0714 577C26.1154 577 35.0682 568.046 35.0682 557C35.0682 545.954 26.1154 537 15.0714 537C4.0275 537 -4.92535 545.954 -4.92535 557ZM155.049 577C144.005 577 135.052 568.046 135.052 557C135.052 545.954 144.005 537 155.049 537C166.093 537 175.046 545.954 175.046 557C175.046 568.046 166.093 577 155.049 577ZM275.03 557C275.03 568.046 283.983 577 295.027 577C306.071 577 315.023 568.046 315.023 557C315.023 545.954 306.071 537 295.027 537C283.983 537 275.03 545.954 275.03 557ZM-264.884 577C-275.928 577 -284.881 568.046 -284.881 557C-284.881 545.954 -275.928 537 -264.884 537C-253.84 537 -244.887 545.954 -244.887 557C-244.887 568.046 -253.84 577 -264.884 577ZM-214.892 807C-214.892 818.046 -205.939 827 -194.895 827C-183.851 827 -174.898 818.046 -174.898 807C-174.898 795.954 -183.851 787 -194.895 787C-205.939 787 -214.892 795.954 -214.892 807ZM-54.9174 827C-65.9614 827 -74.9142 818.046 -74.9142 807C-74.9142 795.954 -65.9614 787 -54.9174 787C-43.8734 787 -34.9206 795.954 -34.9206 807C-34.9206 818.046 -43.8734 827 -54.9174 827ZM65.0634 807C65.0634 818.046 74.0163 827 85.0602 827C96.1042 827 105.057 818.046 105.057 807C105.057 795.954 96.1042 787 85.0602 787C74.0163 787 65.0634 795.954 65.0634 807ZM225.038 827C213.994 827 205.041 818.046 205.041 807C205.041 795.954 213.994 787 225.038 787C236.082 787 245.035 795.954 245.035 807C245.035 818.046 236.082 827 225.038 827ZM-334.873 827C-345.917 827 -354.87 818.046 -354.87 807C-354.87 795.954 -345.917 787 -334.873 787C-323.829 787 -314.876 795.954 -314.876 807C-314.876 818.046 -323.829 827 -334.873 827ZM-144.903 857C-144.903 868.046 -135.95 877 -124.906 877C-113.862 877 -104.909 868.046 -104.909 857C-104.909 845.954 -113.862 837 -124.906 837C-135.95 837 -144.903 845.954 -144.903 857ZM15.0714 877C4.0275 877 -4.92535 868.046 -4.92535 857C-4.92535 845.954 4.0275 837 15.0714 837C26.1154 837 35.0682 845.954 35.0682 857C35.0682 868.046 26.1154 877 15.0714 877ZM135.052 857C135.052 868.046 144.005 877 155.049 877C166.093 877 175.046 868.046 175.046 857C175.046 845.954 166.093 837 155.049 837C144.005 837 135.052 845.954 135.052 857ZM295.027 877C283.983 877 275.03 868.046 275.03 857C275.03 845.954 283.983 837 295.027 837C306.071 837 315.023 845.954 315.023 857C315.023 868.046 306.071 877 295.027 877ZM-284.881 857C-284.881 868.046 -275.928 877 -264.884 877C-253.84 877 -244.887 868.046 -244.887 857C-244.887 845.954 -253.84 837 -264.884 837C-275.928 837 -284.881 845.954 -284.881 857ZM-194.895 327C-205.939 327 -214.892 318.046 -214.892 307C-214.892 295.954 -205.939 287 -194.895 287C-183.851 287 -174.898 295.954 -174.898 307C-174.898 318.046 -183.851 327 -194.895 327ZM-74.9142 307C-74.9142 318.046 -65.9614 327 -54.9174 327C-43.8734 327 -34.9206 318.046 -34.9206 307C-34.9206 295.954 -43.8734 287 -54.9174 287C-65.9614 287 -74.9142 295.954 -74.9142 307ZM-124.906 377C-135.95 377 -144.903 368.046 -144.903 357C-144.903 345.954 -135.95 337 -124.906 337C-113.862 337 -104.909 345.954 -104.909 357C-104.909 368.046 -113.862 377 -124.906 377ZM-4.92535 357C-4.92535 368.046 4.0275 377 15.0714 377C26.1154 377 35.0682 368.046 35.0682 357C35.0682 345.954 26.1154 337 15.0714 337C4.0275 337 -4.92535 345.954 -4.92535 357ZM-194.895 627C-205.939 627 -214.892 618.046 -214.892 607C-214.892 595.954 -205.939 587 -194.895 587C-183.851 587 -174.898 595.954 -174.898 607C-174.898 618.046 -183.851 627 -194.895 627ZM-74.9142 607C-74.9142 618.046 -65.9614 627 -54.9174 627C-43.8734 627 -34.9206 618.046 -34.9206 607C-34.9206 595.954 -43.8734 587 -54.9174 587C-65.9614 587 -74.9142 595.954 -74.9142 607ZM85.0602 627C74.0163 627 65.0634 618.046 65.0634 607C65.0634 595.954 74.0163 587 85.0602 587C96.1042 587 105.057 595.954 105.057 607C105.057 618.046 96.1042 627 85.0602 627ZM205.041 607C205.041 618.046 213.994 627 225.038 627C236.082 627 245.035 618.046 245.035 607C245.035 595.954 236.082 587 225.038 587C213.994 587 205.041 595.954 205.041 607ZM-124.906 677C-135.95 677 -144.903 668.046 -144.903 657C-144.903 645.954 -135.95 637 -124.906 637C-113.862 637 -104.909 645.954 -104.909 657C-104.909 668.046 -113.862 677 -124.906 677ZM-4.92535 657C-4.92535 668.046 4.0275 677 15.0714 677C26.1154 677 35.0682 668.046 35.0682 657C35.0682 645.954 26.1154 637 15.0714 637C4.0275 637 -4.92535 645.954 -4.92535 657ZM155.049 677C144.005 677 135.052 668.046 135.052 657C135.052 645.954 144.005 637 155.049 637C166.093 637 175.046 645.954 175.046 657C175.046 668.046 166.093 677 155.049 677ZM275.03 657C275.03 668.046 283.983 677 295.027 677C306.071 677 315.023 668.046 315.023 657C315.023 645.954 306.071 637 295.027 637C283.983 637 275.03 645.954 275.03 657ZM-284.881 657C-284.881 668.046 -275.928 677 -264.884 677C-253.84 677 -244.887 668.046 -244.887 657C-244.887 645.954 -253.84 637 -264.884 637C-275.928 637 -284.881 645.954 -284.881 657ZM-74.9142 907C-74.9142 918.046 -65.9614 927 -54.9174 927C-43.8734 927 -34.9206 918.046 -34.9206 907C-34.9206 895.954 -43.8734 887 -54.9174 887C-65.9614 887 -74.9142 895.954 -74.9142 907ZM85.0602 927C74.0163 927 65.0634 918.046 65.0634 907C65.0634 895.954 74.0163 887 85.0602 887C96.1042 887 105.057 895.954 105.057 907C105.057 918.046 96.1042 927 85.0602 927ZM205.041 907C205.041 918.046 213.994 927 225.038 927C236.082 927 245.035 918.046 245.035 907C245.035 895.954 236.082 887 225.038 887C213.994 887 205.041 895.954 205.041 907Z" fill="#FFD916"/>
</svg>
