<svg width="308" height="1233" viewBox="0 0 308 1233" fill="none" xmlns="http://www.w3.org/2000/svg">
<rect x="2.66667" y="2.66667" width="302.667" height="47.6667" rx="23.8333" fill="#000579" stroke="black" stroke-width="5.33333"/>
<mask id="mask0_46_4896" style="mask-type:alpha" maskUnits="userSpaceOnUse" x="0" y="0" width="308" height="103">
<rect x="2.66667" y="2.66667" width="302.667" height="97.6667" fill="#000579" stroke="black" stroke-width="5.33333"/>
</mask>
<g mask="url(#mask0_46_4896)">
<mask id="path-3-inside-1_46_4896" fill="white">
<path fill-rule="evenodd" clip-rule="evenodd" d="M269 0H39.687V22.714C39.687 28.8584 40.6281 35.0131 43.1954 40.5956C62.2746 82.0833 104.701 103 154.344 103C203.987 103 246.413 82.0833 265.492 40.5956C268.059 35.0131 269 28.8584 269 22.714V0Z"/>
</mask>
<path fill-rule="evenodd" clip-rule="evenodd" d="M269 0H39.687V22.714C39.687 28.8584 40.6281 35.0131 43.1954 40.5956C62.2746 82.0833 104.701 103 154.344 103C203.987 103 246.413 82.0833 265.492 40.5956C268.059 35.0131 269 28.8584 269 22.714V0Z" fill="#C76C00"/>
<path d="M39.687 0V-5.33333H34.3537V0H39.687ZM269 0H274.333V-5.33333H269V0ZM265.492 40.5956L260.646 38.3672L265.492 40.5956ZM39.687 5.33333H269V-5.33333H39.687V5.33333ZM45.0203 22.714V0H34.3537V22.714H45.0203ZM38.3498 42.8239C58.5413 86.7303 103.267 108.333 154.344 108.333V97.6667C106.134 97.6667 66.0078 77.4364 48.0409 38.3673L38.3498 42.8239ZM154.344 108.333C205.42 108.333 250.146 86.7303 270.337 42.8239L260.646 38.3672C242.679 77.4364 202.553 97.6667 154.344 97.6667V108.333ZM263.667 0V22.714H274.333V0H263.667ZM270.337 42.8239C273.317 36.3437 274.333 29.3738 274.333 22.714H263.667C263.667 28.3431 262.801 33.6825 260.646 38.3672L270.337 42.8239ZM34.3537 22.714C34.3537 29.3738 35.3698 36.3438 38.3498 42.8239L48.0409 38.3673C45.8865 33.6825 45.0203 28.3431 45.0203 22.714H34.3537Z" fill="black" mask="url(#path-3-inside-1_46_4896)"/>
<path d="M154 76.3922C103.482 76.3922 60.365 46.806 42.8575 2.66667H265.142C247.635 46.806 204.518 76.3922 154 76.3922Z" fill="#FFD916" stroke="black" stroke-width="5.33333"/>
</g>
<rect x="36" width="238" height="5" fill="black"/>
<rect x="2.66667" y="115.667" width="302.667" height="47.6667" rx="23.8333" fill="#000579" stroke="black" stroke-width="5.33333"/>
<mask id="mask1_46_4896" style="mask-type:alpha" maskUnits="userSpaceOnUse" x="0" y="113" width="308" height="103">
<rect x="2.66667" y="115.667" width="302.667" height="97.6667" fill="#000579" stroke="black" stroke-width="5.33333"/>
</mask>
<g mask="url(#mask1_46_4896)">
<mask id="path-9-inside-2_46_4896" fill="white">
<path fill-rule="evenodd" clip-rule="evenodd" d="M269 103H39.687V125.714C39.687 131.858 40.6281 138.013 43.1954 143.596C62.2746 185.083 104.701 206 154.344 206C203.987 206 246.413 185.083 265.492 143.596C268.059 138.013 269 131.858 269 125.714V103Z"/>
</mask>
<path fill-rule="evenodd" clip-rule="evenodd" d="M269 103H39.687V125.714C39.687 131.858 40.6281 138.013 43.1954 143.596C62.2746 185.083 104.701 206 154.344 206C203.987 206 246.413 185.083 265.492 143.596C268.059 138.013 269 131.858 269 125.714V103Z" fill="#C76C00"/>
<path d="M39.687 103V97.6667H34.3537V103H39.687ZM269 103H274.333V97.6667H269V103ZM265.492 143.596L260.646 141.367L265.492 143.596ZM39.687 108.333H269V97.6667H39.687V108.333ZM45.0203 125.714V103H34.3537V125.714H45.0203ZM38.3498 145.824C58.5413 189.73 103.267 211.333 154.344 211.333V200.667C106.134 200.667 66.0078 180.436 48.0409 141.367L38.3498 145.824ZM154.344 211.333C205.42 211.333 250.146 189.73 270.337 145.824L260.646 141.367C242.679 180.436 202.553 200.667 154.344 200.667V211.333ZM263.667 103V125.714H274.333V103H263.667ZM270.337 145.824C273.317 139.344 274.333 132.374 274.333 125.714H263.667C263.667 131.343 262.801 136.683 260.646 141.367L270.337 145.824ZM34.3537 125.714C34.3537 132.374 35.3698 139.344 38.3498 145.824L48.0409 141.367C45.8865 136.683 45.0203 131.343 45.0203 125.714H34.3537Z" fill="black" mask="url(#path-9-inside-2_46_4896)"/>
<path d="M154 179.392C103.482 179.392 60.365 149.806 42.8575 105.667H265.142C247.635 149.806 204.518 179.392 154 179.392Z" fill="#FFD916" stroke="black" stroke-width="5.33333"/>
</g>
<rect x="36" y="113" width="238" height="5" fill="black"/>
<rect x="2.66667" y="228.667" width="302.667" height="47.6667" rx="23.8333" fill="#000579" stroke="black" stroke-width="5.33333"/>
<mask id="mask2_46_4896" style="mask-type:alpha" maskUnits="userSpaceOnUse" x="0" y="226" width="308" height="103">
<rect x="2.66667" y="228.667" width="302.667" height="97.6667" fill="#000579" stroke="black" stroke-width="5.33333"/>
</mask>
<g mask="url(#mask2_46_4896)">
<mask id="path-15-inside-3_46_4896" fill="white">
<path fill-rule="evenodd" clip-rule="evenodd" d="M269 206H39.687V228.714C39.687 234.858 40.6281 241.013 43.1954 246.596C62.2746 288.083 104.701 309 154.344 309C203.987 309 246.413 288.083 265.492 246.596C268.059 241.013 269 234.858 269 228.714V206Z"/>
</mask>
<path fill-rule="evenodd" clip-rule="evenodd" d="M269 206H39.687V228.714C39.687 234.858 40.6281 241.013 43.1954 246.596C62.2746 288.083 104.701 309 154.344 309C203.987 309 246.413 288.083 265.492 246.596C268.059 241.013 269 234.858 269 228.714V206Z" fill="#C76C00"/>
<path d="M39.687 206V200.667H34.3537V206H39.687ZM269 206H274.333V200.667H269V206ZM265.492 246.596L260.646 244.367L265.492 246.596ZM39.687 211.333H269V200.667H39.687V211.333ZM45.0203 228.714V206H34.3537V228.714H45.0203ZM38.3498 248.824C58.5413 292.73 103.267 314.333 154.344 314.333V303.667C106.134 303.667 66.0078 283.436 48.0409 244.367L38.3498 248.824ZM154.344 314.333C205.42 314.333 250.146 292.73 270.337 248.824L260.646 244.367C242.679 283.436 202.553 303.667 154.344 303.667V314.333ZM263.667 206V228.714H274.333V206H263.667ZM270.337 248.824C273.317 242.344 274.333 235.374 274.333 228.714H263.667C263.667 234.343 262.801 239.683 260.646 244.367L270.337 248.824ZM34.3537 228.714C34.3537 235.374 35.3698 242.344 38.3498 248.824L48.0409 244.367C45.8865 239.683 45.0203 234.343 45.0203 228.714H34.3537Z" fill="black" mask="url(#path-15-inside-3_46_4896)"/>
<path d="M154 282.392C103.482 282.392 60.365 252.806 42.8575 208.667H265.142C247.635 252.806 204.518 282.392 154 282.392Z" fill="#FFD916" stroke="black" stroke-width="5.33333"/>
</g>
<rect x="36" y="226" width="238" height="5" fill="black"/>
<rect x="2.66667" y="341.667" width="302.667" height="47.6667" rx="23.8333" fill="#000579" stroke="black" stroke-width="5.33333"/>
<mask id="mask3_46_4896" style="mask-type:alpha" maskUnits="userSpaceOnUse" x="0" y="339" width="308" height="103">
<rect x="2.66667" y="341.667" width="302.667" height="97.6667" fill="#000579" stroke="black" stroke-width="5.33333"/>
</mask>
<g mask="url(#mask3_46_4896)">
<mask id="path-21-inside-4_46_4896" fill="white">
<path fill-rule="evenodd" clip-rule="evenodd" d="M269 309H39.687V331.714C39.687 337.858 40.6281 344.013 43.1954 349.596C62.2746 391.083 104.701 412 154.344 412C203.987 412 246.413 391.083 265.492 349.596C268.059 344.013 269 337.858 269 331.714V309Z"/>
</mask>
<path fill-rule="evenodd" clip-rule="evenodd" d="M269 309H39.687V331.714C39.687 337.858 40.6281 344.013 43.1954 349.596C62.2746 391.083 104.701 412 154.344 412C203.987 412 246.413 391.083 265.492 349.596C268.059 344.013 269 337.858 269 331.714V309Z" fill="#C76C00"/>
<path d="M39.687 309V303.667H34.3537V309H39.687ZM269 309H274.333V303.667H269V309ZM265.492 349.596L260.646 347.367L265.492 349.596ZM39.687 314.333H269V303.667H39.687V314.333ZM45.0203 331.714V309H34.3537V331.714H45.0203ZM38.3498 351.824C58.5413 395.73 103.267 417.333 154.344 417.333V406.667C106.134 406.667 66.0078 386.436 48.0409 347.367L38.3498 351.824ZM154.344 417.333C205.42 417.333 250.146 395.73 270.337 351.824L260.646 347.367C242.679 386.436 202.553 406.667 154.344 406.667V417.333ZM263.667 309V331.714H274.333V309H263.667ZM270.337 351.824C273.317 345.344 274.333 338.374 274.333 331.714H263.667C263.667 337.343 262.801 342.683 260.646 347.367L270.337 351.824ZM34.3537 331.714C34.3537 338.374 35.3698 345.344 38.3498 351.824L48.0409 347.367C45.8865 342.683 45.0203 337.343 45.0203 331.714H34.3537Z" fill="black" mask="url(#path-21-inside-4_46_4896)"/>
<path d="M154 385.392C103.482 385.392 60.365 355.806 42.8575 311.667H265.142C247.635 355.806 204.518 385.392 154 385.392Z" fill="#FFD916" stroke="black" stroke-width="5.33333"/>
</g>
<rect x="36" y="339" width="238" height="5" fill="black"/>
<rect x="2.66667" y="454.667" width="302.667" height="47.6667" rx="23.8333" fill="#000579" stroke="black" stroke-width="5.33333"/>
<mask id="mask4_46_4896" style="mask-type:alpha" maskUnits="userSpaceOnUse" x="0" y="452" width="308" height="103">
<rect x="2.66667" y="454.667" width="302.667" height="97.6667" fill="#000579" stroke="black" stroke-width="5.33333"/>
</mask>
<g mask="url(#mask4_46_4896)">
<mask id="path-27-inside-5_46_4896" fill="white">
<path fill-rule="evenodd" clip-rule="evenodd" d="M269 412H39.687V434.714C39.687 440.858 40.6281 447.013 43.1954 452.596C62.2746 494.083 104.701 515 154.344 515C203.987 515 246.413 494.083 265.492 452.596C268.059 447.013 269 440.858 269 434.714V412Z"/>
</mask>
<path fill-rule="evenodd" clip-rule="evenodd" d="M269 412H39.687V434.714C39.687 440.858 40.6281 447.013 43.1954 452.596C62.2746 494.083 104.701 515 154.344 515C203.987 515 246.413 494.083 265.492 452.596C268.059 447.013 269 440.858 269 434.714V412Z" fill="#C76C00"/>
<path d="M39.687 412V406.667H34.3537V412H39.687ZM269 412H274.333V406.667H269V412ZM265.492 452.596L260.646 450.367L265.492 452.596ZM39.687 417.333H269V406.667H39.687V417.333ZM45.0203 434.714V412H34.3537V434.714H45.0203ZM38.3498 454.824C58.5413 498.73 103.267 520.333 154.344 520.333V509.667C106.134 509.667 66.0078 489.436 48.0409 450.367L38.3498 454.824ZM154.344 520.333C205.42 520.333 250.146 498.73 270.337 454.824L260.646 450.367C242.679 489.436 202.553 509.667 154.344 509.667V520.333ZM263.667 412V434.714H274.333V412H263.667ZM270.337 454.824C273.317 448.344 274.333 441.374 274.333 434.714H263.667C263.667 440.343 262.801 445.683 260.646 450.367L270.337 454.824ZM34.3537 434.714C34.3537 441.374 35.3698 448.344 38.3498 454.824L48.0409 450.367C45.8865 445.683 45.0203 440.343 45.0203 434.714H34.3537Z" fill="black" mask="url(#path-27-inside-5_46_4896)"/>
<path d="M154 488.392C103.482 488.392 60.365 458.806 42.8575 414.667H265.142C247.635 458.806 204.518 488.392 154 488.392Z" fill="#FFD916" stroke="black" stroke-width="5.33333"/>
</g>
<rect x="36" y="452" width="238" height="5" fill="black"/>
<rect x="2.66667" y="567.667" width="302.667" height="47.6667" rx="23.8333" fill="#000579" stroke="black" stroke-width="5.33333"/>
<mask id="mask5_46_4896" style="mask-type:alpha" maskUnits="userSpaceOnUse" x="0" y="565" width="308" height="103">
<rect x="2.66667" y="567.667" width="302.667" height="97.6667" fill="#000579" stroke="black" stroke-width="5.33333"/>
</mask>
<g mask="url(#mask5_46_4896)">
<mask id="path-33-inside-6_46_4896" fill="white">
<path fill-rule="evenodd" clip-rule="evenodd" d="M269 515H39.687V537.714C39.687 543.858 40.6281 550.013 43.1954 555.596C62.2746 597.083 104.701 618 154.344 618C203.987 618 246.413 597.083 265.492 555.596C268.059 550.013 269 543.858 269 537.714V515Z"/>
</mask>
<path fill-rule="evenodd" clip-rule="evenodd" d="M269 515H39.687V537.714C39.687 543.858 40.6281 550.013 43.1954 555.596C62.2746 597.083 104.701 618 154.344 618C203.987 618 246.413 597.083 265.492 555.596C268.059 550.013 269 543.858 269 537.714V515Z" fill="#C76C00"/>
<path d="M39.687 515V509.667H34.3537V515H39.687ZM269 515H274.333V509.667H269V515ZM265.492 555.596L260.646 553.367L265.492 555.596ZM39.687 520.333H269V509.667H39.687V520.333ZM45.0203 537.714V515H34.3537V537.714H45.0203ZM38.3498 557.824C58.5413 601.73 103.267 623.333 154.344 623.333V612.667C106.134 612.667 66.0078 592.436 48.0409 553.367L38.3498 557.824ZM154.344 623.333C205.42 623.333 250.146 601.73 270.337 557.824L260.646 553.367C242.679 592.436 202.553 612.667 154.344 612.667V623.333ZM263.667 515V537.714H274.333V515H263.667ZM270.337 557.824C273.317 551.344 274.333 544.374 274.333 537.714H263.667C263.667 543.343 262.801 548.683 260.646 553.367L270.337 557.824ZM34.3537 537.714C34.3537 544.374 35.3698 551.344 38.3498 557.824L48.0409 553.367C45.8865 548.683 45.0203 543.343 45.0203 537.714H34.3537Z" fill="black" mask="url(#path-33-inside-6_46_4896)"/>
<path d="M154 591.392C103.482 591.392 60.365 561.806 42.8575 517.667H265.142C247.635 561.806 204.518 591.392 154 591.392Z" fill="#FFD916" stroke="black" stroke-width="5.33333"/>
</g>
<rect x="36" y="565" width="238" height="5" fill="black"/>
<rect x="2.66667" y="680.667" width="302.667" height="47.6667" rx="23.8333" fill="#000579" stroke="black" stroke-width="5.33333"/>
<mask id="mask6_46_4896" style="mask-type:alpha" maskUnits="userSpaceOnUse" x="0" y="678" width="308" height="103">
<rect x="2.66667" y="680.667" width="302.667" height="97.6667" fill="#000579" stroke="black" stroke-width="5.33333"/>
</mask>
<g mask="url(#mask6_46_4896)">
<mask id="path-39-inside-7_46_4896" fill="white">
<path fill-rule="evenodd" clip-rule="evenodd" d="M269 618H39.687V640.714C39.687 646.858 40.6281 653.013 43.1954 658.596C62.2746 700.083 104.701 721 154.344 721C203.987 721 246.413 700.083 265.492 658.596C268.059 653.013 269 646.858 269 640.714V618Z"/>
</mask>
<path fill-rule="evenodd" clip-rule="evenodd" d="M269 618H39.687V640.714C39.687 646.858 40.6281 653.013 43.1954 658.596C62.2746 700.083 104.701 721 154.344 721C203.987 721 246.413 700.083 265.492 658.596C268.059 653.013 269 646.858 269 640.714V618Z" fill="#C76C00"/>
<path d="M39.687 618V612.667H34.3537V618H39.687ZM269 618H274.333V612.667H269V618ZM265.492 658.596L260.646 656.367L265.492 658.596ZM39.687 623.333H269V612.667H39.687V623.333ZM45.0203 640.714V618H34.3537V640.714H45.0203ZM38.3498 660.824C58.5413 704.73 103.267 726.333 154.344 726.333V715.667C106.134 715.667 66.0078 695.436 48.0409 656.367L38.3498 660.824ZM154.344 726.333C205.42 726.333 250.146 704.73 270.337 660.824L260.646 656.367C242.679 695.436 202.553 715.667 154.344 715.667V726.333ZM263.667 618V640.714H274.333V618H263.667ZM270.337 660.824C273.317 654.344 274.333 647.374 274.333 640.714H263.667C263.667 646.343 262.801 651.683 260.646 656.367L270.337 660.824ZM34.3537 640.714C34.3537 647.374 35.3698 654.344 38.3498 660.824L48.0409 656.367C45.8865 651.683 45.0203 646.343 45.0203 640.714H34.3537Z" fill="black" mask="url(#path-39-inside-7_46_4896)"/>
<path d="M154 694.392C103.482 694.392 60.365 664.806 42.8575 620.667H265.142C247.635 664.806 204.518 694.392 154 694.392Z" fill="#FFD916" stroke="black" stroke-width="5.33333"/>
</g>
<rect x="36" y="678" width="238" height="5" fill="black"/>
<rect x="2.66667" y="793.667" width="302.667" height="47.6667" rx="23.8333" fill="#000579" stroke="black" stroke-width="5.33333"/>
<mask id="mask7_46_4896" style="mask-type:alpha" maskUnits="userSpaceOnUse" x="0" y="791" width="308" height="103">
<rect x="2.66667" y="793.667" width="302.667" height="97.6667" fill="#000579" stroke="black" stroke-width="5.33333"/>
</mask>
<g mask="url(#mask7_46_4896)">
<mask id="path-45-inside-8_46_4896" fill="white">
<path fill-rule="evenodd" clip-rule="evenodd" d="M269 721H39.687V743.714C39.687 749.858 40.6281 756.013 43.1954 761.596C62.2746 803.083 104.701 824 154.344 824C203.987 824 246.413 803.083 265.492 761.596C268.059 756.013 269 749.858 269 743.714V721Z"/>
</mask>
<path fill-rule="evenodd" clip-rule="evenodd" d="M269 721H39.687V743.714C39.687 749.858 40.6281 756.013 43.1954 761.596C62.2746 803.083 104.701 824 154.344 824C203.987 824 246.413 803.083 265.492 761.596C268.059 756.013 269 749.858 269 743.714V721Z" fill="#C76C00"/>
<path d="M39.687 721V715.667H34.3537V721H39.687ZM269 721H274.333V715.667H269V721ZM265.492 761.596L260.646 759.367L265.492 761.596ZM39.687 726.333H269V715.667H39.687V726.333ZM45.0203 743.714V721H34.3537V743.714H45.0203ZM38.3498 763.824C58.5413 807.73 103.267 829.333 154.344 829.333V818.667C106.134 818.667 66.0078 798.436 48.0409 759.367L38.3498 763.824ZM154.344 829.333C205.42 829.333 250.146 807.73 270.337 763.824L260.646 759.367C242.679 798.436 202.553 818.667 154.344 818.667V829.333ZM263.667 721V743.714H274.333V721H263.667ZM270.337 763.824C273.317 757.344 274.333 750.374 274.333 743.714H263.667C263.667 749.343 262.801 754.683 260.646 759.367L270.337 763.824ZM34.3537 743.714C34.3537 750.374 35.3698 757.344 38.3498 763.824L48.0409 759.367C45.8865 754.683 45.0203 749.343 45.0203 743.714H34.3537Z" fill="black" mask="url(#path-45-inside-8_46_4896)"/>
<path d="M154 797.392C103.482 797.392 60.365 767.806 42.8575 723.667H265.142C247.635 767.806 204.518 797.392 154 797.392Z" fill="#FFD916" stroke="black" stroke-width="5.33333"/>
</g>
<rect x="36" y="791" width="238" height="5" fill="black"/>
<rect x="2.66667" y="906.667" width="302.667" height="47.6667" rx="23.8333" fill="#000579" stroke="black" stroke-width="5.33333"/>
<mask id="mask8_46_4896" style="mask-type:alpha" maskUnits="userSpaceOnUse" x="0" y="904" width="308" height="103">
<rect x="2.66667" y="906.667" width="302.667" height="97.6667" fill="#000579" stroke="black" stroke-width="5.33333"/>
</mask>
<g mask="url(#mask8_46_4896)">
<mask id="path-51-inside-9_46_4896" fill="white">
<path fill-rule="evenodd" clip-rule="evenodd" d="M269 824H39.687V846.714C39.687 852.858 40.6281 859.013 43.1954 864.596C62.2746 906.083 104.701 927 154.344 927C203.987 927 246.413 906.083 265.492 864.596C268.059 859.013 269 852.858 269 846.714V824Z"/>
</mask>
<path fill-rule="evenodd" clip-rule="evenodd" d="M269 824H39.687V846.714C39.687 852.858 40.6281 859.013 43.1954 864.596C62.2746 906.083 104.701 927 154.344 927C203.987 927 246.413 906.083 265.492 864.596C268.059 859.013 269 852.858 269 846.714V824Z" fill="#C76C00"/>
<path d="M39.687 824V818.667H34.3537V824H39.687ZM269 824H274.333V818.667H269V824ZM265.492 864.596L260.646 862.367L265.492 864.596ZM39.687 829.333H269V818.667H39.687V829.333ZM45.0203 846.714V824H34.3537V846.714H45.0203ZM38.3498 866.824C58.5413 910.73 103.267 932.333 154.344 932.333V921.667C106.134 921.667 66.0078 901.436 48.0409 862.367L38.3498 866.824ZM154.344 932.333C205.42 932.333 250.146 910.73 270.337 866.824L260.646 862.367C242.679 901.436 202.553 921.667 154.344 921.667V932.333ZM263.667 824V846.714H274.333V824H263.667ZM270.337 866.824C273.317 860.344 274.333 853.374 274.333 846.714H263.667C263.667 852.343 262.801 857.683 260.646 862.367L270.337 866.824ZM34.3537 846.714C34.3537 853.374 35.3698 860.344 38.3498 866.824L48.0409 862.367C45.8865 857.683 45.0203 852.343 45.0203 846.714H34.3537Z" fill="black" mask="url(#path-51-inside-9_46_4896)"/>
</g>
<rect x="36" y="904" width="238" height="5" fill="black"/>
<rect x="2.66667" y="1019.67" width="302.667" height="47.6667" rx="23.8333" fill="#000579" stroke="black" stroke-width="5.33333"/>
<mask id="mask9_46_4896" style="mask-type:alpha" maskUnits="userSpaceOnUse" x="0" y="1017" width="308" height="103">
<rect x="2.66667" y="1019.67" width="302.667" height="97.6667" fill="#000579" stroke="black" stroke-width="5.33333"/>
</mask>
<g mask="url(#mask9_46_4896)">
<mask id="path-56-inside-10_46_4896" fill="white">
<path fill-rule="evenodd" clip-rule="evenodd" d="M269 927H39.687V949.714C39.687 955.858 40.6281 962.013 43.1954 967.596C62.2746 1009.08 104.701 1030 154.344 1030C203.987 1030 246.413 1009.08 265.492 967.596C268.059 962.013 269 955.858 269 949.714V927Z"/>
</mask>
<path fill-rule="evenodd" clip-rule="evenodd" d="M269 927H39.687V949.714C39.687 955.858 40.6281 962.013 43.1954 967.596C62.2746 1009.08 104.701 1030 154.344 1030C203.987 1030 246.413 1009.08 265.492 967.596C268.059 962.013 269 955.858 269 949.714V927Z" fill="#C76C00"/>
<path d="M39.687 927V921.667H34.3537V927H39.687ZM269 927H274.333V921.667H269V927ZM265.492 967.596L260.646 965.367L265.492 967.596ZM39.687 932.333H269V921.667H39.687V932.333ZM45.0203 949.714V927H34.3537V949.714H45.0203ZM38.3498 969.824C58.5413 1013.73 103.267 1035.33 154.344 1035.33V1024.67C106.134 1024.67 66.0078 1004.44 48.0409 965.367L38.3498 969.824ZM154.344 1035.33C205.42 1035.33 250.146 1013.73 270.337 969.824L260.646 965.367C242.679 1004.44 202.553 1024.67 154.344 1024.67V1035.33ZM263.667 927V949.714H274.333V927H263.667ZM270.337 969.824C273.317 963.344 274.333 956.374 274.333 949.714H263.667C263.667 955.343 262.801 960.683 260.646 965.367L270.337 969.824ZM34.3537 949.714C34.3537 956.374 35.3698 963.344 38.3498 969.824L48.0409 965.367C45.8865 960.683 45.0203 955.343 45.0203 949.714H34.3537Z" fill="black" mask="url(#path-56-inside-10_46_4896)"/>
</g>
<rect x="36" y="1017" width="238" height="5" fill="black"/>
<rect x="2.66667" y="1132.67" width="302.667" height="47.6667" rx="23.8333" fill="#000579" stroke="black" stroke-width="5.33333"/>
<mask id="mask10_46_4896" style="mask-type:alpha" maskUnits="userSpaceOnUse" x="0" y="1130" width="308" height="103">
<rect x="2.66667" y="1132.67" width="302.667" height="97.6667" fill="#000579" stroke="black" stroke-width="5.33333"/>
</mask>
<g mask="url(#mask10_46_4896)">
<mask id="path-61-inside-11_46_4896" fill="white">
<path fill-rule="evenodd" clip-rule="evenodd" d="M269 1030H39.687V1052.71C39.687 1058.86 40.6281 1065.01 43.1954 1070.6C62.2746 1112.08 104.701 1133 154.344 1133C203.987 1133 246.413 1112.08 265.492 1070.6C268.059 1065.01 269 1058.86 269 1052.71V1030Z"/>
</mask>
<path fill-rule="evenodd" clip-rule="evenodd" d="M269 1030H39.687V1052.71C39.687 1058.86 40.6281 1065.01 43.1954 1070.6C62.2746 1112.08 104.701 1133 154.344 1133C203.987 1133 246.413 1112.08 265.492 1070.6C268.059 1065.01 269 1058.86 269 1052.71V1030Z" fill="#C76C00"/>
<path d="M39.687 1030V1024.67H34.3537V1030H39.687ZM269 1030H274.333V1024.67H269V1030ZM265.492 1070.6L260.646 1068.37L265.492 1070.6ZM39.687 1035.33H269V1024.67H39.687V1035.33ZM45.0203 1052.71V1030H34.3537V1052.71H45.0203ZM38.3498 1072.82C58.5413 1116.73 103.267 1138.33 154.344 1138.33V1127.67C106.134 1127.67 66.0078 1107.44 48.0409 1068.37L38.3498 1072.82ZM154.344 1138.33C205.42 1138.33 250.146 1116.73 270.337 1072.82L260.646 1068.37C242.679 1107.44 202.553 1127.67 154.344 1127.67V1138.33ZM263.667 1030V1052.71H274.333V1030H263.667ZM270.337 1072.82C273.317 1066.34 274.333 1059.37 274.333 1052.71H263.667C263.667 1058.34 262.801 1063.68 260.646 1068.37L270.337 1072.82ZM34.3537 1052.71C34.3537 1059.37 35.3698 1066.34 38.3498 1072.82L48.0409 1068.37C45.8865 1063.68 45.0203 1058.34 45.0203 1052.71H34.3537Z" fill="black" mask="url(#path-61-inside-11_46_4896)"/>
</g>
<rect x="36" y="1130" width="238" height="5" fill="black"/>
</svg>
