<svg width="666" height="312" viewBox="0 0 666 312" fill="none" xmlns="http://www.w3.org/2000/svg">
<mask id="path-1-inside-1_39_603" fill="white">
<path fill-rule="evenodd" clip-rule="evenodd" d="M333 0C296.218 0 266.4 29.8178 266.4 66.6V95.3667C192.124 101.844 118.57 119.179 48.1536 147.37C19.0688 159.014 0 187.189 0 218.518V259.972C216.581 329.34 449.419 329.34 666 259.972V218.518C666 187.189 646.931 159.014 617.846 147.37C547.431 119.179 473.876 101.844 399.6 95.3668V66.6C399.6 29.8178 369.783 0 333 0Z"/>
</mask>
<path fill-rule="evenodd" clip-rule="evenodd" d="M333 0C296.218 0 266.4 29.8178 266.4 66.6V95.3667C192.124 101.844 118.57 119.179 48.1536 147.37C19.0688 159.014 0 187.189 0 218.518V259.972C216.581 329.34 449.419 329.34 666 259.972V218.518C666 187.189 646.931 159.014 617.846 147.37C547.431 119.179 473.876 101.844 399.6 95.3668V66.6C399.6 29.8178 369.783 0 333 0Z" fill="#010AC9"/>
<path d="M266.4 95.3667L266.864 100.68L271.734 100.255V95.3667H266.4ZM48.1536 147.37L50.1359 152.321L50.1359 152.321L48.1536 147.37ZM0 259.972H-5.33333V263.864L-1.62679 265.051L0 259.972ZM666 259.972L667.627 265.051L671.333 263.864V259.972H666ZM617.846 147.37L619.829 142.419L619.829 142.419L617.846 147.37ZM399.6 95.3668H394.267V100.255L399.137 100.68L399.6 95.3668ZM271.734 66.6C271.734 32.7633 299.164 5.33333 333 5.33333V-5.33333C293.273 -5.33333 261.067 26.8723 261.067 66.6H271.734ZM271.734 95.3667V66.6H261.067V95.3667H271.734ZM50.1359 152.321C120.062 124.326 193.105 107.112 266.864 100.68L265.937 90.0536C191.144 96.5761 117.077 114.031 46.1713 142.419L50.1359 152.321ZM5.33333 218.518C5.33333 189.369 23.0751 163.155 50.1359 152.321L46.1713 142.419C15.0625 154.874 -5.33333 185.009 -5.33333 218.518H5.33333ZM5.33333 259.972V218.518H-5.33333V259.972H5.33333ZM664.373 254.893C448.85 323.922 217.15 323.922 1.62679 254.893L-1.62679 265.051C216.012 334.758 449.988 334.758 667.627 265.051L664.373 254.893ZM660.667 218.518V259.972H671.333V218.518H660.667ZM615.864 152.321C642.925 163.155 660.667 189.369 660.667 218.518H671.333C671.333 185.009 650.937 154.874 619.829 142.419L615.864 152.321ZM399.137 100.68C472.896 107.112 545.938 124.326 615.864 152.321L619.829 142.419C548.923 114.031 474.856 96.5762 400.064 90.0536L399.137 100.68ZM394.267 66.6V95.3668H404.934V66.6H394.267ZM333 5.33333C366.837 5.33333 394.267 32.7634 394.267 66.6H404.934C404.934 26.8723 372.728 -5.33333 333 -5.33333V5.33333Z" fill="black" mask="url(#path-1-inside-1_39_603)"/>
</svg>
