<svg width="400" height="321" viewBox="0 0 400 321" fill="none" xmlns="http://www.w3.org/2000/svg">
<mask id="path-1-inside-1_39_606" fill="white">
<path d="M0 200.667C0 90.2096 89.5431 0.666504 200 0.666504V0.666504C310.457 0.666504 400 90.2096 400 200.667V320.667H0V200.667Z"/>
</mask>
<path d="M0 200.667C0 90.2096 89.5431 0.666504 200 0.666504V0.666504C310.457 0.666504 400 90.2096 400 200.667V320.667H0V200.667Z" fill="#FF5903"/>
<path d="M400 320.667V326H405.333V320.667H400ZM0 320.667H-5.33333V326H0V320.667ZM394.667 200.667V320.667H405.333V200.667H394.667ZM400 315.333H0V326H400V315.333ZM5.33333 320.667V200.667H-5.33333V320.667H5.33333ZM200 5.99984C307.511 5.99984 394.667 93.1551 394.667 200.667H405.333C405.333 87.264 313.402 -4.66683 200 -4.66683V5.99984ZM200 -4.66683C86.5975 -4.66683 -5.33333 87.264 -5.33333 200.667H5.33333C5.33333 93.1551 92.4886 5.99984 200 5.99984V-4.66683Z" fill="black" mask="url(#path-1-inside-1_39_606)"/>
</svg>
