<svg width="1327" height="933" viewBox="0 0 1327 933" fill="none" xmlns="http://www.w3.org/2000/svg">
<mask id="path-1-inside-1_46_4768" fill="white">
<path d="M121.139 40.4265C126.545 16.7736 147.583 0 171.842 0H1155.16C1179.42 0 1200.45 16.7736 1205.86 40.4264L1210.78 61.9659C1272.32 331.181 1311.16 605.084 1326.92 880.793C1328.54 909.131 1306 933 1277.62 933H49.3832C21.003 933 -1.53716 909.131 0.0820998 880.793C15.8363 605.084 54.6838 331.181 116.216 61.9661L121.139 40.4265Z"/>
</mask>
<path d="M121.139 40.4265C126.545 16.7736 147.583 0 171.842 0H1155.16C1179.42 0 1200.45 16.7736 1205.86 40.4264L1210.78 61.9659C1272.32 331.181 1311.16 605.084 1326.92 880.793C1328.54 909.131 1306 933 1277.62 933H49.3832C21.003 933 -1.53716 909.131 0.0820998 880.793C15.8363 605.084 54.6838 331.181 116.216 61.9661L121.139 40.4265Z" fill="#010AC9"/>
<path d="M0.0820998 880.793L-5.24255 880.489L0.0820998 880.793ZM116.216 61.9661L121.415 63.1544L121.415 63.1544L116.216 61.9661ZM1210.78 61.9659L1215.98 60.7776L1215.98 60.7776L1210.78 61.9659ZM1326.92 880.793L1321.59 881.097L1326.92 880.793ZM1205.86 40.4264L1200.66 41.6147L1200.66 41.6147L1205.86 40.4264ZM121.139 40.4265L115.94 39.2381L115.94 39.2381L121.139 40.4265ZM171.842 5.33333H1155.16V-5.33333H171.842V5.33333ZM1277.62 927.667H49.3832V938.333H1277.62V927.667ZM1200.66 41.6147L1205.58 63.1543L1215.98 60.7776L1211.06 39.238L1200.66 41.6147ZM121.415 63.1544L126.338 41.6148L115.94 39.2381L111.017 60.7777L121.415 63.1544ZM5.40675 881.097C21.1439 605.686 59.9495 332.079 121.415 63.1544L111.017 60.7777C49.4181 330.283 10.5286 604.482 -5.24255 880.489L5.40675 881.097ZM1205.58 63.1543C1267.05 332.078 1305.86 605.686 1321.59 881.097L1332.24 880.489C1316.47 604.482 1277.58 330.283 1215.98 60.7776L1205.58 63.1543ZM49.3832 927.667C24.0689 927.667 3.9623 906.376 5.40675 881.097L-5.24255 880.489C-7.03662 911.886 17.937 938.333 49.3832 938.333V927.667ZM1277.62 938.333C1309.06 938.333 1334.04 911.886 1332.24 880.489L1321.59 881.097C1323.04 906.376 1302.93 927.667 1277.62 927.667V938.333ZM1155.16 5.33333C1176.93 5.33333 1195.81 20.3866 1200.66 41.6147L1211.06 39.238C1205.1 13.1606 1181.91 -5.33333 1155.16 -5.33333V5.33333ZM171.842 -5.33333C145.095 -5.33333 121.9 13.1606 115.94 39.2381L126.338 41.6148C131.19 20.3866 150.071 5.33333 171.842 5.33333V-5.33333Z" fill="black" mask="url(#path-1-inside-1_46_4768)"/>
</svg>
