<svg width="323" height="833" viewBox="0 0 323 833" fill="none" xmlns="http://www.w3.org/2000/svg">
<path d="M262.38 168.272C235.037 139.857 203.659 134.323 168.247 151.672C112.569 189.69 81.1914 184.157 74.1149 135.071C50.9168 83.1418 19.5393 77.6082 -20.0177 118.47C-45.3674 133.362 -76.7449 127.829 -114.15 101.869C-142.217 77.5566 -173.595 72.023 -208.283 85.2685C-257.181 110.49 -288.558 104.956 -302.415 68.6677C-328.006 30.3102 -359.384 24.7766 -396.548 52.0669C-424.627 66.6408 -456.004 61.1072 -490.68 35.4662C-518.719 10.9957 -550.097 5.46212 -584.813 18.8654C-615.203 34.8319 -638.751 38.9441 -655.455 31.202L-678.946 2.26465C-673.855 16.6571 -666.025 26.3029 -655.455 31.202L-7.44125 829.468L143.535 759.135L294.51 688.801L319.355 677.334L270.413 298.405L262.38 168.272Z" fill="#F2F2F2"/>
<path d="M-655.455 31.202C-638.751 38.9441 -615.203 34.8319 -584.813 18.8654C-550.097 5.46212 -518.719 10.9957 -490.68 35.4662C-456.004 61.1072 -424.627 66.6408 -396.548 52.0669C-359.384 24.7766 -328.006 30.3102 -302.415 68.6677C-288.558 104.956 -257.181 110.49 -208.283 85.2685C-173.595 72.023 -142.217 77.5566 -114.15 101.869C-76.7449 127.829 -45.3674 133.362 -20.0177 118.47C19.5393 77.6082 50.9168 83.1418 74.1149 135.071C81.1914 184.157 112.569 189.69 168.247 151.672C203.659 134.323 235.037 139.857 262.38 168.272L270.413 298.405L319.355 677.334L294.51 688.801L143.535 759.135L-7.44125 829.468L-655.455 31.202ZM-655.455 31.202C-666.025 26.3029 -673.855 16.6571 -678.946 2.26465L-655.455 31.202Z" stroke="black" stroke-width="5.33333"/>
<path fill-rule="evenodd" clip-rule="evenodd" d="M-606.289 31.4465C-622.202 37.2494 -636.036 39.0629 -647.656 36.5779L-453.797 275.386L63.9861 793.252L126.348 764.2L-606.289 31.4465ZM-438.694 61.9329C-455.752 59.5592 -473.634 51.3865 -492.265 37.6105L-492.352 37.5464L-492.433 37.4755C-506.149 25.5052 -520.57 18.2585 -535.705 15.5893C-547.878 13.4427 -560.629 14.2362 -573.988 18.0399L157.529 749.674L219.891 720.622L-438.694 61.9329ZM-260.074 103.446C-263.155 103.421 -266.114 103.161 -268.952 102.66C-285.693 99.7079 -297.608 88.5287 -304.797 69.9021C-317.326 51.2116 -330.965 40.9572 -345.604 38.3756C-360.306 35.7827 -376.709 40.8078 -394.969 54.2165L-395.136 54.3388L-395.319 54.4339C-396.472 55.0321 -397.629 55.5974 -398.791 56.1299L251.072 706.096L293.394 686.38L313.492 677.103L-260.074 103.446ZM-132.747 91.8291C-141.31 86.9396 -150.125 83.7104 -159.196 82.1108C-174.295 79.448 -190.275 81.2703 -207.193 87.7072C-212.137 90.2534 -216.923 92.4983 -221.549 94.4363L310.053 626.124L296.493 521.138L-132.747 91.8291ZM10.7514 98.2151C1.88556 102.323 -7.72226 109.603 -18.1015 120.325L-18.3538 120.586L-18.6666 120.769C-28.2307 126.388 -38.551 129.197 -49.594 129.284L289.713 468.645L276.153 363.659L10.7514 98.2151ZM195.115 145.473C186.91 146.856 178.406 149.682 169.592 153.983C155.864 163.344 143.507 170.142 132.536 174.308L269.373 311.167L267.758 298.658L262.46 212.828L195.115 145.473ZM-256.514 518.412L-6.68127 826.173L32.8052 807.778L-256.514 518.412Z" fill="#FF5903"/>
</svg>
