<svg width="324" height="833" viewBox="0 0 324 833" fill="none" xmlns="http://www.w3.org/2000/svg">
<path d="M60.6515 168.272C87.9993 139.857 119.382 134.323 154.799 151.672C210.487 189.69 241.869 184.157 248.947 135.071C272.148 83.1418 303.531 77.6082 343.094 118.47C368.448 133.362 399.831 127.829 437.242 101.869C465.313 77.5566 496.696 72.023 531.39 85.2685C580.295 110.49 611.678 104.956 625.537 68.6677C651.132 30.3102 682.515 24.7766 719.685 52.0669C747.768 66.6408 779.15 61.1072 813.832 35.4662C841.876 10.9957 873.258 5.46212 907.98 18.8654C938.375 34.8319 961.926 38.9441 978.633 31.202L1002.13 2.26465C997.037 16.6571 989.205 26.3029 978.633 31.202L330.516 829.468L179.516 759.135L28.5159 688.801L3.66699 677.334L52.6176 298.405L60.6515 168.272Z" fill="#F2F2F2"/>
<path d="M978.633 31.202C961.926 38.9441 938.375 34.8319 907.98 18.8654C873.258 5.46212 841.876 10.9957 813.832 35.4662C779.15 61.1072 747.768 66.6408 719.685 52.0669C682.515 24.7766 651.132 30.3102 625.537 68.6677C611.678 104.956 580.295 110.49 531.39 85.2685C496.696 72.023 465.313 77.5566 437.242 101.869C399.831 127.829 368.448 133.362 343.094 118.47C303.531 77.6082 272.149 83.1418 248.947 135.071C241.869 184.157 210.487 189.69 154.799 151.672C119.382 134.323 87.9993 139.857 60.6515 168.272L52.6176 298.405L3.66699 677.334L28.5159 688.801L179.516 759.135L330.516 829.468L978.633 31.202ZM978.633 31.202C989.205 26.3029 997.037 16.6571 1002.13 2.26465L978.633 31.202Z" stroke="black" stroke-width="5.33333"/>
<path fill-rule="evenodd" clip-rule="evenodd" d="M929.459 31.4465C945.375 37.2494 959.211 39.0629 970.833 36.5779L776.945 275.384L259.077 793.252L196.705 764.2L929.459 31.4465ZM761.837 61.9329C778.898 59.5593 796.784 51.3866 815.417 37.6105L815.504 37.5464L815.585 37.4755C829.303 25.5052 843.727 18.2585 858.864 15.5893C871.039 13.4427 883.792 14.2362 897.154 18.0398L165.52 749.674L103.148 720.622L761.837 61.9329ZM583.189 103.446C586.27 103.421 589.23 103.161 592.068 102.66C608.812 99.7079 620.729 88.5287 627.919 69.9022C640.45 51.2116 654.092 40.9572 668.733 38.3756C683.438 35.7827 699.843 40.8078 718.106 54.2165L718.273 54.3388L718.456 54.4339C719.609 55.0321 720.766 55.5973 721.928 56.1298L71.9619 706.096L29.6329 686.38L9.53131 677.103L583.189 103.446ZM455.841 91.8294C464.406 86.9398 473.223 83.7104 482.295 82.1108C497.397 79.448 513.379 81.2703 530.3 87.7072C535.245 90.2533 540.031 92.4982 544.658 94.4362L12.9708 626.124L26.533 521.138L455.841 91.8294ZM312.32 98.215C321.188 102.323 330.797 109.603 341.178 120.325L341.43 120.586L341.743 120.769C351.309 126.388 361.631 129.197 372.675 129.284L33.3141 468.645L46.8763 363.659L312.32 98.215ZM127.927 145.473C136.134 146.856 144.639 149.682 153.455 153.983C167.184 163.344 179.543 170.142 190.516 174.308L53.6574 311.166L55.2733 298.658L60.5721 212.828L127.927 145.473ZM579.63 518.411L329.756 826.173L290.263 807.778L579.63 518.411Z" fill="#FF1A87"/>
</svg>
