<svg width="280" height="111" viewBox="0 0 280 111" fill="none" xmlns="http://www.w3.org/2000/svg">
<path fill-rule="evenodd" clip-rule="evenodd" d="M13.6777 30.7707H8.13511V54.5295H0V0.473633H8.13511V22.1249H13.6777V0.473633H21.812V54.5295H13.6777V30.7707Z" fill="#F2F2F2"/>
<path fill-rule="evenodd" clip-rule="evenodd" d="M36.0761 55.2413H34.4736C27.9186 55.2413 24.4229 51.676 24.4229 44.9789V34.1339H32.5804V43.5968C32.5804 46.0714 33.3812 47.3807 35.2753 47.3807C37.2414 47.3807 37.9702 46.0714 37.9702 42.7229V41.4856C37.9702 37.629 37.6058 36.246 34.6202 32.3885L29.3753 25.6923C25.8796 21.1794 24.8601 17.686 24.8601 12.2999V10.5537C24.8601 3.34768 28.5008 0 34.9837 0H36.5134C43.2862 0 45.9082 2.98352 45.9082 9.38924V18.2687H37.9702V10.4809C37.9702 8.66093 37.6058 7.278 35.6388 7.278C33.6727 7.278 33.2355 8.51527 33.2355 11.0627V12.0823C33.2355 15.1395 33.8185 16.8129 36.5854 20.3791L41.8294 27.1481C45.5438 31.9515 46.709 34.7183 46.709 40.831V42.5789C46.709 50.5107 43.2862 55.2413 36.0761 55.2413Z" fill="#F2F2F2"/>
<path fill-rule="evenodd" clip-rule="evenodd" d="M67.8512 0.473633V8.31969H57.4661V22.4884H65.6149V30.6988H57.4661V46.3199H68.2834V54.5295H49.3164V0.473633H67.8512Z" fill="#F2F2F2"/>
<path fill-rule="evenodd" clip-rule="evenodd" d="M89.5616 36.2936L87.3522 16.312L85.2172 36.2936H89.5616ZM90.4441 44.3569H84.4076L83.3034 54.5295H75.8662L82.5657 0.473633H92.4325L99.5749 54.5295H91.5501L90.4441 44.3569Z" fill="#F2F2F2"/>
<path fill-rule="evenodd" clip-rule="evenodd" d="M109.052 22.7057H111.253C113.527 22.7057 114.261 21.2525 114.261 18.8549V11.2988C114.261 8.97402 113.747 7.81161 111.253 7.81161H109.052V22.7057ZM109.052 54.5295H100.762V0.473633H114.188C119.69 0.473633 122.477 2.79845 122.477 8.82861V18.4187C122.477 22.9238 120.349 24.667 118.883 25.3213C120.716 26.1202 122.477 27.5743 122.477 31.2061V50.1698C122.477 52.3492 122.917 53.3654 123.285 54.1643V54.5295H115.067C114.7 53.9479 114.261 53.0036 114.261 50.0971V33.8225C114.261 31.4242 113.821 30.4072 111.179 30.4072H109.052V54.5295Z" fill="#F2F2F2"/>
<path fill-rule="evenodd" clip-rule="evenodd" d="M138.711 8.31969V54.5295H130.622V8.31969H123.76V0.473633H145.572V8.31969H138.711Z" fill="#F2F2F2"/>
<path fill-rule="evenodd" clip-rule="evenodd" d="M164.482 36.2936L162.272 16.312L160.137 36.2936H164.482ZM165.364 44.3569H159.327L158.222 54.5295H150.786L157.486 0.473633H167.352L174.494 54.5295H166.469L165.364 44.3569Z" fill="#F2F2F2"/>
<path fill-rule="evenodd" clip-rule="evenodd" d="M183.289 0.473633L190.295 29.4629V0.473633H197.733V54.5295H191.089L183.289 23.4319V54.5295H175.921V0.473633H183.289Z" fill="#F2F2F2"/>
<path fill-rule="evenodd" clip-rule="evenodd" d="M209.266 46.6818H211.229C213.701 46.6818 214.429 45.3748 214.429 42.4692V12.0259C214.429 8.90132 213.629 7.81161 211.592 7.81161H209.266V46.6818ZM201.05 0.473633H213.629C220.68 0.473633 222.862 4.46894 222.862 10.8635V43.7761C222.862 50.3871 220.39 54.5295 213.629 54.5295H201.05V0.473633Z" fill="#F2F2F2"/>
<path fill-rule="evenodd" clip-rule="evenodd" d="M8.2162 102.398H10.1789C12.6509 102.398 13.3784 101.091 13.3784 98.1852V67.7414C13.3784 64.6176 12.5789 63.5271 10.5427 63.5271H8.2162V102.398ZM0 56.189H12.5789C19.6302 56.189 21.812 60.1852 21.812 66.5781V99.493C21.812 106.103 19.34 110.245 12.5789 110.245H0V56.189Z" fill="#F2F2F2"/>
<path fill-rule="evenodd" clip-rule="evenodd" d="M43.4275 56.189V64.036H33.0432V78.2032H41.1921V86.4146H33.0432V102.036H43.8605V110.245H24.8936V56.189H43.4275Z" fill="#F2F2F2"/>
<path fill-rule="evenodd" clip-rule="evenodd" d="M57.1713 110.957H55.5688C49.0138 110.957 45.5181 107.391 45.5181 100.694V89.8499H53.6756V99.3117C53.6756 101.786 54.4764 103.096 56.3696 103.096C58.3366 103.096 59.0654 101.786 59.0654 98.4386V97.2014C59.0654 93.344 58.701 91.9611 55.7154 88.1037L50.4706 81.4069C46.9748 76.8949 45.9554 73.4025 45.9554 68.0174V66.2695C45.9554 59.0638 49.596 55.7153 56.079 55.7153H57.6086C64.3814 55.7153 67.0034 58.7013 67.0034 65.1043V73.9851H59.0654V66.1967C59.0654 64.3768 58.701 62.994 56.734 62.994C54.768 62.994 54.3307 64.2312 54.3307 66.7785V67.7981C54.3307 70.8544 54.9137 72.5294 57.6806 76.0946L62.9247 82.8626C66.639 87.6667 67.8043 90.4325 67.8043 96.5467V98.2938C67.8043 106.225 64.3814 110.957 57.1713 110.957Z" fill="#F2F2F2"/>
<mask id="mask0_39_626" style="mask-type:alpha" maskUnits="userSpaceOnUse" x="69" y="55" width="35" height="56">
<path d="M69.9712 55.7378H103.237V110.906H69.9712V55.7378Z" fill="white"/>
</mask>
<g mask="url(#mask0_39_626)">
<path fill-rule="evenodd" clip-rule="evenodd" d="M69.9707 110.229H78.2687V56.2461H69.9707V110.229Z" fill="#F2F2F2"/>
<path fill-rule="evenodd" clip-rule="evenodd" d="M89.0685 110.956C84.2222 110.956 81.1387 106.676 81.1387 101.089V67.3473C81.1387 61.326 83.4883 55.7378 91.3455 55.7378H92.9603C101.846 55.7378 102.874 61.4704 102.874 67.8564V73.3712H94.7964V67.2747C94.7964 64.8812 94.2086 63.5751 92.1537 63.5751C90.3911 63.5751 89.5828 64.8812 89.5828 67.2747V98.8394C89.5828 101.378 90.6107 102.685 92.2998 102.685C94.4299 102.685 95.3834 101.234 95.3834 99.2016V85.706H91.6385V77.4338H103.241V110.23H98.5413C98.4678 109.94 97.8074 107.256 97.1461 104.934C96.5582 106.749 93.7677 110.956 89.5828 110.956H89.0685Z" fill="#F2F2F2"/>
</g>
<path fill-rule="evenodd" clip-rule="evenodd" d="M113.347 56.189L120.353 85.1778V56.189H127.792V110.245H121.147L113.347 79.1476V110.245H105.979V56.189H113.347Z" fill="#F2F2F2"/>
<path fill-rule="evenodd" clip-rule="evenodd" d="M149.402 110.957H147.8C141.246 110.957 137.749 107.391 137.749 100.694V89.8499H145.907V99.3117C145.907 101.786 146.707 103.096 148.601 103.096C150.568 103.096 151.295 101.786 151.295 98.4386V97.2014C151.295 93.344 150.932 91.9611 147.945 88.1037L142.702 81.4069C139.206 76.8949 138.186 73.4025 138.186 68.0174V66.2695C138.186 59.0638 141.828 55.7153 148.31 55.7153H149.84C156.612 55.7153 159.234 58.7013 159.234 65.1043V73.9851H151.295V66.1967C151.295 64.3768 150.932 62.994 148.965 62.994C146.999 62.994 146.562 64.2312 146.562 66.7785V67.7981C146.562 70.8544 147.145 72.5294 149.912 76.0946L155.156 82.8626C158.87 87.6667 160.035 90.4325 160.035 96.5467V98.2938C160.035 106.225 156.612 110.957 149.402 110.957Z" fill="#F2F2F2"/>
<path fill-rule="evenodd" clip-rule="evenodd" d="M175.732 99.327V86.7527H183.742V99.2543C183.742 105.07 181.865 110.957 174.001 110.957H172.196C163.97 110.957 162.167 104.997 162.167 99.5461V66.5457C162.167 61.0231 164.547 55.7153 171.908 55.7153H173.784C182.732 55.7153 183.742 61.6769 183.742 66.983V76.6488H175.732V67.1276C175.732 64.8018 175.011 63.5662 172.991 63.5662C170.97 63.5662 170.465 64.73 170.465 67.1276V99.2543C170.465 101.653 171.258 102.961 173.063 102.961C175.011 102.961 175.732 101.507 175.732 99.327Z" fill="#F2F2F2"/>
<path fill-rule="evenodd" clip-rule="evenodd" d="M200.027 86.4873H194.485V110.245H186.351V56.189H194.485V77.8406H200.027V56.189H208.163V110.245H200.027V86.4873Z" fill="#F2F2F2"/>
<path fill-rule="evenodd" clip-rule="evenodd" d="M225.387 67.7095C225.387 64.8746 224.439 63.5662 222.545 63.5662C220.431 63.5662 219.628 64.9481 219.628 67.7095V98.8187C219.628 101.144 220.284 102.961 222.617 102.961C224.804 102.961 225.387 101.144 225.387 98.8187V67.7095ZM233.769 98.2377C233.769 105.796 231.217 110.957 223.273 110.957H221.887C214.015 110.957 211.246 105.796 211.246 98.2377V68.145C211.246 60.6586 214.089 55.7153 221.814 55.7153H223.2C231.217 55.7153 233.769 60.6586 233.769 68.0723V98.2377Z" fill="#F2F2F2"/>
<path fill-rule="evenodd" clip-rule="evenodd" d="M250.281 67.7095C250.281 64.8746 249.333 63.5662 247.438 63.5662C245.324 63.5662 244.522 64.9481 244.522 67.7095V98.8187C244.522 101.144 245.177 102.961 247.51 102.961C249.697 102.961 250.281 101.144 250.281 98.8187V67.7095ZM258.663 98.2377C258.663 105.796 256.112 110.957 248.166 110.957H246.781C238.909 110.957 236.14 105.796 236.14 98.2377V68.145C236.14 60.6586 238.982 55.7153 246.708 55.7153H248.094C256.112 55.7153 258.663 60.6586 258.663 68.0723V98.2377Z" fill="#F2F2F2"/>
<path fill-rule="evenodd" clip-rule="evenodd" d="M269.964 56.189V101.89H280V110.245H261.745V56.189H269.964Z" fill="#F2F2F2"/>
</svg>
