<svg width="112" height="312" viewBox="0 0 112 312" fill="none" xmlns="http://www.w3.org/2000/svg">
<mask id="path-1-outside-1_8_228" maskUnits="userSpaceOnUse" x="0" y="0" width="112" height="312" fill="black">
<rect fill="white" width="112" height="312"/>
<path d="M99.8893 72.3548L106 66.236L99.9286 60.1566L105.946 53.6338L99.3786 47.5544L103.332 39.5153L95.5393 35.6817L97.075 27.0991L88.5893 25.5721L87.7571 16.9894L79.1393 17.8369L75.9714 9.75849L67.7357 12.9985L62.3107 6L55.1321 11.5787L47.7321 6.28609L42.6107 13.4669L34.2893 10.5595L31.4321 18.7381L22.8071 18.2267L22.3 26.8452L13.8571 28.694L15.725 37.223L8.06786 41.382L12.3536 49.3067L6 55.6686L12.1107 61.7873L6 67.9096L12.1107 74.0284L6 80.1471L12.1107 86.2658L6 92.3846L12.1107 98.5033L6 104.626L12.1107 110.744L6 116.859L12.1107 122.978L6 129.1L12.1107 135.219L6 141.342L12.1107 147.46L6 153.579L12.1107 159.698L6 165.816L12.1107 171.932L6 178.054L12.1107 184.176L6 190.295L12.1107 196.414L6 202.532L12.1107 208.651L6 214.77L12.1107 220.892L6 227.004L12.1107 233.122L6 239.248L12.1107 245.367L6 251.486L12.0714 257.565L6.85357 265.179L14.1071 270.157L11.3571 278.525L19.5714 281.221L19.2143 289.868L27.8321 290.226L29.8357 298.63L38.3286 296.598L42.6393 304.205L50.4964 299.745L56.9929 306L63.2036 299.527L71.175 303.654L75.175 295.901L83.7143 297.607L85.4 289.139L93.9964 288.466L93.3214 279.83L101.443 276.815L98.3714 268.526L105.454 263.244L99.9571 255.856L106 249.812L99.8893 243.693L106 237.575L99.8893 231.456L106 225.337L99.8893 219.215L106 213.096L99.8893 206.977L106 200.859L99.8893 194.74L106 188.621L99.8893 182.499L106 176.38L99.8893 170.262L106 164.143L99.8893 158.024L106 151.905L99.8893 145.787L106 139.664L99.8893 133.546L106 127.427L99.8893 121.308L106 115.189L99.8893 109.071L106 102.948L99.8893 96.8332L106 90.7109L99.8893 84.5922L106 78.4735L99.8893 72.3548Z"/>
</mask>
<path d="M99.8893 72.3548L106 66.236L99.9286 60.1566L105.946 53.6338L99.3786 47.5544L103.332 39.5153L95.5393 35.6817L97.075 27.0991L88.5893 25.5721L87.7571 16.9894L79.1393 17.8369L75.9714 9.75849L67.7357 12.9985L62.3107 6L55.1321 11.5787L47.7321 6.28609L42.6107 13.4669L34.2893 10.5595L31.4321 18.7381L22.8071 18.2267L22.3 26.8452L13.8571 28.694L15.725 37.223L8.06786 41.382L12.3536 49.3067L6 55.6686L12.1107 61.7873L6 67.9096L12.1107 74.0284L6 80.1471L12.1107 86.2658L6 92.3846L12.1107 98.5033L6 104.626L12.1107 110.744L6 116.859L12.1107 122.978L6 129.1L12.1107 135.219L6 141.342L12.1107 147.46L6 153.579L12.1107 159.698L6 165.816L12.1107 171.932L6 178.054L12.1107 184.176L6 190.295L12.1107 196.414L6 202.532L12.1107 208.651L6 214.77L12.1107 220.892L6 227.004L12.1107 233.122L6 239.248L12.1107 245.367L6 251.486L12.0714 257.565L6.85357 265.179L14.1071 270.157L11.3571 278.525L19.5714 281.221L19.2143 289.868L27.8321 290.226L29.8357 298.63L38.3286 296.598L42.6393 304.205L50.4964 299.745L56.9929 306L63.2036 299.527L71.175 303.654L75.175 295.901L83.7143 297.607L85.4 289.139L93.9964 288.466L93.3214 279.83L101.443 276.815L98.3714 268.526L105.454 263.244L99.9571 255.856L106 249.812L99.8893 243.693L106 237.575L99.8893 231.456L106 225.337L99.8893 219.215L106 213.096L99.8893 206.977L106 200.859L99.8893 194.74L106 188.621L99.8893 182.499L106 176.38L99.8893 170.262L106 164.143L99.8893 158.024L106 151.905L99.8893 145.787L106 139.664L99.8893 133.546L106 127.427L99.8893 121.308L106 115.189L99.8893 109.071L106 102.948L99.8893 96.8332L106 90.7109L99.8893 84.5922L106 78.4735L99.8893 72.3548Z" fill="#010AC9"/>
<path d="M99.8893 72.3548L106 66.236L99.9286 60.1566L105.946 53.6338L99.3786 47.5544L103.332 39.5153L95.5393 35.6817L97.075 27.0991L88.5893 25.5721L87.7571 16.9894L79.1393 17.8369L75.9714 9.75849L67.7357 12.9985L62.3107 6L55.1321 11.5787L47.7321 6.28609L42.6107 13.4669L34.2893 10.5595L31.4321 18.7381L22.8071 18.2267L22.3 26.8452L13.8571 28.694L15.725 37.223L8.06786 41.382L12.3536 49.3067L6 55.6686L12.1107 61.7873L6 67.9096L12.1107 74.0284L6 80.1471L12.1107 86.2658L6 92.3846L12.1107 98.5033L6 104.626L12.1107 110.744L6 116.859L12.1107 122.978L6 129.1L12.1107 135.219L6 141.342L12.1107 147.46L6 153.579L12.1107 159.698L6 165.816L12.1107 171.932L6 178.054L12.1107 184.176L6 190.295L12.1107 196.414L6 202.532L12.1107 208.651L6 214.77L12.1107 220.892L6 227.004L12.1107 233.122L6 239.248L12.1107 245.367L6 251.486L12.0714 257.565L6.85357 265.179L14.1071 270.157L11.3571 278.525L19.5714 281.221L19.2143 289.868L27.8321 290.226L29.8357 298.63L38.3286 296.598L42.6393 304.205L50.4964 299.745L56.9929 306L63.2036 299.527L71.175 303.654L75.175 295.901L83.7143 297.607L85.4 289.139L93.9964 288.466L93.3214 279.83L101.443 276.815L98.3714 268.526L105.454 263.244L99.9571 255.856L106 249.812L99.8893 243.693L106 237.575L99.8893 231.456L106 225.337L99.8893 219.215L106 213.096L99.8893 206.977L106 200.859L99.8893 194.74L106 188.621L99.8893 182.499L106 176.38L99.8893 170.262L106 164.143L99.8893 158.024L106 151.905L99.8893 145.787L106 139.664L99.8893 133.546L106 127.427L99.8893 121.308L106 115.189L99.8893 109.071L106 102.948L99.8893 96.8332L106 90.7109L99.8893 84.5922L106 78.4735L99.8893 72.3548Z" stroke="black" stroke-width="8" mask="url(#path-1-outside-1_8_228)"/>
</svg>
