<svg width="108" height="108" viewBox="0 0 108 108" fill="none" xmlns="http://www.w3.org/2000/svg">
<path d="M98.4954 33.1977C98.7666 32.46 98.9392 31.6845 99.0048 30.8913C99.1604 29.0111 98.7069 27.1295 97.7103 25.5292C96.7134 23.9286 95.2262 22.6947 93.4695 22.0171C92.6997 21.7201 91.8969 21.5373 91.0856 21.4697C91.1299 20.6669 91.0642 19.857 90.8864 19.0631C90.4783 17.2412 89.5004 15.5966 88.0933 14.3734L86.7812 15.8828L88.0933 14.3734C86.6858 13.15 84.9236 12.4132 83.0658 12.2753C82.2793 12.2168 81.494 12.2671 80.7307 12.4206C80.4813 11.2996 80.0135 10.2323 79.3468 9.28342L77.7103 10.4332L79.3468 9.28341C78.3085 7.8057 76.8387 6.68723 75.1384 6.08624C73.4378 5.48518 71.5935 5.43249 69.8617 5.93574C69.2394 6.11657 68.643 6.36585 68.0824 6.67679C67.6855 5.91508 67.1761 5.21077 66.5658 4.58989C65.1456 3.14507 63.2676 2.24254 61.254 2.04229C59.2403 1.84203 57.2222 2.35721 55.5477 3.49605C54.9768 3.88431 54.4582 4.33662 54 4.84134C53.5419 4.33662 53.0232 3.88431 52.4523 3.49605C50.7778 2.35721 48.7597 1.84203 46.746 2.04229C44.7325 2.24254 42.8544 3.14507 41.4342 4.58989C40.8239 5.21077 40.3145 5.91508 39.9176 6.67678C39.3566 6.36567 38.7599 6.11627 38.1372 5.93541C36.4049 5.43229 34.5602 5.48536 32.8595 6.08701C31.1589 6.68859 29.6891 7.80781 28.6512 9.28628C27.984 10.2368 27.5161 11.306 27.2675 12.4289C26.5051 12.2767 25.7209 12.2275 24.9357 12.2866C23.0808 12.4262 21.3216 13.1624 19.9159 14.3838C18.5106 15.6049 17.5329 17.2462 17.1229 19.0649C16.9439 19.8592 16.877 20.6698 16.9203 21.4734C16.1077 21.5415 15.3035 21.7253 14.5326 22.0235L15.2541 23.8888L14.5326 22.0235C12.7784 22.702 11.2933 23.9352 10.2976 25.5341C9.30197 27.1328 8.8481 29.0121 9.00179 30.8905C9.06632 31.6793 9.23659 32.4506 9.50445 33.1848C8.65549 33.5013 7.85539 33.9517 7.13591 34.5246C5.60622 35.7425 4.53071 37.4421 4.07849 39.3474C3.62631 41.2524 3.82261 43.2558 4.63686 45.0357C4.93177 45.6804 5.30171 46.2825 5.73623 46.8307C5.09774 47.2758 4.51729 47.8082 4.01314 48.4168C2.71118 49.9885 2 51.9691 2 54.0122C2 56.0553 2.71119 58.0359 4.01314 59.6076C4.51729 60.2162 5.09774 60.7486 5.73623 61.1937C5.30171 61.7419 4.93177 62.344 4.63686 62.9887C3.82261 64.7686 3.62631 66.772 4.07849 68.677C4.53071 70.5822 5.60622 72.2819 7.13591 73.4998C7.8604 74.0767 8.66662 74.5294 9.52217 74.8461C9.25962 75.5786 9.09405 76.3474 9.03338 77.1328C8.889 79.0019 9.34597 80.8695 10.3386 82.4581C11.3315 84.0471 12.8082 85.2735 14.552 85.9512C15.3173 86.2487 16.1157 86.4333 16.9228 86.5037C16.8787 87.3108 16.9458 88.1249 17.1262 88.9226C17.5372 90.7402 18.5155 92.3801 19.921 93.5998C21.3268 94.8198 23.0857 95.5546 24.9399 95.6929C25.7238 95.7514 26.5066 95.7019 27.2678 95.5498C27.5165 96.6723 27.9842 97.741 28.6512 98.6912C29.6891 100.17 31.1589 101.289 32.8595 101.891C34.5602 102.492 36.4049 102.545 38.1372 102.042C38.7579 101.862 39.3527 101.614 39.9121 101.304C40.3072 102.065 40.8148 102.77 41.4232 103.391C42.8414 104.84 44.7189 105.747 46.7334 105.95C48.748 106.154 50.7682 105.641 52.4452 104.504C53.0181 104.115 53.5385 103.662 53.9982 103.156C54.4565 103.662 54.9753 104.114 55.5465 104.503C57.2206 105.642 59.2384 106.158 61.2519 105.958C63.2653 105.758 65.1434 104.856 66.5639 103.412C67.1746 102.791 67.6843 102.087 68.0815 101.325C68.6427 101.637 69.2397 101.886 69.8628 102.067C71.5951 102.57 73.4398 102.517 75.1405 101.916C76.8411 101.314 78.3109 100.195 79.3488 98.7165C80.0159 97.7662 80.4836 96.6973 80.7323 95.5748C81.4952 95.7273 82.2799 95.7766 83.0657 95.7176C84.9215 95.5781 86.6816 94.8414 88.0876 93.6191C89.4934 92.3971 90.4709 90.7547 90.8802 88.9349C91.0593 88.1387 91.1256 87.3262 91.0813 86.521C91.8913 86.4516 92.6927 86.2675 93.461 85.9696C95.2113 85.291 96.6931 84.0601 97.6877 82.4647C98.6821 80.8696 99.137 78.9944 98.9867 77.1194C98.9236 76.3317 98.755 75.5612 98.489 74.8276C99.3404 74.511 100.143 74.0597 100.864 73.4854C102.394 72.2675 103.469 70.5678 103.922 68.6626C104.374 66.7576 104.177 64.7542 103.363 62.9742C103.068 62.3287 102.697 61.7258 102.262 61.177C102.901 60.7316 103.482 60.1988 103.987 59.5896C105.289 58.0179 106 56.0372 106 53.9942C106 51.9511 105.289 49.9705 103.987 48.3988C103.479 47.7859 102.894 47.2504 102.251 46.8034C102.681 46.2555 103.048 45.6544 103.34 45.0112C104.145 43.2363 104.337 41.2414 103.886 39.3445C103.435 37.4475 102.366 35.7542 100.846 34.5377C100.132 33.9664 99.3382 33.5159 98.4954 33.1977Z" fill="#FF5903" stroke="black" stroke-width="4"/>
</svg>
