<svg width="109" height="209" viewBox="0 0 109 209" fill="none" xmlns="http://www.w3.org/2000/svg">
<mask id="path-1-outside-1_24_5" maskUnits="userSpaceOnUse" x="0.065918" y="0.0660095" width="108" height="208" fill="black">
<rect fill="white" x="0.065918" y="0.0660095" width="108" height="208"/>
<path d="M104.049 75.1981C104.049 73.9227 103.683 72.6741 102.997 71.6C102.31 70.5258 101.331 69.6709 100.175 69.1363C101.348 68.5943 102.339 67.7228 103.027 66.6274C103.715 65.5321 104.071 64.2603 104.051 62.9664C104.031 61.6725 103.636 60.4123 102.914 59.3389C102.193 58.2655 101.175 57.4251 99.9855 56.9198C101.279 56.3424 102.356 55.3679 103.06 54.1371C103.764 52.9063 104.059 51.4831 103.902 50.0734C103.745 48.6637 103.144 47.3406 102.186 46.2955C101.229 45.2504 99.9639 44.5375 98.5749 44.2599C99.7267 43.4375 100.588 42.2697 101.033 40.9251C101.479 39.5806 101.486 38.129 101.054 36.7801C100.622 35.4311 99.7732 34.2546 98.6298 33.4205C97.4864 32.5865 96.1078 32.138 94.6933 32.14H94.5361C95.2334 31.1371 95.6428 29.9621 95.7198 28.7426C95.7969 27.5231 95.5386 26.3057 94.9732 25.2229C94.4077 24.1401 93.5567 23.2332 92.5125 22.6009C91.4684 21.9686 90.2712 21.635 89.0511 21.6365C88.4252 21.6382 87.8026 21.7272 87.2013 21.9011C87.6348 20.5908 87.6524 19.1782 87.2516 17.8574C86.8508 16.5367 86.0514 15.3727 84.9631 14.5256C83.8749 13.6784 82.5514 13.1896 81.1745 13.1265C79.7976 13.0633 78.4349 13.4289 77.2739 14.1728C77.2739 14.0441 77.2953 13.9154 77.2953 13.783C77.2967 12.3956 76.8666 11.0421 76.0648 9.91064C75.2631 8.77913 74.1294 7.92569 72.8213 7.46882C71.5131 7.01194 70.0954 6.97431 68.7649 7.36113C67.4345 7.74795 66.2573 8.54004 65.3968 9.62742C65.1472 8.15652 64.4132 6.81162 63.3117 5.80708C62.2101 4.80255 60.8046 4.1962 59.3189 4.0847C57.8333 3.9732 56.3532 4.36295 55.1145 5.19184C53.8757 6.02073 52.9497 7.24104 52.484 8.65826C51.925 7.2873 50.9273 6.14106 49.6473 5.39951C48.3674 4.65795 46.8778 4.36306 45.4124 4.56114C43.947 4.75921 42.5888 5.43903 41.551 6.49387C40.5132 7.54871 39.8545 8.91884 39.6784 10.3892C38.7602 9.42013 37.573 8.74905 36.2701 8.46261C34.9671 8.17616 33.6084 8.2875 32.3693 8.78225C31.1302 9.277 30.0677 10.1324 29.319 11.2381C28.5702 12.3437 28.1697 13.6487 28.1691 14.9847C28.1713 15.2464 28.188 15.5079 28.2191 15.7679C27.0095 15.1139 25.6277 14.85 24.2627 15.0122C22.8976 15.1743 21.6158 15.7547 20.5925 16.6738C19.5692 17.593 18.8542 18.8062 18.5453 20.1476C18.2364 21.4891 18.3486 22.8933 18.8667 24.1685C18.3979 24.0623 17.9189 24.0083 17.4383 24.0075C16.1746 24.0085 14.9372 24.3685 13.8698 25.0457C12.8023 25.7229 11.9487 26.6895 11.4079 27.8333C10.8672 28.977 10.6616 30.251 10.815 31.5071C10.9684 32.7632 11.4745 33.9499 12.2746 34.9294C10.8264 34.9771 9.43306 35.4959 8.30558 36.4074C7.1781 37.3189 6.37783 38.5734 6.02592 39.9811C5.67401 41.3888 5.78961 42.873 6.35524 44.209C6.92086 45.545 7.9057 46.6601 9.16068 47.3855C7.81542 47.7125 6.60514 48.4507 5.69779 49.4977C4.79044 50.5447 4.23102 51.8486 4.09717 53.2284C3.96331 54.6083 4.26165 55.9957 4.9508 57.198C5.63994 58.4003 6.68571 59.358 7.94297 59.9382C6.78595 60.4724 5.80599 61.3274 5.11911 62.402C4.43222 63.4766 4.06717 64.7258 4.06717 66.0017C4.06717 67.2777 4.43222 68.5269 5.11911 69.6015C5.80599 70.6761 6.78595 71.5311 7.94297 72.0653C6.78575 72.5988 5.80551 73.4534 5.11839 74.5277C4.43128 75.6021 4.06608 76.8512 4.06608 78.127C4.06608 79.4029 4.43128 80.652 5.11839 81.7263C5.80551 82.8007 6.78575 83.6552 7.94297 84.1888C6.78595 84.723 5.80599 85.578 5.11911 86.6526C4.43222 87.7272 4.06717 88.9764 4.06717 90.2523C4.06717 91.5282 4.43222 92.7775 5.11911 93.8521C5.80599 94.9267 6.78595 95.7817 7.94297 96.3159C6.78575 96.8494 5.80551 97.704 5.11839 98.7783C4.43128 99.8527 4.06608 101.102 4.06608 102.378C4.06608 103.653 4.43128 104.903 5.11839 105.977C5.80551 107.051 6.78575 107.906 7.94297 108.439C6.78595 108.974 5.80599 109.829 5.11911 110.903C4.43222 111.978 4.06717 113.227 4.06717 114.503C4.06717 115.779 4.43222 117.028 5.11911 118.103C5.80599 119.177 6.78595 120.032 7.94297 120.566C6.78575 121.1 5.80551 121.955 5.11839 123.029C4.43128 124.103 4.06608 125.352 4.06608 126.628C4.06608 127.904 4.43128 129.153 5.11839 130.227C5.80551 131.302 6.78575 132.156 7.94297 132.69C6.78575 133.224 5.80551 134.078 5.11839 135.152C4.43128 136.227 4.06608 137.476 4.06608 138.752C4.06608 140.028 4.43128 141.277 5.11839 142.351C5.80551 143.425 6.78575 144.28 7.94297 144.813C6.72153 145.379 5.69941 146.302 5.01074 147.46C4.32207 148.617 3.99902 149.957 4.08398 151.302C4.16894 152.647 4.65793 153.935 5.4868 154.997C6.31567 156.058 7.4457 156.845 8.72859 157.252C7.43377 157.903 6.38574 158.958 5.74282 160.259C5.09989 161.559 4.897 163.034 5.16477 164.46C5.43255 165.886 6.15646 167.186 7.22715 168.164C8.29784 169.142 9.65714 169.744 11.0997 169.879C10.1847 170.821 9.5671 172.012 9.32424 173.303C9.08138 174.594 9.22403 175.928 9.73434 177.138C10.2447 178.348 11.1 179.381 12.1933 180.107C13.2866 180.833 14.5695 181.22 15.8813 181.22C16.2149 181.216 16.5479 181.189 16.8776 181.138C16.2648 182.37 16.0472 183.761 16.2546 185.122C16.462 186.483 17.0843 187.746 18.0362 188.739C18.9882 189.732 20.2232 190.406 21.5724 190.668C22.9216 190.931 24.3188 190.77 25.573 190.207C25.4986 190.613 25.4603 191.024 25.4587 191.437C25.4561 192.726 25.8259 193.988 26.5235 195.072C27.2211 196.155 28.2168 197.013 29.3904 197.542C30.564 198.071 31.8655 198.249 33.1378 198.054C34.4101 197.86 35.5989 197.3 36.561 196.444C36.6478 197.905 37.2115 199.297 38.1655 200.406C39.1194 201.514 40.4108 202.279 41.8408 202.581C43.2708 202.883 44.7603 202.706 46.0801 202.077C47.3998 201.448 48.4768 200.403 49.1452 199.101C49.5289 200.547 50.3866 201.823 51.5806 202.723C52.7746 203.623 54.2358 204.096 55.7299 204.065C57.2241 204.034 58.6645 203.501 59.8204 202.552C60.9763 201.604 61.7806 200.294 62.1043 198.833C62.8836 200.043 64.0328 200.969 65.3804 201.473C66.728 201.976 68.202 202.029 69.5825 201.625C70.963 201.221 72.176 200.381 73.0409 199.23C73.9057 198.079 74.3759 196.679 74.3814 195.239C75.3712 195.994 76.5522 196.457 77.7909 196.575C79.0296 196.693 80.2766 196.462 81.391 195.908C82.5055 195.353 83.4429 194.498 84.0973 193.438C84.7517 192.378 85.0971 191.156 85.0944 189.91C85.0909 189.353 85.019 188.798 84.8801 188.258C86.1716 188.738 87.5797 188.805 88.9111 188.451C90.2424 188.097 91.4315 187.339 92.315 186.28C93.1984 185.222 93.7328 183.915 93.8447 182.541C93.9566 181.166 93.6405 179.79 92.9399 178.602C93.1327 178.62 93.3256 178.631 93.5255 178.631C94.8862 178.632 96.2148 178.217 97.333 177.44C98.4513 176.664 99.3057 175.564 99.7818 174.287C100.258 173.011 100.333 171.619 99.9964 170.299C99.66 168.978 98.9285 167.793 97.9 166.9C99.3261 166.694 100.647 166.031 101.665 165.01C102.683 163.989 103.344 162.665 103.548 161.237C103.752 159.808 103.488 158.352 102.796 157.086C102.104 155.821 101.022 154.813 99.7105 154.215C100.946 153.757 102.019 152.943 102.792 151.874C103.566 150.806 104.006 149.532 104.057 148.214C104.109 146.895 103.768 145.591 103.08 144.465C102.391 143.34 101.385 142.445 100.189 141.892C101.346 141.357 102.326 140.502 103.013 139.428C103.7 138.353 104.065 137.104 104.065 135.828C104.065 134.552 103.7 133.303 103.013 132.228C102.326 131.154 101.346 130.299 100.189 129.765C101.346 129.231 102.326 128.376 103.014 127.302C103.701 126.228 104.066 124.979 104.066 123.703C104.066 122.427 103.701 121.178 103.014 120.104C102.326 119.029 101.346 118.175 100.189 117.641C101.346 117.107 102.326 116.252 103.013 115.177C103.7 114.103 104.065 112.853 104.065 111.578C104.065 110.302 103.7 109.052 103.013 107.978C102.326 106.903 101.346 106.048 100.189 105.514C101.346 104.98 102.326 104.126 103.014 103.052C103.701 101.977 104.066 100.728 104.066 99.4522C104.066 98.1764 103.701 96.9273 103.014 95.853C102.326 94.7786 101.346 93.924 100.189 93.3905C101.346 92.8563 102.326 92.0013 103.013 90.9267C103.7 89.8521 104.065 88.6029 104.065 87.3269C104.065 86.051 103.7 84.8018 103.013 83.7272C102.326 82.6526 101.346 81.7976 100.189 81.2634C101.343 80.7268 102.32 79.8706 103.004 78.7958C103.688 77.721 104.051 76.4726 104.049 75.1981V75.1981Z"/>
</mask>
<path d="M104.049 75.1981C104.049 73.9227 103.683 72.6741 102.997 71.6C102.31 70.5258 101.331 69.6709 100.175 69.1363C101.348 68.5943 102.339 67.7228 103.027 66.6274C103.715 65.5321 104.071 64.2603 104.051 62.9664C104.031 61.6725 103.636 60.4123 102.914 59.3389C102.193 58.2655 101.175 57.4251 99.9855 56.9198C101.279 56.3424 102.356 55.3679 103.06 54.1371C103.764 52.9063 104.059 51.4831 103.902 50.0734C103.745 48.6637 103.144 47.3406 102.186 46.2955C101.229 45.2504 99.9639 44.5375 98.5749 44.2599C99.7267 43.4375 100.588 42.2697 101.033 40.9251C101.479 39.5806 101.486 38.129 101.054 36.7801C100.622 35.4311 99.7732 34.2546 98.6298 33.4205C97.4864 32.5865 96.1078 32.138 94.6933 32.14H94.5361C95.2334 31.1371 95.6428 29.9621 95.7198 28.7426C95.7969 27.5231 95.5386 26.3057 94.9732 25.2229C94.4077 24.1401 93.5567 23.2332 92.5125 22.6009C91.4684 21.9686 90.2712 21.635 89.0511 21.6365C88.4252 21.6382 87.8026 21.7272 87.2013 21.9011C87.6348 20.5908 87.6524 19.1782 87.2516 17.8574C86.8508 16.5367 86.0514 15.3727 84.9631 14.5256C83.8749 13.6784 82.5514 13.1896 81.1745 13.1265C79.7976 13.0633 78.4349 13.4289 77.2739 14.1728C77.2739 14.0441 77.2953 13.9154 77.2953 13.783C77.2967 12.3956 76.8666 11.0421 76.0648 9.91064C75.2631 8.77913 74.1294 7.92569 72.8213 7.46882C71.5131 7.01194 70.0954 6.97431 68.7649 7.36113C67.4345 7.74795 66.2573 8.54004 65.3968 9.62742C65.1472 8.15652 64.4132 6.81162 63.3117 5.80708C62.2101 4.80255 60.8046 4.1962 59.3189 4.0847C57.8333 3.9732 56.3532 4.36295 55.1145 5.19184C53.8757 6.02073 52.9497 7.24104 52.484 8.65826C51.925 7.2873 50.9273 6.14106 49.6473 5.39951C48.3674 4.65795 46.8778 4.36306 45.4124 4.56114C43.947 4.75921 42.5888 5.43903 41.551 6.49387C40.5132 7.54871 39.8545 8.91884 39.6784 10.3892C38.7602 9.42013 37.573 8.74905 36.2701 8.46261C34.9671 8.17616 33.6084 8.2875 32.3693 8.78225C31.1302 9.277 30.0677 10.1324 29.319 11.2381C28.5702 12.3437 28.1697 13.6487 28.1691 14.9847C28.1713 15.2464 28.188 15.5079 28.2191 15.7679C27.0095 15.1139 25.6277 14.85 24.2627 15.0122C22.8976 15.1743 21.6158 15.7547 20.5925 16.6738C19.5692 17.593 18.8542 18.8062 18.5453 20.1476C18.2364 21.4891 18.3486 22.8933 18.8667 24.1685C18.3979 24.0623 17.9189 24.0083 17.4383 24.0075C16.1746 24.0085 14.9372 24.3685 13.8698 25.0457C12.8023 25.7229 11.9487 26.6895 11.4079 27.8333C10.8672 28.977 10.6616 30.251 10.815 31.5071C10.9684 32.7632 11.4745 33.9499 12.2746 34.9294C10.8264 34.9771 9.43306 35.4959 8.30558 36.4074C7.1781 37.3189 6.37783 38.5734 6.02592 39.9811C5.67401 41.3888 5.78961 42.873 6.35524 44.209C6.92086 45.545 7.9057 46.6601 9.16068 47.3855C7.81542 47.7125 6.60514 48.4507 5.69779 49.4977C4.79044 50.5447 4.23102 51.8486 4.09717 53.2284C3.96331 54.6083 4.26165 55.9957 4.9508 57.198C5.63994 58.4003 6.68571 59.358 7.94297 59.9382C6.78595 60.4724 5.80599 61.3274 5.11911 62.402C4.43222 63.4766 4.06717 64.7258 4.06717 66.0017C4.06717 67.2777 4.43222 68.5269 5.11911 69.6015C5.80599 70.6761 6.78595 71.5311 7.94297 72.0653C6.78575 72.5988 5.80551 73.4534 5.11839 74.5277C4.43128 75.6021 4.06608 76.8512 4.06608 78.127C4.06608 79.4029 4.43128 80.652 5.11839 81.7263C5.80551 82.8007 6.78575 83.6552 7.94297 84.1888C6.78595 84.723 5.80599 85.578 5.11911 86.6526C4.43222 87.7272 4.06717 88.9764 4.06717 90.2523C4.06717 91.5282 4.43222 92.7775 5.11911 93.8521C5.80599 94.9267 6.78595 95.7817 7.94297 96.3159C6.78575 96.8494 5.80551 97.704 5.11839 98.7783C4.43128 99.8527 4.06608 101.102 4.06608 102.378C4.06608 103.653 4.43128 104.903 5.11839 105.977C5.80551 107.051 6.78575 107.906 7.94297 108.439C6.78595 108.974 5.80599 109.829 5.11911 110.903C4.43222 111.978 4.06717 113.227 4.06717 114.503C4.06717 115.779 4.43222 117.028 5.11911 118.103C5.80599 119.177 6.78595 120.032 7.94297 120.566C6.78575 121.1 5.80551 121.955 5.11839 123.029C4.43128 124.103 4.06608 125.352 4.06608 126.628C4.06608 127.904 4.43128 129.153 5.11839 130.227C5.80551 131.302 6.78575 132.156 7.94297 132.69C6.78575 133.224 5.80551 134.078 5.11839 135.152C4.43128 136.227 4.06608 137.476 4.06608 138.752C4.06608 140.028 4.43128 141.277 5.11839 142.351C5.80551 143.425 6.78575 144.28 7.94297 144.813C6.72153 145.379 5.69941 146.302 5.01074 147.46C4.32207 148.617 3.99902 149.957 4.08398 151.302C4.16894 152.647 4.65793 153.935 5.4868 154.997C6.31567 156.058 7.4457 156.845 8.72859 157.252C7.43377 157.903 6.38574 158.958 5.74282 160.259C5.09989 161.559 4.897 163.034 5.16477 164.46C5.43255 165.886 6.15646 167.186 7.22715 168.164C8.29784 169.142 9.65714 169.744 11.0997 169.879C10.1847 170.821 9.5671 172.012 9.32424 173.303C9.08138 174.594 9.22403 175.928 9.73434 177.138C10.2447 178.348 11.1 179.381 12.1933 180.107C13.2866 180.833 14.5695 181.22 15.8813 181.22C16.2149 181.216 16.5479 181.189 16.8776 181.138C16.2648 182.37 16.0472 183.761 16.2546 185.122C16.462 186.483 17.0843 187.746 18.0362 188.739C18.9882 189.732 20.2232 190.406 21.5724 190.668C22.9216 190.931 24.3188 190.77 25.573 190.207C25.4986 190.613 25.4603 191.024 25.4587 191.437C25.4561 192.726 25.8259 193.988 26.5235 195.072C27.2211 196.155 28.2168 197.013 29.3904 197.542C30.564 198.071 31.8655 198.249 33.1378 198.054C34.4101 197.86 35.5989 197.3 36.561 196.444C36.6478 197.905 37.2115 199.297 38.1655 200.406C39.1194 201.514 40.4108 202.279 41.8408 202.581C43.2708 202.883 44.7603 202.706 46.0801 202.077C47.3998 201.448 48.4768 200.403 49.1452 199.101C49.5289 200.547 50.3866 201.823 51.5806 202.723C52.7746 203.623 54.2358 204.096 55.7299 204.065C57.2241 204.034 58.6645 203.501 59.8204 202.552C60.9763 201.604 61.7806 200.294 62.1043 198.833C62.8836 200.043 64.0328 200.969 65.3804 201.473C66.728 201.976 68.202 202.029 69.5825 201.625C70.963 201.221 72.176 200.381 73.0409 199.23C73.9057 198.079 74.3759 196.679 74.3814 195.239C75.3712 195.994 76.5522 196.457 77.7909 196.575C79.0296 196.693 80.2766 196.462 81.391 195.908C82.5055 195.353 83.4429 194.498 84.0973 193.438C84.7517 192.378 85.0971 191.156 85.0944 189.91C85.0909 189.353 85.019 188.798 84.8801 188.258C86.1716 188.738 87.5797 188.805 88.9111 188.451C90.2424 188.097 91.4315 187.339 92.315 186.28C93.1984 185.222 93.7328 183.915 93.8447 182.541C93.9566 181.166 93.6405 179.79 92.9399 178.602C93.1327 178.62 93.3256 178.631 93.5255 178.631C94.8862 178.632 96.2148 178.217 97.333 177.44C98.4513 176.664 99.3057 175.564 99.7818 174.287C100.258 173.011 100.333 171.619 99.9964 170.299C99.66 168.978 98.9285 167.793 97.9 166.9C99.3261 166.694 100.647 166.031 101.665 165.01C102.683 163.989 103.344 162.665 103.548 161.237C103.752 159.808 103.488 158.352 102.796 157.086C102.104 155.821 101.022 154.813 99.7105 154.215C100.946 153.757 102.019 152.943 102.792 151.874C103.566 150.806 104.006 149.532 104.057 148.214C104.109 146.895 103.768 145.591 103.08 144.465C102.391 143.34 101.385 142.445 100.189 141.892C101.346 141.357 102.326 140.502 103.013 139.428C103.7 138.353 104.065 137.104 104.065 135.828C104.065 134.552 103.7 133.303 103.013 132.228C102.326 131.154 101.346 130.299 100.189 129.765C101.346 129.231 102.326 128.376 103.014 127.302C103.701 126.228 104.066 124.979 104.066 123.703C104.066 122.427 103.701 121.178 103.014 120.104C102.326 119.029 101.346 118.175 100.189 117.641C101.346 117.107 102.326 116.252 103.013 115.177C103.7 114.103 104.065 112.853 104.065 111.578C104.065 110.302 103.7 109.052 103.013 107.978C102.326 106.903 101.346 106.048 100.189 105.514C101.346 104.98 102.326 104.126 103.014 103.052C103.701 101.977 104.066 100.728 104.066 99.4522C104.066 98.1764 103.701 96.9273 103.014 95.853C102.326 94.7786 101.346 93.924 100.189 93.3905C101.346 92.8563 102.326 92.0013 103.013 90.9267C103.7 89.8521 104.065 88.6029 104.065 87.3269C104.065 86.051 103.7 84.8018 103.013 83.7272C102.326 82.6526 101.346 81.7976 100.189 81.2634C101.343 80.7268 102.32 79.8706 103.004 78.7958C103.688 77.721 104.051 76.4726 104.049 75.1981V75.1981Z" fill="#F2F2F2"/>
<path d="M104.049 75.1981C104.049 73.9227 103.683 72.6741 102.997 71.6C102.31 70.5258 101.331 69.6709 100.175 69.1363C101.348 68.5943 102.339 67.7228 103.027 66.6274C103.715 65.5321 104.071 64.2603 104.051 62.9664C104.031 61.6725 103.636 60.4123 102.914 59.3389C102.193 58.2655 101.175 57.4251 99.9855 56.9198C101.279 56.3424 102.356 55.3679 103.06 54.1371C103.764 52.9063 104.059 51.4831 103.902 50.0734C103.745 48.6637 103.144 47.3406 102.186 46.2955C101.229 45.2504 99.9639 44.5375 98.5749 44.2599C99.7267 43.4375 100.588 42.2697 101.033 40.9251C101.479 39.5806 101.486 38.129 101.054 36.7801C100.622 35.4311 99.7732 34.2546 98.6298 33.4205C97.4864 32.5865 96.1078 32.138 94.6933 32.14H94.5361C95.2334 31.1371 95.6428 29.9621 95.7198 28.7426C95.7969 27.5231 95.5386 26.3057 94.9732 25.2229C94.4077 24.1401 93.5567 23.2332 92.5125 22.6009C91.4684 21.9686 90.2712 21.635 89.0511 21.6365C88.4252 21.6382 87.8026 21.7272 87.2013 21.9011C87.6348 20.5908 87.6524 19.1782 87.2516 17.8574C86.8508 16.5367 86.0514 15.3727 84.9631 14.5256C83.8749 13.6784 82.5514 13.1896 81.1745 13.1265C79.7976 13.0633 78.4349 13.4289 77.2739 14.1728C77.2739 14.0441 77.2953 13.9154 77.2953 13.783C77.2967 12.3956 76.8666 11.0421 76.0648 9.91064C75.2631 8.77913 74.1294 7.92569 72.8213 7.46882C71.5131 7.01194 70.0954 6.97431 68.7649 7.36113C67.4345 7.74795 66.2573 8.54004 65.3968 9.62742C65.1472 8.15652 64.4132 6.81162 63.3117 5.80708C62.2101 4.80255 60.8046 4.1962 59.3189 4.0847C57.8333 3.9732 56.3532 4.36295 55.1145 5.19184C53.8757 6.02073 52.9497 7.24104 52.484 8.65826C51.925 7.2873 50.9273 6.14106 49.6473 5.39951C48.3674 4.65795 46.8778 4.36306 45.4124 4.56114C43.947 4.75921 42.5888 5.43903 41.551 6.49387C40.5132 7.54871 39.8545 8.91884 39.6784 10.3892C38.7602 9.42013 37.573 8.74905 36.2701 8.46261C34.9671 8.17616 33.6084 8.2875 32.3693 8.78225C31.1302 9.277 30.0677 10.1324 29.319 11.2381C28.5702 12.3437 28.1697 13.6487 28.1691 14.9847C28.1713 15.2464 28.188 15.5079 28.2191 15.7679C27.0095 15.1139 25.6277 14.85 24.2627 15.0122C22.8976 15.1743 21.6158 15.7547 20.5925 16.6738C19.5692 17.593 18.8542 18.8062 18.5453 20.1476C18.2364 21.4891 18.3486 22.8933 18.8667 24.1685C18.3979 24.0623 17.9189 24.0083 17.4383 24.0075C16.1746 24.0085 14.9372 24.3685 13.8698 25.0457C12.8023 25.7229 11.9487 26.6895 11.4079 27.8333C10.8672 28.977 10.6616 30.251 10.815 31.5071C10.9684 32.7632 11.4745 33.9499 12.2746 34.9294C10.8264 34.9771 9.43306 35.4959 8.30558 36.4074C7.1781 37.3189 6.37783 38.5734 6.02592 39.9811C5.67401 41.3888 5.78961 42.873 6.35524 44.209C6.92086 45.545 7.9057 46.6601 9.16068 47.3855C7.81542 47.7125 6.60514 48.4507 5.69779 49.4977C4.79044 50.5447 4.23102 51.8486 4.09717 53.2284C3.96331 54.6083 4.26165 55.9957 4.9508 57.198C5.63994 58.4003 6.68571 59.358 7.94297 59.9382C6.78595 60.4724 5.80599 61.3274 5.11911 62.402C4.43222 63.4766 4.06717 64.7258 4.06717 66.0017C4.06717 67.2777 4.43222 68.5269 5.11911 69.6015C5.80599 70.6761 6.78595 71.5311 7.94297 72.0653C6.78575 72.5988 5.80551 73.4534 5.11839 74.5277C4.43128 75.6021 4.06608 76.8512 4.06608 78.127C4.06608 79.4029 4.43128 80.652 5.11839 81.7263C5.80551 82.8007 6.78575 83.6552 7.94297 84.1888C6.78595 84.723 5.80599 85.578 5.11911 86.6526C4.43222 87.7272 4.06717 88.9764 4.06717 90.2523C4.06717 91.5282 4.43222 92.7775 5.11911 93.8521C5.80599 94.9267 6.78595 95.7817 7.94297 96.3159C6.78575 96.8494 5.80551 97.704 5.11839 98.7783C4.43128 99.8527 4.06608 101.102 4.06608 102.378C4.06608 103.653 4.43128 104.903 5.11839 105.977C5.80551 107.051 6.78575 107.906 7.94297 108.439C6.78595 108.974 5.80599 109.829 5.11911 110.903C4.43222 111.978 4.06717 113.227 4.06717 114.503C4.06717 115.779 4.43222 117.028 5.11911 118.103C5.80599 119.177 6.78595 120.032 7.94297 120.566C6.78575 121.1 5.80551 121.955 5.11839 123.029C4.43128 124.103 4.06608 125.352 4.06608 126.628C4.06608 127.904 4.43128 129.153 5.11839 130.227C5.80551 131.302 6.78575 132.156 7.94297 132.69C6.78575 133.224 5.80551 134.078 5.11839 135.152C4.43128 136.227 4.06608 137.476 4.06608 138.752C4.06608 140.028 4.43128 141.277 5.11839 142.351C5.80551 143.425 6.78575 144.28 7.94297 144.813C6.72153 145.379 5.69941 146.302 5.01074 147.46C4.32207 148.617 3.99902 149.957 4.08398 151.302C4.16894 152.647 4.65793 153.935 5.4868 154.997C6.31567 156.058 7.4457 156.845 8.72859 157.252C7.43377 157.903 6.38574 158.958 5.74282 160.259C5.09989 161.559 4.897 163.034 5.16477 164.46C5.43255 165.886 6.15646 167.186 7.22715 168.164C8.29784 169.142 9.65714 169.744 11.0997 169.879C10.1847 170.821 9.5671 172.012 9.32424 173.303C9.08138 174.594 9.22403 175.928 9.73434 177.138C10.2447 178.348 11.1 179.381 12.1933 180.107C13.2866 180.833 14.5695 181.22 15.8813 181.22C16.2149 181.216 16.5479 181.189 16.8776 181.138C16.2648 182.37 16.0472 183.761 16.2546 185.122C16.462 186.483 17.0843 187.746 18.0362 188.739C18.9882 189.732 20.2232 190.406 21.5724 190.668C22.9216 190.931 24.3188 190.77 25.573 190.207C25.4986 190.613 25.4603 191.024 25.4587 191.437C25.4561 192.726 25.8259 193.988 26.5235 195.072C27.2211 196.155 28.2168 197.013 29.3904 197.542C30.564 198.071 31.8655 198.249 33.1378 198.054C34.4101 197.86 35.5989 197.3 36.561 196.444C36.6478 197.905 37.2115 199.297 38.1655 200.406C39.1194 201.514 40.4108 202.279 41.8408 202.581C43.2708 202.883 44.7603 202.706 46.0801 202.077C47.3998 201.448 48.4768 200.403 49.1452 199.101C49.5289 200.547 50.3866 201.823 51.5806 202.723C52.7746 203.623 54.2358 204.096 55.7299 204.065C57.2241 204.034 58.6645 203.501 59.8204 202.552C60.9763 201.604 61.7806 200.294 62.1043 198.833C62.8836 200.043 64.0328 200.969 65.3804 201.473C66.728 201.976 68.202 202.029 69.5825 201.625C70.963 201.221 72.176 200.381 73.0409 199.23C73.9057 198.079 74.3759 196.679 74.3814 195.239C75.3712 195.994 76.5522 196.457 77.7909 196.575C79.0296 196.693 80.2766 196.462 81.391 195.908C82.5055 195.353 83.4429 194.498 84.0973 193.438C84.7517 192.378 85.0971 191.156 85.0944 189.91C85.0909 189.353 85.019 188.798 84.8801 188.258C86.1716 188.738 87.5797 188.805 88.9111 188.451C90.2424 188.097 91.4315 187.339 92.315 186.28C93.1984 185.222 93.7328 183.915 93.8447 182.541C93.9566 181.166 93.6405 179.79 92.9399 178.602C93.1327 178.62 93.3256 178.631 93.5255 178.631C94.8862 178.632 96.2148 178.217 97.333 177.44C98.4513 176.664 99.3057 175.564 99.7818 174.287C100.258 173.011 100.333 171.619 99.9964 170.299C99.66 168.978 98.9285 167.793 97.9 166.9C99.3261 166.694 100.647 166.031 101.665 165.01C102.683 163.989 103.344 162.665 103.548 161.237C103.752 159.808 103.488 158.352 102.796 157.086C102.104 155.821 101.022 154.813 99.7105 154.215C100.946 153.757 102.019 152.943 102.792 151.874C103.566 150.806 104.006 149.532 104.057 148.214C104.109 146.895 103.768 145.591 103.08 144.465C102.391 143.34 101.385 142.445 100.189 141.892C101.346 141.357 102.326 140.502 103.013 139.428C103.7 138.353 104.065 137.104 104.065 135.828C104.065 134.552 103.7 133.303 103.013 132.228C102.326 131.154 101.346 130.299 100.189 129.765C101.346 129.231 102.326 128.376 103.014 127.302C103.701 126.228 104.066 124.979 104.066 123.703C104.066 122.427 103.701 121.178 103.014 120.104C102.326 119.029 101.346 118.175 100.189 117.641C101.346 117.107 102.326 116.252 103.013 115.177C103.7 114.103 104.065 112.853 104.065 111.578C104.065 110.302 103.7 109.052 103.013 107.978C102.326 106.903 101.346 106.048 100.189 105.514C101.346 104.98 102.326 104.126 103.014 103.052C103.701 101.977 104.066 100.728 104.066 99.4522C104.066 98.1764 103.701 96.9273 103.014 95.853C102.326 94.7786 101.346 93.924 100.189 93.3905C101.346 92.8563 102.326 92.0013 103.013 90.9267C103.7 89.8521 104.065 88.6029 104.065 87.3269C104.065 86.051 103.7 84.8018 103.013 83.7272C102.326 82.6526 101.346 81.7976 100.189 81.2634C101.343 80.7268 102.32 79.8706 103.004 78.7958C103.688 77.721 104.051 76.4726 104.049 75.1981V75.1981Z" stroke="black" stroke-width="8" mask="url(#path-1-outside-1_24_5)"/>
</svg>
