<svg width="431" height="1401" viewBox="0 0 431 1401" fill="none" xmlns="http://www.w3.org/2000/svg">
<path d="M105.96 61.6207C214.378 -33.5619 291.738 -12.8333 338.04 123.806C384.342 260.446 461.702 281.174 570.12 185.992C678.538 90.8093 755.898 111.538 802.199 248.177C848.501 384.817 925.861 405.546 1034.28 310.363C1142.7 215.181 1220.06 235.909 1266.36 372.549C1312.66 509.188 1390.02 529.917 1498.44 434.734C1606.86 339.552 1684.22 360.28 1730.52 496.92C1776.82 633.559 1854.18 654.288 1962.6 559.105C1999.01 527.135 2031.93 508.242 2061.33 502.425V2019H609.349L479.299 1731.44C439.734 1693.68 427.644 1648.56 443.03 1596.08C458.415 1543.6 446.326 1498.48 406.761 1460.72C367.196 1422.96 355.106 1377.85 370.491 1325.36C385.877 1272.88 373.787 1227.76 334.222 1190.01C294.657 1152.25 282.567 1107.13 297.953 1054.65C313.338 1002.17 301.249 957.046 261.684 919.288C222.119 881.531 210.029 836.411 225.415 783.93C240.8 731.449 228.71 686.329 189.145 648.572C149.58 610.814 137.491 565.695 152.876 513.213C168.262 460.732 156.172 415.612 116.607 377.855L2.66699 296.698V61.6207L105.96 61.6207Z" fill="#FF1A87" stroke="black" stroke-width="5.33333"/>
</svg>
