<svg width="431" height="1401" viewBox="0 0 431 1401" fill="none" xmlns="http://www.w3.org/2000/svg">
<path d="M324.061 61.6207C215.66 -33.5619 138.313 -12.8333 92.0185 123.806C45.7243 260.446 -31.6233 281.174 -140.024 185.992C-248.425 90.8093 -325.773 111.538 -372.067 248.177C-418.361 384.817 -495.709 405.546 -604.11 310.363C-712.51 215.181 -789.858 235.909 -836.152 372.549C-882.447 509.188 -959.794 529.917 -1068.19 434.734C-1176.6 339.552 -1253.94 360.28 -1300.24 496.92C-1346.53 633.559 -1423.88 654.288 -1532.28 559.105C-1568.69 527.135 -1601.6 508.242 -1631 502.425V2019H-179.247L-49.2178 1731.44C-9.65924 1693.68 2.42856 1648.56 -12.9545 1596.08C-28.3375 1543.6 -16.2497 1498.48 23.3089 1460.72C62.8676 1422.96 74.9554 1377.85 59.5724 1325.36C44.1893 1272.88 56.2771 1227.76 95.8357 1190.01C135.394 1152.25 147.482 1107.13 132.099 1054.65C116.716 1002.17 128.804 957.046 168.362 919.288C207.921 881.531 220.009 836.411 204.626 783.93C189.243 731.449 201.331 686.329 240.889 648.572C280.448 610.814 292.536 565.695 277.153 513.213C261.77 460.732 273.857 415.612 313.416 377.855L427.338 296.698V61.6207L324.061 61.6207Z" fill="#FF1A87" stroke="black" stroke-width="5.33333"/>
</svg>
