<svg width="308" height="381" viewBox="0 0 308 381" fill="none" xmlns="http://www.w3.org/2000/svg">
<path fill-rule="evenodd" clip-rule="evenodd" d="M306.142 226.63C257.283 211.594 205.375 203.499 151.574 203.499C98.8704 203.499 47.9839 211.267 0 225.719C48.8595 240.755 100.767 248.85 154.569 248.85C207.272 248.85 258.158 241.082 306.142 226.63Z" fill="#C76C00"/>
<path fill-rule="evenodd" clip-rule="evenodd" d="M308 227.366C307.993 229.918 306.319 232.165 303.876 232.902C256.882 247.082 207.05 254.702 155.45 254.702C102.775 254.702 51.9436 246.762 4.09156 232.008C1.65345 231.256 -0.00716698 228.999 0.000514821 226.446C0.00819627 223.894 1.68237 221.647 4.12496 220.91C51.1194 206.73 100.951 199.11 152.551 199.11C205.226 199.11 256.057 207.05 303.909 221.804C306.348 222.556 308.008 224.813 308 227.366ZM291.917 230.332C248.496 242.433 202.728 248.901 155.45 248.901C107.112 248.901 60.3527 242.139 16.0654 229.51C12.9094 228.61 9.76586 227.68 6.63524 226.721C6.38352 226.644 6.38459 226.288 6.63677 226.212C9.77305 225.272 12.9221 224.361 16.0836 223.48C59.5051 211.379 105.273 204.911 152.551 204.911C200.889 204.911 247.648 211.673 291.936 224.302C295.092 225.202 298.235 226.132 301.366 227.091C301.617 227.169 301.616 227.524 301.364 227.6C298.228 228.54 295.079 229.451 291.917 230.332Z" fill="black"/>
<mask id="path-3-outside-1_39_669" maskUnits="userSpaceOnUse" x="151.691" y="0.0185547" width="138" height="195" fill="black">
<rect fill="white" x="151.691" y="0.0185547" width="138" height="195"/>
<path d="M274.476 87.9286C274.889 86.799 274.968 85.5753 274.705 84.4022C274.442 83.2291 273.847 82.1557 272.992 81.3091C274.209 81.2068 275.37 80.7542 276.334 80.0064C277.299 79.2586 278.025 78.2477 278.424 77.0963C278.824 75.9449 278.88 74.7026 278.585 73.5202C278.291 72.3377 277.658 71.266 276.765 70.435C278.101 70.3411 279.372 69.8259 280.395 68.9639C281.418 68.1019 282.14 66.9378 282.456 65.6398C282.772 64.3417 282.666 62.9771 282.153 61.7432C281.64 60.5093 280.747 59.47 279.603 58.7756C280.891 58.4186 282.033 57.6626 282.862 56.6166C283.692 55.5706 284.167 54.2887 284.218 52.956C284.27 51.6233 283.896 50.3087 283.15 49.2019C282.404 48.0951 281.324 47.2534 280.068 46.7982C280.02 46.7801 279.971 46.7697 279.923 46.7541C280.991 46.0069 281.801 44.9476 282.24 43.7223C282.679 42.497 282.726 41.1659 282.375 39.9127C282.024 38.6595 281.292 37.5458 280.279 36.7252C279.267 35.9045 278.024 35.4174 276.722 35.331C277.531 34.3115 278.003 33.0671 278.074 31.7689C278.145 30.4707 277.811 29.1825 277.117 28.0816C276.424 26.9807 275.405 26.1212 274.202 25.6213C272.999 25.1214 271.67 25.0057 270.398 25.2901C270.446 25.1772 270.5 25.0682 270.541 24.9526C270.99 23.7251 271.044 22.3888 270.697 21.129C270.35 19.8692 269.618 18.7484 268.604 17.9219C267.59 17.0954 266.342 16.6043 265.035 16.5166C263.729 16.4289 262.427 16.7489 261.31 17.4324C261.563 16.0506 261.344 14.6243 260.69 13.3807C260.035 12.1371 258.982 11.1478 257.699 10.5703C256.415 9.99282 254.975 9.86041 253.607 10.1942C252.239 10.5279 251.022 11.3087 250.151 12.412C250.097 11.0184 249.581 9.68223 248.683 8.61324C247.785 7.54424 246.556 6.803 245.19 6.50591C243.824 6.20883 242.398 6.37272 241.135 6.97187C239.873 7.57101 238.846 8.57146 238.215 9.81611C237.714 8.65928 236.877 7.6791 235.811 7.00252C234.745 6.32593 233.5 5.9841 232.237 6.0213C230.975 6.0585 229.752 6.47301 228.728 7.21115C227.704 7.94929 226.926 8.97706 226.495 10.1614C226.411 10.3932 226.342 10.6299 226.287 10.87C225.423 9.90155 224.281 9.2225 223.016 8.92562C221.752 8.62873 220.426 8.72847 219.22 9.21123C218.014 9.69399 216.987 10.5362 216.279 11.6229C215.571 12.7096 215.216 13.9878 215.264 15.283C214.467 14.7776 213.567 14.4571 212.629 14.3452C211.692 14.2332 210.741 14.3326 209.847 14.6361C208.953 14.9395 208.139 15.4393 207.465 16.0985C206.791 16.7577 206.273 17.5595 205.951 18.4448C205.45 19.8103 205.441 21.3071 205.925 22.6787C204.623 22.254 203.217 22.2641 201.921 22.7073C200.625 23.1506 199.508 24.0029 198.741 25.1353C197.974 26.2677 197.597 27.6185 197.668 28.9834C197.74 30.3483 198.254 31.653 199.135 32.7C197.834 32.5556 196.521 32.8186 195.377 33.4523C194.233 34.086 193.315 35.0592 192.75 36.2368C192.186 37.4144 192.002 38.738 192.226 40.0242C192.45 41.3103 193.069 42.4952 193.998 43.4145C192.797 43.5148 191.65 43.9561 190.693 44.6862C189.736 45.4163 189.009 46.4046 188.597 47.5341C188.186 48.6637 188.107 49.8872 188.371 51.0599C188.635 52.2326 189.23 53.3053 190.086 54.151C188.886 54.2512 187.74 54.692 186.784 55.4214C185.827 56.1507 185.1 57.1382 184.688 58.2668C184.276 59.3955 184.197 60.6182 184.46 61.7903C184.722 62.9625 185.316 64.035 186.171 64.8811C184.971 64.9813 183.825 65.4221 182.868 66.1514C181.912 66.8806 181.184 67.8679 180.772 68.9964C180.36 70.1249 180.281 71.3476 180.543 72.5197C180.805 73.6919 181.399 74.7647 182.253 75.6111C181.053 75.7119 179.908 76.1531 178.952 76.8826C177.996 77.6121 177.269 78.5993 176.858 79.7276C176.446 80.856 176.367 82.0782 176.63 83.25C176.892 84.4217 177.486 85.4939 178.34 86.3399C177.14 86.4395 175.993 86.88 175.036 87.6093C174.079 88.3386 173.352 89.3262 172.94 90.455C172.528 91.5839 172.449 92.8069 172.712 93.9792C172.975 95.1515 173.57 96.2241 174.425 97.0699C173.225 97.1699 172.078 97.6106 171.121 98.3401C170.164 99.0695 169.437 100.057 169.025 101.186C168.613 102.315 168.534 103.538 168.797 104.71C169.06 105.883 169.654 106.955 170.509 107.801C169.31 107.901 168.164 108.342 167.207 109.071C166.251 109.8 165.524 110.787 165.112 111.916C164.7 113.044 164.621 114.267 164.883 115.438C165.146 116.61 165.74 117.683 166.594 118.529C165.325 118.635 164.119 119.121 163.132 119.923C162.146 120.726 161.426 121.807 161.067 123.026C160.708 124.244 160.727 125.542 161.122 126.749C161.516 127.956 162.268 129.016 163.277 129.79C161.915 129.946 160.641 130.541 159.648 131.485C158.655 132.428 157.998 133.669 157.775 135.018C157.552 136.368 157.776 137.753 158.413 138.964C159.05 140.176 160.066 141.147 161.306 141.731C160.108 142.297 159.121 143.227 158.484 144.387C157.848 145.546 157.595 146.877 157.761 148.189C157.928 149.501 158.506 150.726 159.413 151.691C160.319 152.655 161.508 153.31 162.81 153.56C161.868 154.453 161.226 155.615 160.971 156.886C160.717 158.157 160.862 159.476 161.387 160.662C161.912 161.847 162.792 162.842 163.906 163.51C165.019 164.178 166.313 164.487 167.609 164.394C167.41 164.727 167.242 165.078 167.108 165.443C166.69 166.583 166.613 167.819 166.884 169.002C167.155 170.185 167.763 171.265 168.635 172.111C169.508 172.957 170.607 173.533 171.8 173.77C172.993 174.007 174.23 173.894 175.36 173.446C174.967 174.767 175.019 176.18 175.509 177.468C175.999 178.757 176.899 179.849 178.072 180.577C179.244 181.306 180.624 181.63 181.999 181.501C183.375 181.371 184.669 180.795 185.684 179.86C185.56 181.263 185.911 182.668 186.681 183.848C187.452 185.029 188.597 185.917 189.934 186.372C191.271 186.826 192.722 186.819 194.054 186.354C195.387 185.888 196.525 184.989 197.285 183.802C197.587 185.125 198.309 186.314 199.344 187.194C200.379 188.074 201.671 188.597 203.029 188.684C204.386 188.772 205.735 188.42 206.875 187.68C208.015 186.941 208.885 185.854 209.355 184.581C209.992 185.565 210.892 186.352 211.953 186.853C213.015 187.355 214.195 187.551 215.362 187.419C216.529 187.287 217.636 186.833 218.558 186.107C219.48 185.382 220.18 184.414 220.581 183.313C220.758 182.819 220.873 182.306 220.924 181.785C221.916 182.626 223.145 183.141 224.442 183.257C225.739 183.374 227.04 183.086 228.167 182.435C229.294 181.784 230.191 180.801 230.735 179.621C231.278 178.441 231.442 177.121 231.204 175.844C231.37 175.922 231.54 175.996 231.717 176.06C232.925 176.5 234.24 176.562 235.485 176.235C236.729 175.909 237.844 175.211 238.679 174.235C239.515 173.259 240.031 172.051 240.159 170.774C240.286 169.497 240.02 168.211 239.394 167.09C240.727 167.367 242.115 167.205 243.349 166.63C244.583 166.055 245.597 165.096 246.24 163.898C246.882 162.7 247.118 161.326 246.913 159.983C246.707 158.64 246.071 157.399 245.1 156.447C246.346 156.44 247.562 156.065 248.594 155.369C249.627 154.673 250.429 153.688 250.901 152.538C251.372 151.387 251.491 150.123 251.243 148.905C250.995 147.687 250.39 146.57 249.506 145.695C250.706 145.594 251.852 145.154 252.808 144.424C253.765 143.695 254.492 142.707 254.904 141.579C255.316 140.45 255.395 139.227 255.132 138.055C254.87 136.883 254.276 135.811 253.421 134.964C254.62 134.863 255.764 134.421 256.719 133.692C257.674 132.962 258.4 131.976 258.811 130.848C259.222 129.721 259.302 128.5 259.04 127.329C258.778 126.158 258.186 125.086 257.334 124.24C258.534 124.14 259.68 123.699 260.637 122.969C261.593 122.24 262.321 121.253 262.733 120.124C263.144 118.995 263.224 117.772 262.961 116.6C262.698 115.428 262.104 114.356 261.249 113.51C262.449 113.409 263.595 112.969 264.552 112.239C265.509 111.51 266.236 110.522 266.648 109.394C267.06 108.265 267.139 107.042 266.876 105.87C266.613 104.698 266.019 103.626 265.165 102.78C266.364 102.678 267.509 102.236 268.464 101.507C269.42 100.777 270.146 99.79 270.557 98.6619C270.969 97.5338 271.048 96.3119 270.785 95.1405C270.523 93.969 269.93 92.8969 269.076 92.0508C270.277 91.9496 271.424 91.5077 272.38 90.7772C273.337 90.0467 274.065 89.0582 274.476 87.9286V87.9286Z"/>
</mask>
<path d="M274.476 87.9286C274.889 86.799 274.968 85.5753 274.705 84.4022C274.442 83.2291 273.847 82.1557 272.992 81.3091C274.209 81.2068 275.37 80.7542 276.334 80.0064C277.299 79.2586 278.025 78.2477 278.424 77.0963C278.824 75.9449 278.88 74.7026 278.585 73.5202C278.291 72.3377 277.658 71.266 276.765 70.435C278.101 70.3411 279.372 69.8259 280.395 68.9639C281.418 68.1019 282.14 66.9378 282.456 65.6398C282.772 64.3417 282.666 62.9771 282.153 61.7432C281.64 60.5093 280.747 59.47 279.603 58.7756C280.891 58.4186 282.033 57.6626 282.862 56.6166C283.692 55.5706 284.167 54.2887 284.218 52.956C284.27 51.6233 283.896 50.3087 283.15 49.2019C282.404 48.0951 281.324 47.2534 280.068 46.7982C280.02 46.7801 279.971 46.7697 279.923 46.7541C280.991 46.0069 281.801 44.9476 282.24 43.7223C282.679 42.497 282.726 41.1659 282.375 39.9127C282.024 38.6595 281.292 37.5458 280.279 36.7252C279.267 35.9045 278.024 35.4174 276.722 35.331C277.531 34.3115 278.003 33.0671 278.074 31.7689C278.145 30.4707 277.811 29.1825 277.117 28.0816C276.424 26.9807 275.405 26.1212 274.202 25.6213C272.999 25.1214 271.67 25.0057 270.398 25.2901C270.446 25.1772 270.5 25.0682 270.541 24.9526C270.99 23.7251 271.044 22.3888 270.697 21.129C270.35 19.8692 269.618 18.7484 268.604 17.9219C267.59 17.0954 266.342 16.6043 265.035 16.5166C263.729 16.4289 262.427 16.7489 261.31 17.4324C261.563 16.0506 261.344 14.6243 260.69 13.3807C260.035 12.1371 258.982 11.1478 257.699 10.5703C256.415 9.99282 254.975 9.86041 253.607 10.1942C252.239 10.5279 251.022 11.3087 250.151 12.412C250.097 11.0184 249.581 9.68223 248.683 8.61324C247.785 7.54424 246.556 6.803 245.19 6.50591C243.824 6.20883 242.398 6.37272 241.135 6.97187C239.873 7.57101 238.846 8.57146 238.215 9.81611C237.714 8.65928 236.877 7.6791 235.811 7.00252C234.745 6.32593 233.5 5.9841 232.237 6.0213C230.975 6.0585 229.752 6.47301 228.728 7.21115C227.704 7.94929 226.926 8.97706 226.495 10.1614C226.411 10.3932 226.342 10.6299 226.287 10.87C225.423 9.90155 224.281 9.2225 223.016 8.92562C221.752 8.62873 220.426 8.72847 219.22 9.21123C218.014 9.69399 216.987 10.5362 216.279 11.6229C215.571 12.7096 215.216 13.9878 215.264 15.283C214.467 14.7776 213.567 14.4571 212.629 14.3452C211.692 14.2332 210.741 14.3326 209.847 14.6361C208.953 14.9395 208.139 15.4393 207.465 16.0985C206.791 16.7577 206.273 17.5595 205.951 18.4448C205.45 19.8103 205.441 21.3071 205.925 22.6787C204.623 22.254 203.217 22.2641 201.921 22.7073C200.625 23.1506 199.508 24.0029 198.741 25.1353C197.974 26.2677 197.597 27.6185 197.668 28.9834C197.74 30.3483 198.254 31.653 199.135 32.7C197.834 32.5556 196.521 32.8186 195.377 33.4523C194.233 34.086 193.315 35.0592 192.75 36.2368C192.186 37.4144 192.002 38.738 192.226 40.0242C192.45 41.3103 193.069 42.4952 193.998 43.4145C192.797 43.5148 191.65 43.9561 190.693 44.6862C189.736 45.4163 189.009 46.4046 188.597 47.5341C188.186 48.6637 188.107 49.8872 188.371 51.0599C188.635 52.2326 189.23 53.3053 190.086 54.151C188.886 54.2512 187.74 54.692 186.784 55.4214C185.827 56.1507 185.1 57.1382 184.688 58.2668C184.276 59.3955 184.197 60.6182 184.46 61.7903C184.722 62.9625 185.316 64.035 186.171 64.8811C184.971 64.9813 183.825 65.4221 182.868 66.1514C181.912 66.8806 181.184 67.8679 180.772 68.9964C180.36 70.1249 180.281 71.3476 180.543 72.5197C180.805 73.6919 181.399 74.7647 182.253 75.6111C181.053 75.7119 179.908 76.1531 178.952 76.8826C177.996 77.6121 177.269 78.5993 176.858 79.7276C176.446 80.856 176.367 82.0782 176.63 83.25C176.892 84.4217 177.486 85.4939 178.34 86.3399C177.14 86.4395 175.993 86.88 175.036 87.6093C174.079 88.3386 173.352 89.3262 172.94 90.455C172.528 91.5839 172.449 92.8069 172.712 93.9792C172.975 95.1515 173.57 96.2241 174.425 97.0699C173.225 97.1699 172.078 97.6106 171.121 98.3401C170.164 99.0695 169.437 100.057 169.025 101.186C168.613 102.315 168.534 103.538 168.797 104.71C169.06 105.883 169.654 106.955 170.509 107.801C169.31 107.901 168.164 108.342 167.207 109.071C166.251 109.8 165.524 110.787 165.112 111.916C164.7 113.044 164.621 114.267 164.883 115.438C165.146 116.61 165.74 117.683 166.594 118.529C165.325 118.635 164.119 119.121 163.132 119.923C162.146 120.726 161.426 121.807 161.067 123.026C160.708 124.244 160.727 125.542 161.122 126.749C161.516 127.956 162.268 129.016 163.277 129.79C161.915 129.946 160.641 130.541 159.648 131.485C158.655 132.428 157.998 133.669 157.775 135.018C157.552 136.368 157.776 137.753 158.413 138.964C159.05 140.176 160.066 141.147 161.306 141.731C160.108 142.297 159.121 143.227 158.484 144.387C157.848 145.546 157.595 146.877 157.761 148.189C157.928 149.501 158.506 150.726 159.413 151.691C160.319 152.655 161.508 153.31 162.81 153.56C161.868 154.453 161.226 155.615 160.971 156.886C160.717 158.157 160.862 159.476 161.387 160.662C161.912 161.847 162.792 162.842 163.906 163.51C165.019 164.178 166.313 164.487 167.609 164.394C167.41 164.727 167.242 165.078 167.108 165.443C166.69 166.583 166.613 167.819 166.884 169.002C167.155 170.185 167.763 171.265 168.635 172.111C169.508 172.957 170.607 173.533 171.8 173.77C172.993 174.007 174.23 173.894 175.36 173.446C174.967 174.767 175.019 176.18 175.509 177.468C175.999 178.757 176.899 179.849 178.072 180.577C179.244 181.306 180.624 181.63 181.999 181.501C183.375 181.371 184.669 180.795 185.684 179.86C185.56 181.263 185.911 182.668 186.681 183.848C187.452 185.029 188.597 185.917 189.934 186.372C191.271 186.826 192.722 186.819 194.054 186.354C195.387 185.888 196.525 184.989 197.285 183.802C197.587 185.125 198.309 186.314 199.344 187.194C200.379 188.074 201.671 188.597 203.029 188.684C204.386 188.772 205.735 188.42 206.875 187.68C208.015 186.941 208.885 185.854 209.355 184.581C209.992 185.565 210.892 186.352 211.953 186.853C213.015 187.355 214.195 187.551 215.362 187.419C216.529 187.287 217.636 186.833 218.558 186.107C219.48 185.382 220.18 184.414 220.581 183.313C220.758 182.819 220.873 182.306 220.924 181.785C221.916 182.626 223.145 183.141 224.442 183.257C225.739 183.374 227.04 183.086 228.167 182.435C229.294 181.784 230.191 180.801 230.735 179.621C231.278 178.441 231.442 177.121 231.204 175.844C231.37 175.922 231.54 175.996 231.717 176.06C232.925 176.5 234.24 176.562 235.485 176.235C236.729 175.909 237.844 175.211 238.679 174.235C239.515 173.259 240.031 172.051 240.159 170.774C240.286 169.497 240.02 168.211 239.394 167.09C240.727 167.367 242.115 167.205 243.349 166.63C244.583 166.055 245.597 165.096 246.24 163.898C246.882 162.7 247.118 161.326 246.913 159.983C246.707 158.64 246.071 157.399 245.1 156.447C246.346 156.44 247.562 156.065 248.594 155.369C249.627 154.673 250.429 153.688 250.901 152.538C251.372 151.387 251.491 150.123 251.243 148.905C250.995 147.687 250.39 146.57 249.506 145.695C250.706 145.594 251.852 145.154 252.808 144.424C253.765 143.695 254.492 142.707 254.904 141.579C255.316 140.45 255.395 139.227 255.132 138.055C254.87 136.883 254.276 135.811 253.421 134.964C254.62 134.863 255.764 134.421 256.719 133.692C257.674 132.962 258.4 131.976 258.811 130.848C259.222 129.721 259.302 128.5 259.04 127.329C258.778 126.158 258.186 125.086 257.334 124.24C258.534 124.14 259.68 123.699 260.637 122.969C261.593 122.24 262.321 121.253 262.733 120.124C263.144 118.995 263.224 117.772 262.961 116.6C262.698 115.428 262.104 114.356 261.249 113.51C262.449 113.409 263.595 112.969 264.552 112.239C265.509 111.51 266.236 110.522 266.648 109.394C267.06 108.265 267.139 107.042 266.876 105.87C266.613 104.698 266.019 103.626 265.165 102.78C266.364 102.678 267.509 102.236 268.464 101.507C269.42 100.777 270.146 99.79 270.557 98.6619C270.969 97.5338 271.048 96.3119 270.785 95.1405C270.523 93.969 269.93 92.8969 269.076 92.0508C270.277 91.9496 271.424 91.5077 272.38 90.7772C273.337 90.0467 274.065 89.0582 274.476 87.9286V87.9286Z" fill="#F2F2F2"/>
<path d="M274.476 87.9286C274.889 86.799 274.968 85.5753 274.705 84.4022C274.442 83.2291 273.847 82.1557 272.992 81.3091C274.209 81.2068 275.37 80.7542 276.334 80.0064C277.299 79.2586 278.025 78.2477 278.424 77.0963C278.824 75.9449 278.88 74.7026 278.585 73.5202C278.291 72.3377 277.658 71.266 276.765 70.435C278.101 70.3411 279.372 69.8259 280.395 68.9639C281.418 68.1019 282.14 66.9378 282.456 65.6398C282.772 64.3417 282.666 62.9771 282.153 61.7432C281.64 60.5093 280.747 59.47 279.603 58.7756C280.891 58.4186 282.033 57.6626 282.862 56.6166C283.692 55.5706 284.167 54.2887 284.218 52.956C284.27 51.6233 283.896 50.3087 283.15 49.2019C282.404 48.0951 281.324 47.2534 280.068 46.7982C280.02 46.7801 279.971 46.7697 279.923 46.7541C280.991 46.0069 281.801 44.9476 282.24 43.7223C282.679 42.497 282.726 41.1659 282.375 39.9127C282.024 38.6595 281.292 37.5458 280.279 36.7252C279.267 35.9045 278.024 35.4174 276.722 35.331C277.531 34.3115 278.003 33.0671 278.074 31.7689C278.145 30.4707 277.811 29.1825 277.117 28.0816C276.424 26.9807 275.405 26.1212 274.202 25.6213C272.999 25.1214 271.67 25.0057 270.398 25.2901C270.446 25.1772 270.5 25.0682 270.541 24.9526C270.99 23.7251 271.044 22.3888 270.697 21.129C270.35 19.8692 269.618 18.7484 268.604 17.9219C267.59 17.0954 266.342 16.6043 265.035 16.5166C263.729 16.4289 262.427 16.7489 261.31 17.4324C261.563 16.0506 261.344 14.6243 260.69 13.3807C260.035 12.1371 258.982 11.1478 257.699 10.5703C256.415 9.99282 254.975 9.86041 253.607 10.1942C252.239 10.5279 251.022 11.3087 250.151 12.412C250.097 11.0184 249.581 9.68223 248.683 8.61324C247.785 7.54424 246.556 6.803 245.19 6.50591C243.824 6.20883 242.398 6.37272 241.135 6.97187C239.873 7.57101 238.846 8.57146 238.215 9.81611C237.714 8.65928 236.877 7.6791 235.811 7.00252C234.745 6.32593 233.5 5.9841 232.237 6.0213C230.975 6.0585 229.752 6.47301 228.728 7.21115C227.704 7.94929 226.926 8.97706 226.495 10.1614C226.411 10.3932 226.342 10.6299 226.287 10.87C225.423 9.90155 224.281 9.2225 223.016 8.92562C221.752 8.62873 220.426 8.72847 219.22 9.21123C218.014 9.69399 216.987 10.5362 216.279 11.6229C215.571 12.7096 215.216 13.9878 215.264 15.283C214.467 14.7776 213.567 14.4571 212.629 14.3452C211.692 14.2332 210.741 14.3326 209.847 14.6361C208.953 14.9395 208.139 15.4393 207.465 16.0985C206.791 16.7577 206.273 17.5595 205.951 18.4448C205.45 19.8103 205.441 21.3071 205.925 22.6787C204.623 22.254 203.217 22.2641 201.921 22.7073C200.625 23.1506 199.508 24.0029 198.741 25.1353C197.974 26.2677 197.597 27.6185 197.668 28.9834C197.74 30.3483 198.254 31.653 199.135 32.7C197.834 32.5556 196.521 32.8186 195.377 33.4523C194.233 34.086 193.315 35.0592 192.75 36.2368C192.186 37.4144 192.002 38.738 192.226 40.0242C192.45 41.3103 193.069 42.4952 193.998 43.4145C192.797 43.5148 191.65 43.9561 190.693 44.6862C189.736 45.4163 189.009 46.4046 188.597 47.5341C188.186 48.6637 188.107 49.8872 188.371 51.0599C188.635 52.2326 189.23 53.3053 190.086 54.151C188.886 54.2512 187.74 54.692 186.784 55.4214C185.827 56.1507 185.1 57.1382 184.688 58.2668C184.276 59.3955 184.197 60.6182 184.46 61.7903C184.722 62.9625 185.316 64.035 186.171 64.8811C184.971 64.9813 183.825 65.4221 182.868 66.1514C181.912 66.8806 181.184 67.8679 180.772 68.9964C180.36 70.1249 180.281 71.3476 180.543 72.5197C180.805 73.6919 181.399 74.7647 182.253 75.6111C181.053 75.7119 179.908 76.1531 178.952 76.8826C177.996 77.6121 177.269 78.5993 176.858 79.7276C176.446 80.856 176.367 82.0782 176.63 83.25C176.892 84.4217 177.486 85.4939 178.34 86.3399C177.14 86.4395 175.993 86.88 175.036 87.6093C174.079 88.3386 173.352 89.3262 172.94 90.455C172.528 91.5839 172.449 92.8069 172.712 93.9792C172.975 95.1515 173.57 96.2241 174.425 97.0699C173.225 97.1699 172.078 97.6106 171.121 98.3401C170.164 99.0695 169.437 100.057 169.025 101.186C168.613 102.315 168.534 103.538 168.797 104.71C169.06 105.883 169.654 106.955 170.509 107.801C169.31 107.901 168.164 108.342 167.207 109.071C166.251 109.8 165.524 110.787 165.112 111.916C164.7 113.044 164.621 114.267 164.883 115.438C165.146 116.61 165.74 117.683 166.594 118.529C165.325 118.635 164.119 119.121 163.132 119.923C162.146 120.726 161.426 121.807 161.067 123.026C160.708 124.244 160.727 125.542 161.122 126.749C161.516 127.956 162.268 129.016 163.277 129.79C161.915 129.946 160.641 130.541 159.648 131.485C158.655 132.428 157.998 133.669 157.775 135.018C157.552 136.368 157.776 137.753 158.413 138.964C159.05 140.176 160.066 141.147 161.306 141.731C160.108 142.297 159.121 143.227 158.484 144.387C157.848 145.546 157.595 146.877 157.761 148.189C157.928 149.501 158.506 150.726 159.413 151.691C160.319 152.655 161.508 153.31 162.81 153.56C161.868 154.453 161.226 155.615 160.971 156.886C160.717 158.157 160.862 159.476 161.387 160.662C161.912 161.847 162.792 162.842 163.906 163.51C165.019 164.178 166.313 164.487 167.609 164.394C167.41 164.727 167.242 165.078 167.108 165.443C166.69 166.583 166.613 167.819 166.884 169.002C167.155 170.185 167.763 171.265 168.635 172.111C169.508 172.957 170.607 173.533 171.8 173.77C172.993 174.007 174.23 173.894 175.36 173.446C174.967 174.767 175.019 176.18 175.509 177.468C175.999 178.757 176.899 179.849 178.072 180.577C179.244 181.306 180.624 181.63 181.999 181.501C183.375 181.371 184.669 180.795 185.684 179.86C185.56 181.263 185.911 182.668 186.681 183.848C187.452 185.029 188.597 185.917 189.934 186.372C191.271 186.826 192.722 186.819 194.054 186.354C195.387 185.888 196.525 184.989 197.285 183.802C197.587 185.125 198.309 186.314 199.344 187.194C200.379 188.074 201.671 188.597 203.029 188.684C204.386 188.772 205.735 188.42 206.875 187.68C208.015 186.941 208.885 185.854 209.355 184.581C209.992 185.565 210.892 186.352 211.953 186.853C213.015 187.355 214.195 187.551 215.362 187.419C216.529 187.287 217.636 186.833 218.558 186.107C219.48 185.382 220.18 184.414 220.581 183.313C220.758 182.819 220.873 182.306 220.924 181.785C221.916 182.626 223.145 183.141 224.442 183.257C225.739 183.374 227.04 183.086 228.167 182.435C229.294 181.784 230.191 180.801 230.735 179.621C231.278 178.441 231.442 177.121 231.204 175.844C231.37 175.922 231.54 175.996 231.717 176.06C232.925 176.5 234.24 176.562 235.485 176.235C236.729 175.909 237.844 175.211 238.679 174.235C239.515 173.259 240.031 172.051 240.159 170.774C240.286 169.497 240.02 168.211 239.394 167.09C240.727 167.367 242.115 167.205 243.349 166.63C244.583 166.055 245.597 165.096 246.24 163.898C246.882 162.7 247.118 161.326 246.913 159.983C246.707 158.64 246.071 157.399 245.1 156.447C246.346 156.44 247.562 156.065 248.594 155.369C249.627 154.673 250.429 153.688 250.901 152.538C251.372 151.387 251.491 150.123 251.243 148.905C250.995 147.687 250.39 146.57 249.506 145.695C250.706 145.594 251.852 145.154 252.808 144.424C253.765 143.695 254.492 142.707 254.904 141.579C255.316 140.45 255.395 139.227 255.132 138.055C254.87 136.883 254.276 135.811 253.421 134.964C254.62 134.863 255.764 134.421 256.719 133.692C257.674 132.962 258.4 131.976 258.811 130.848C259.222 129.721 259.302 128.5 259.04 127.329C258.778 126.158 258.186 125.086 257.334 124.24C258.534 124.14 259.68 123.699 260.637 122.969C261.593 122.24 262.321 121.253 262.733 120.124C263.144 118.995 263.224 117.772 262.961 116.6C262.698 115.428 262.104 114.356 261.249 113.51C262.449 113.409 263.595 112.969 264.552 112.239C265.509 111.51 266.236 110.522 266.648 109.394C267.06 108.265 267.139 107.042 266.876 105.87C266.613 104.698 266.019 103.626 265.165 102.78C266.364 102.678 267.509 102.236 268.464 101.507C269.42 100.777 270.146 99.79 270.557 98.6619C270.969 97.5338 271.048 96.3119 270.785 95.1405C270.523 93.969 269.93 92.8969 269.076 92.0508C270.277 91.9496 271.424 91.5077 272.38 90.7772C273.337 90.0467 274.065 89.0582 274.476 87.9286V87.9286Z" stroke="black" stroke-width="10.6667" mask="url(#path-3-outside-1_39_669)"/>
<mask id="path-4-outside-2_39_669" maskUnits="userSpaceOnUse" x="18.9331" y="0" width="139" height="195" fill="black">
<rect fill="white" x="18.9331" width="139" height="195"/>
<path d="M53.1269 138.848C53.5392 139.976 54.2666 140.963 55.2233 141.693C56.1799 142.422 57.3259 142.863 58.5257 142.963C57.6594 143.822 57.0617 144.914 56.8049 146.105C56.5481 147.296 56.6433 148.536 57.0791 149.674C57.5148 150.812 58.2723 151.799 59.2596 152.517C60.247 153.234 61.4218 153.65 62.6415 153.714C61.6791 154.642 61.0374 155.851 60.8092 157.167C60.5809 158.483 60.778 159.837 61.3719 161.033C61.9657 162.23 62.9256 163.207 64.1129 163.824C65.3001 164.44 66.6532 164.665 67.9765 164.464C67.219 165.563 66.8313 166.874 66.8695 168.208C66.9078 169.541 67.3699 170.828 68.1893 171.883C69.0086 172.937 70.1427 173.705 71.4278 174.074C72.7129 174.444 74.0826 174.396 75.3389 173.939C75.387 173.922 75.4313 173.898 75.4781 173.88C75.1403 175.138 75.2021 176.47 75.655 177.691C76.108 178.912 76.9297 179.963 78.0068 180.699C79.084 181.435 80.3635 181.819 81.6688 181.799C82.9742 181.778 84.241 181.354 85.2946 180.585C85.3327 181.885 85.7733 183.14 86.5559 184.179C87.3384 185.218 88.4245 185.99 89.6648 186.389C90.9051 186.787 92.2386 186.792 93.4821 186.404C94.7255 186.016 95.8178 185.253 96.6088 184.22C96.6439 184.336 96.6738 184.455 96.7168 184.57C97.1639 185.798 97.9833 186.857 99.061 187.6C100.139 188.343 101.422 188.732 102.732 188.715C104.041 188.698 105.313 188.274 106.371 187.503C107.429 186.732 108.219 185.651 108.633 184.412C109.331 185.632 110.417 186.585 111.72 187.118C113.023 187.651 114.467 187.734 115.822 187.353C117.178 186.972 118.366 186.15 119.199 185.018C120.032 183.885 120.461 182.507 120.417 181.103C121.355 182.141 122.613 182.839 123.992 183.085C125.371 183.332 126.793 183.113 128.034 182.464C129.275 181.815 130.264 180.773 130.845 179.502C131.427 178.23 131.567 176.802 131.245 175.442C132.43 176.042 133.776 176.253 135.089 176.044C136.403 175.835 137.616 175.216 138.555 174.277C139.494 173.338 140.111 172.127 140.317 170.816C140.523 169.506 140.308 168.164 139.703 166.983C140.989 167.171 142.301 166.958 143.461 166.374C144.621 165.79 145.572 164.863 146.184 163.72C146.797 162.577 147.04 161.273 146.881 159.986C146.723 158.7 146.17 157.493 145.298 156.532C146.235 156.409 147.131 156.078 147.922 155.563C148.713 155.048 149.378 154.362 149.867 153.556C150.356 152.75 150.658 151.845 150.749 150.907C150.841 149.969 150.72 149.023 150.395 148.138C149.898 146.77 148.939 145.617 147.682 144.877C148.954 144.367 150.025 143.459 150.732 142.288C151.44 141.117 151.746 139.749 151.604 138.389C151.462 137.029 150.879 135.753 149.945 134.753C149.01 133.753 147.775 133.084 146.425 132.847C147.515 132.124 148.352 131.081 148.82 129.861C149.288 128.642 149.364 127.308 149.038 126.044C148.712 124.779 147.999 123.648 146.998 122.806C145.998 121.964 144.76 121.453 143.456 121.345C144.312 120.499 144.906 119.426 145.17 118.254C145.434 117.081 145.355 115.857 144.943 114.728C144.531 113.598 143.803 112.61 142.845 111.881C141.888 111.151 140.741 110.711 139.54 110.611C140.395 109.765 140.99 108.693 141.253 107.52C141.516 106.348 141.437 105.125 141.025 103.996C140.613 102.867 139.886 101.88 138.929 101.15C137.972 100.421 136.825 99.9807 135.625 99.881C136.48 99.0349 137.073 97.9624 137.336 96.7903C137.599 95.6181 137.52 94.3954 137.108 93.2668C136.696 92.1381 135.969 91.1507 135.012 90.4213C134.056 89.6919 132.909 89.2511 131.709 89.151C132.563 88.3046 133.156 87.2322 133.419 86.0604C133.681 84.8887 133.601 83.6665 133.19 82.5383C132.778 81.4101 132.051 80.423 131.095 79.6936C130.139 78.9643 128.993 78.5231 127.794 78.4222C128.649 77.5761 129.243 76.5036 129.505 75.3315C129.768 74.1593 129.689 72.9366 129.277 71.808C128.865 70.6793 128.138 69.6919 127.181 68.9625C126.225 68.2332 125.079 67.7923 123.879 67.6922C124.733 66.8459 125.327 65.7733 125.59 64.6011C125.852 63.429 125.773 62.2063 125.361 61.0776C124.95 59.9489 124.222 58.9614 123.266 58.2319C122.309 57.5023 121.163 57.0613 119.963 56.9608C120.817 56.1146 121.41 55.0423 121.673 53.8706C121.935 52.6988 121.856 51.4767 121.444 50.3485C121.032 49.2203 120.305 48.2333 119.349 47.5041C118.393 46.7749 117.247 46.334 116.048 46.2334C116.951 45.339 117.561 44.1933 117.799 42.9466C118.038 41.7 117.892 40.4106 117.383 39.2476C116.873 38.0847 116.023 37.1026 114.944 36.4303C113.865 35.7579 112.607 35.4266 111.336 35.48C112.275 34.4858 112.865 33.2137 113.016 31.8558C113.166 30.4979 112.869 29.128 112.17 27.9531C111.472 26.7783 110.408 25.8622 109.141 25.3433C107.874 24.8244 106.472 24.731 105.147 25.077C105.658 23.948 105.822 22.6939 105.621 21.4719C105.42 20.2499 104.862 19.1142 104.017 18.2071C103.172 17.2999 102.077 16.6616 100.87 16.3721C99.6629 16.0826 98.397 16.1547 97.2308 16.5794C96.9354 16.6881 96.6483 16.8183 96.372 16.9688C96.5182 15.6806 96.2618 14.3788 95.6379 13.2416C95.0139 12.1043 94.0529 11.1872 92.8864 10.6156C91.7198 10.044 90.4047 9.84597 89.121 10.0485C87.8372 10.2511 86.6476 10.8444 85.7149 11.7472C85.5013 10.4519 84.8867 9.25576 83.9572 8.32644C83.0277 7.39713 81.83 6.78125 80.5319 6.56514C79.2338 6.34903 77.9005 6.54353 76.7188 7.12137C75.5372 7.69922 74.5664 8.63143 73.9427 9.78732C73.3931 8.52317 72.4425 7.47402 71.237 6.80109C70.0316 6.12817 68.6379 5.86871 67.2703 6.06258C65.9026 6.25645 64.6366 6.89294 63.6668 7.87422C62.6971 8.8555 62.0772 10.1273 61.9024 11.4941C61.0939 10.3397 59.9205 9.48911 58.57 9.07858C57.2195 8.66804 55.77 8.72125 54.4534 9.22968C53.1368 9.73812 52.0292 10.6724 51.308 11.883C50.5867 13.0936 50.2934 14.5105 50.475 15.9071C49.3917 15.088 48.072 14.6399 46.7127 14.6295C45.3533 14.6191 44.027 15.0469 42.9311 15.8493C41.8353 16.6518 41.0287 17.7858 40.6314 19.0826C40.2341 20.3793 40.2673 21.7694 40.7262 23.0457C39.4747 22.6555 38.1322 22.6646 36.8861 23.0718C35.64 23.4791 34.5524 24.2641 33.7751 25.3175C32.9977 26.3708 32.5693 27.6399 32.5497 28.9477C32.5301 30.2555 32.9203 31.5368 33.6657 32.6128C32.3642 32.605 31.0922 32.9992 30.0243 33.7414C28.9564 34.4836 28.1451 35.5373 27.7016 36.7579C27.2582 37.9784 27.2044 39.306 27.5477 40.5582C27.891 41.8105 28.6145 42.9261 29.6189 43.7517C29.4419 43.7998 29.2637 43.8517 29.088 43.9153C27.8787 44.3534 26.8326 45.1498 26.09 46.1978C25.3474 47.2458 24.9438 48.4952 24.9333 49.7784C24.9228 51.0617 25.306 52.3175 26.0314 53.3774C26.7568 54.4373 27.7897 55.2507 28.9917 55.7083C27.7918 56.3512 26.8328 57.3644 26.2583 58.5963C25.6838 59.8281 25.5245 61.2124 25.8045 62.542C26.0844 63.8716 26.7884 65.0751 27.8112 65.9724C28.834 66.8696 30.1205 67.4124 31.4784 67.5196C30.5284 68.3238 29.8387 69.3908 29.4963 70.5858C29.1539 71.7808 29.1742 73.0501 29.5545 74.2336C29.9349 75.4171 30.6583 76.4617 31.6334 77.2354C32.6086 78.009 33.7917 78.4771 35.0333 78.5806C34.1786 79.4267 33.5848 80.4992 33.3219 81.6713C33.0591 82.8435 33.1383 84.0662 33.5501 85.1949C33.962 86.3235 34.6892 87.3109 35.6459 88.0403C36.6027 88.7697 37.7488 89.2105 38.9487 89.3106C38.0942 90.1569 37.5004 91.2295 37.2377 92.4017C36.9749 93.5738 37.0541 94.7965 37.4659 95.9252C37.8777 97.0539 38.6049 98.0414 39.5615 98.7709C40.5181 99.5005 41.6642 99.9415 42.8641 100.042C42.0094 100.888 41.4156 101.961 41.1527 103.133C40.8899 104.305 40.969 105.528 41.3809 106.656C41.7927 107.785 42.52 108.772 43.4767 109.502C44.4334 110.231 45.5796 110.672 46.7795 110.772C45.9247 111.618 45.3308 112.691 45.0681 113.864C44.8055 115.036 44.885 116.259 45.2973 117.388C45.7096 118.517 46.4374 119.504 47.3947 120.233C48.3519 120.962 49.4985 121.403 50.6988 121.502C49.8443 122.348 49.2505 123.421 48.9878 124.593C48.725 125.765 48.8042 126.988 49.216 128.117C49.6278 129.245 50.355 130.233 51.3116 130.962C52.2682 131.692 53.4143 132.133 54.6142 132.233C53.7592 133.079 53.1649 134.152 52.9013 135.324C52.6378 136.496 52.716 137.719 53.1269 138.848V138.848Z"/>
</mask>
<path d="M53.1269 138.848C53.5392 139.976 54.2666 140.963 55.2233 141.693C56.1799 142.422 57.3259 142.863 58.5257 142.963C57.6594 143.822 57.0617 144.914 56.8049 146.105C56.5481 147.296 56.6433 148.536 57.0791 149.674C57.5148 150.812 58.2723 151.799 59.2596 152.517C60.247 153.234 61.4218 153.65 62.6415 153.714C61.6791 154.642 61.0374 155.851 60.8092 157.167C60.5809 158.483 60.778 159.837 61.3719 161.033C61.9657 162.23 62.9256 163.207 64.1129 163.824C65.3001 164.44 66.6532 164.665 67.9765 164.464C67.219 165.563 66.8313 166.874 66.8695 168.208C66.9078 169.541 67.3699 170.828 68.1893 171.883C69.0086 172.937 70.1427 173.705 71.4278 174.074C72.7129 174.444 74.0826 174.396 75.3389 173.939C75.387 173.922 75.4313 173.898 75.4781 173.88C75.1403 175.138 75.2021 176.47 75.655 177.691C76.108 178.912 76.9297 179.963 78.0068 180.699C79.084 181.435 80.3635 181.819 81.6688 181.799C82.9742 181.778 84.241 181.354 85.2946 180.585C85.3327 181.885 85.7733 183.14 86.5559 184.179C87.3384 185.218 88.4245 185.99 89.6648 186.389C90.9051 186.787 92.2386 186.792 93.4821 186.404C94.7255 186.016 95.8178 185.253 96.6088 184.22C96.6439 184.336 96.6738 184.455 96.7168 184.57C97.1639 185.798 97.9833 186.857 99.061 187.6C100.139 188.343 101.422 188.732 102.732 188.715C104.041 188.698 105.313 188.274 106.371 187.503C107.429 186.732 108.219 185.651 108.633 184.412C109.331 185.632 110.417 186.585 111.72 187.118C113.023 187.651 114.467 187.734 115.822 187.353C117.178 186.972 118.366 186.15 119.199 185.018C120.032 183.885 120.461 182.507 120.417 181.103C121.355 182.141 122.613 182.839 123.992 183.085C125.371 183.332 126.793 183.113 128.034 182.464C129.275 181.815 130.264 180.773 130.845 179.502C131.427 178.23 131.567 176.802 131.245 175.442C132.43 176.042 133.776 176.253 135.089 176.044C136.403 175.835 137.616 175.216 138.555 174.277C139.494 173.338 140.111 172.127 140.317 170.816C140.523 169.506 140.308 168.164 139.703 166.983C140.989 167.171 142.301 166.958 143.461 166.374C144.621 165.79 145.572 164.863 146.184 163.72C146.797 162.577 147.04 161.273 146.881 159.986C146.723 158.7 146.17 157.493 145.298 156.532C146.235 156.409 147.131 156.078 147.922 155.563C148.713 155.048 149.378 154.362 149.867 153.556C150.356 152.75 150.658 151.845 150.749 150.907C150.841 149.969 150.72 149.023 150.395 148.138C149.898 146.77 148.939 145.617 147.682 144.877C148.954 144.367 150.025 143.459 150.732 142.288C151.44 141.117 151.746 139.749 151.604 138.389C151.462 137.029 150.879 135.753 149.945 134.753C149.01 133.753 147.775 133.084 146.425 132.847C147.515 132.124 148.352 131.081 148.82 129.861C149.288 128.642 149.364 127.308 149.038 126.044C148.712 124.779 147.999 123.648 146.998 122.806C145.998 121.964 144.76 121.453 143.456 121.345C144.312 120.499 144.906 119.426 145.17 118.254C145.434 117.081 145.355 115.857 144.943 114.728C144.531 113.598 143.803 112.61 142.845 111.881C141.888 111.151 140.741 110.711 139.54 110.611C140.395 109.765 140.99 108.693 141.253 107.52C141.516 106.348 141.437 105.125 141.025 103.996C140.613 102.867 139.886 101.88 138.929 101.15C137.972 100.421 136.825 99.9807 135.625 99.881C136.48 99.0349 137.073 97.9624 137.336 96.7903C137.599 95.6181 137.52 94.3954 137.108 93.2668C136.696 92.1381 135.969 91.1507 135.012 90.4213C134.056 89.6919 132.909 89.2511 131.709 89.151C132.563 88.3046 133.156 87.2322 133.419 86.0604C133.681 84.8887 133.601 83.6665 133.19 82.5383C132.778 81.4101 132.051 80.423 131.095 79.6936C130.139 78.9643 128.993 78.5231 127.794 78.4222C128.649 77.5761 129.243 76.5036 129.505 75.3315C129.768 74.1593 129.689 72.9366 129.277 71.808C128.865 70.6793 128.138 69.6919 127.181 68.9625C126.225 68.2332 125.079 67.7923 123.879 67.6922C124.733 66.8459 125.327 65.7733 125.59 64.6011C125.852 63.429 125.773 62.2063 125.361 61.0776C124.95 59.9489 124.222 58.9614 123.266 58.2319C122.309 57.5023 121.163 57.0613 119.963 56.9608C120.817 56.1146 121.41 55.0423 121.673 53.8706C121.935 52.6988 121.856 51.4767 121.444 50.3485C121.032 49.2203 120.305 48.2333 119.349 47.5041C118.393 46.7749 117.247 46.334 116.048 46.2334C116.951 45.339 117.561 44.1933 117.799 42.9466C118.038 41.7 117.892 40.4106 117.383 39.2476C116.873 38.0847 116.023 37.1026 114.944 36.4303C113.865 35.7579 112.607 35.4266 111.336 35.48C112.275 34.4858 112.865 33.2137 113.016 31.8558C113.166 30.4979 112.869 29.128 112.17 27.9531C111.472 26.7783 110.408 25.8622 109.141 25.3433C107.874 24.8244 106.472 24.731 105.147 25.077C105.658 23.948 105.822 22.6939 105.621 21.4719C105.42 20.2499 104.862 19.1142 104.017 18.2071C103.172 17.2999 102.077 16.6616 100.87 16.3721C99.6629 16.0826 98.397 16.1547 97.2308 16.5794C96.9354 16.6881 96.6483 16.8183 96.372 16.9688C96.5182 15.6806 96.2618 14.3788 95.6379 13.2416C95.0139 12.1043 94.0529 11.1872 92.8864 10.6156C91.7198 10.044 90.4047 9.84597 89.121 10.0485C87.8372 10.2511 86.6476 10.8444 85.7149 11.7472C85.5013 10.4519 84.8867 9.25576 83.9572 8.32644C83.0277 7.39713 81.83 6.78125 80.5319 6.56514C79.2338 6.34903 77.9005 6.54353 76.7188 7.12137C75.5372 7.69922 74.5664 8.63143 73.9427 9.78732C73.3931 8.52317 72.4425 7.47402 71.237 6.80109C70.0316 6.12817 68.6379 5.86871 67.2703 6.06258C65.9026 6.25645 64.6366 6.89294 63.6668 7.87422C62.6971 8.8555 62.0772 10.1273 61.9024 11.4941C61.0939 10.3397 59.9205 9.48911 58.57 9.07858C57.2195 8.66804 55.77 8.72125 54.4534 9.22968C53.1368 9.73812 52.0292 10.6724 51.308 11.883C50.5867 13.0936 50.2934 14.5105 50.475 15.9071C49.3917 15.088 48.072 14.6399 46.7127 14.6295C45.3533 14.6191 44.027 15.0469 42.9311 15.8493C41.8353 16.6518 41.0287 17.7858 40.6314 19.0826C40.2341 20.3793 40.2673 21.7694 40.7262 23.0457C39.4747 22.6555 38.1322 22.6646 36.8861 23.0718C35.64 23.4791 34.5524 24.2641 33.7751 25.3175C32.9977 26.3708 32.5693 27.6399 32.5497 28.9477C32.5301 30.2555 32.9203 31.5368 33.6657 32.6128C32.3642 32.605 31.0922 32.9992 30.0243 33.7414C28.9564 34.4836 28.1451 35.5373 27.7016 36.7579C27.2582 37.9784 27.2044 39.306 27.5477 40.5582C27.891 41.8105 28.6145 42.9261 29.6189 43.7517C29.4419 43.7998 29.2637 43.8517 29.088 43.9153C27.8787 44.3534 26.8326 45.1498 26.09 46.1978C25.3474 47.2458 24.9438 48.4952 24.9333 49.7784C24.9228 51.0617 25.306 52.3175 26.0314 53.3774C26.7568 54.4373 27.7897 55.2507 28.9917 55.7083C27.7918 56.3512 26.8328 57.3644 26.2583 58.5963C25.6838 59.8281 25.5245 61.2124 25.8045 62.542C26.0844 63.8716 26.7884 65.0751 27.8112 65.9724C28.834 66.8696 30.1205 67.4124 31.4784 67.5196C30.5284 68.3238 29.8387 69.3908 29.4963 70.5858C29.1539 71.7808 29.1742 73.0501 29.5545 74.2336C29.9349 75.4171 30.6583 76.4617 31.6334 77.2354C32.6086 78.009 33.7917 78.4771 35.0333 78.5806C34.1786 79.4267 33.5848 80.4992 33.3219 81.6713C33.0591 82.8435 33.1383 84.0662 33.5501 85.1949C33.962 86.3235 34.6892 87.3109 35.6459 88.0403C36.6027 88.7697 37.7488 89.2105 38.9487 89.3106C38.0942 90.1569 37.5004 91.2295 37.2377 92.4017C36.9749 93.5738 37.0541 94.7965 37.4659 95.9252C37.8777 97.0539 38.6049 98.0414 39.5615 98.7709C40.5181 99.5005 41.6642 99.9415 42.8641 100.042C42.0094 100.888 41.4156 101.961 41.1527 103.133C40.8899 104.305 40.969 105.528 41.3809 106.656C41.7927 107.785 42.52 108.772 43.4767 109.502C44.4334 110.231 45.5796 110.672 46.7795 110.772C45.9247 111.618 45.3308 112.691 45.0681 113.864C44.8055 115.036 44.885 116.259 45.2973 117.388C45.7096 118.517 46.4374 119.504 47.3947 120.233C48.3519 120.962 49.4985 121.403 50.6988 121.502C49.8443 122.348 49.2505 123.421 48.9878 124.593C48.725 125.765 48.8042 126.988 49.216 128.117C49.6278 129.245 50.355 130.233 51.3116 130.962C52.2682 131.692 53.4143 132.133 54.6142 132.233C53.7592 133.079 53.1649 134.152 52.9013 135.324C52.6378 136.496 52.716 137.719 53.1269 138.848V138.848Z" fill="#F2F2F2"/>
<path d="M53.1269 138.848C53.5392 139.976 54.2666 140.963 55.2233 141.693C56.1799 142.422 57.3259 142.863 58.5257 142.963C57.6594 143.822 57.0617 144.914 56.8049 146.105C56.5481 147.296 56.6433 148.536 57.0791 149.674C57.5148 150.812 58.2723 151.799 59.2596 152.517C60.247 153.234 61.4218 153.65 62.6415 153.714C61.6791 154.642 61.0374 155.851 60.8092 157.167C60.5809 158.483 60.778 159.837 61.3719 161.033C61.9657 162.23 62.9256 163.207 64.1129 163.824C65.3001 164.44 66.6532 164.665 67.9765 164.464C67.219 165.563 66.8313 166.874 66.8695 168.208C66.9078 169.541 67.3699 170.828 68.1893 171.883C69.0086 172.937 70.1427 173.705 71.4278 174.074C72.7129 174.444 74.0826 174.396 75.3389 173.939C75.387 173.922 75.4313 173.898 75.4781 173.88C75.1403 175.138 75.2021 176.47 75.655 177.691C76.108 178.912 76.9297 179.963 78.0068 180.699C79.084 181.435 80.3635 181.819 81.6688 181.799C82.9742 181.778 84.241 181.354 85.2946 180.585C85.3327 181.885 85.7733 183.14 86.5559 184.179C87.3384 185.218 88.4245 185.99 89.6648 186.389C90.9051 186.787 92.2386 186.792 93.4821 186.404C94.7255 186.016 95.8178 185.253 96.6088 184.22C96.6439 184.336 96.6738 184.455 96.7168 184.57C97.1639 185.798 97.9833 186.857 99.061 187.6C100.139 188.343 101.422 188.732 102.732 188.715C104.041 188.698 105.313 188.274 106.371 187.503C107.429 186.732 108.219 185.651 108.633 184.412C109.331 185.632 110.417 186.585 111.72 187.118C113.023 187.651 114.467 187.734 115.822 187.353C117.178 186.972 118.366 186.15 119.199 185.018C120.032 183.885 120.461 182.507 120.417 181.103C121.355 182.141 122.613 182.839 123.992 183.085C125.371 183.332 126.793 183.113 128.034 182.464C129.275 181.815 130.264 180.773 130.845 179.502C131.427 178.23 131.567 176.802 131.245 175.442C132.43 176.042 133.776 176.253 135.089 176.044C136.403 175.835 137.616 175.216 138.555 174.277C139.494 173.338 140.111 172.127 140.317 170.816C140.523 169.506 140.308 168.164 139.703 166.983C140.989 167.171 142.301 166.958 143.461 166.374C144.621 165.79 145.572 164.863 146.184 163.72C146.797 162.577 147.04 161.273 146.881 159.986C146.723 158.7 146.17 157.493 145.298 156.532C146.235 156.409 147.131 156.078 147.922 155.563C148.713 155.048 149.378 154.362 149.867 153.556C150.356 152.75 150.658 151.845 150.749 150.907C150.841 149.969 150.72 149.023 150.395 148.138C149.898 146.77 148.939 145.617 147.682 144.877C148.954 144.367 150.025 143.459 150.732 142.288C151.44 141.117 151.746 139.749 151.604 138.389C151.462 137.029 150.879 135.753 149.945 134.753C149.01 133.753 147.775 133.084 146.425 132.847C147.515 132.124 148.352 131.081 148.82 129.861C149.288 128.642 149.364 127.308 149.038 126.044C148.712 124.779 147.999 123.648 146.998 122.806C145.998 121.964 144.76 121.453 143.456 121.345C144.312 120.499 144.906 119.426 145.17 118.254C145.434 117.081 145.355 115.857 144.943 114.728C144.531 113.598 143.803 112.61 142.845 111.881C141.888 111.151 140.741 110.711 139.54 110.611C140.395 109.765 140.99 108.693 141.253 107.52C141.516 106.348 141.437 105.125 141.025 103.996C140.613 102.867 139.886 101.88 138.929 101.15C137.972 100.421 136.825 99.9807 135.625 99.881C136.48 99.0349 137.073 97.9624 137.336 96.7903C137.599 95.6181 137.52 94.3954 137.108 93.2668C136.696 92.1381 135.969 91.1507 135.012 90.4213C134.056 89.6919 132.909 89.2511 131.709 89.151C132.563 88.3046 133.156 87.2322 133.419 86.0604C133.681 84.8887 133.601 83.6665 133.19 82.5383C132.778 81.4101 132.051 80.423 131.095 79.6936C130.139 78.9643 128.993 78.5231 127.794 78.4222C128.649 77.5761 129.243 76.5036 129.505 75.3315C129.768 74.1593 129.689 72.9366 129.277 71.808C128.865 70.6793 128.138 69.6919 127.181 68.9625C126.225 68.2332 125.079 67.7923 123.879 67.6922C124.733 66.8459 125.327 65.7733 125.59 64.6011C125.852 63.429 125.773 62.2063 125.361 61.0776C124.95 59.9489 124.222 58.9614 123.266 58.2319C122.309 57.5023 121.163 57.0613 119.963 56.9608C120.817 56.1146 121.41 55.0423 121.673 53.8706C121.935 52.6988 121.856 51.4767 121.444 50.3485C121.032 49.2203 120.305 48.2333 119.349 47.5041C118.393 46.7749 117.247 46.334 116.048 46.2334C116.951 45.339 117.561 44.1933 117.799 42.9466C118.038 41.7 117.892 40.4106 117.383 39.2476C116.873 38.0847 116.023 37.1026 114.944 36.4303C113.865 35.7579 112.607 35.4266 111.336 35.48C112.275 34.4858 112.865 33.2137 113.016 31.8558C113.166 30.4979 112.869 29.128 112.17 27.9531C111.472 26.7783 110.408 25.8622 109.141 25.3433C107.874 24.8244 106.472 24.731 105.147 25.077C105.658 23.948 105.822 22.6939 105.621 21.4719C105.42 20.2499 104.862 19.1142 104.017 18.2071C103.172 17.2999 102.077 16.6616 100.87 16.3721C99.6629 16.0826 98.397 16.1547 97.2308 16.5794C96.9354 16.6881 96.6483 16.8183 96.372 16.9688C96.5182 15.6806 96.2618 14.3788 95.6379 13.2416C95.0139 12.1043 94.0529 11.1872 92.8864 10.6156C91.7198 10.044 90.4047 9.84597 89.121 10.0485C87.8372 10.2511 86.6476 10.8444 85.7149 11.7472C85.5013 10.4519 84.8867 9.25576 83.9572 8.32644C83.0277 7.39713 81.83 6.78125 80.5319 6.56514C79.2338 6.34903 77.9005 6.54353 76.7188 7.12137C75.5372 7.69922 74.5664 8.63143 73.9427 9.78732C73.3931 8.52317 72.4425 7.47402 71.237 6.80109C70.0316 6.12817 68.6379 5.86871 67.2703 6.06258C65.9026 6.25645 64.6366 6.89294 63.6668 7.87422C62.6971 8.8555 62.0772 10.1273 61.9024 11.4941C61.0939 10.3397 59.9205 9.48911 58.57 9.07858C57.2195 8.66804 55.77 8.72125 54.4534 9.22968C53.1368 9.73812 52.0292 10.6724 51.308 11.883C50.5867 13.0936 50.2934 14.5105 50.475 15.9071C49.3917 15.088 48.072 14.6399 46.7127 14.6295C45.3533 14.6191 44.027 15.0469 42.9311 15.8493C41.8353 16.6518 41.0287 17.7858 40.6314 19.0826C40.2341 20.3793 40.2673 21.7694 40.7262 23.0457C39.4747 22.6555 38.1322 22.6646 36.8861 23.0718C35.64 23.4791 34.5524 24.2641 33.7751 25.3175C32.9977 26.3708 32.5693 27.6399 32.5497 28.9477C32.5301 30.2555 32.9203 31.5368 33.6657 32.6128C32.3642 32.605 31.0922 32.9992 30.0243 33.7414C28.9564 34.4836 28.1451 35.5373 27.7016 36.7579C27.2582 37.9784 27.2044 39.306 27.5477 40.5582C27.891 41.8105 28.6145 42.9261 29.6189 43.7517C29.4419 43.7998 29.2637 43.8517 29.088 43.9153C27.8787 44.3534 26.8326 45.1498 26.09 46.1978C25.3474 47.2458 24.9438 48.4952 24.9333 49.7784C24.9228 51.0617 25.306 52.3175 26.0314 53.3774C26.7568 54.4373 27.7897 55.2507 28.9917 55.7083C27.7918 56.3512 26.8328 57.3644 26.2583 58.5963C25.6838 59.8281 25.5245 61.2124 25.8045 62.542C26.0844 63.8716 26.7884 65.0751 27.8112 65.9724C28.834 66.8696 30.1205 67.4124 31.4784 67.5196C30.5284 68.3238 29.8387 69.3908 29.4963 70.5858C29.1539 71.7808 29.1742 73.0501 29.5545 74.2336C29.9349 75.4171 30.6583 76.4617 31.6334 77.2354C32.6086 78.009 33.7917 78.4771 35.0333 78.5806C34.1786 79.4267 33.5848 80.4992 33.3219 81.6713C33.0591 82.8435 33.1383 84.0662 33.5501 85.1949C33.962 86.3235 34.6892 87.3109 35.6459 88.0403C36.6027 88.7697 37.7488 89.2105 38.9487 89.3106C38.0942 90.1569 37.5004 91.2295 37.2377 92.4017C36.9749 93.5738 37.0541 94.7965 37.4659 95.9252C37.8777 97.0539 38.6049 98.0414 39.5615 98.7709C40.5181 99.5005 41.6642 99.9415 42.8641 100.042C42.0094 100.888 41.4156 101.961 41.1527 103.133C40.8899 104.305 40.969 105.528 41.3809 106.656C41.7927 107.785 42.52 108.772 43.4767 109.502C44.4334 110.231 45.5796 110.672 46.7795 110.772C45.9247 111.618 45.3308 112.691 45.0681 113.864C44.8055 115.036 44.885 116.259 45.2973 117.388C45.7096 118.517 46.4374 119.504 47.3947 120.233C48.3519 120.962 49.4985 121.403 50.6988 121.502C49.8443 122.348 49.2505 123.421 48.9878 124.593C48.725 125.765 48.8042 126.988 49.216 128.117C49.6278 129.245 50.355 130.233 51.3116 130.962C52.2682 131.692 53.4143 132.133 54.6142 132.233C53.7592 133.079 53.1649 134.152 52.9013 135.324C52.6378 136.496 52.716 137.719 53.1269 138.848V138.848Z" stroke="black" stroke-width="10.6667" mask="url(#path-4-outside-2_39_669)"/>
<path d="M70.3081 295.474C69.8368 299.118 70.2799 302.829 71.6069 306.27C73.089 310.114 75.6149 313.47 78.9005 315.961C82.1861 318.452 86.1017 319.981 90.2082 320.376C93.0878 320.654 95.9819 320.366 98.7308 319.543C99.3641 322.711 100.687 325.718 102.623 328.343C105.291 331.962 108.997 334.686 113.25 336.155C117.504 337.624 122.104 337.77 126.442 336.573C129.455 335.741 132.244 334.289 134.636 332.325C136.146 335.023 138.213 337.39 140.716 339.26C144.319 341.953 148.657 343.489 153.155 343.667C157.652 343.844 162.098 342.654 165.903 340.254C168.666 338.512 170.996 336.191 172.743 333.47C175.003 335.236 177.593 336.555 180.377 337.344C184.345 338.467 188.549 338.467 192.518 337.341C196.486 336.216 200.063 334.01 202.846 330.97C205.34 328.247 207.109 324.95 208.001 321.383C210.937 322.285 214.041 322.573 217.117 322.215C221.357 321.721 225.365 320.019 228.662 317.311C231.959 314.604 234.406 311.005 235.707 306.946C236.644 304.022 236.959 300.948 236.647 297.92C239.836 297.804 242.978 297.003 245.851 295.555C249.789 293.57 253.047 290.46 255.207 286.621C257.367 282.781 258.332 278.386 257.978 273.996C257.73 270.921 256.843 267.946 255.39 265.256C258.373 264.173 261.105 262.459 263.389 260.214C266.613 257.045 268.791 252.969 269.631 248.53L269.631 248.53C270.47 244.09 269.93 239.501 268.084 235.377C266.777 232.457 264.859 229.868 262.477 227.775C264.812 225.799 266.724 223.352 268.078 220.578C270.01 216.62 270.717 212.176 270.108 207.815C269.498 203.453 267.6 199.372 264.657 196.092C262.511 193.7 259.881 191.814 256.956 190.546C258.354 187.841 259.185 184.865 259.381 181.801C259.654 177.546 258.691 173.303 256.609 169.58C254.526 165.858 251.412 162.814 247.641 160.813C244.908 159.362 241.912 158.504 238.85 158.277C239.321 154.633 238.877 150.922 237.55 147.481C236.068 143.637 233.542 140.282 230.257 137.791C226.971 135.3 223.056 133.771 218.95 133.375C216.071 133.098 213.177 133.385 210.428 134.208C209.795 131.039 208.473 128.032 206.537 125.406C203.869 121.787 200.162 119.063 195.909 117.593C191.655 116.124 187.054 115.978 182.716 117.176C179.702 118.008 176.914 119.461 174.522 121.425C173.012 118.727 170.945 116.36 168.443 114.491C164.839 111.798 160.501 110.262 156.004 110.084C151.506 109.907 147.06 111.096 143.255 113.496C140.493 115.239 138.162 117.559 136.416 120.281C134.156 118.515 131.565 117.196 128.782 116.408C124.814 115.284 120.611 115.285 116.643 116.41C112.675 117.535 109.098 119.74 106.314 122.779C103.821 125.501 102.052 128.797 101.159 132.363C98.2248 131.462 95.123 131.174 92.0489 131.532C87.8085 132.026 83.7997 133.728 80.5025 136.435C77.2052 139.143 74.7591 142.742 73.4579 146.802C72.5207 149.725 72.2061 152.799 72.5186 155.827C69.3287 155.942 66.1863 156.742 63.3115 158.19C59.3721 160.174 56.1133 163.284 53.9521 167.125C51.7909 170.965 50.8255 175.362 51.1798 179.753C51.4279 182.829 52.3156 185.803 53.7699 188.494C50.786 189.576 48.054 191.29 45.7697 193.534C42.5445 196.704 40.3657 200.78 39.526 205.22C38.6862 209.66 39.2259 214.249 41.0724 218.374C42.3797 221.294 44.2976 223.883 46.6803 225.975C44.3448 227.952 42.4326 230.398 41.0787 233.171C39.1458 237.13 38.4386 241.574 39.0479 245.936C39.6572 250.298 41.5552 254.379 44.4987 257.659C46.6449 260.051 49.276 261.937 52.2012 263.204C50.803 265.91 49.9721 268.886 49.7757 271.949C49.5029 276.205 50.4658 280.448 52.5484 284.17C54.631 287.893 57.7447 290.937 61.5156 292.938C64.2497 294.389 67.2455 295.247 70.3081 295.474Z" fill="#F2F2F2" stroke="black" stroke-width="5.33333"/>
<path d="M156.937 201.394V202.888C156.937 204.311 158.094 205.465 159.521 205.465H186.536C187.963 205.465 189.12 204.311 189.12 202.888V201.394C189.12 199.97 187.963 198.816 186.536 198.816H159.521C158.094 198.816 156.937 199.97 156.937 201.394Z" fill="black"/>
<path d="M173.777 186.091H172.279C170.852 186.091 169.695 187.245 169.695 188.669V215.615C169.695 217.039 170.852 218.193 172.279 218.193H173.777C175.204 218.193 176.361 217.039 176.361 215.615V188.669C176.361 187.245 175.204 186.091 173.777 186.091Z" fill="black"/>
<path d="M161.119 212.962L162.178 214.019C163.187 215.025 164.823 215.025 165.833 214.019L184.935 194.965C185.944 193.958 185.944 192.326 184.935 191.319L183.876 190.263C182.867 189.256 181.231 189.256 180.221 190.263L161.119 209.317C160.11 210.323 160.11 211.956 161.119 212.962Z" fill="black"/>
<path d="M162.179 190.264L161.12 191.32C160.111 192.327 160.111 193.959 161.12 194.965L180.223 214.019C181.232 215.026 182.868 215.026 183.877 214.019L184.936 212.963C185.946 211.956 185.946 210.324 184.936 209.318L165.834 190.264C164.825 189.257 163.189 189.257 162.179 190.264Z" fill="black"/>
<path d="M116.6 181.256L115.541 182.313C114.532 183.319 114.532 184.951 115.541 185.958L134.643 205.012C135.652 206.019 137.289 206.019 138.298 205.012L139.357 203.956C140.366 202.949 140.366 201.317 139.357 200.31L120.254 181.256C119.245 180.25 117.609 180.25 116.6 181.256Z" fill="black"/>
<path d="M115.541 221.972L116.6 223.028C117.609 224.035 119.245 224.035 120.255 223.028L139.357 203.974C140.366 202.967 140.366 201.335 139.357 200.329L138.298 199.272C137.289 198.266 135.652 198.266 134.643 199.272L115.541 218.326C114.532 219.333 114.532 220.965 115.541 221.972Z" fill="black"/>
<mask id="path-12-inside-3_39_669" fill="white">
<path fill-rule="evenodd" clip-rule="evenodd" d="M3.29114 224.998C1.66284 224.495 0 225.685 0 227.39V227.39C0 312.226 68.9482 381 154 381C239.052 381 308 312.226 308 227.39V227.39C308 226.142 306.788 225.263 305.594 225.626C258.108 240.09 207.698 247.871 155.467 247.871C102.483 247.871 51.375 239.864 3.29114 224.998Z"/>
</mask>
<path fill-rule="evenodd" clip-rule="evenodd" d="M3.29114 224.998C1.66284 224.495 0 225.685 0 227.39V227.39C0 312.226 68.9482 381 154 381C239.052 381 308 312.226 308 227.39V227.39C308 226.142 306.788 225.263 305.594 225.626C258.108 240.09 207.698 247.871 155.467 247.871C102.483 247.871 51.375 239.864 3.29114 224.998Z" fill="#FFD916"/>
<path d="M305.594 225.626L304.04 220.524L305.594 225.626ZM154 375.667C71.8809 375.667 5.33333 309.268 5.33333 227.39H-5.33333C-5.33333 315.185 66.0154 386.333 154 386.333V375.667ZM302.667 227.39C302.667 309.268 236.119 375.667 154 375.667V386.333C241.985 386.333 313.333 315.185 313.333 227.39H302.667ZM304.04 220.524C257.052 234.836 207.166 242.538 155.467 242.538V253.205C208.231 253.205 259.164 245.344 307.148 230.728L304.04 220.524ZM155.467 242.538C103.023 242.538 52.4458 234.613 4.86651 219.903L1.71576 230.093C50.3042 245.116 101.943 253.205 155.467 253.205V242.538ZM313.333 227.39C313.333 222.48 308.584 219.141 304.04 220.524L307.148 230.728C304.992 231.385 302.667 229.804 302.667 227.39H313.333ZM5.33333 227.39C5.33333 229.388 3.41105 230.617 1.71576 230.093L4.86651 219.903C-0.0853735 218.372 -5.33333 221.982 -5.33333 227.39H5.33333Z" fill="black" mask="url(#path-12-inside-3_39_669)"/>
</svg>
