<svg width="353" height="582" viewBox="0 0 353 582" fill="none" xmlns="http://www.w3.org/2000/svg">
<circle cx="98.8167" cy="98.8167" r="96.15" fill="#FF1A87" stroke="black" stroke-width="5.33333"/>
<mask id="path-2-inside-1_68_14" fill="white">
<path fill-rule="evenodd" clip-rule="evenodd" d="M134.924 404.158L134.924 156.738C134.924 135.528 117.729 118.333 96.5187 118.333V118.333C75.308 118.333 58.1133 135.528 58.1133 156.738L58.1133 404.158V404.158C58.1133 446.58 92.5026 481.133 134.924 481.133V481.133H200.213V404.158H134.924Z"/>
</mask>
<path fill-rule="evenodd" clip-rule="evenodd" d="M134.924 404.158L134.924 156.738C134.924 135.528 117.729 118.333 96.5187 118.333V118.333C75.308 118.333 58.1133 135.528 58.1133 156.738L58.1133 404.158V404.158C58.1133 446.58 92.5026 481.133 134.924 481.133V481.133H200.213V404.158H134.924Z" fill="#FFD916"/>
<path d="M134.924 404.158L129.591 404.158L129.591 409.492H134.924V404.158ZM200.213 481.133V486.466H205.547V481.133H200.213ZM200.213 404.158H205.547V398.825H200.213V404.158ZM129.591 156.738L129.591 404.158L140.257 404.158L140.257 156.738L129.591 156.738ZM63.4466 404.158L63.4466 156.738L52.78 156.738L52.7799 404.158L63.4466 404.158ZM200.213 475.8H134.924V486.466H200.213V475.8ZM194.88 404.158V481.133H205.547V404.158H194.88ZM134.924 409.492H200.213V398.825H134.924V409.492ZM52.7799 404.158C52.7799 449.511 89.5423 486.466 134.924 486.466V475.8C95.4629 475.8 63.4466 443.649 63.4466 404.158H52.7799ZM96.5187 113C72.3625 113 52.78 132.582 52.78 156.738L63.4466 156.738C63.4466 138.473 78.2535 123.666 96.5187 123.666V113ZM140.257 156.738C140.257 132.582 120.675 113 96.5187 113V123.666C114.784 123.666 129.591 138.473 129.591 156.738L140.257 156.738Z" fill="black" mask="url(#path-2-inside-1_68_14)"/>
<mask id="path-4-inside-2_68_14" fill="white">
<path fill-rule="evenodd" clip-rule="evenodd" d="M313.477 311.57C271.08 311.57 236.71 345.939 236.71 388.336V504.303C236.71 546.7 271.08 581.07 313.477 581.07L313.477 580.97C334.832 580.97 352.144 520.678 352.144 446.303C352.144 371.929 334.832 311.637 313.477 311.637C313.477 311.637 313.477 311.637 313.477 311.637V311.57Z"/>
</mask>
<path fill-rule="evenodd" clip-rule="evenodd" d="M313.477 311.57C271.08 311.57 236.71 345.939 236.71 388.336V504.303C236.71 546.7 271.08 581.07 313.477 581.07L313.477 580.97C334.832 580.97 352.144 520.678 352.144 446.303C352.144 371.929 334.832 311.637 313.477 311.637C313.477 311.637 313.477 311.637 313.477 311.637V311.57Z" fill="#FF5903"/>
<path d="M313.477 311.57H318.81V306.236H313.477V311.57ZM313.477 581.07V586.403H318.806L318.81 581.075L313.477 581.07ZM313.477 580.97V575.637H308.149L308.144 580.965L313.477 580.97ZM313.477 311.637H308.144V316.97H313.477V311.637ZM242.044 388.336C242.044 348.885 274.026 316.903 313.477 316.903V306.236C268.135 306.236 231.377 342.994 231.377 388.336H242.044ZM242.044 504.303V388.336H231.377V504.303H242.044ZM313.477 575.736C274.026 575.736 242.044 543.755 242.044 504.303H231.377C231.377 549.646 268.135 586.403 313.477 586.403V575.736ZM308.144 580.965L308.144 581.065L318.81 581.075L318.811 580.975L308.144 580.965ZM346.811 446.303C346.811 483.138 342.517 516.286 335.692 540.055C332.27 551.976 328.295 561.235 324.115 567.392C319.813 573.729 316.122 575.637 313.477 575.637V586.303C321.51 586.303 327.991 580.674 332.941 573.383C338.013 565.911 342.37 555.448 345.945 542.999C353.115 518.029 357.477 483.843 357.477 446.303H346.811ZM313.477 316.97C316.122 316.97 319.813 318.877 324.115 325.215C328.295 331.372 332.27 340.631 335.692 352.552C342.517 376.321 346.811 409.469 346.811 446.303H357.477C357.477 408.764 353.115 374.578 345.945 349.608C342.37 337.159 338.013 326.696 332.941 319.224C327.991 311.933 321.51 306.303 313.477 306.303V316.97ZM313.477 316.97C313.477 316.97 313.477 316.97 313.477 316.97C313.477 316.97 313.477 316.97 313.477 316.97C313.477 316.97 313.477 316.97 313.477 316.97C313.477 316.97 313.477 316.97 313.477 316.97C313.477 316.97 313.477 316.97 313.477 316.97C313.477 316.97 313.477 316.97 313.477 316.97C313.477 316.97 313.477 316.97 313.477 316.97C313.477 316.97 313.477 316.97 313.477 316.97C313.477 316.97 313.477 316.97 313.477 316.97C313.477 316.97 313.477 316.97 313.477 316.97C313.477 316.97 313.477 316.97 313.477 316.97C313.477 316.97 313.477 316.97 313.477 316.97C313.477 316.97 313.477 316.97 313.477 316.97C313.477 316.97 313.477 316.97 313.477 316.97C313.477 316.97 313.477 316.97 313.477 316.97C313.477 316.97 313.477 316.97 313.477 316.97C313.477 316.97 313.477 316.97 313.477 316.97C313.477 316.97 313.477 316.97 313.477 316.97C313.477 316.97 313.477 316.97 313.477 316.97C313.477 316.97 313.477 316.97 313.477 316.97C313.477 316.97 313.477 316.97 313.477 316.97C313.477 316.97 313.477 316.97 313.477 316.97C313.477 316.97 313.477 316.97 313.477 316.97C313.477 316.97 313.477 316.97 313.477 316.97C313.477 316.97 313.477 316.97 313.477 316.97C313.477 316.97 313.477 316.97 313.477 316.97C313.477 316.97 313.477 316.97 313.477 316.97C313.477 316.97 313.477 316.97 313.477 316.97C313.477 316.97 313.477 316.97 313.477 316.97C313.477 316.97 313.477 316.97 313.477 316.97C313.477 316.97 313.477 316.97 313.477 316.97C313.477 316.97 313.477 316.97 313.477 316.97C313.477 316.97 313.477 316.97 313.477 316.97C313.477 316.97 313.477 316.97 313.477 316.97C313.477 316.97 313.477 316.97 313.477 316.97C313.477 316.97 313.477 316.97 313.477 316.97C313.477 316.97 313.477 316.97 313.477 316.97C313.477 316.97 313.477 316.97 313.477 316.97C313.477 316.97 313.477 316.97 313.477 316.97C313.477 316.97 313.477 316.97 313.477 316.97C313.477 316.97 313.477 316.97 313.477 316.97C313.477 316.97 313.477 316.97 313.477 316.97C313.477 316.97 313.477 316.97 313.477 316.97C313.477 316.97 313.477 316.97 313.477 316.97C313.477 316.97 313.477 316.97 313.477 316.97C313.477 316.97 313.477 316.97 313.477 316.97C313.477 316.97 313.477 316.97 313.477 316.97C313.477 316.97 313.477 316.97 313.477 316.97C313.477 316.97 313.477 316.97 313.477 316.97C313.477 316.97 313.477 316.97 313.477 316.97C313.477 316.97 313.477 316.97 313.477 316.97C313.477 316.97 313.477 316.97 313.477 316.97C313.477 316.97 313.477 316.97 313.477 316.97C313.477 316.97 313.477 316.97 313.477 316.97C313.477 316.97 313.477 316.97 313.477 316.97C313.477 316.97 313.477 316.97 313.477 316.97C313.477 316.97 313.477 316.97 313.477 316.97C313.477 316.97 313.477 316.97 313.477 316.97C313.477 316.97 313.477 316.97 313.477 316.97C313.477 316.97 313.477 316.97 313.477 316.97C313.477 316.97 313.477 316.97 313.477 316.97C313.477 316.97 313.477 316.97 313.477 316.97C313.477 316.97 313.477 316.97 313.477 316.97C313.477 316.97 313.477 316.97 313.477 316.97C313.477 316.97 313.477 316.97 313.477 316.97C313.477 316.97 313.477 316.97 313.477 316.97C313.477 316.97 313.477 316.97 313.477 316.97C313.477 316.97 313.477 316.97 313.477 316.97C313.477 316.97 313.477 316.97 313.477 316.97C313.477 316.97 313.477 316.97 313.477 316.97C313.477 316.97 313.477 316.97 313.477 316.97C313.477 316.97 313.477 316.97 313.477 316.97C313.477 316.97 313.477 316.97 313.477 316.97C313.477 316.97 313.477 316.97 313.477 316.97C313.477 316.97 313.477 316.97 313.477 316.97C313.477 316.97 313.477 316.97 313.477 316.97C313.477 316.97 313.477 316.97 313.477 316.97C313.477 316.97 313.477 316.97 313.477 316.97C313.477 316.97 313.477 316.97 313.477 316.97C313.477 316.97 313.477 316.97 313.477 316.97C313.477 316.97 313.477 316.97 313.477 316.97C313.477 316.97 313.477 316.97 313.477 316.97C313.477 316.97 313.477 316.97 313.477 316.97C313.477 316.97 313.477 316.97 313.477 316.97C313.477 316.97 313.477 316.97 313.477 316.97C313.477 316.97 313.477 316.97 313.477 316.97C313.477 316.97 313.477 316.97 313.477 316.97C313.477 316.97 313.477 316.97 313.477 316.97C313.477 316.97 313.477 316.97 313.477 316.97C313.477 316.97 313.477 316.97 313.477 316.97C313.477 316.97 313.477 316.97 313.477 316.97C313.477 316.97 313.477 316.97 313.477 316.97C313.477 316.97 313.477 316.97 313.477 316.97C313.477 316.97 313.477 316.97 313.477 316.97C313.477 316.97 313.477 316.97 313.477 316.97C313.477 316.97 313.477 316.97 313.477 316.97C313.477 316.97 313.477 316.97 313.477 316.97C313.477 316.97 313.477 316.97 313.477 316.97C313.477 316.97 313.477 316.97 313.477 316.97C313.477 316.97 313.477 316.97 313.477 316.97C313.477 316.97 313.477 316.97 313.477 316.97C313.477 316.97 313.477 316.97 313.477 316.97C313.477 316.97 313.477 316.97 313.477 316.97C313.477 316.97 313.477 316.97 313.477 316.97C313.477 316.97 313.477 316.97 313.477 316.97C313.477 316.97 313.477 316.97 313.477 316.97C313.477 316.97 313.477 316.97 313.477 316.97C313.477 316.97 313.477 316.97 313.477 316.97C313.477 316.97 313.477 316.97 313.477 316.97C313.477 316.97 313.477 316.97 313.477 316.97C313.477 316.97 313.477 316.97 313.477 316.97C313.477 316.97 313.477 316.97 313.477 316.97C313.477 316.97 313.477 316.97 313.477 316.97C313.477 316.97 313.477 316.97 313.477 316.97C313.477 316.97 313.477 316.97 313.477 316.97C313.477 316.97 313.477 316.97 313.477 316.97C313.477 316.97 313.477 316.97 313.477 316.97C313.477 316.97 313.477 316.97 313.477 316.97C313.477 316.97 313.477 316.97 313.477 316.97C313.477 316.97 313.477 316.97 313.477 316.97C313.477 316.97 313.477 316.97 313.477 316.97C313.477 316.97 313.477 316.97 313.477 316.97C313.477 316.97 313.477 316.97 313.477 316.97C313.477 316.97 313.477 316.97 313.477 316.97C313.477 316.97 313.477 316.97 313.477 316.97C313.477 316.97 313.477 316.97 313.477 316.97C313.477 316.97 313.477 316.97 313.477 316.97C313.477 316.97 313.477 316.97 313.477 316.97C313.477 316.97 313.477 316.97 313.477 316.97C313.477 316.97 313.477 316.97 313.477 316.97C313.477 316.97 313.477 316.97 313.477 316.97C313.477 316.97 313.477 316.97 313.477 316.97C313.477 316.97 313.477 316.97 313.477 316.97C313.477 316.97 313.477 316.97 313.477 316.97C313.477 316.97 313.477 316.97 313.477 316.97C313.477 316.97 313.477 316.97 313.477 316.97C313.477 316.97 313.477 316.97 313.477 316.97C313.477 316.97 313.477 316.97 313.477 316.97C313.477 316.97 313.477 316.97 313.477 316.97C313.477 316.97 313.477 316.97 313.477 316.97C313.477 316.97 313.477 316.97 313.477 316.97C313.477 316.97 313.477 316.97 313.477 316.97C313.477 316.97 313.477 316.97 313.477 316.97C313.477 316.97 313.477 316.97 313.477 316.97C313.477 316.97 313.477 316.97 313.477 316.97C313.477 316.97 313.477 316.97 313.477 316.97C313.477 316.97 313.477 316.97 313.477 316.97C313.477 316.97 313.477 316.97 313.477 316.97C313.477 316.97 313.477 316.97 313.477 316.97C313.477 316.97 313.477 316.97 313.477 316.97C313.477 316.97 313.477 316.97 313.477 316.97C313.477 316.97 313.477 316.97 313.477 316.97C313.477 316.97 313.477 316.97 313.477 316.97C313.477 316.97 313.477 316.97 313.477 316.97C313.477 316.97 313.477 316.97 313.477 316.97C313.477 316.97 313.477 316.97 313.477 316.97C313.477 316.97 313.477 316.97 313.477 316.97C313.477 316.97 313.477 316.97 313.477 316.97C313.477 316.97 313.477 316.97 313.477 316.97C313.477 316.97 313.477 316.97 313.477 316.97C313.477 316.97 313.477 316.97 313.477 316.97C313.477 316.97 313.477 316.97 313.477 316.97C313.477 316.97 313.477 316.97 313.477 316.97C313.477 316.97 313.477 316.97 313.477 316.97C313.477 316.97 313.477 316.97 313.477 316.97C313.477 316.97 313.477 316.97 313.477 316.97C313.477 316.97 313.477 316.97 313.477 316.97C313.477 316.97 313.477 316.97 313.477 316.97C313.477 316.97 313.477 316.97 313.477 316.97C313.477 316.97 313.477 316.97 313.477 316.97C313.477 316.97 313.477 316.97 313.477 316.97C313.477 316.97 313.477 316.97 313.477 316.97C313.477 316.97 313.477 316.97 313.477 316.97C313.477 316.97 313.477 316.97 313.477 316.97C313.477 316.97 313.477 316.97 313.477 316.97C313.477 316.97 313.477 316.97 313.477 316.97C313.477 316.97 313.477 316.97 313.477 316.97C313.477 316.97 313.477 316.97 313.477 316.97C313.477 316.97 313.477 316.97 313.477 316.97C313.477 316.97 313.477 316.97 313.477 316.97C313.477 316.97 313.477 316.97 313.477 316.97C313.477 316.97 313.477 316.97 313.477 316.97C313.477 316.97 313.477 316.97 313.477 316.97C313.477 316.97 313.477 316.97 313.477 316.97C313.477 316.97 313.477 316.97 313.477 316.97C313.477 316.97 313.477 316.97 313.477 316.97C313.477 316.97 313.477 316.97 313.477 316.97C313.477 316.97 313.477 316.97 313.477 316.97C313.477 316.97 313.477 316.97 313.477 316.97C313.477 316.97 313.477 316.97 313.477 316.97C313.477 316.97 313.477 316.97 313.477 316.97C313.477 316.97 313.477 316.97 313.477 316.97C313.477 316.97 313.477 316.97 313.477 316.97C313.477 316.97 313.477 316.97 313.477 316.97C313.477 316.97 313.477 316.97 313.477 316.97C313.477 316.97 313.477 316.97 313.477 316.97C313.477 316.97 313.477 316.97 313.477 316.97C313.477 316.97 313.477 316.97 313.477 316.97C313.477 316.97 313.477 316.97 313.477 316.97C313.477 316.97 313.477 316.97 313.477 316.97C313.477 316.97 313.477 316.97 313.477 316.97C313.477 316.97 313.477 316.97 313.477 316.97C313.477 316.97 313.477 316.97 313.477 316.97C313.477 316.97 313.477 316.97 313.477 316.97C313.477 316.97 313.477 316.97 313.477 316.97C313.477 316.97 313.477 316.97 313.477 316.97C313.477 316.97 313.477 316.97 313.477 316.97C313.477 316.97 313.477 316.97 313.477 316.97C313.477 316.97 313.477 316.97 313.477 316.97C313.477 316.97 313.477 316.97 313.477 316.97C313.477 316.97 313.477 316.97 313.477 316.97C313.477 316.97 313.477 316.97 313.477 316.97C313.477 316.97 313.477 316.97 313.477 316.97C313.477 316.97 313.477 316.97 313.477 316.97C313.477 316.97 313.477 316.97 313.477 316.97C313.477 316.97 313.477 316.97 313.477 316.97C313.477 316.97 313.477 316.97 313.477 316.97C313.477 316.97 313.477 316.97 313.477 316.97C313.477 316.97 313.477 316.97 313.477 316.97C313.477 316.97 313.477 316.97 313.477 316.97C313.477 316.97 313.477 316.97 313.477 316.97C313.477 316.97 313.477 316.97 313.477 316.97C313.477 316.97 313.477 316.97 313.477 316.97C313.477 316.97 313.477 316.97 313.477 316.97C313.477 316.97 313.477 316.97 313.477 316.97C313.477 316.97 313.477 316.97 313.477 316.97C313.477 316.97 313.477 316.97 313.477 316.97C313.477 316.97 313.477 316.97 313.477 316.97C313.477 316.97 313.477 316.97 313.477 316.97C313.477 316.97 313.477 316.97 313.477 316.97C313.477 316.97 313.477 316.97 313.477 316.97C313.477 316.97 313.477 316.97 313.477 316.97C313.477 316.97 313.477 316.97 313.477 316.97C313.477 316.97 313.477 316.97 313.477 316.97C313.477 316.97 313.477 316.97 313.477 316.97C313.477 316.97 313.477 316.97 313.477 316.97C313.477 316.97 313.477 316.97 313.477 316.97C313.477 316.97 313.477 316.97 313.477 316.97C313.477 316.97 313.477 316.97 313.477 316.97C313.477 316.97 313.477 316.97 313.477 316.97C313.477 316.97 313.477 316.97 313.477 316.97C313.477 316.97 313.477 316.97 313.477 316.97C313.477 316.97 313.477 316.97 313.477 316.97C313.477 316.97 313.477 316.97 313.477 316.97C313.477 316.97 313.477 316.97 313.477 316.97C313.477 316.97 313.477 316.97 313.477 316.97C313.477 316.97 313.477 316.97 313.477 316.97C313.477 316.97 313.477 316.97 313.477 316.97C313.477 316.97 313.477 316.97 313.477 316.97C313.477 316.97 313.477 316.97 313.477 316.97C313.477 316.97 313.477 316.97 313.477 316.97C313.477 316.97 313.477 316.97 313.477 316.97C313.477 316.97 313.477 316.97 313.477 316.97C313.477 316.97 313.477 316.97 313.477 316.97C313.477 316.97 313.477 316.97 313.477 316.97C313.477 316.97 313.477 316.97 313.477 316.97C313.477 316.97 313.477 316.97 313.477 316.97C313.477 316.97 313.477 316.97 313.477 316.97C313.477 316.97 313.477 316.97 313.477 316.97C313.477 316.97 313.477 316.97 313.477 316.97C313.477 316.97 313.477 316.97 313.477 316.97C313.477 316.97 313.477 316.97 313.477 316.97C313.477 316.97 313.477 316.97 313.477 316.97C313.477 316.97 313.477 316.97 313.477 316.97C313.477 316.97 313.477 316.97 313.477 316.97C313.477 316.97 313.477 316.97 313.477 316.97C313.477 316.97 313.477 316.97 313.477 316.97C313.477 316.97 313.477 316.97 313.477 316.97C313.477 316.97 313.477 316.97 313.477 316.97C313.477 316.97 313.477 316.97 313.477 316.97C313.477 316.97 313.477 316.97 313.477 316.97C313.477 316.97 313.477 316.97 313.477 316.97C313.477 316.97 313.477 316.97 313.477 316.97C313.477 316.97 313.477 316.97 313.477 316.97C313.477 316.97 313.477 316.97 313.477 316.97C313.477 316.97 313.477 316.97 313.477 316.97C313.477 316.97 313.477 316.97 313.477 316.97C313.477 316.97 313.477 316.97 313.477 316.97C313.477 316.97 313.477 316.97 313.477 316.97C313.477 316.97 313.477 316.97 313.477 316.97C313.477 316.97 313.477 316.97 313.477 316.97C313.477 316.97 313.477 316.97 313.477 316.97C313.477 316.97 313.477 316.97 313.477 316.97C313.477 316.97 313.477 316.97 313.477 316.97C313.477 316.97 313.477 316.97 313.477 316.97C313.477 316.97 313.477 316.97 313.477 316.97C313.477 316.97 313.477 316.97 313.477 316.97C313.477 316.97 313.477 316.97 313.477 316.97C313.477 316.97 313.477 316.97 313.477 316.97C313.477 316.97 313.477 316.97 313.477 316.97C313.477 316.97 313.477 316.97 313.477 316.97C313.477 316.97 313.477 316.97 313.477 316.97C313.477 316.97 313.477 316.97 313.477 316.97C313.477 316.97 313.477 316.97 313.477 316.97C313.477 316.97 313.477 316.97 313.477 316.97C313.477 316.97 313.477 316.97 313.477 316.97C313.477 316.97 313.477 316.97 313.477 316.97C313.477 316.97 313.477 316.97 313.477 316.97C313.477 316.97 313.477 316.97 313.477 316.97C313.477 316.97 313.477 316.97 313.477 316.97C313.477 316.97 313.477 316.97 313.477 316.97C313.477 316.97 313.477 316.97 313.477 316.97C313.477 316.97 313.477 316.97 313.477 316.97C313.477 316.97 313.477 316.97 313.477 316.97C313.477 316.97 313.477 316.97 313.477 316.97C313.477 316.97 313.477 316.97 313.477 316.97C313.477 316.97 313.477 316.97 313.477 316.97C313.477 316.97 313.477 316.97 313.477 316.97C313.477 316.97 313.477 316.97 313.477 316.97C313.477 316.97 313.477 316.97 313.477 316.97C313.477 316.97 313.477 316.97 313.477 316.97C313.477 316.97 313.477 316.97 313.477 316.97C313.477 316.97 313.477 316.97 313.477 316.97C313.477 316.97 313.477 316.97 313.477 316.97C313.477 316.97 313.477 316.97 313.477 316.97C313.477 316.97 313.477 316.97 313.477 316.97C313.477 316.97 313.477 316.97 313.477 316.97C313.477 316.97 313.477 316.97 313.477 316.97C313.477 316.97 313.477 316.97 313.477 316.97C313.477 316.97 313.477 316.97 313.477 316.97C313.477 316.97 313.477 316.97 313.477 316.97C313.477 316.97 313.477 316.97 313.477 316.97C313.477 316.97 313.477 316.97 313.477 316.97C313.477 316.97 313.477 316.97 313.477 316.97C313.477 316.97 313.477 316.97 313.477 316.97C313.477 316.97 313.477 316.97 313.477 316.97C313.477 316.97 313.477 316.97 313.477 316.97C313.477 316.97 313.477 316.97 313.477 316.97C313.477 316.97 313.477 316.97 313.477 316.97C313.477 316.97 313.477 316.97 313.477 316.97C313.477 316.97 313.477 316.97 313.477 316.97C313.477 316.97 313.477 316.97 313.477 316.97C313.477 316.97 313.477 316.97 313.477 316.97C313.477 316.97 313.477 316.97 313.477 316.97C313.477 316.97 313.477 316.97 313.477 316.97C313.477 316.97 313.477 316.97 313.477 316.97C313.477 316.97 313.477 316.97 313.477 316.97C313.477 316.97 313.477 316.97 313.477 316.97C313.477 316.97 313.477 316.97 313.477 316.97C313.477 316.97 313.477 316.97 313.477 316.97C313.477 316.97 313.477 316.97 313.477 316.97C313.477 316.97 313.477 316.97 313.477 316.97C313.477 316.97 313.477 316.97 313.477 316.97C313.477 316.97 313.477 316.97 313.477 316.97C313.477 316.97 313.477 316.97 313.477 316.97C313.477 316.97 313.477 316.97 313.477 316.97C313.477 316.97 313.477 316.97 313.477 316.97C313.477 316.97 313.477 316.97 313.477 316.97C313.477 316.97 313.477 316.97 313.477 316.97C313.477 316.97 313.477 316.97 313.477 316.97C313.477 316.97 313.477 316.97 313.477 316.97C313.477 316.97 313.477 316.97 313.477 316.97C313.477 316.97 313.477 316.97 313.477 316.97C313.477 316.97 313.477 316.97 313.477 316.97C313.477 316.97 313.477 316.97 313.477 316.97C313.477 316.97 313.477 316.97 313.477 316.97C313.477 316.97 313.477 316.97 313.477 316.97C313.477 316.97 313.477 316.97 313.477 316.97C313.477 316.97 313.477 316.97 313.477 316.97C313.477 316.97 313.477 316.97 313.477 316.97C313.477 316.97 313.477 316.97 313.477 316.97C313.477 316.97 313.477 316.97 313.477 316.97C313.477 316.97 313.477 316.97 313.477 316.97C313.477 316.97 313.477 316.97 313.477 316.97C313.477 316.97 313.477 316.97 313.477 316.97C313.477 316.97 313.477 316.97 313.477 316.97C313.477 316.97 313.477 316.97 313.477 316.97C313.477 316.97 313.477 316.97 313.477 316.97C313.477 316.97 313.477 316.97 313.477 316.97C313.477 316.97 313.477 316.97 313.477 316.97C313.477 316.97 313.477 316.97 313.477 316.97C313.477 316.97 313.477 316.97 313.477 316.97C313.477 316.97 313.477 316.97 313.477 316.97C313.477 316.97 313.477 316.97 313.477 316.97C313.477 316.97 313.477 316.97 313.477 316.97C313.477 316.97 313.477 316.97 313.477 316.97C313.477 316.97 313.477 316.97 313.477 316.97C313.477 316.97 313.477 316.97 313.477 316.97C313.477 316.97 313.477 316.97 313.477 316.97C313.477 316.97 313.477 316.97 313.477 316.97C313.477 316.97 313.477 316.97 313.477 316.97C313.477 316.97 313.477 316.97 313.477 316.97C313.477 316.97 313.477 316.97 313.477 316.97C313.477 316.97 313.477 316.97 313.477 316.97C313.477 316.97 313.477 316.97 313.477 316.97C313.477 316.97 313.477 316.97 313.477 316.97C313.477 316.97 313.477 316.97 313.477 316.97C313.477 316.97 313.477 316.97 313.477 316.97C313.477 316.97 313.477 316.97 313.477 316.97C313.477 316.97 313.477 316.97 313.477 316.97C313.477 316.97 313.477 316.97 313.477 316.97C313.477 316.97 313.477 316.97 313.477 316.97C313.477 316.97 313.477 316.97 313.477 316.97C313.477 316.97 313.477 316.97 313.477 316.97C313.477 316.97 313.477 316.97 313.477 316.97C313.477 316.97 313.477 316.97 313.477 316.97C313.477 316.97 313.477 316.97 313.477 316.97C313.477 316.97 313.477 316.97 313.477 316.97C313.477 316.97 313.477 316.97 313.477 316.97C313.477 316.97 313.477 316.97 313.477 316.97C313.477 316.97 313.477 316.97 313.477 316.97C313.477 316.97 313.477 316.97 313.477 316.97C313.477 316.97 313.477 316.97 313.477 316.97C313.477 316.97 313.477 316.97 313.477 316.97C313.477 316.97 313.477 316.97 313.477 316.97C313.477 316.97 313.477 316.97 313.477 316.97C313.477 316.97 313.477 316.97 313.477 316.97C313.477 316.97 313.477 316.97 313.477 316.97C313.477 316.97 313.477 316.97 313.477 316.97C313.477 316.97 313.477 316.97 313.477 316.97C313.477 316.97 313.477 316.97 313.477 316.97C313.477 316.97 313.477 316.97 313.477 316.97C313.477 316.97 313.477 316.97 313.477 316.97C313.477 316.97 313.477 316.97 313.477 316.97C313.477 316.97 313.477 316.97 313.477 316.97C313.477 316.97 313.477 316.97 313.477 316.97C313.477 316.97 313.477 316.97 313.477 316.97C313.477 316.97 313.477 316.97 313.477 316.97C313.477 316.97 313.477 316.97 313.477 316.97C313.477 316.97 313.477 316.97 313.477 316.97C313.477 316.97 313.477 316.97 313.477 316.97C313.477 316.97 313.477 316.97 313.477 316.97C313.477 316.97 313.477 316.97 313.477 316.97C313.477 316.97 313.477 316.97 313.477 316.97C313.477 316.97 313.477 316.97 313.477 316.97C313.477 316.97 313.477 316.97 313.477 316.97C313.477 316.97 313.477 316.97 313.477 316.97C313.477 316.97 313.477 316.97 313.477 316.97C313.477 316.97 313.477 316.97 313.477 316.97C313.477 316.97 313.477 316.97 313.477 316.97C313.477 316.97 313.477 316.97 313.477 316.97C313.477 316.97 313.477 316.97 313.477 316.97C313.477 316.97 313.477 316.97 313.477 316.97C313.477 316.97 313.477 316.97 313.477 316.97C313.477 316.97 313.477 316.97 313.477 316.97C313.477 316.97 313.477 316.97 313.477 316.97C313.477 316.97 313.477 316.97 313.477 316.97C313.477 316.97 313.477 316.97 313.477 316.97C313.477 316.97 313.477 316.97 313.477 316.97C313.477 316.97 313.477 316.97 313.477 316.97C313.477 316.97 313.477 316.97 313.477 316.97C313.477 316.97 313.477 316.97 313.477 316.97C313.477 316.97 313.477 316.97 313.477 316.97C313.477 316.97 313.477 316.97 313.477 316.97C313.477 316.97 313.477 316.97 313.477 316.97C313.477 316.97 313.477 316.97 313.477 316.97C313.477 316.97 313.477 316.97 313.477 316.97C313.477 316.97 313.477 316.97 313.477 316.97C313.477 316.97 313.477 316.97 313.477 316.97C313.477 316.97 313.477 316.97 313.477 316.97C313.477 316.97 313.477 316.97 313.477 316.97C313.477 316.97 313.477 316.97 313.477 316.97C313.477 316.97 313.477 316.97 313.477 316.97C313.477 316.97 313.477 316.97 313.477 316.97C313.477 316.97 313.477 316.97 313.477 316.97C313.477 316.97 313.477 316.97 313.477 316.97C313.477 316.97 313.477 316.97 313.477 316.97C313.477 316.97 313.477 316.97 313.477 316.97C313.477 316.97 313.477 316.97 313.477 316.97C313.477 316.97 313.477 316.97 313.477 316.97C313.477 316.97 313.477 316.97 313.477 316.97C313.477 316.97 313.477 316.97 313.477 316.97C313.477 316.97 313.477 316.97 313.477 316.97C313.477 316.97 313.477 316.97 313.477 316.97C313.477 316.97 313.477 316.97 313.477 316.97C313.477 316.97 313.477 316.97 313.477 316.97C313.477 316.97 313.477 316.97 313.477 316.97C313.477 316.97 313.477 316.97 313.477 316.97C313.477 316.97 313.477 316.97 313.477 316.97C313.477 316.97 313.477 316.97 313.477 316.97C313.477 316.97 313.477 316.97 313.477 316.97C313.477 316.97 313.477 316.97 313.477 316.97C313.477 316.97 313.477 316.97 313.477 316.97C313.477 316.97 313.477 316.97 313.477 316.97C313.477 316.97 313.477 316.97 313.477 316.97C313.477 316.97 313.477 316.97 313.477 316.97C313.477 316.97 313.477 316.97 313.477 316.97C313.477 316.97 313.477 316.97 313.477 316.97C313.477 316.97 313.477 316.97 313.477 316.97C313.477 316.97 313.477 316.97 313.477 316.97C313.477 316.97 313.477 316.97 313.477 316.97C313.477 316.97 313.477 316.97 313.477 316.97C313.477 316.97 313.477 316.97 313.477 316.97C313.477 316.97 313.477 316.97 313.477 316.97C313.477 316.97 313.477 316.97 313.477 316.97C313.477 316.97 313.477 316.97 313.477 316.97C313.477 316.97 313.477 316.97 313.477 316.97C313.477 316.97 313.477 316.97 313.477 316.97C313.477 316.97 313.477 316.97 313.477 316.97C313.477 316.97 313.477 316.97 313.477 316.97C313.477 316.97 313.477 316.97 313.477 316.97C313.477 316.97 313.477 316.97 313.477 316.97C313.477 316.97 313.477 316.97 313.477 316.97C313.477 316.97 313.477 316.97 313.477 316.97C313.477 316.97 313.477 316.97 313.477 316.97C313.477 316.97 313.477 316.97 313.477 316.97C313.477 316.97 313.477 316.97 313.477 316.97C313.477 316.97 313.477 316.97 313.477 316.97C313.477 316.97 313.477 316.97 313.477 316.97C313.477 316.97 313.477 316.97 313.477 316.97C313.477 316.97 313.477 316.97 313.477 316.97C313.477 316.97 313.477 316.97 313.477 316.97C313.477 316.97 313.477 316.97 313.477 316.97C313.477 316.97 313.477 316.97 313.477 316.97C313.477 316.97 313.477 316.97 313.477 316.97C313.477 316.97 313.477 316.97 313.477 316.97C313.477 316.97 313.477 316.97 313.477 316.97C313.477 316.97 313.477 316.97 313.477 316.97C313.477 316.97 313.477 316.97 313.477 316.97C313.477 316.97 313.477 316.97 313.477 316.97C313.477 316.97 313.477 316.97 313.477 316.97C313.477 316.97 313.477 316.97 313.477 316.97V306.303C313.477 306.303 313.477 306.303 313.477 306.303C313.477 306.303 313.477 306.303 313.477 306.303C313.477 306.303 313.477 306.303 313.477 306.303C313.477 306.303 313.477 306.303 313.477 306.303C313.477 306.303 313.477 306.303 313.477 306.303C313.477 306.303 313.477 306.303 313.477 306.303C313.477 306.303 313.477 306.303 313.477 306.303C313.477 306.303 313.477 306.303 313.477 306.303C313.477 306.303 313.477 306.303 313.477 306.303C313.477 306.303 313.477 306.303 313.477 306.303C313.477 306.303 313.477 306.303 313.477 306.303C313.477 306.303 313.477 306.303 313.477 306.303C313.477 306.303 313.477 306.303 313.477 306.303C313.477 306.303 313.477 306.303 313.477 306.303C313.477 306.303 313.477 306.303 313.477 306.303C313.477 306.303 313.477 306.303 313.477 306.303C313.477 306.303 313.477 306.303 313.477 306.303C313.477 306.303 313.477 306.303 313.477 306.303C313.477 306.303 313.477 306.303 313.477 306.303C313.477 306.303 313.477 306.303 313.477 306.303C313.477 306.303 313.477 306.303 313.477 306.303C313.477 306.303 313.477 306.303 313.477 306.303C313.477 306.303 313.477 306.303 313.477 306.303C313.477 306.303 313.477 306.303 313.477 306.303C313.477 306.303 313.477 306.303 313.477 306.303C313.477 306.303 313.477 306.303 313.477 306.303C313.477 306.303 313.477 306.303 313.477 306.303C313.477 306.303 313.477 306.303 313.477 306.303C313.477 306.303 313.477 306.303 313.477 306.303C313.477 306.303 313.477 306.303 313.477 306.303C313.477 306.303 313.477 306.303 313.477 306.303C313.477 306.303 313.477 306.303 313.477 306.303C313.477 306.303 313.477 306.303 313.477 306.303C313.477 306.303 313.477 306.303 313.477 306.303C313.477 306.303 313.477 306.303 313.477 306.303C313.477 306.303 313.477 306.303 313.477 306.303C313.477 306.303 313.477 306.303 313.477 306.303C313.477 306.303 313.477 306.303 313.477 306.303C313.477 306.303 313.477 306.303 313.477 306.303C313.477 306.303 313.477 306.303 313.477 306.303C313.477 306.303 313.477 306.303 313.477 306.303C313.477 306.303 313.477 306.303 313.477 306.303C313.477 306.303 313.477 306.303 313.477 306.303C313.477 306.303 313.477 306.303 313.477 306.303C313.477 306.303 313.477 306.303 313.477 306.303C313.477 306.303 313.477 306.303 313.477 306.303C313.477 306.303 313.477 306.303 313.477 306.303C313.477 306.303 313.477 306.303 313.477 306.303C313.477 306.303 313.477 306.303 313.477 306.303C313.477 306.303 313.477 306.303 313.477 306.303C313.477 306.303 313.477 306.303 313.477 306.303C313.477 306.303 313.477 306.303 313.477 306.303C313.477 306.303 313.477 306.303 313.477 306.303C313.477 306.303 313.477 306.303 313.477 306.303C313.477 306.303 313.477 306.303 313.477 306.303C313.477 306.303 313.477 306.303 313.477 306.303C313.477 306.303 313.477 306.303 313.477 306.303C313.477 306.303 313.477 306.303 313.477 306.303C313.477 306.303 313.477 306.303 313.477 306.303C313.477 306.303 313.477 306.303 313.477 306.303C313.477 306.303 313.477 306.303 313.477 306.303C313.477 306.303 313.477 306.303 313.477 306.303C313.477 306.303 313.477 306.303 313.477 306.303C313.477 306.303 313.477 306.303 313.477 306.303C313.477 306.303 313.477 306.303 313.477 306.303C313.477 306.303 313.477 306.303 313.477 306.303C313.477 306.303 313.477 306.303 313.477 306.303C313.477 306.303 313.477 306.303 313.477 306.303C313.477 306.303 313.477 306.303 313.477 306.303C313.477 306.303 313.477 306.303 313.477 306.303C313.477 306.303 313.477 306.303 313.477 306.303C313.477 306.303 313.477 306.303 313.477 306.303C313.477 306.303 313.477 306.303 313.477 306.303C313.477 306.303 313.477 306.303 313.477 306.303C313.477 306.303 313.477 306.303 313.477 306.303C313.477 306.303 313.477 306.303 313.477 306.303C313.477 306.303 313.477 306.303 313.477 306.303C313.477 306.303 313.477 306.303 313.477 306.303C313.477 306.303 313.477 306.303 313.477 306.303C313.477 306.303 313.477 306.303 313.477 306.303C313.477 306.303 313.477 306.303 313.477 306.303C313.477 306.303 313.477 306.303 313.477 306.303C313.477 306.303 313.477 306.303 313.477 306.303C313.477 306.303 313.477 306.303 313.477 306.303C313.477 306.303 313.477 306.303 313.477 306.303C313.477 306.303 313.477 306.303 313.477 306.303C313.477 306.303 313.477 306.303 313.477 306.303C313.477 306.303 313.477 306.303 313.477 306.303C313.477 306.303 313.477 306.303 313.477 306.303C313.477 306.303 313.477 306.303 313.477 306.303C313.477 306.303 313.477 306.303 313.477 306.303C313.477 306.303 313.477 306.303 313.477 306.303C313.477 306.303 313.477 306.303 313.477 306.303C313.477 306.303 313.477 306.303 313.477 306.303C313.477 306.303 313.477 306.303 313.477 306.303C313.477 306.303 313.477 306.303 313.477 306.303C313.477 306.303 313.477 306.303 313.477 306.303C313.477 306.303 313.477 306.303 313.477 306.303C313.477 306.303 313.477 306.303 313.477 306.303C313.477 306.303 313.477 306.303 313.477 306.303C313.477 306.303 313.477 306.303 313.477 306.303C313.477 306.303 313.477 306.303 313.477 306.303C313.477 306.303 313.477 306.303 313.477 306.303C313.477 306.303 313.477 306.303 313.477 306.303C313.477 306.303 313.477 306.303 313.477 306.303C313.477 306.303 313.477 306.303 313.477 306.303C313.477 306.303 313.477 306.303 313.477 306.303C313.477 306.303 313.477 306.303 313.477 306.303C313.477 306.303 313.477 306.303 313.477 306.303C313.477 306.303 313.477 306.303 313.477 306.303C313.477 306.303 313.477 306.303 313.477 306.303C313.477 306.303 313.477 306.303 313.477 306.303C313.477 306.303 313.477 306.303 313.477 306.303C313.477 306.303 313.477 306.303 313.477 306.303C313.477 306.303 313.477 306.303 313.477 306.303C313.477 306.303 313.477 306.303 313.477 306.303C313.477 306.303 313.477 306.303 313.477 306.303C313.477 306.303 313.477 306.303 313.477 306.303C313.477 306.303 313.477 306.303 313.477 306.303C313.477 306.303 313.477 306.303 313.477 306.303C313.477 306.303 313.477 306.303 313.477 306.303C313.477 306.303 313.477 306.303 313.477 306.303C313.477 306.303 313.477 306.303 313.477 306.303C313.477 306.303 313.477 306.303 313.477 306.303C313.477 306.303 313.477 306.303 313.477 306.303C313.477 306.303 313.477 306.303 313.477 306.303C313.477 306.303 313.477 306.303 313.477 306.303C313.477 306.303 313.477 306.303 313.477 306.303C313.477 306.303 313.477 306.303 313.477 306.303C313.477 306.303 313.477 306.303 313.477 306.303C313.477 306.303 313.477 306.303 313.477 306.303C313.477 306.303 313.477 306.303 313.477 306.303C313.477 306.303 313.477 306.303 313.477 306.303C313.477 306.303 313.477 306.303 313.477 306.303C313.477 306.303 313.477 306.303 313.477 306.303C313.477 306.303 313.477 306.303 313.477 306.303C313.477 306.303 313.477 306.303 313.477 306.303C313.477 306.303 313.477 306.303 313.477 306.303C313.477 306.303 313.477 306.303 313.477 306.303C313.477 306.303 313.477 306.303 313.477 306.303C313.477 306.303 313.477 306.303 313.477 306.303C313.477 306.303 313.477 306.303 313.477 306.303C313.477 306.303 313.477 306.303 313.477 306.303C313.477 306.303 313.477 306.303 313.477 306.303C313.477 306.303 313.477 306.303 313.477 306.303C313.477 306.303 313.477 306.303 313.477 306.303C313.477 306.303 313.477 306.303 313.477 306.303C313.477 306.303 313.477 306.303 313.477 306.303C313.477 306.303 313.477 306.303 313.477 306.303C313.477 306.303 313.477 306.303 313.477 306.303C313.477 306.303 313.477 306.303 313.477 306.303C313.477 306.303 313.477 306.303 313.477 306.303C313.477 306.303 313.477 306.303 313.477 306.303C313.477 306.303 313.477 306.303 313.477 306.303C313.477 306.303 313.477 306.303 313.477 306.303C313.477 306.303 313.477 306.303 313.477 306.303C313.477 306.303 313.477 306.303 313.477 306.303C313.477 306.303 313.477 306.303 313.477 306.303C313.477 306.303 313.477 306.303 313.477 306.303C313.477 306.303 313.477 306.303 313.477 306.303C313.477 306.303 313.477 306.303 313.477 306.303C313.477 306.303 313.477 306.303 313.477 306.303C313.477 306.303 313.477 306.303 313.477 306.303C313.477 306.303 313.477 306.303 313.477 306.303C313.477 306.303 313.477 306.303 313.477 306.303C313.477 306.303 313.477 306.303 313.477 306.303C313.477 306.303 313.477 306.303 313.477 306.303C313.477 306.303 313.477 306.303 313.477 306.303C313.477 306.303 313.477 306.303 313.477 306.303C313.477 306.303 313.477 306.303 313.477 306.303C313.477 306.303 313.477 306.303 313.477 306.303C313.477 306.303 313.477 306.303 313.477 306.303C313.477 306.303 313.477 306.303 313.477 306.303C313.477 306.303 313.477 306.303 313.477 306.303C313.477 306.303 313.477 306.303 313.477 306.303C313.477 306.303 313.477 306.303 313.477 306.303C313.477 306.303 313.477 306.303 313.477 306.303C313.477 306.303 313.477 306.303 313.477 306.303C313.477 306.303 313.477 306.303 313.477 306.303C313.477 306.303 313.477 306.303 313.477 306.303C313.477 306.303 313.477 306.303 313.477 306.303C313.477 306.303 313.477 306.303 313.477 306.303C313.477 306.303 313.477 306.303 313.477 306.303C313.477 306.303 313.477 306.303 313.477 306.303C313.477 306.303 313.477 306.303 313.477 306.303C313.477 306.303 313.477 306.303 313.477 306.303C313.477 306.303 313.477 306.303 313.477 306.303C313.477 306.303 313.477 306.303 313.477 306.303C313.477 306.303 313.477 306.303 313.477 306.303C313.477 306.303 313.477 306.303 313.477 306.303C313.477 306.303 313.477 306.303 313.477 306.303C313.477 306.303 313.477 306.303 313.477 306.303C313.477 306.303 313.477 306.303 313.477 306.303C313.477 306.303 313.477 306.303 313.477 306.303C313.477 306.303 313.477 306.303 313.477 306.303C313.477 306.303 313.477 306.303 313.477 306.303C313.477 306.303 313.477 306.303 313.477 306.303C313.477 306.303 313.477 306.303 313.477 306.303C313.477 306.303 313.477 306.303 313.477 306.303C313.477 306.303 313.477 306.303 313.477 306.303C313.477 306.303 313.477 306.303 313.477 306.303C313.477 306.303 313.477 306.303 313.477 306.303C313.477 306.303 313.477 306.303 313.477 306.303C313.477 306.303 313.477 306.303 313.477 306.303C313.477 306.303 313.477 306.303 313.477 306.303C313.477 306.303 313.477 306.303 313.477 306.303C313.477 306.303 313.477 306.303 313.477 306.303C313.477 306.303 313.477 306.303 313.477 306.303C313.477 306.303 313.477 306.303 313.477 306.303C313.477 306.303 313.477 306.303 313.477 306.303C313.477 306.303 313.477 306.303 313.477 306.303C313.477 306.303 313.477 306.303 313.477 306.303C313.477 306.303 313.477 306.303 313.477 306.303C313.477 306.303 313.477 306.303 313.477 306.303C313.477 306.303 313.477 306.303 313.477 306.303C313.477 306.303 313.477 306.303 313.477 306.303C313.477 306.303 313.477 306.303 313.477 306.303C313.477 306.303 313.477 306.303 313.477 306.303C313.477 306.303 313.477 306.303 313.477 306.303C313.477 306.303 313.477 306.303 313.477 306.303C313.477 306.303 313.477 306.303 313.477 306.303C313.477 306.303 313.477 306.303 313.477 306.303C313.477 306.303 313.477 306.303 313.477 306.303C313.477 306.303 313.477 306.303 313.477 306.303C313.477 306.303 313.477 306.303 313.477 306.303C313.477 306.303 313.477 306.303 313.477 306.303C313.477 306.303 313.477 306.303 313.477 306.303C313.477 306.303 313.477 306.303 313.477 306.303C313.477 306.303 313.477 306.303 313.477 306.303C313.477 306.303 313.477 306.303 313.477 306.303C313.477 306.303 313.477 306.303 313.477 306.303C313.477 306.303 313.477 306.303 313.477 306.303C313.477 306.303 313.477 306.303 313.477 306.303C313.477 306.303 313.477 306.303 313.477 306.303C313.477 306.303 313.477 306.303 313.477 306.303C313.477 306.303 313.477 306.303 313.477 306.303C313.477 306.303 313.477 306.303 313.477 306.303C313.477 306.303 313.477 306.303 313.477 306.303C313.477 306.303 313.477 306.303 313.477 306.303C313.477 306.303 313.477 306.303 313.477 306.303C313.477 306.303 313.477 306.303 313.477 306.303C313.477 306.303 313.477 306.303 313.477 306.303C313.477 306.303 313.477 306.303 313.477 306.303C313.477 306.303 313.477 306.303 313.477 306.303C313.477 306.303 313.477 306.303 313.477 306.303C313.477 306.303 313.477 306.303 313.477 306.303C313.477 306.303 313.477 306.303 313.477 306.303C313.477 306.303 313.477 306.303 313.477 306.303C313.477 306.303 313.477 306.303 313.477 306.303C313.477 306.303 313.477 306.303 313.477 306.303C313.477 306.303 313.477 306.303 313.477 306.303C313.477 306.303 313.477 306.303 313.477 306.303C313.477 306.303 313.477 306.303 313.477 306.303C313.477 306.303 313.477 306.303 313.477 306.303C313.477 306.303 313.477 306.303 313.477 306.303C313.477 306.303 313.477 306.303 313.477 306.303C313.477 306.303 313.477 306.303 313.477 306.303C313.477 306.303 313.477 306.303 313.477 306.303C313.477 306.303 313.477 306.303 313.477 306.303C313.477 306.303 313.477 306.303 313.477 306.303C313.477 306.303 313.477 306.303 313.477 306.303C313.477 306.303 313.477 306.303 313.477 306.303C313.477 306.303 313.477 306.303 313.477 306.303C313.477 306.303 313.477 306.303 313.477 306.303C313.477 306.303 313.477 306.303 313.477 306.303C313.477 306.303 313.477 306.303 313.477 306.303C313.477 306.303 313.477 306.303 313.477 306.303C313.477 306.303 313.477 306.303 313.477 306.303C313.477 306.303 313.477 306.303 313.477 306.303C313.477 306.303 313.477 306.303 313.477 306.303C313.477 306.303 313.477 306.303 313.477 306.303C313.477 306.303 313.477 306.303 313.477 306.303C313.477 306.303 313.477 306.303 313.477 306.303C313.477 306.303 313.477 306.303 313.477 306.303C313.477 306.303 313.477 306.303 313.477 306.303C313.477 306.303 313.477 306.303 313.477 306.303C313.477 306.303 313.477 306.303 313.477 306.303C313.477 306.303 313.477 306.303 313.477 306.303C313.477 306.303 313.477 306.303 313.477 306.303C313.477 306.303 313.477 306.303 313.477 306.303C313.477 306.303 313.477 306.303 313.477 306.303C313.477 306.303 313.477 306.303 313.477 306.303C313.477 306.303 313.477 306.303 313.477 306.303C313.477 306.303 313.477 306.303 313.477 306.303C313.477 306.303 313.477 306.303 313.477 306.303C313.477 306.303 313.477 306.303 313.477 306.303C313.477 306.303 313.477 306.303 313.477 306.303C313.477 306.303 313.477 306.303 313.477 306.303C313.477 306.303 313.477 306.303 313.477 306.303C313.477 306.303 313.477 306.303 313.477 306.303C313.477 306.303 313.477 306.303 313.477 306.303C313.477 306.303 313.477 306.303 313.477 306.303C313.477 306.303 313.477 306.303 313.477 306.303C313.477 306.303 313.477 306.303 313.477 306.303C313.477 306.303 313.477 306.303 313.477 306.303C313.477 306.303 313.477 306.303 313.477 306.303C313.477 306.303 313.477 306.303 313.477 306.303C313.477 306.303 313.477 306.303 313.477 306.303C313.477 306.303 313.477 306.303 313.477 306.303C313.477 306.303 313.477 306.303 313.477 306.303C313.477 306.303 313.477 306.303 313.477 306.303C313.477 306.303 313.477 306.303 313.477 306.303C313.477 306.303 313.477 306.303 313.477 306.303C313.477 306.303 313.477 306.303 313.477 306.303C313.477 306.303 313.477 306.303 313.477 306.303C313.477 306.303 313.477 306.303 313.477 306.303C313.477 306.303 313.477 306.303 313.477 306.303C313.477 306.303 313.477 306.303 313.477 306.303C313.477 306.303 313.477 306.303 313.477 306.303C313.477 306.303 313.477 306.303 313.477 306.303C313.477 306.303 313.477 306.303 313.477 306.303C313.477 306.303 313.477 306.303 313.477 306.303C313.477 306.303 313.477 306.303 313.477 306.303C313.477 306.303 313.477 306.303 313.477 306.303C313.477 306.303 313.477 306.303 313.477 306.303C313.477 306.303 313.477 306.303 313.477 306.303C313.477 306.303 313.477 306.303 313.477 306.303C313.477 306.303 313.477 306.303 313.477 306.303C313.477 306.303 313.477 306.303 313.477 306.303C313.477 306.303 313.477 306.303 313.477 306.303C313.477 306.303 313.477 306.303 313.477 306.303C313.477 306.303 313.477 306.303 313.477 306.303C313.477 306.303 313.477 306.303 313.477 306.303C313.477 306.303 313.477 306.303 313.477 306.303C313.477 306.303 313.477 306.303 313.477 306.303C313.477 306.303 313.477 306.303 313.477 306.303C313.477 306.303 313.477 306.303 313.477 306.303C313.477 306.303 313.477 306.303 313.477 306.303C313.477 306.303 313.477 306.303 313.477 306.303C313.477 306.303 313.477 306.303 313.477 306.303C313.477 306.303 313.477 306.303 313.477 306.303C313.477 306.303 313.477 306.303 313.477 306.303C313.477 306.303 313.477 306.303 313.477 306.303C313.477 306.303 313.477 306.303 313.477 306.303C313.477 306.303 313.477 306.303 313.477 306.303C313.477 306.303 313.477 306.303 313.477 306.303C313.477 306.303 313.477 306.303 313.477 306.303C313.477 306.303 313.477 306.303 313.477 306.303C313.477 306.303 313.477 306.303 313.477 306.303C313.477 306.303 313.477 306.303 313.477 306.303C313.477 306.303 313.477 306.303 313.477 306.303C313.477 306.303 313.477 306.303 313.477 306.303C313.477 306.303 313.477 306.303 313.477 306.303C313.477 306.303 313.477 306.303 313.477 306.303C313.477 306.303 313.477 306.303 313.477 306.303C313.477 306.303 313.477 306.303 313.477 306.303C313.477 306.303 313.477 306.303 313.477 306.303C313.477 306.303 313.477 306.303 313.477 306.303C313.477 306.303 313.477 306.303 313.477 306.303C313.477 306.303 313.477 306.303 313.477 306.303C313.477 306.303 313.477 306.303 313.477 306.303C313.477 306.303 313.477 306.303 313.477 306.303C313.477 306.303 313.477 306.303 313.477 306.303C313.477 306.303 313.477 306.303 313.477 306.303C313.477 306.303 313.477 306.303 313.477 306.303C313.477 306.303 313.477 306.303 313.477 306.303C313.477 306.303 313.477 306.303 313.477 306.303C313.477 306.303 313.477 306.303 313.477 306.303C313.477 306.303 313.477 306.303 313.477 306.303C313.477 306.303 313.477 306.303 313.477 306.303C313.477 306.303 313.477 306.303 313.477 306.303C313.477 306.303 313.477 306.303 313.477 306.303C313.477 306.303 313.477 306.303 313.477 306.303C313.477 306.303 313.477 306.303 313.477 306.303C313.477 306.303 313.477 306.303 313.477 306.303C313.477 306.303 313.477 306.303 313.477 306.303C313.477 306.303 313.477 306.303 313.477 306.303C313.477 306.303 313.477 306.303 313.477 306.303C313.477 306.303 313.477 306.303 313.477 306.303C313.477 306.303 313.477 306.303 313.477 306.303C313.477 306.303 313.477 306.303 313.477 306.303C313.477 306.303 313.477 306.303 313.477 306.303C313.477 306.303 313.477 306.303 313.477 306.303C313.477 306.303 313.477 306.303 313.477 306.303C313.477 306.303 313.477 306.303 313.477 306.303C313.477 306.303 313.477 306.303 313.477 306.303C313.477 306.303 313.477 306.303 313.477 306.303C313.477 306.303 313.477 306.303 313.477 306.303C313.477 306.303 313.477 306.303 313.477 306.303C313.477 306.303 313.477 306.303 313.477 306.303C313.477 306.303 313.477 306.303 313.477 306.303C313.477 306.303 313.477 306.303 313.477 306.303C313.477 306.303 313.477 306.303 313.477 306.303C313.477 306.303 313.477 306.303 313.477 306.303C313.477 306.303 313.477 306.303 313.477 306.303C313.477 306.303 313.477 306.303 313.477 306.303C313.477 306.303 313.477 306.303 313.477 306.303C313.477 306.303 313.477 306.303 313.477 306.303C313.477 306.303 313.477 306.303 313.477 306.303C313.477 306.303 313.477 306.303 313.477 306.303C313.477 306.303 313.477 306.303 313.477 306.303C313.477 306.303 313.477 306.303 313.477 306.303C313.477 306.303 313.477 306.303 313.477 306.303C313.477 306.303 313.477 306.303 313.477 306.303C313.477 306.303 313.477 306.303 313.477 306.303C313.477 306.303 313.477 306.303 313.477 306.303C313.477 306.303 313.477 306.303 313.477 306.303C313.477 306.303 313.477 306.303 313.477 306.303C313.477 306.303 313.477 306.303 313.477 306.303C313.477 306.303 313.477 306.303 313.477 306.303C313.477 306.303 313.477 306.303 313.477 306.303C313.477 306.303 313.477 306.303 313.477 306.303C313.477 306.303 313.477 306.303 313.477 306.303C313.477 306.303 313.477 306.303 313.477 306.303C313.477 306.303 313.477 306.303 313.477 306.303C313.477 306.303 313.477 306.303 313.477 306.303C313.477 306.303 313.477 306.303 313.477 306.303C313.477 306.303 313.477 306.303 313.477 306.303C313.477 306.303 313.477 306.303 313.477 306.303C313.477 306.303 313.477 306.303 313.477 306.303C313.477 306.303 313.477 306.303 313.477 306.303C313.477 306.303 313.477 306.303 313.477 306.303C313.477 306.303 313.477 306.303 313.477 306.303C313.477 306.303 313.477 306.303 313.477 306.303C313.477 306.303 313.477 306.303 313.477 306.303C313.477 306.303 313.477 306.303 313.477 306.303C313.477 306.303 313.477 306.303 313.477 306.303C313.477 306.303 313.477 306.303 313.477 306.303C313.477 306.303 313.477 306.303 313.477 306.303C313.477 306.303 313.477 306.303 313.477 306.303C313.477 306.303 313.477 306.303 313.477 306.303C313.477 306.303 313.477 306.303 313.477 306.303C313.477 306.303 313.477 306.303 313.477 306.303C313.477 306.303 313.477 306.303 313.477 306.303C313.477 306.303 313.477 306.303 313.477 306.303C313.477 306.303 313.477 306.303 313.477 306.303C313.477 306.303 313.477 306.303 313.477 306.303C313.477 306.303 313.477 306.303 313.477 306.303C313.477 306.303 313.477 306.303 313.477 306.303C313.477 306.303 313.477 306.303 313.477 306.303C313.477 306.303 313.477 306.303 313.477 306.303C313.477 306.303 313.477 306.303 313.477 306.303C313.477 306.303 313.477 306.303 313.477 306.303C313.477 306.303 313.477 306.303 313.477 306.303C313.477 306.303 313.477 306.303 313.477 306.303C313.477 306.303 313.477 306.303 313.477 306.303C313.477 306.303 313.477 306.303 313.477 306.303C313.477 306.303 313.477 306.303 313.477 306.303C313.477 306.303 313.477 306.303 313.477 306.303C313.477 306.303 313.477 306.303 313.477 306.303C313.477 306.303 313.477 306.303 313.477 306.303C313.477 306.303 313.477 306.303 313.477 306.303C313.477 306.303 313.477 306.303 313.477 306.303C313.477 306.303 313.477 306.303 313.477 306.303C313.477 306.303 313.477 306.303 313.477 306.303C313.477 306.303 313.477 306.303 313.477 306.303C313.477 306.303 313.477 306.303 313.477 306.303C313.477 306.303 313.477 306.303 313.477 306.303C313.477 306.303 313.477 306.303 313.477 306.303C313.477 306.303 313.477 306.303 313.477 306.303C313.477 306.303 313.477 306.303 313.477 306.303C313.477 306.303 313.477 306.303 313.477 306.303C313.477 306.303 313.477 306.303 313.477 306.303C313.477 306.303 313.477 306.303 313.477 306.303C313.477 306.303 313.477 306.303 313.477 306.303C313.477 306.303 313.477 306.303 313.477 306.303C313.477 306.303 313.477 306.303 313.477 306.303C313.477 306.303 313.477 306.303 313.477 306.303C313.477 306.303 313.477 306.303 313.477 306.303C313.477 306.303 313.477 306.303 313.477 306.303C313.477 306.303 313.477 306.303 313.477 306.303C313.477 306.303 313.477 306.303 313.477 306.303C313.477 306.303 313.477 306.303 313.477 306.303C313.477 306.303 313.477 306.303 313.477 306.303C313.477 306.303 313.477 306.303 313.477 306.303C313.477 306.303 313.477 306.303 313.477 306.303C313.477 306.303 313.477 306.303 313.477 306.303C313.477 306.303 313.477 306.303 313.477 306.303C313.477 306.303 313.477 306.303 313.477 306.303C313.477 306.303 313.477 306.303 313.477 306.303C313.477 306.303 313.477 306.303 313.477 306.303C313.477 306.303 313.477 306.303 313.477 306.303C313.477 306.303 313.477 306.303 313.477 306.303C313.477 306.303 313.477 306.303 313.477 306.303C313.477 306.303 313.477 306.303 313.477 306.303C313.477 306.303 313.477 306.303 313.477 306.303C313.477 306.303 313.477 306.303 313.477 306.303C313.477 306.303 313.477 306.303 313.477 306.303C313.477 306.303 313.477 306.303 313.477 306.303C313.477 306.303 313.477 306.303 313.477 306.303C313.477 306.303 313.477 306.303 313.477 306.303C313.477 306.303 313.477 306.303 313.477 306.303C313.477 306.303 313.477 306.303 313.477 306.303C313.477 306.303 313.477 306.303 313.477 306.303C313.477 306.303 313.477 306.303 313.477 306.303C313.477 306.303 313.477 306.303 313.477 306.303C313.477 306.303 313.477 306.303 313.477 306.303C313.477 306.303 313.477 306.303 313.477 306.303C313.477 306.303 313.477 306.303 313.477 306.303C313.477 306.303 313.477 306.303 313.477 306.303C313.477 306.303 313.477 306.303 313.477 306.303C313.477 306.303 313.477 306.303 313.477 306.303C313.477 306.303 313.477 306.303 313.477 306.303C313.477 306.303 313.477 306.303 313.477 306.303C313.477 306.303 313.477 306.303 313.477 306.303C313.477 306.303 313.477 306.303 313.477 306.303C313.477 306.303 313.477 306.303 313.477 306.303C313.477 306.303 313.477 306.303 313.477 306.303C313.477 306.303 313.477 306.303 313.477 306.303C313.477 306.303 313.477 306.303 313.477 306.303C313.477 306.303 313.477 306.303 313.477 306.303C313.477 306.303 313.477 306.303 313.477 306.303C313.477 306.303 313.477 306.303 313.477 306.303C313.477 306.303 313.477 306.303 313.477 306.303C313.477 306.303 313.477 306.303 313.477 306.303C313.477 306.303 313.477 306.303 313.477 306.303C313.477 306.303 313.477 306.303 313.477 306.303C313.477 306.303 313.477 306.303 313.477 306.303C313.477 306.303 313.477 306.303 313.477 306.303C313.477 306.303 313.477 306.303 313.477 306.303C313.477 306.303 313.477 306.303 313.477 306.303C313.477 306.303 313.477 306.303 313.477 306.303V316.97ZM308.144 311.57V311.637H318.81V311.57H308.144Z" fill="black" mask="url(#path-4-inside-2_68_14)"/>
<mask id="path-6-inside-3_68_14" fill="white">
<path d="M180.03 414.977C180.03 378.723 209.42 349.333 245.674 349.333H248.247C250.301 349.333 252.1 350.713 252.631 352.698V352.698C269.075 414.163 269.075 478.87 252.631 540.335V540.335C252.1 542.319 250.301 543.7 248.247 543.7H245.674C209.42 543.7 180.03 514.31 180.03 478.056V414.977Z"/>
</mask>
<path d="M180.03 414.977C180.03 378.723 209.42 349.333 245.674 349.333H248.247C250.301 349.333 252.1 350.713 252.631 352.698V352.698C269.075 414.163 269.075 478.87 252.631 540.335V540.335C252.1 542.319 250.301 543.7 248.247 543.7H245.674C209.42 543.7 180.03 514.31 180.03 478.056V414.977Z" fill="#FF5903"/>
<path d="M245.674 354.666H248.247V344H245.674V354.666ZM248.247 538.366H245.674V549.033H248.247V538.366ZM185.364 478.056V414.977H174.697V478.056H185.364ZM247.478 354.076C263.681 414.638 263.681 478.395 247.478 538.956L257.783 541.713C274.468 479.345 274.468 413.687 257.783 351.32L247.478 354.076ZM245.674 538.366C212.365 538.366 185.364 511.365 185.364 478.056H174.697C174.697 517.256 206.474 549.033 245.674 549.033V538.366ZM248.247 549.033C252.716 549.033 256.628 546.03 257.783 541.713L247.478 538.956C247.571 538.608 247.887 538.366 248.247 538.366V549.033ZM248.247 354.666C247.887 354.666 247.571 354.424 247.478 354.076L257.783 351.32C256.628 347.002 252.716 344 248.247 344V354.666ZM245.674 344C206.474 344 174.697 375.777 174.697 414.977H185.364C185.364 381.668 212.365 354.666 245.674 354.666V344Z" fill="black" mask="url(#path-6-inside-3_68_14)"/>
</svg>
