<svg width="1920" height="4539" viewBox="0 0 1920 4539" fill="none" xmlns="http://www.w3.org/2000/svg">
<path fill-rule="evenodd" clip-rule="evenodd" d="M1083.18 0H2664.51V1581.33H1083.18V0ZM1088.74 5.55829V1575.78H2658.95V5.55829H1088.74Z" fill="#010AC9"/>
<path fill-rule="evenodd" clip-rule="evenodd" d="M2661.73 1438.08H1085.96V1432.52H2661.73V1438.08Z" fill="#010AC9"/>
<path fill-rule="evenodd" clip-rule="evenodd" d="M2661.73 1294.83H1085.96V1289.27H2661.73V1294.83Z" fill="#010AC9"/>
<path fill-rule="evenodd" clip-rule="evenodd" d="M2661.73 1151.58H1085.96V1146.02H2661.73V1151.58Z" fill="#010AC9"/>
<path fill-rule="evenodd" clip-rule="evenodd" d="M2661.73 1008.32H1085.96V1002.76H2661.73V1008.32Z" fill="#010AC9"/>
<path fill-rule="evenodd" clip-rule="evenodd" d="M2661.73 865.074H1085.96V859.515H2661.73V865.074Z" fill="#010AC9"/>
<path fill-rule="evenodd" clip-rule="evenodd" d="M2661.73 721.818H1085.96V716.26H2661.73V721.818Z" fill="#010AC9"/>
<path fill-rule="evenodd" clip-rule="evenodd" d="M2661.73 578.572H1085.96V573.014H2661.73V578.572Z" fill="#010AC9"/>
<path fill-rule="evenodd" clip-rule="evenodd" d="M2661.73 435.316H1085.96V429.758H2661.73V435.316Z" fill="#010AC9"/>
<path fill-rule="evenodd" clip-rule="evenodd" d="M2661.73 292.06H1085.96V286.502H2661.73V292.06Z" fill="#010AC9"/>
<path fill-rule="evenodd" clip-rule="evenodd" d="M2661.73 148.814H1085.96V143.256H2661.73V148.814Z" fill="#010AC9"/>
<path fill-rule="evenodd" clip-rule="evenodd" d="M2515.7 1578.55V2.77914H2521.26V1578.55H2515.7Z" fill="#010AC9"/>
<path fill-rule="evenodd" clip-rule="evenodd" d="M2372.45 1578.55V2.77914H2378.01V1578.55H2372.45Z" fill="#010AC9"/>
<path fill-rule="evenodd" clip-rule="evenodd" d="M2229.2 1578.55V2.77914H2234.76V1578.55H2229.2Z" fill="#010AC9"/>
<path fill-rule="evenodd" clip-rule="evenodd" d="M2085.94 1578.55V2.77914H2091.5V1578.55H2085.94Z" fill="#010AC9"/>
<path fill-rule="evenodd" clip-rule="evenodd" d="M1942.69 1578.55V2.77914H1948.25V1578.55H1942.69Z" fill="#010AC9"/>
<path fill-rule="evenodd" clip-rule="evenodd" d="M1799.44 1578.55V2.77914H1805V1578.55H1799.44Z" fill="#010AC9"/>
<path fill-rule="evenodd" clip-rule="evenodd" d="M1656.19 1578.55V2.77914H1661.75V1578.55H1656.19Z" fill="#010AC9"/>
<path fill-rule="evenodd" clip-rule="evenodd" d="M1512.94 1578.55V2.77914H1518.5V1578.55H1512.94Z" fill="#010AC9"/>
<path fill-rule="evenodd" clip-rule="evenodd" d="M1369.68 1578.55V2.77914H1375.24V1578.55H1369.68Z" fill="#010AC9"/>
<path fill-rule="evenodd" clip-rule="evenodd" d="M1226.44 1578.55V2.77914H1231.99V1578.55H1226.44Z" fill="#010AC9"/>
<path fill-rule="evenodd" clip-rule="evenodd" d="M1083.18 1576H2664.51V3157.33H1083.18V1576ZM1088.74 1581.56V3151.77H2658.95V1581.56H1088.74Z" fill="#010AC9"/>
<path fill-rule="evenodd" clip-rule="evenodd" d="M2661.73 3014.08H1085.96V3008.52H2661.73V3014.08Z" fill="#010AC9"/>
<path fill-rule="evenodd" clip-rule="evenodd" d="M2661.73 2870.83H1085.96V2865.27H2661.73V2870.83Z" fill="#010AC9"/>
<path fill-rule="evenodd" clip-rule="evenodd" d="M2661.73 2727.58H1085.96V2722.02H2661.73V2727.58Z" fill="#010AC9"/>
<path fill-rule="evenodd" clip-rule="evenodd" d="M2661.73 2584.32H1085.96V2578.76H2661.73V2584.32Z" fill="#010AC9"/>
<path fill-rule="evenodd" clip-rule="evenodd" d="M2661.73 2441.07H1085.96V2435.52H2661.73V2441.07Z" fill="#010AC9"/>
<path fill-rule="evenodd" clip-rule="evenodd" d="M2661.73 2297.82H1085.96V2292.26H2661.73V2297.82Z" fill="#010AC9"/>
<path fill-rule="evenodd" clip-rule="evenodd" d="M2661.73 2154.57H1085.96V2149.01H2661.73V2154.57Z" fill="#010AC9"/>
<path fill-rule="evenodd" clip-rule="evenodd" d="M2661.73 2011.32H1085.96V2005.76H2661.73V2011.32Z" fill="#010AC9"/>
<path fill-rule="evenodd" clip-rule="evenodd" d="M2661.73 1868.06H1085.96V1862.5H2661.73V1868.06Z" fill="#010AC9"/>
<path fill-rule="evenodd" clip-rule="evenodd" d="M2661.73 1724.81H1085.96V1719.26H2661.73V1724.81Z" fill="#010AC9"/>
<path fill-rule="evenodd" clip-rule="evenodd" d="M2515.7 3154.55V1578.78H2521.26V3154.55H2515.7Z" fill="#010AC9"/>
<path fill-rule="evenodd" clip-rule="evenodd" d="M2372.45 3154.55V1578.78H2378.01V3154.55H2372.45Z" fill="#010AC9"/>
<path fill-rule="evenodd" clip-rule="evenodd" d="M2229.2 3154.55V1578.78H2234.76V3154.55H2229.2Z" fill="#010AC9"/>
<path fill-rule="evenodd" clip-rule="evenodd" d="M2085.94 3154.55V1578.78H2091.5V3154.55H2085.94Z" fill="#010AC9"/>
<path fill-rule="evenodd" clip-rule="evenodd" d="M1942.69 3154.55V1578.78H1948.25V3154.55H1942.69Z" fill="#010AC9"/>
<path fill-rule="evenodd" clip-rule="evenodd" d="M1799.44 3154.55V1578.78H1805V3154.55H1799.44Z" fill="#010AC9"/>
<path fill-rule="evenodd" clip-rule="evenodd" d="M1656.19 3154.55V1578.78H1661.75V3154.55H1656.19Z" fill="#010AC9"/>
<path fill-rule="evenodd" clip-rule="evenodd" d="M1512.94 3154.55V1578.78H1518.5V3154.55H1512.94Z" fill="#010AC9"/>
<path fill-rule="evenodd" clip-rule="evenodd" d="M1369.68 3154.55V1578.78H1375.24V3154.55H1369.68Z" fill="#010AC9"/>
<path fill-rule="evenodd" clip-rule="evenodd" d="M1226.44 3154.55V1578.78H1231.99V3154.55H1226.44Z" fill="#010AC9"/>
<path fill-rule="evenodd" clip-rule="evenodd" d="M1083.18 3152H2664.51V4733.33H1083.18V3152ZM1088.74 3157.56V4727.77H2658.95V3157.56H1088.74Z" fill="#010AC9"/>
<path fill-rule="evenodd" clip-rule="evenodd" d="M2661.73 4590.08H1085.96V4584.52H2661.73V4590.08Z" fill="#010AC9"/>
<path fill-rule="evenodd" clip-rule="evenodd" d="M2661.73 4446.83H1085.96V4441.27H2661.73V4446.83Z" fill="#010AC9"/>
<path fill-rule="evenodd" clip-rule="evenodd" d="M2661.73 4303.58H1085.96V4298.02H2661.73V4303.58Z" fill="#010AC9"/>
<path fill-rule="evenodd" clip-rule="evenodd" d="M2661.73 4160.32H1085.96V4154.76H2661.73V4160.32Z" fill="#010AC9"/>
<path fill-rule="evenodd" clip-rule="evenodd" d="M2661.73 4017.07H1085.96V4011.52H2661.73V4017.07Z" fill="#010AC9"/>
<path fill-rule="evenodd" clip-rule="evenodd" d="M2661.73 3873.82H1085.96V3868.26H2661.73V3873.82Z" fill="#010AC9"/>
<path fill-rule="evenodd" clip-rule="evenodd" d="M2661.73 3730.57H1085.96V3725.01H2661.73V3730.57Z" fill="#010AC9"/>
<path fill-rule="evenodd" clip-rule="evenodd" d="M2661.73 3587.32H1085.96V3581.76H2661.73V3587.32Z" fill="#010AC9"/>
<path fill-rule="evenodd" clip-rule="evenodd" d="M2661.73 3444.06H1085.96V3438.5H2661.73V3444.06Z" fill="#010AC9"/>
<path fill-rule="evenodd" clip-rule="evenodd" d="M2661.73 3300.81H1085.96V3295.26H2661.73V3300.81Z" fill="#010AC9"/>
<path fill-rule="evenodd" clip-rule="evenodd" d="M2515.7 4730.55V3154.78H2521.26V4730.55H2515.7Z" fill="#010AC9"/>
<path fill-rule="evenodd" clip-rule="evenodd" d="M2372.45 4730.55V3154.78H2378.01V4730.55H2372.45Z" fill="#010AC9"/>
<path fill-rule="evenodd" clip-rule="evenodd" d="M2229.2 4730.55V3154.78H2234.76V4730.55H2229.2Z" fill="#010AC9"/>
<path fill-rule="evenodd" clip-rule="evenodd" d="M2085.94 4730.55V3154.78H2091.5V4730.55H2085.94Z" fill="#010AC9"/>
<path fill-rule="evenodd" clip-rule="evenodd" d="M1942.69 4730.55V3154.78H1948.25V4730.55H1942.69Z" fill="#010AC9"/>
<path fill-rule="evenodd" clip-rule="evenodd" d="M1799.44 4730.55V3154.78H1805V4730.55H1799.44Z" fill="#010AC9"/>
<path fill-rule="evenodd" clip-rule="evenodd" d="M1656.19 4730.55V3154.78H1661.75V4730.55H1656.19Z" fill="#010AC9"/>
<path fill-rule="evenodd" clip-rule="evenodd" d="M1512.94 4730.55V3154.78H1518.5V4730.55H1512.94Z" fill="#010AC9"/>
<path fill-rule="evenodd" clip-rule="evenodd" d="M1369.68 4730.55V3154.78H1375.24V4730.55H1369.68Z" fill="#010AC9"/>
<path fill-rule="evenodd" clip-rule="evenodd" d="M1226.44 4730.55V3154.78H1231.99V4730.55H1226.44Z" fill="#010AC9"/>
<path fill-rule="evenodd" clip-rule="evenodd" d="M1083.18 4728H2664.51V6309.33H1083.18V4728ZM1088.74 4733.56V6303.77H2658.95V4733.56H1088.74Z" fill="#010AC9"/>
<path fill-rule="evenodd" clip-rule="evenodd" d="M2661.73 6166.08H1085.96V6160.52H2661.73V6166.08Z" fill="#010AC9"/>
<path fill-rule="evenodd" clip-rule="evenodd" d="M2661.73 6022.83H1085.96V6017.27H2661.73V6022.83Z" fill="#010AC9"/>
<path fill-rule="evenodd" clip-rule="evenodd" d="M2661.73 5879.58H1085.96V5874.02H2661.73V5879.58Z" fill="#010AC9"/>
<path fill-rule="evenodd" clip-rule="evenodd" d="M2661.73 5736.32H1085.96V5730.76H2661.73V5736.32Z" fill="#010AC9"/>
<path fill-rule="evenodd" clip-rule="evenodd" d="M2661.73 5593.07H1085.96V5587.52H2661.73V5593.07Z" fill="#010AC9"/>
<path fill-rule="evenodd" clip-rule="evenodd" d="M2661.73 5449.82H1085.96V5444.26H2661.73V5449.82Z" fill="#010AC9"/>
<path fill-rule="evenodd" clip-rule="evenodd" d="M2661.73 5306.57H1085.96V5301.01H2661.73V5306.57Z" fill="#010AC9"/>
<path fill-rule="evenodd" clip-rule="evenodd" d="M2661.73 5163.32H1085.96V5157.76H2661.73V5163.32Z" fill="#010AC9"/>
<path fill-rule="evenodd" clip-rule="evenodd" d="M2661.73 5020.06H1085.96V5014.5H2661.73V5020.06Z" fill="#010AC9"/>
<path fill-rule="evenodd" clip-rule="evenodd" d="M2661.73 4876.81H1085.96V4871.26H2661.73V4876.81Z" fill="#010AC9"/>
<path fill-rule="evenodd" clip-rule="evenodd" d="M2515.7 6306.55V4730.78H2521.26V6306.55H2515.7Z" fill="#010AC9"/>
<path fill-rule="evenodd" clip-rule="evenodd" d="M2372.45 6306.55V4730.78H2378.01V6306.55H2372.45Z" fill="#010AC9"/>
<path fill-rule="evenodd" clip-rule="evenodd" d="M2229.2 6306.55V4730.78H2234.76V6306.55H2229.2Z" fill="#010AC9"/>
<path fill-rule="evenodd" clip-rule="evenodd" d="M2085.94 6306.55V4730.78H2091.5V6306.55H2085.94Z" fill="#010AC9"/>
<path fill-rule="evenodd" clip-rule="evenodd" d="M1942.69 6306.55V4730.78H1948.25V6306.55H1942.69Z" fill="#010AC9"/>
<path fill-rule="evenodd" clip-rule="evenodd" d="M1799.44 6306.55V4730.78H1805V6306.55H1799.44Z" fill="#010AC9"/>
<path fill-rule="evenodd" clip-rule="evenodd" d="M1656.19 6306.55V4730.78H1661.75V6306.55H1656.19Z" fill="#010AC9"/>
<path fill-rule="evenodd" clip-rule="evenodd" d="M1512.94 6306.55V4730.78H1518.5V6306.55H1512.94Z" fill="#010AC9"/>
<path fill-rule="evenodd" clip-rule="evenodd" d="M1369.68 6306.55V4730.78H1375.24V6306.55H1369.68Z" fill="#010AC9"/>
<path fill-rule="evenodd" clip-rule="evenodd" d="M1226.44 6306.55V4730.78H1231.99V6306.55H1226.44Z" fill="#010AC9"/>
<path fill-rule="evenodd" clip-rule="evenodd" d="M836 0H-745.333V1581.33H836V0ZM830.442 5.55829V1575.78H-739.775V5.55829H830.442Z" fill="#010AC9"/>
<path fill-rule="evenodd" clip-rule="evenodd" d="M-742.554 1438.08H833.221V1432.52H-742.554V1438.08Z" fill="#010AC9"/>
<path fill-rule="evenodd" clip-rule="evenodd" d="M-742.554 1294.83H833.221V1289.27H-742.554V1294.83Z" fill="#010AC9"/>
<path fill-rule="evenodd" clip-rule="evenodd" d="M-742.554 1151.58H833.221V1146.02H-742.554V1151.58Z" fill="#010AC9"/>
<path fill-rule="evenodd" clip-rule="evenodd" d="M-742.554 1008.32H833.221V1002.76H-742.554V1008.32Z" fill="#010AC9"/>
<path fill-rule="evenodd" clip-rule="evenodd" d="M-742.554 865.074H833.221V859.515H-742.554V865.074Z" fill="#010AC9"/>
<path fill-rule="evenodd" clip-rule="evenodd" d="M-742.554 721.818H833.221V716.26H-742.554V721.818Z" fill="#010AC9"/>
<path fill-rule="evenodd" clip-rule="evenodd" d="M-742.554 578.572H833.221V573.014H-742.554V578.572Z" fill="#010AC9"/>
<path fill-rule="evenodd" clip-rule="evenodd" d="M-742.554 435.316H833.221V429.758H-742.554V435.316Z" fill="#010AC9"/>
<path fill-rule="evenodd" clip-rule="evenodd" d="M-742.554 292.06H833.221V286.502H-742.554V292.06Z" fill="#010AC9"/>
<path fill-rule="evenodd" clip-rule="evenodd" d="M-742.554 148.814H833.221V143.256H-742.554V148.814Z" fill="#010AC9"/>
<path fill-rule="evenodd" clip-rule="evenodd" d="M-596.519 1578.55V2.77914H-602.078V1578.55H-596.519Z" fill="#010AC9"/>
<path fill-rule="evenodd" clip-rule="evenodd" d="M-453.273 1578.55V2.77914H-458.831V1578.55H-453.273Z" fill="#010AC9"/>
<path fill-rule="evenodd" clip-rule="evenodd" d="M-310.017 1578.55V2.77914H-315.575V1578.55H-310.017Z" fill="#010AC9"/>
<path fill-rule="evenodd" clip-rule="evenodd" d="M-166.761 1578.55V2.77914H-172.319V1578.55H-166.761Z" fill="#010AC9"/>
<path fill-rule="evenodd" clip-rule="evenodd" d="M-23.5151 1578.55V2.77914H-29.0734V1578.55H-23.5151Z" fill="#010AC9"/>
<path fill-rule="evenodd" clip-rule="evenodd" d="M119.741 1578.55V2.77914H114.182V1578.55H119.741Z" fill="#010AC9"/>
<path fill-rule="evenodd" clip-rule="evenodd" d="M262.986 1578.55V2.77914H257.428V1578.55H262.986Z" fill="#010AC9"/>
<path fill-rule="evenodd" clip-rule="evenodd" d="M406.242 1578.55V2.77914H400.684V1578.55H406.242Z" fill="#010AC9"/>
<path fill-rule="evenodd" clip-rule="evenodd" d="M549.498 1578.55V2.77914H543.94V1578.55H549.498Z" fill="#010AC9"/>
<path fill-rule="evenodd" clip-rule="evenodd" d="M692.744 1578.55V2.77914H687.186V1578.55H692.744Z" fill="#010AC9"/>
<path fill-rule="evenodd" clip-rule="evenodd" d="M836 1576H-745.333V3157.33H836V1576ZM830.442 1581.56V3151.77H-739.775V1581.56H830.442Z" fill="#010AC9"/>
<path fill-rule="evenodd" clip-rule="evenodd" d="M-742.554 3014.08H833.221V3008.52H-742.554V3014.08Z" fill="#010AC9"/>
<path fill-rule="evenodd" clip-rule="evenodd" d="M-742.554 2870.83H833.221V2865.27H-742.554V2870.83Z" fill="#010AC9"/>
<path fill-rule="evenodd" clip-rule="evenodd" d="M-742.554 2727.58H833.221V2722.02H-742.554V2727.58Z" fill="#010AC9"/>
<path fill-rule="evenodd" clip-rule="evenodd" d="M-742.554 2584.32H833.221V2578.76H-742.554V2584.32Z" fill="#010AC9"/>
<path fill-rule="evenodd" clip-rule="evenodd" d="M-742.554 2441.07H833.221V2435.52H-742.554V2441.07Z" fill="#010AC9"/>
<path fill-rule="evenodd" clip-rule="evenodd" d="M-742.554 2297.82H833.221V2292.26H-742.554V2297.82Z" fill="#010AC9"/>
<path fill-rule="evenodd" clip-rule="evenodd" d="M-742.554 2154.57H833.221V2149.01H-742.554V2154.57Z" fill="#010AC9"/>
<path fill-rule="evenodd" clip-rule="evenodd" d="M-742.554 2011.32H833.221V2005.76H-742.554V2011.32Z" fill="#010AC9"/>
<path fill-rule="evenodd" clip-rule="evenodd" d="M-742.554 1868.06H833.221V1862.5H-742.554V1868.06Z" fill="#010AC9"/>
<path fill-rule="evenodd" clip-rule="evenodd" d="M-742.554 1724.81H833.221V1719.26H-742.554V1724.81Z" fill="#010AC9"/>
<path fill-rule="evenodd" clip-rule="evenodd" d="M-596.519 3154.55V1578.78H-602.078V3154.55H-596.519Z" fill="#010AC9"/>
<path fill-rule="evenodd" clip-rule="evenodd" d="M-453.273 3154.55V1578.78H-458.831V3154.55H-453.273Z" fill="#010AC9"/>
<path fill-rule="evenodd" clip-rule="evenodd" d="M-310.017 3154.55V1578.78H-315.575V3154.55H-310.017Z" fill="#010AC9"/>
<path fill-rule="evenodd" clip-rule="evenodd" d="M-166.761 3154.55V1578.78H-172.319V3154.55H-166.761Z" fill="#010AC9"/>
<path fill-rule="evenodd" clip-rule="evenodd" d="M-23.5151 3154.55V1578.78H-29.0734V3154.55H-23.5151Z" fill="#010AC9"/>
<path fill-rule="evenodd" clip-rule="evenodd" d="M119.741 3154.55V1578.78H114.182V3154.55H119.741Z" fill="#010AC9"/>
<path fill-rule="evenodd" clip-rule="evenodd" d="M262.986 3154.55V1578.78H257.428V3154.55H262.986Z" fill="#010AC9"/>
<path fill-rule="evenodd" clip-rule="evenodd" d="M406.242 3154.55V1578.78H400.684V3154.55H406.242Z" fill="#010AC9"/>
<path fill-rule="evenodd" clip-rule="evenodd" d="M549.498 3154.55V1578.78H543.94V3154.55H549.498Z" fill="#010AC9"/>
<path fill-rule="evenodd" clip-rule="evenodd" d="M692.744 3154.55V1578.78H687.186V3154.55H692.744Z" fill="#010AC9"/>
<path fill-rule="evenodd" clip-rule="evenodd" d="M836 3152H-745.333V4733.33H836V3152ZM830.442 3157.56V4727.77H-739.775V3157.56H830.442Z" fill="#010AC9"/>
<path fill-rule="evenodd" clip-rule="evenodd" d="M-742.554 4590.08H833.221V4584.52H-742.554V4590.08Z" fill="#010AC9"/>
<path fill-rule="evenodd" clip-rule="evenodd" d="M-742.554 4446.83H833.221V4441.27H-742.554V4446.83Z" fill="#010AC9"/>
<path fill-rule="evenodd" clip-rule="evenodd" d="M-742.554 4303.58H833.221V4298.02H-742.554V4303.58Z" fill="#010AC9"/>
<path fill-rule="evenodd" clip-rule="evenodd" d="M-742.554 4160.32H833.221V4154.76H-742.554V4160.32Z" fill="#010AC9"/>
<path fill-rule="evenodd" clip-rule="evenodd" d="M-742.554 4017.07H833.221V4011.52H-742.554V4017.07Z" fill="#010AC9"/>
<path fill-rule="evenodd" clip-rule="evenodd" d="M-742.554 3873.82H833.221V3868.26H-742.554V3873.82Z" fill="#010AC9"/>
<path fill-rule="evenodd" clip-rule="evenodd" d="M-742.554 3730.57H833.221V3725.01H-742.554V3730.57Z" fill="#010AC9"/>
<path fill-rule="evenodd" clip-rule="evenodd" d="M-742.554 3587.32H833.221V3581.76H-742.554V3587.32Z" fill="#010AC9"/>
<path fill-rule="evenodd" clip-rule="evenodd" d="M-742.554 3444.06H833.221V3438.5H-742.554V3444.06Z" fill="#010AC9"/>
<path fill-rule="evenodd" clip-rule="evenodd" d="M-742.554 3300.81H833.221V3295.26H-742.554V3300.81Z" fill="#010AC9"/>
<path fill-rule="evenodd" clip-rule="evenodd" d="M-596.519 4730.55V3154.78H-602.078V4730.55H-596.519Z" fill="#010AC9"/>
<path fill-rule="evenodd" clip-rule="evenodd" d="M-453.273 4730.55V3154.78H-458.831V4730.55H-453.273Z" fill="#010AC9"/>
<path fill-rule="evenodd" clip-rule="evenodd" d="M-310.017 4730.55V3154.78H-315.575V4730.55H-310.017Z" fill="#010AC9"/>
<path fill-rule="evenodd" clip-rule="evenodd" d="M-166.761 4730.55V3154.78H-172.319V4730.55H-166.761Z" fill="#010AC9"/>
<path fill-rule="evenodd" clip-rule="evenodd" d="M-23.5151 4730.55V3154.78H-29.0734V4730.55H-23.5151Z" fill="#010AC9"/>
<path fill-rule="evenodd" clip-rule="evenodd" d="M119.741 4730.55V3154.78H114.182V4730.55H119.741Z" fill="#010AC9"/>
<path fill-rule="evenodd" clip-rule="evenodd" d="M262.986 4730.55V3154.78H257.428V4730.55H262.986Z" fill="#010AC9"/>
<path fill-rule="evenodd" clip-rule="evenodd" d="M406.242 4730.55V3154.78H400.684V4730.55H406.242Z" fill="#010AC9"/>
<path fill-rule="evenodd" clip-rule="evenodd" d="M549.498 4730.55V3154.78H543.94V4730.55H549.498Z" fill="#010AC9"/>
<path fill-rule="evenodd" clip-rule="evenodd" d="M692.744 4730.55V3154.78H687.186V4730.55H692.744Z" fill="#010AC9"/>
<path fill-rule="evenodd" clip-rule="evenodd" d="M836 4728H-745.333V6309.33H836V4728ZM830.442 4733.56V6303.77H-739.775V4733.56H830.442Z" fill="#010AC9"/>
<path fill-rule="evenodd" clip-rule="evenodd" d="M-742.554 6166.08H833.221V6160.52H-742.554V6166.08Z" fill="#010AC9"/>
<path fill-rule="evenodd" clip-rule="evenodd" d="M-742.554 6022.83H833.221V6017.27H-742.554V6022.83Z" fill="#010AC9"/>
<path fill-rule="evenodd" clip-rule="evenodd" d="M-742.554 5879.58H833.221V5874.02H-742.554V5879.58Z" fill="#010AC9"/>
<path fill-rule="evenodd" clip-rule="evenodd" d="M-742.554 5736.32H833.221V5730.76H-742.554V5736.32Z" fill="#010AC9"/>
<path fill-rule="evenodd" clip-rule="evenodd" d="M-742.554 5593.07H833.221V5587.52H-742.554V5593.07Z" fill="#010AC9"/>
<path fill-rule="evenodd" clip-rule="evenodd" d="M-742.554 5449.82H833.221V5444.26H-742.554V5449.82Z" fill="#010AC9"/>
<path fill-rule="evenodd" clip-rule="evenodd" d="M-742.554 5306.57H833.221V5301.01H-742.554V5306.57Z" fill="#010AC9"/>
<path fill-rule="evenodd" clip-rule="evenodd" d="M-742.554 5163.32H833.221V5157.76H-742.554V5163.32Z" fill="#010AC9"/>
<path fill-rule="evenodd" clip-rule="evenodd" d="M-742.554 5020.06H833.221V5014.5H-742.554V5020.06Z" fill="#010AC9"/>
<path fill-rule="evenodd" clip-rule="evenodd" d="M-742.554 4876.81H833.221V4871.26H-742.554V4876.81Z" fill="#010AC9"/>
<path fill-rule="evenodd" clip-rule="evenodd" d="M-596.519 6306.55V4730.78H-602.078V6306.55H-596.519Z" fill="#010AC9"/>
<path fill-rule="evenodd" clip-rule="evenodd" d="M-453.273 6306.55V4730.78H-458.831V6306.55H-453.273Z" fill="#010AC9"/>
<path fill-rule="evenodd" clip-rule="evenodd" d="M-310.017 6306.55V4730.78H-315.575V6306.55H-310.017Z" fill="#010AC9"/>
<path fill-rule="evenodd" clip-rule="evenodd" d="M-166.761 6306.55V4730.78H-172.319V6306.55H-166.761Z" fill="#010AC9"/>
<path fill-rule="evenodd" clip-rule="evenodd" d="M-23.5151 6306.55V4730.78H-29.0734V6306.55H-23.5151Z" fill="#010AC9"/>
<path fill-rule="evenodd" clip-rule="evenodd" d="M119.741 6306.55V4730.78H114.182V6306.55H119.741Z" fill="#010AC9"/>
<path fill-rule="evenodd" clip-rule="evenodd" d="M262.986 6306.55V4730.78H257.428V6306.55H262.986Z" fill="#010AC9"/>
<path fill-rule="evenodd" clip-rule="evenodd" d="M406.242 6306.55V4730.78H400.684V6306.55H406.242Z" fill="#010AC9"/>
<path fill-rule="evenodd" clip-rule="evenodd" d="M549.498 6306.55V4730.78H543.94V6306.55H549.498Z" fill="#010AC9"/>
<path fill-rule="evenodd" clip-rule="evenodd" d="M692.744 6306.55V4730.78H687.186V6306.55H692.744Z" fill="#010AC9"/>
</svg>
