<svg width="1064" height="1640" viewBox="0 0 1064 1640" fill="none" xmlns="http://www.w3.org/2000/svg">
<path d="M698.053 1365.64C696.875 1365.19 695.636 1364.95 694.392 1364.92C694.534 1363.7 694.471 1362.45 694.198 1361.23C693.685 1358.94 692.455 1356.87 690.687 1355.33C688.918 1353.8 686.705 1352.87 684.372 1352.7C683.157 1352.61 681.945 1352.72 680.783 1353.03C680.52 1351.38 679.885 1349.81 678.917 1348.43C677.612 1346.57 675.765 1345.17 673.629 1344.41C671.493 1343.66 669.177 1343.59 667.002 1344.22C665.991 1344.51 665.034 1344.95 664.159 1345.52C663.627 1344.31 662.88 1343.2 661.946 1342.25C660.161 1340.44 657.801 1339.3 655.273 1339.05C652.744 1338.8 650.209 1339.45 648.105 1340.88C647.174 1341.51 646.354 1342.28 645.667 1343.15C644.979 1342.28 644.159 1341.51 643.228 1340.88C641.124 1339.45 638.589 1338.8 636.061 1339.05C633.532 1339.3 631.173 1340.44 629.388 1342.25C628.453 1343.2 627.706 1344.31 627.174 1345.52C626.299 1344.95 625.342 1344.51 624.33 1344.22C622.155 1343.59 619.838 1343.66 617.702 1344.41C615.566 1345.17 613.719 1346.57 612.414 1348.43C611.445 1349.81 610.81 1351.39 610.549 1353.04C609.388 1352.74 608.177 1352.62 606.964 1352.71C604.635 1352.89 602.425 1353.81 600.658 1355.35C598.892 1356.88 597.663 1358.95 597.148 1361.23C596.873 1362.45 596.808 1363.7 596.949 1364.93C595.703 1364.95 594.463 1365.2 593.284 1365.65C591.081 1366.51 589.214 1368.05 587.963 1370.06C586.711 1372.07 586.14 1374.44 586.333 1376.8C586.433 1378.02 586.735 1379.21 587.22 1380.32C585.912 1380.71 584.682 1381.36 583.596 1382.22C581.674 1383.75 580.322 1385.89 579.753 1388.28C579.185 1390.68 579.432 1393.2 580.455 1395.44C580.93 1396.47 581.558 1397.42 582.314 1398.25C581.266 1398.88 580.324 1399.69 579.531 1400.65C577.894 1402.62 577 1405.11 577 1407.68C577 1410.25 577.894 1412.74 579.531 1414.72C580.324 1415.68 581.266 1416.48 582.314 1417.11C581.558 1417.94 580.93 1418.89 580.455 1419.93C579.432 1422.17 579.185 1424.69 579.753 1427.08C580.322 1429.48 581.674 1431.61 583.596 1433.14C584.687 1434.01 585.925 1434.66 587.24 1435.05C586.764 1436.16 586.47 1437.34 586.376 1438.56C586.194 1440.91 586.769 1443.26 588.017 1445.26C589.265 1447.25 591.121 1448.8 593.311 1449.65C594.482 1450.1 595.714 1450.35 596.952 1450.38C596.811 1451.61 596.876 1452.86 597.152 1454.08C597.669 1456.37 598.899 1458.43 600.665 1459.96C602.431 1461.5 604.641 1462.42 606.969 1462.59C608.181 1462.68 609.39 1462.57 610.549 1462.26C610.811 1463.91 611.445 1465.49 612.414 1466.87C613.719 1468.73 615.566 1470.14 617.702 1470.89C619.838 1471.65 622.155 1471.71 624.33 1471.08C625.339 1470.79 626.294 1470.35 627.168 1469.79C627.698 1471 628.442 1472.1 629.374 1473.06C631.156 1474.88 633.515 1476.01 636.045 1476.27C638.575 1476.53 641.112 1475.88 643.219 1474.45C644.153 1473.82 644.975 1473.05 645.665 1472.18C646.352 1473.05 647.173 1473.82 648.104 1474.45C650.207 1475.88 652.741 1476.53 655.27 1476.28C657.799 1476.03 660.158 1474.9 661.943 1473.08C662.878 1472.13 663.626 1471.02 664.158 1469.82C665.034 1470.38 665.991 1470.82 667.003 1471.12C669.179 1471.75 671.495 1471.68 673.632 1470.93C675.768 1470.17 677.615 1468.76 678.919 1466.91C679.888 1465.53 680.523 1463.95 680.784 1462.29C681.946 1462.6 683.157 1462.72 684.371 1462.63C686.702 1462.45 688.913 1461.52 690.679 1459.99C692.446 1458.45 693.675 1456.39 694.19 1454.1C694.464 1452.88 694.528 1451.63 694.386 1450.4C695.629 1450.37 696.865 1450.13 698.04 1449.67C700.239 1448.82 702.101 1447.27 703.351 1445.27C704.601 1443.26 705.173 1440.9 704.984 1438.55C704.887 1437.33 704.587 1436.14 704.106 1435.03C705.416 1434.63 706.65 1433.99 707.737 1433.13C709.659 1431.6 711.011 1429.46 711.58 1427.06C712.149 1424.67 711.902 1422.15 710.878 1419.91C710.403 1418.87 709.773 1417.92 709.017 1417.09C710.065 1416.46 711.009 1415.65 711.802 1414.69C713.439 1412.72 714.333 1410.23 714.333 1407.66C714.333 1405.09 713.439 1402.6 711.802 1400.62C711.006 1399.66 710.058 1398.85 709.004 1398.22C709.753 1397.39 710.376 1396.44 710.846 1395.41C711.858 1393.17 712.1 1390.67 711.533 1388.28C710.966 1385.89 709.622 1383.77 707.711 1382.24C706.634 1381.38 705.412 1380.73 704.113 1380.33C704.602 1379.22 704.907 1378.03 705.009 1376.8C705.204 1374.44 704.634 1372.07 703.381 1370.06C702.128 1368.05 700.259 1366.5 698.053 1365.64Z" fill="#FF1A87" stroke="black" stroke-width="4"/>
<path d="M847.333 314.667C847.333 276.743 816.59 246 778.667 246C740.743 246 710 276.743 710 314.667C710 352.59 740.743 383.333 778.667 383.333C816.59 383.333 847.333 352.59 847.333 314.667Z" fill="#FF5903" stroke="black" stroke-width="4"/>
<path d="M576.088 1130.14L565.949 1128.81L564.4 1118.7L564.097 1116.72L562.117 1117.03L551.719 1118.64L547.237 1109.1L546.385 1107.29L544.573 1108.15L535.403 1112.48L528.709 1104.87L527.387 1103.36L525.885 1104.69L518.428 1111.26L510.099 1105.86L508.42 1104.77L507.332 1106.45L501.945 1114.76L492.519 1111.82L490.61 1111.23L490.014 1113.14L487.021 1122.74L476.984 1122.48L474.982 1122.43L474.932 1124.43L474.672 1134.88L464.63 1137.55L462.696 1138.07L463.213 1140L465.652 1149.14L456.547 1151.55L454.611 1152.07L455.128 1154L457.568 1163.14L448.45 1165.57L446.515 1166.09L447.034 1168.03L449.483 1177.14L440.373 1179.57L438.439 1180.08L438.956 1182.01L441.396 1191.15L432.287 1193.57L430.352 1194.09L430.869 1196.02L433.308 1205.16L424.202 1207.58L422.264 1208.09L422.785 1210.03L425.233 1219.14L416.112 1221.58L414.181 1222.1L414.697 1224.03L417.136 1233.17L408.03 1235.59L406.092 1236.1L406.612 1238.04L409.061 1247.15L399.94 1249.6L398.009 1250.11L398.524 1252.04L401.065 1261.56L391.67 1266.39L389.894 1267.31L390.806 1269.08L395.418 1278.08L388.06 1285.02L386.606 1286.39L387.976 1287.84L394.776 1295.06L389.649 1303.57L388.617 1305.28L390.331 1306.32L398.821 1311.43L396.169 1320.98L395.633 1322.91L397.564 1323.44L407.254 1326.11L407.334 1336.17L407.35 1338.17L409.353 1338.15L419.815 1338.05L422.885 1348.05L423.472 1349.96L425.383 1349.38L435.267 1346.35L440.951 1354.99L442.052 1356.67L443.724 1355.56L452.079 1350.05L459.622 1356.58L461.138 1357.89L462.446 1356.37L468.907 1348.87L477.845 1353.08L479.653 1353.93L480.505 1352.12L484.75 1343.12L494.573 1344.71L496.536 1345.02L496.865 1343.06L498.552 1332.99L508.666 1331.79L510.649 1331.55L510.415 1329.57L509.194 1319.2L518.396 1316.74L520.328 1316.23L519.812 1314.3L517.379 1305.18L526.499 1302.72L528.423 1302.2L527.909 1300.27L525.476 1291.16L534.596 1288.69L536.52 1288.17L536.006 1286.25L533.573 1277.14L542.692 1274.67L544.617 1274.15L544.103 1272.22L541.669 1263.11L550.789 1260.65L552.714 1260.13L552.199 1258.2L549.77 1249.1L558.818 1246.72L560.756 1246.21L560.242 1244.27L557.818 1235.14L566.913 1232.71L568.844 1232.19L568.328 1230.26L565.895 1221.15L575.015 1218.69L576.939 1218.16L576.425 1216.24L573.998 1207.14L583.49 1203.87L585.381 1203.21L584.729 1201.32L581.381 1191.61L589.784 1185.66L591.413 1184.5L590.261 1182.87L584.498 1174.72L590.763 1166.94L592.016 1165.38L590.46 1164.12L582.767 1157.93L586.681 1148.84L587.47 1147L585.637 1146.21L576.507 1142.26L577.811 1132.39L578.073 1130.41L576.088 1130.14Z" fill="#FFD916" stroke="black" stroke-width="4"/>
<path d="M167.629 -30.3634L163.72 -20.9141L153.549 -22.0363L151.557 -22.256L151.341 -20.2643L150.205 -9.80342L139.838 -7.94129L137.866 -7.58711L138.223 -5.61584L140.033 4.36236L130.95 8.85866L129.156 9.74665L130.046 11.5398L134.462 20.4436L127.089 27.0911L125.603 28.4309L126.944 29.9163L133.58 37.2714L128.3 45.6152L127.23 47.3058L128.921 48.375L137.425 53.7521L134.574 63.3799L134.006 65.2997L135.926 65.866L145.95 68.8219L145.936 79.2135L145.933 81.2148L147.934 81.2164L157.389 81.2243L157.369 90.6459L157.365 92.6485L159.368 92.6501L168.825 92.658L168.816 102.095L168.815 104.099L170.818 104.097L180.254 104.091L180.24 113.518L180.237 115.519L182.238 115.521L191.694 115.529L191.677 124.954L191.673 126.956L193.675 126.958L203.131 126.966L203.111 136.387L203.107 138.393L205.112 138.392L214.551 138.386L214.548 147.828L214.547 149.827L216.546 149.829L226.002 149.837L225.982 159.258L225.977 161.264L227.983 161.262L237.422 161.256L237.419 170.699L237.418 172.698L239.417 172.7L249.264 172.708L251.503 183.034L251.926 184.986L253.879 184.566L263.758 182.438L268.557 191.341L269.505 193.1L271.265 192.154L280.001 187.455L286.892 194.609L288.28 196.05L289.72 194.661L296.856 187.783L305.391 192.816L307.117 193.833L308.132 192.106L313.222 183.438L322.954 185.963L324.893 186.466L325.393 184.526L328.004 174.395L338.458 174.017L340.456 173.945L340.384 171.947L340.017 161.617L349.839 158.364L351.741 157.734L351.108 155.833L347.945 146.336L356.205 140.74L357.865 139.616L356.737 137.958L351.164 129.777L357.54 122.232L358.83 120.705L357.304 119.414L349.702 112.983L353.781 103.907L354.596 102.092L352.786 101.267L343.494 97.0307L344.948 86.95L345.233 84.9729L343.257 84.6852L332.928 83.1823L332.937 73.6583L332.939 71.6581L330.939 71.6564L321.508 71.6486L321.487 62.2012L321.482 60.2075L319.488 60.2058L310.058 60.198L310.036 50.7506L310.031 48.7569L308.038 48.7553L298.607 48.7474L298.586 39.3001L298.581 37.3063L296.587 37.3047L287.157 37.2969L287.135 27.8495L287.13 25.8558L285.137 25.8541L275.72 25.8463L275.762 16.4901L275.771 14.4857L273.767 14.4811L264.322 14.4594L264.325 5.04475L264.326 3.0457L262.327 3.04404L252.896 3.0362L252.874 -6.41114L252.87 -8.40427L250.877 -8.40653L241.459 -8.41717L240.755 -18.4328L240.614 -20.4278L238.619 -20.2874L228.374 -19.5666L224.794 -29.2251L224.1 -31.0975L222.227 -30.4065L212.859 -26.9511L206.965 -35.0156L205.785 -36.6298L204.171 -35.4506L196.193 -29.6243L188.425 -35.7573L186.858 -36.9948L185.618 -35.4293L179.443 -27.632L170.243 -31.4464L168.394 -32.213L167.629 -30.3634Z" fill="#FF5903" stroke="black" stroke-width="4"/>
<mask id="path-5-outside-1_54_5130" maskUnits="userSpaceOnUse" x="135.515" y="573.75" width="393.858" height="393.858" fill="black">
<rect fill="white" x="135.515" y="573.75" width="393.858" height="393.858"/>
<path d="M295.079 650.321L295.072 638.791L283.616 638.783L283.14 626.96L271.216 627.421L267.364 616.114L256.403 619.847L249.759 610.307L240.319 616.868L231.442 609.56L224.116 618.484L213.513 613.855L208.803 624.674L197.09 623.191L195.582 635.218L183.615 637.205L185.557 648.804L174.97 653.908L179.987 664.313L171.373 671.962L179.021 680.566L172.804 690.269L182.606 696.549L179.308 707.69L190.82 711.12L190.828 723.109L202.358 723.116L202.369 734.65L213.899 734.657L213.907 746.187L225.437 746.195L225.444 757.725L236.974 757.732L236.985 769.266L248.515 769.273L248.519 780.8L260.049 780.808L260.06 792.341L271.59 792.348L271.601 803.882L283.131 803.889L283.139 815.419L294.669 815.427L294.676 826.957L306.203 826.961L306.214 838.495L317.747 838.506L317.755 850.036L329.285 850.043L329.292 861.573L340.822 861.581L340.83 873.111L352.363 873.122L352.364 884.645L363.894 884.652L363.908 896.189L375.438 896.197L375.446 907.727L386.902 907.734L389.161 919.832L400.693 917.686L405.989 928.169L416.276 922.966L424.092 931.456L432.554 923.668L442.366 929.702L448.458 919.78L459.694 922.887L462.897 911.275L474.919 911.047L474.672 899.089L486.078 895.464L482.54 884.383L492.199 877.94L485.804 868.367L493.275 859.629L484.497 852.123L489.311 841.623L478.6 836.704L480.298 825.047L468.15 823.263L468.149 811.868L456.619 811.86L456.611 800.33L445.081 800.323L445.074 788.793L433.54 788.782L433.533 777.252L422.003 777.244L421.995 765.714L410.465 765.707L410.458 754.177L398.924 754.166L398.917 742.636L387.387 742.628L387.379 731.098L375.849 731.091L375.842 719.561L364.312 719.553L364.301 708.02L352.771 708.012L352.763 696.482L341.233 696.475L341.226 684.945L329.696 684.937L329.685 673.404L318.158 673.399L318.147 661.866L306.617 661.859L306.609 650.329L295.079 650.321ZM209.464 625.914L209.474 625.81L209.576 625.85L209.464 625.914ZM186.838 649.465L186.814 649.441L186.838 649.418L186.838 649.465ZM191.706 710.518L191.612 710.518L191.638 710.43L191.706 710.518ZM196.236 636.297L196.148 635.771L196.684 635.836L196.236 636.297Z"/>
</mask>
<path d="M295.079 650.321L295.072 638.791L283.616 638.783L283.14 626.96L271.216 627.421L267.364 616.114L256.403 619.847L249.759 610.307L240.319 616.868L231.442 609.56L224.116 618.484L213.513 613.855L208.803 624.674L197.09 623.191L195.582 635.218L183.615 637.205L185.557 648.804L174.97 653.908L179.987 664.313L171.373 671.962L179.021 680.566L172.804 690.269L182.606 696.549L179.308 707.69L190.82 711.12L190.828 723.109L202.358 723.116L202.369 734.65L213.899 734.657L213.907 746.187L225.437 746.195L225.444 757.725L236.974 757.732L236.985 769.266L248.515 769.273L248.519 780.8L260.049 780.808L260.06 792.341L271.59 792.348L271.601 803.882L283.131 803.889L283.139 815.419L294.669 815.427L294.676 826.957L306.203 826.961L306.214 838.495L317.747 838.506L317.755 850.036L329.285 850.043L329.292 861.573L340.822 861.581L340.83 873.111L352.363 873.122L352.364 884.645L363.894 884.652L363.908 896.189L375.438 896.197L375.446 907.727L386.902 907.734L389.161 919.832L400.693 917.686L405.989 928.169L416.276 922.966L424.092 931.456L432.554 923.668L442.366 929.702L448.458 919.78L459.694 922.887L462.897 911.275L474.919 911.047L474.672 899.089L486.078 895.464L482.54 884.383L492.199 877.94L485.804 868.367L493.275 859.629L484.497 852.123L489.311 841.623L478.6 836.704L480.298 825.047L468.15 823.263L468.149 811.868L456.619 811.86L456.611 800.33L445.081 800.323L445.074 788.793L433.54 788.782L433.533 777.252L422.003 777.244L421.995 765.714L410.465 765.707L410.458 754.177L398.924 754.166L398.917 742.636L387.387 742.628L387.379 731.098L375.849 731.091L375.842 719.561L364.312 719.553L364.301 708.02L352.771 708.012L352.763 696.482L341.233 696.475L341.226 684.945L329.696 684.937L329.685 673.404L318.158 673.399L318.147 661.866L306.617 661.859L306.609 650.329L295.079 650.321ZM209.464 625.914L209.474 625.81L209.576 625.85L209.464 625.914ZM186.838 649.465L186.814 649.441L186.838 649.418L186.838 649.465ZM191.706 710.518L191.612 710.518L191.638 710.43L191.706 710.518ZM196.236 636.297L196.148 635.771L196.684 635.836L196.236 636.297Z" fill="#FF5903"/>
<path d="M295.079 650.321L295.072 638.791L283.616 638.783L283.14 626.96L271.216 627.421L267.364 616.114L256.403 619.847L249.759 610.307L240.319 616.868L231.442 609.56L224.116 618.484L213.513 613.855L208.803 624.674L197.09 623.191L195.582 635.218L183.615 637.205L185.557 648.804L174.97 653.908L179.987 664.313L171.373 671.962L179.021 680.566L172.804 690.269L182.606 696.549L179.308 707.69L190.82 711.12L190.828 723.109L202.358 723.116L202.369 734.65L213.899 734.657L213.907 746.187L225.437 746.195L225.444 757.725L236.974 757.732L236.985 769.266L248.515 769.273L248.519 780.8L260.049 780.808L260.06 792.341L271.59 792.348L271.601 803.882L283.131 803.889L283.139 815.419L294.669 815.427L294.676 826.957L306.203 826.961L306.214 838.495L317.747 838.506L317.755 850.036L329.285 850.043L329.292 861.573L340.822 861.581L340.83 873.111L352.363 873.122L352.364 884.645L363.894 884.652L363.908 896.189L375.438 896.197L375.446 907.727L386.902 907.734L389.161 919.832L400.693 917.686L405.989 928.169L416.276 922.966L424.092 931.456L432.554 923.668L442.366 929.702L448.458 919.78L459.694 922.887L462.897 911.275L474.919 911.047L474.672 899.089L486.078 895.464L482.54 884.383L492.199 877.94L485.804 868.367L493.275 859.629L484.497 852.123L489.311 841.623L478.6 836.704L480.298 825.047L468.15 823.263L468.149 811.868L456.619 811.86L456.611 800.33L445.081 800.323L445.074 788.793L433.54 788.782L433.533 777.252L422.003 777.244L421.995 765.714L410.465 765.707L410.458 754.177L398.924 754.166L398.917 742.636L387.387 742.628L387.379 731.098L375.849 731.091L375.842 719.561L364.312 719.553L364.301 708.02L352.771 708.012L352.763 696.482L341.233 696.475L341.226 684.945L329.696 684.937L329.685 673.404L318.158 673.399L318.147 661.866L306.617 661.859L306.609 650.329L295.079 650.321ZM209.464 625.914L209.474 625.81L209.576 625.85L209.464 625.914ZM186.838 649.465L186.814 649.441L186.838 649.418L186.838 649.465ZM191.706 710.518L191.612 710.518L191.638 710.43L191.706 710.518ZM196.236 636.297L196.148 635.771L196.684 635.836L196.236 636.297Z" stroke="black" stroke-width="8" mask="url(#path-5-outside-1_54_5130)"/>
<path d="M577.578 971.073L585.089 978.665L585.058 978.697L585.103 978.721L580.089 988.197L579.164 989.946L580.903 990.89L589.952 995.802L587.823 1005.96L587.415 1007.91L589.362 1008.33L599.26 1010.45L599.962 1020.67L600.099 1022.67L602.097 1022.53L612.227 1021.81L615.709 1031.46L616.393 1033.36L618.282 1032.66L628.046 1029.06L634.213 1037.51L635.409 1039.15L637.031 1037.93L645.521 1031.55L645.667 1031.75L645.813 1031.55L654.308 1037.93L655.925 1039.15L657.122 1037.52L663.318 1029.07L673.072 1032.66L674.959 1033.35L675.643 1031.46L679.129 1021.81L689.255 1022.52L691.253 1022.66L691.39 1020.66L692.092 1010.45L701.99 1008.33L703.937 1007.91L703.529 1005.96L701.401 995.797L710.449 990.885L712.19 989.94L711.262 988.19L706.251 978.742L706.299 978.716L706.239 978.656L713.755 971.059L715.147 969.652L713.755 968.246L706.235 960.644L706.237 960.641L706.225 960.634L706.218 960.627L711.266 951.125L712.197 949.373L710.453 948.428L701.415 943.53L703.543 933.369L703.951 931.42L702.005 931.003L692.106 928.883L691.405 918.666L691.268 916.667L689.269 916.808L679.138 917.52L675.643 907.855L674.958 905.963L673.07 906.659L663.303 910.258L657.118 901.818L655.923 900.187L654.305 901.4L645.809 907.772L645.667 907.578L645.524 907.772L637.029 901.4L635.412 900.188L634.216 901.816L628.017 910.258L618.264 906.659L616.374 905.962L615.69 907.857L612.208 917.505L602.078 916.793L600.082 916.653L599.943 918.649L599.229 928.883L589.329 931.003L587.382 931.42L587.79 933.369L589.918 943.531L580.87 948.443L579.126 949.389L580.058 951.14L585.102 960.619L585.096 960.622L585.112 960.638L585.114 960.642L577.578 968.26L576.187 969.667L577.578 971.073Z" fill="#F2F2F2" stroke="black" stroke-width="4"/>
<path d="M672.486 526.422C682.301 489.791 660.563 452.138 623.931 442.323C587.3 432.507 549.647 454.246 539.832 490.877L505.323 619.667C495.508 656.299 517.246 693.951 553.878 703.767C590.509 713.582 628.161 691.843 637.977 655.212L672.486 526.422Z" fill="#FF1A87" stroke="black" stroke-width="4"/>
<mask id="path-8-outside-2_54_5130" maskUnits="userSpaceOnUse" x="680.5" y="430.343" width="388.909" height="388.909" fill="black">
<rect fill="white" x="680.5" y="430.343" width="388.909" height="388.909"/>
<path d="M994.89 598.656C996.113 597.431 996.954 595.878 997.311 594.185C997.667 592.492 997.523 590.732 996.897 589.12C998.52 589.753 1000.29 589.896 1002 589.53C1003.7 589.164 1005.26 588.306 1006.49 587.063C1007.71 585.819 1008.54 584.244 1008.88 582.534C1009.22 580.823 1009.04 579.052 1008.38 577.439C1010.15 578.152 1012.1 578.278 1013.95 577.799C1015.79 577.319 1017.44 576.26 1018.64 574.777C1019.84 573.293 1020.53 571.464 1020.62 569.559C1020.7 567.653 1020.17 565.772 1019.1 564.192C1020.99 564.624 1022.96 564.431 1024.73 563.643C1026.49 562.855 1027.95 561.514 1028.89 559.823C1029.83 558.132 1030.19 556.182 1029.92 554.269C1029.66 552.355 1028.77 550.582 1027.41 549.215L1027.27 549.077C1029.13 548.843 1030.88 548.025 1032.25 546.74C1033.62 545.455 1034.55 543.769 1034.9 541.925C1035.26 540.08 1035.02 538.171 1034.22 536.472C1033.42 534.774 1032.1 533.372 1030.46 532.469C1032.16 531.7 1033.58 530.415 1034.51 528.797C1035.44 527.178 1035.84 525.309 1035.65 523.452C1035.46 521.595 1034.69 519.846 1033.45 518.452C1032.22 517.058 1030.57 516.089 1028.75 515.683C1028.96 515.504 1029.17 515.322 1029.37 515.123C1030.68 513.817 1031.55 512.136 1031.86 510.314C1032.17 508.491 1031.91 506.618 1031.11 504.953C1030.31 503.289 1029.01 501.916 1027.39 501.024C1025.77 500.132 1023.91 499.767 1022.08 499.978C1023.3 498.367 1023.94 496.387 1023.9 494.364C1023.85 492.342 1023.11 490.397 1021.81 488.851C1020.5 487.305 1018.71 486.25 1016.73 485.86C1014.74 485.47 1012.68 485.768 1010.89 486.704C1011.75 484.882 1011.97 482.822 1011.51 480.861C1011.05 478.9 1009.93 477.154 1008.35 475.909C1006.77 474.664 1004.81 473.994 1002.8 474.007C1000.78 474.02 998.829 474.717 997.26 475.983C997.376 474.178 996.939 472.38 996.008 470.831C995.076 469.281 993.694 468.053 992.045 467.31C990.397 466.567 988.561 466.344 986.781 466.671C985.001 466.998 983.363 467.859 982.084 469.14C981.815 469.413 981.564 469.702 981.332 470.007C980.849 468.206 979.814 466.604 978.371 465.424C976.928 464.245 975.151 463.548 973.291 463.432C971.43 463.317 969.579 463.788 967.998 464.78C966.418 465.771 965.188 467.233 964.481 468.96C963.509 467.353 962.054 466.097 960.322 465.369C958.591 464.641 956.674 464.481 954.844 464.91C953.015 465.339 951.367 466.335 950.137 467.757C948.907 469.179 948.158 470.953 947.998 472.825C946.592 471.45 944.771 470.58 942.817 470.351C940.864 470.121 938.888 470.545 937.2 471.556C935.511 472.567 934.204 474.109 933.483 475.94C932.761 477.771 932.666 479.789 933.212 481.678C931.63 480.665 929.768 480.178 927.891 480.289C926.015 480.4 924.221 481.102 922.766 482.295C921.312 483.488 920.272 485.11 919.795 486.929C919.319 488.747 919.43 490.67 920.113 492.42C918.502 491.792 916.743 491.648 915.05 492.004C913.357 492.36 911.803 493.202 910.579 494.425C909.355 495.649 908.514 497.203 908.158 498.896C907.802 500.589 907.946 502.348 908.574 503.959C906.963 503.331 905.204 503.186 903.511 503.541C901.818 503.897 900.264 504.738 899.04 505.962C897.817 507.186 896.975 508.739 896.62 510.433C896.264 512.126 896.409 513.885 897.038 515.496C895.427 514.867 893.668 514.722 891.975 515.078C890.281 515.433 888.728 516.274 887.504 517.498C886.28 518.722 885.439 520.276 885.084 521.969C884.728 523.662 884.873 525.421 885.502 527.032C883.891 526.403 882.132 526.258 880.438 526.614C878.745 526.969 877.192 527.811 875.968 529.034C874.744 530.258 873.903 531.812 873.547 533.505C873.192 535.198 873.337 536.957 873.965 538.568C872.354 537.94 870.595 537.796 868.902 538.152C867.209 538.508 865.655 539.35 864.431 540.573C863.207 541.797 862.366 543.351 862.01 545.044C861.654 546.737 861.798 548.496 862.426 550.107C860.815 549.479 859.056 549.334 857.363 549.689C855.67 550.045 854.116 550.886 852.892 552.11C851.669 553.334 850.827 554.887 850.472 556.581C850.116 558.274 850.261 560.033 850.89 561.644C849.279 561.015 847.52 560.87 845.827 561.226C844.133 561.581 842.58 562.422 841.356 563.646C840.132 564.87 839.291 566.424 838.936 568.117C838.58 569.81 838.725 571.569 839.354 573.18C837.743 572.552 835.983 572.408 834.29 572.764C832.597 573.12 831.043 573.961 829.82 575.185C828.596 576.409 827.754 577.963 827.398 579.656C827.042 581.349 827.186 583.108 827.814 584.719C826.203 584.091 824.444 583.946 822.751 584.301C821.058 584.657 819.504 585.498 818.281 586.722C817.057 587.946 816.216 589.499 815.86 591.192C815.504 592.885 815.649 594.645 816.278 596.255C814.667 595.627 812.908 595.482 811.215 595.837C809.522 596.193 807.968 597.034 806.744 598.258C805.521 599.482 804.679 601.035 804.324 602.728C803.968 604.422 804.113 606.181 804.742 607.792C803.131 607.164 801.371 607.02 799.678 607.376C797.985 607.732 796.432 608.573 795.208 609.797C793.984 611.021 793.142 612.574 792.786 614.267C792.43 615.961 792.575 617.72 793.202 619.331C791.592 618.703 789.832 618.557 788.139 618.913C786.446 619.269 784.893 620.11 783.669 621.334C782.445 622.558 781.604 624.111 781.248 625.804C780.892 627.497 781.038 629.257 781.666 630.867C780.055 630.239 778.296 630.094 776.603 630.449C774.91 630.805 773.356 631.646 772.133 632.87C770.909 634.094 770.068 635.647 769.712 637.34C769.356 639.033 769.501 640.793 770.13 642.403C768.519 641.776 766.759 641.631 765.066 641.988C763.373 642.344 761.82 643.185 760.596 644.409C759.372 645.633 758.531 647.186 758.174 648.879C757.818 650.572 757.963 652.332 758.59 653.943C756.98 653.315 755.22 653.169 753.527 653.525C751.834 653.881 750.281 654.722 749.057 655.946C747.833 657.169 746.992 658.723 746.636 660.416C746.281 662.109 746.426 663.869 747.054 665.479C745.367 664.821 743.519 664.694 741.756 665.115C739.993 665.535 738.4 666.483 737.189 667.832C735.978 669.18 735.206 670.866 734.977 672.663C734.749 674.461 735.073 676.284 735.908 677.891C734.069 677.197 732.052 677.132 730.17 677.705C728.289 678.279 726.649 679.459 725.508 681.062C724.367 682.665 723.788 684.599 723.862 686.564C723.936 688.529 724.658 690.413 725.917 691.923C724.011 691.835 722.128 692.364 720.545 693.431C718.962 694.497 717.764 696.045 717.129 697.845C716.494 699.644 716.455 701.6 717.018 703.422C717.582 705.244 718.717 706.835 720.257 707.959C718.465 708.477 716.88 709.545 715.726 711.011C714.572 712.477 713.908 714.268 713.826 716.131C713.745 717.994 714.25 719.835 715.271 721.393C716.293 722.952 717.778 724.15 719.518 724.818C717.924 725.823 716.689 727.307 715.991 729.057C715.293 730.807 715.167 732.732 715.633 734.556C716.098 736.38 717.13 738.009 718.581 739.208C720.031 740.407 721.826 741.115 723.705 741.229C722.345 742.665 721.502 744.513 721.308 746.48C721.114 748.448 721.58 750.423 722.633 752.094C723.686 753.766 725.266 755.038 727.124 755.711C728.982 756.384 731.011 756.419 732.893 755.811C731.816 757.533 731.359 759.571 731.599 761.587C731.838 763.603 732.76 765.475 734.21 766.894C735.66 768.313 737.553 769.193 739.573 769.388C741.594 769.584 743.621 769.083 745.32 767.968C744.826 769.86 744.969 771.861 745.726 773.662C746.483 775.463 747.813 776.964 749.509 777.934C751.205 778.903 753.174 779.286 755.112 779.024C757.049 778.762 758.848 777.87 760.229 776.485L760.256 776.458C760.448 778.328 761.228 780.089 762.485 781.486C763.742 782.883 765.41 783.845 767.249 784.233C769.088 784.621 771.004 784.416 772.72 783.647C774.437 782.877 775.866 781.583 776.802 779.951C777.536 781.664 778.79 783.102 780.387 784.062C781.984 785.022 783.843 785.456 785.701 785.302C787.559 785.148 789.323 784.415 790.743 783.205C792.163 781.995 793.167 780.37 793.614 778.559C793.818 778.817 794.038 779.064 794.271 779.296C795.562 780.585 797.22 781.445 799.018 781.76C800.817 782.074 802.669 781.828 804.324 781.055C805.979 780.282 807.358 779.019 808.272 777.437C809.186 775.855 809.592 774.031 809.436 772.212C810.976 773.413 812.871 774.074 814.826 774.091C816.781 774.108 818.688 773.482 820.253 772.308C821.818 771.134 822.954 769.479 823.486 767.596C824.018 765.714 823.915 763.71 823.194 761.894C824.804 762.675 826.612 762.953 828.383 762.691C830.153 762.429 831.805 761.639 833.121 760.424C834.437 759.21 835.357 757.627 835.761 755.883C836.165 754.139 836.033 752.314 835.384 750.647C836.995 751.274 838.755 751.419 840.448 751.063C842.141 750.707 843.694 749.865 844.918 748.641C846.142 747.417 846.983 745.864 847.339 744.171C847.696 742.478 847.551 740.718 846.924 739.107C848.534 739.736 850.294 739.881 851.987 739.525C853.68 739.17 855.233 738.328 856.457 737.105C857.681 735.881 858.522 734.327 858.878 732.634C859.233 730.941 859.088 729.182 858.46 727.571C860.07 728.2 861.83 728.345 863.523 727.989C865.216 727.633 866.769 726.792 867.993 725.568C869.217 724.345 870.058 722.791 870.414 721.098C870.77 719.405 870.624 717.646 869.996 716.035C871.607 716.663 873.366 716.807 875.06 716.451C876.753 716.095 878.306 715.253 879.53 714.029C880.754 712.806 881.595 711.252 881.951 709.559C882.307 707.866 882.163 706.106 881.535 704.495C883.146 705.124 884.905 705.269 886.599 704.913C888.292 704.558 889.845 703.717 891.069 702.493C892.293 701.269 893.134 699.716 893.49 698.022C893.845 696.329 893.7 694.57 893.072 692.959C894.682 693.588 896.442 693.733 898.135 693.377C899.828 693.022 901.381 692.18 902.605 690.957C903.829 689.733 904.67 688.179 905.026 686.486C905.381 684.793 905.236 683.034 904.608 681.423C906.218 682.052 907.978 682.197 909.671 681.841C911.364 681.485 912.917 680.644 914.141 679.421C915.365 678.197 916.206 676.643 916.562 674.95C916.918 673.257 916.772 671.498 916.144 669.887C917.755 670.515 919.514 670.659 921.208 670.303C922.901 669.947 924.454 669.105 925.678 667.881C926.902 666.658 927.743 665.104 928.099 663.411C928.455 661.718 928.311 659.959 927.683 658.347C929.294 658.976 931.053 659.121 932.747 658.765C934.44 658.41 935.993 657.569 937.217 656.345C938.441 655.121 939.282 653.568 939.638 651.874C939.993 650.181 939.848 648.422 939.22 646.811C940.83 647.44 942.59 647.585 944.283 647.229C945.976 646.874 947.529 646.032 948.753 644.809C949.977 643.585 950.818 642.031 951.174 640.338C951.529 638.645 951.384 636.886 950.756 635.275C952.367 635.903 954.126 636.047 955.819 635.691C957.512 635.335 959.066 634.494 960.29 633.27C961.514 632.046 962.355 630.492 962.711 628.799C963.067 627.106 962.923 625.347 962.295 623.736C963.906 624.364 965.665 624.509 967.358 624.154C969.051 623.798 970.605 622.957 971.829 621.733C973.053 620.509 973.894 618.956 974.249 617.263C974.605 615.57 974.46 613.81 973.831 612.199C975.442 612.828 977.201 612.973 978.895 612.617C980.588 612.262 982.141 611.421 983.365 610.197C984.589 608.973 985.43 607.42 985.786 605.726C986.141 604.033 985.996 602.274 985.368 600.663C986.977 601.287 988.734 601.429 990.425 601.073C992.115 600.716 993.666 599.877 994.89 598.656Z"/>
</mask>
<path d="M994.89 598.656C996.113 597.431 996.954 595.878 997.311 594.185C997.667 592.492 997.523 590.732 996.897 589.12C998.52 589.753 1000.29 589.896 1002 589.53C1003.7 589.164 1005.26 588.306 1006.49 587.063C1007.71 585.819 1008.54 584.244 1008.88 582.534C1009.22 580.823 1009.04 579.052 1008.38 577.439C1010.15 578.152 1012.1 578.278 1013.95 577.799C1015.79 577.319 1017.44 576.26 1018.64 574.777C1019.84 573.293 1020.53 571.464 1020.62 569.559C1020.7 567.653 1020.17 565.772 1019.1 564.192C1020.99 564.624 1022.96 564.431 1024.73 563.643C1026.49 562.855 1027.95 561.514 1028.89 559.823C1029.83 558.132 1030.19 556.182 1029.92 554.269C1029.66 552.355 1028.77 550.582 1027.41 549.215L1027.27 549.077C1029.13 548.843 1030.88 548.025 1032.25 546.74C1033.62 545.455 1034.55 543.769 1034.9 541.925C1035.26 540.08 1035.02 538.171 1034.22 536.472C1033.42 534.774 1032.1 533.372 1030.46 532.469C1032.16 531.7 1033.58 530.415 1034.51 528.797C1035.44 527.178 1035.84 525.309 1035.65 523.452C1035.46 521.595 1034.69 519.846 1033.45 518.452C1032.22 517.058 1030.57 516.089 1028.75 515.683C1028.96 515.504 1029.17 515.322 1029.37 515.123C1030.68 513.817 1031.55 512.136 1031.86 510.314C1032.17 508.491 1031.91 506.618 1031.11 504.953C1030.31 503.289 1029.01 501.916 1027.39 501.024C1025.77 500.132 1023.91 499.767 1022.08 499.978C1023.3 498.367 1023.94 496.387 1023.9 494.364C1023.85 492.342 1023.11 490.397 1021.81 488.851C1020.5 487.305 1018.71 486.25 1016.73 485.86C1014.74 485.47 1012.68 485.768 1010.89 486.704C1011.75 484.882 1011.97 482.822 1011.51 480.861C1011.05 478.9 1009.93 477.154 1008.35 475.909C1006.77 474.664 1004.81 473.994 1002.8 474.007C1000.78 474.02 998.829 474.717 997.26 475.983C997.376 474.178 996.939 472.38 996.008 470.831C995.076 469.281 993.694 468.053 992.045 467.31C990.397 466.567 988.561 466.344 986.781 466.671C985.001 466.998 983.363 467.859 982.084 469.14C981.815 469.413 981.564 469.702 981.332 470.007C980.849 468.206 979.814 466.604 978.371 465.424C976.928 464.245 975.151 463.548 973.291 463.432C971.43 463.317 969.579 463.788 967.998 464.78C966.418 465.771 965.188 467.233 964.481 468.96C963.509 467.353 962.054 466.097 960.322 465.369C958.591 464.641 956.674 464.481 954.844 464.91C953.015 465.339 951.367 466.335 950.137 467.757C948.907 469.179 948.158 470.953 947.998 472.825C946.592 471.45 944.771 470.58 942.817 470.351C940.864 470.121 938.888 470.545 937.2 471.556C935.511 472.567 934.204 474.109 933.483 475.94C932.761 477.771 932.666 479.789 933.212 481.678C931.63 480.665 929.768 480.178 927.891 480.289C926.015 480.4 924.221 481.102 922.766 482.295C921.312 483.488 920.272 485.11 919.795 486.929C919.319 488.747 919.43 490.67 920.113 492.42C918.502 491.792 916.743 491.648 915.05 492.004C913.357 492.36 911.803 493.202 910.579 494.425C909.355 495.649 908.514 497.203 908.158 498.896C907.802 500.589 907.946 502.348 908.574 503.959C906.963 503.331 905.204 503.186 903.511 503.541C901.818 503.897 900.264 504.738 899.04 505.962C897.817 507.186 896.975 508.739 896.62 510.433C896.264 512.126 896.409 513.885 897.038 515.496C895.427 514.867 893.668 514.722 891.975 515.078C890.281 515.433 888.728 516.274 887.504 517.498C886.28 518.722 885.439 520.276 885.084 521.969C884.728 523.662 884.873 525.421 885.502 527.032C883.891 526.403 882.132 526.258 880.438 526.614C878.745 526.969 877.192 527.811 875.968 529.034C874.744 530.258 873.903 531.812 873.547 533.505C873.192 535.198 873.337 536.957 873.965 538.568C872.354 537.94 870.595 537.796 868.902 538.152C867.209 538.508 865.655 539.35 864.431 540.573C863.207 541.797 862.366 543.351 862.01 545.044C861.654 546.737 861.798 548.496 862.426 550.107C860.815 549.479 859.056 549.334 857.363 549.689C855.67 550.045 854.116 550.886 852.892 552.11C851.669 553.334 850.827 554.887 850.472 556.581C850.116 558.274 850.261 560.033 850.89 561.644C849.279 561.015 847.52 560.87 845.827 561.226C844.133 561.581 842.58 562.422 841.356 563.646C840.132 564.87 839.291 566.424 838.936 568.117C838.58 569.81 838.725 571.569 839.354 573.18C837.743 572.552 835.983 572.408 834.29 572.764C832.597 573.12 831.043 573.961 829.82 575.185C828.596 576.409 827.754 577.963 827.398 579.656C827.042 581.349 827.186 583.108 827.814 584.719C826.203 584.091 824.444 583.946 822.751 584.301C821.058 584.657 819.504 585.498 818.281 586.722C817.057 587.946 816.216 589.499 815.86 591.192C815.504 592.885 815.649 594.645 816.278 596.255C814.667 595.627 812.908 595.482 811.215 595.837C809.522 596.193 807.968 597.034 806.744 598.258C805.521 599.482 804.679 601.035 804.324 602.728C803.968 604.422 804.113 606.181 804.742 607.792C803.131 607.164 801.371 607.02 799.678 607.376C797.985 607.732 796.432 608.573 795.208 609.797C793.984 611.021 793.142 612.574 792.786 614.267C792.43 615.961 792.575 617.72 793.202 619.331C791.592 618.703 789.832 618.557 788.139 618.913C786.446 619.269 784.893 620.11 783.669 621.334C782.445 622.558 781.604 624.111 781.248 625.804C780.892 627.497 781.038 629.257 781.666 630.867C780.055 630.239 778.296 630.094 776.603 630.449C774.91 630.805 773.356 631.646 772.133 632.87C770.909 634.094 770.068 635.647 769.712 637.34C769.356 639.033 769.501 640.793 770.13 642.403C768.519 641.776 766.759 641.631 765.066 641.988C763.373 642.344 761.82 643.185 760.596 644.409C759.372 645.633 758.531 647.186 758.174 648.879C757.818 650.572 757.963 652.332 758.59 653.943C756.98 653.315 755.22 653.169 753.527 653.525C751.834 653.881 750.281 654.722 749.057 655.946C747.833 657.169 746.992 658.723 746.636 660.416C746.281 662.109 746.426 663.869 747.054 665.479C745.367 664.821 743.519 664.694 741.756 665.115C739.993 665.535 738.4 666.483 737.189 667.832C735.978 669.18 735.206 670.866 734.977 672.663C734.749 674.461 735.073 676.284 735.908 677.891C734.069 677.197 732.052 677.132 730.17 677.705C728.289 678.279 726.649 679.459 725.508 681.062C724.367 682.665 723.788 684.599 723.862 686.564C723.936 688.529 724.658 690.413 725.917 691.923C724.011 691.835 722.128 692.364 720.545 693.431C718.962 694.497 717.764 696.045 717.129 697.845C716.494 699.644 716.455 701.6 717.018 703.422C717.582 705.244 718.717 706.835 720.257 707.959C718.465 708.477 716.88 709.545 715.726 711.011C714.572 712.477 713.908 714.268 713.826 716.131C713.745 717.994 714.25 719.835 715.271 721.393C716.293 722.952 717.778 724.15 719.518 724.818C717.924 725.823 716.689 727.307 715.991 729.057C715.293 730.807 715.167 732.732 715.633 734.556C716.098 736.38 717.13 738.009 718.581 739.208C720.031 740.407 721.826 741.115 723.705 741.229C722.345 742.665 721.502 744.513 721.308 746.48C721.114 748.448 721.58 750.423 722.633 752.094C723.686 753.766 725.266 755.038 727.124 755.711C728.982 756.384 731.011 756.419 732.893 755.811C731.816 757.533 731.359 759.571 731.599 761.587C731.838 763.603 732.76 765.475 734.21 766.894C735.66 768.313 737.553 769.193 739.573 769.388C741.594 769.584 743.621 769.083 745.32 767.968C744.826 769.86 744.969 771.861 745.726 773.662C746.483 775.463 747.813 776.964 749.509 777.934C751.205 778.903 753.174 779.286 755.112 779.024C757.049 778.762 758.848 777.87 760.229 776.485L760.256 776.458C760.448 778.328 761.228 780.089 762.485 781.486C763.742 782.883 765.41 783.845 767.249 784.233C769.088 784.621 771.004 784.416 772.72 783.647C774.437 782.877 775.866 781.583 776.802 779.951C777.536 781.664 778.79 783.102 780.387 784.062C781.984 785.022 783.843 785.456 785.701 785.302C787.559 785.148 789.323 784.415 790.743 783.205C792.163 781.995 793.167 780.37 793.614 778.559C793.818 778.817 794.038 779.064 794.271 779.296C795.562 780.585 797.22 781.445 799.018 781.76C800.817 782.074 802.669 781.828 804.324 781.055C805.979 780.282 807.358 779.019 808.272 777.437C809.186 775.855 809.592 774.031 809.436 772.212C810.976 773.413 812.871 774.074 814.826 774.091C816.781 774.108 818.688 773.482 820.253 772.308C821.818 771.134 822.954 769.479 823.486 767.596C824.018 765.714 823.915 763.71 823.194 761.894C824.804 762.675 826.612 762.953 828.383 762.691C830.153 762.429 831.805 761.639 833.121 760.424C834.437 759.21 835.357 757.627 835.761 755.883C836.165 754.139 836.033 752.314 835.384 750.647C836.995 751.274 838.755 751.419 840.448 751.063C842.141 750.707 843.694 749.865 844.918 748.641C846.142 747.417 846.983 745.864 847.339 744.171C847.696 742.478 847.551 740.718 846.924 739.107C848.534 739.736 850.294 739.881 851.987 739.525C853.68 739.17 855.233 738.328 856.457 737.105C857.681 735.881 858.522 734.327 858.878 732.634C859.233 730.941 859.088 729.182 858.46 727.571C860.07 728.2 861.83 728.345 863.523 727.989C865.216 727.633 866.769 726.792 867.993 725.568C869.217 724.345 870.058 722.791 870.414 721.098C870.77 719.405 870.624 717.646 869.996 716.035C871.607 716.663 873.366 716.807 875.06 716.451C876.753 716.095 878.306 715.253 879.53 714.029C880.754 712.806 881.595 711.252 881.951 709.559C882.307 707.866 882.163 706.106 881.535 704.495C883.146 705.124 884.905 705.269 886.599 704.913C888.292 704.558 889.845 703.717 891.069 702.493C892.293 701.269 893.134 699.716 893.49 698.022C893.845 696.329 893.7 694.57 893.072 692.959C894.682 693.588 896.442 693.733 898.135 693.377C899.828 693.022 901.381 692.18 902.605 690.957C903.829 689.733 904.67 688.179 905.026 686.486C905.381 684.793 905.236 683.034 904.608 681.423C906.218 682.052 907.978 682.197 909.671 681.841C911.364 681.485 912.917 680.644 914.141 679.421C915.365 678.197 916.206 676.643 916.562 674.95C916.918 673.257 916.772 671.498 916.144 669.887C917.755 670.515 919.514 670.659 921.208 670.303C922.901 669.947 924.454 669.105 925.678 667.881C926.902 666.658 927.743 665.104 928.099 663.411C928.455 661.718 928.311 659.959 927.683 658.347C929.294 658.976 931.053 659.121 932.747 658.765C934.44 658.41 935.993 657.569 937.217 656.345C938.441 655.121 939.282 653.568 939.638 651.874C939.993 650.181 939.848 648.422 939.22 646.811C940.83 647.44 942.59 647.585 944.283 647.229C945.976 646.874 947.529 646.032 948.753 644.809C949.977 643.585 950.818 642.031 951.174 640.338C951.529 638.645 951.384 636.886 950.756 635.275C952.367 635.903 954.126 636.047 955.819 635.691C957.512 635.335 959.066 634.494 960.29 633.27C961.514 632.046 962.355 630.492 962.711 628.799C963.067 627.106 962.923 625.347 962.295 623.736C963.906 624.364 965.665 624.509 967.358 624.154C969.051 623.798 970.605 622.957 971.829 621.733C973.053 620.509 973.894 618.956 974.249 617.263C974.605 615.57 974.46 613.81 973.831 612.199C975.442 612.828 977.201 612.973 978.895 612.617C980.588 612.262 982.141 611.421 983.365 610.197C984.589 608.973 985.43 607.42 985.786 605.726C986.141 604.033 985.996 602.274 985.368 600.663C986.977 601.287 988.734 601.429 990.425 601.073C992.115 600.716 993.666 599.877 994.89 598.656Z" fill="#FFD916"/>
<path d="M994.89 598.656C996.113 597.431 996.954 595.878 997.311 594.185C997.667 592.492 997.523 590.732 996.897 589.12C998.52 589.753 1000.29 589.896 1002 589.53C1003.7 589.164 1005.26 588.306 1006.49 587.063C1007.71 585.819 1008.54 584.244 1008.88 582.534C1009.22 580.823 1009.04 579.052 1008.38 577.439C1010.15 578.152 1012.1 578.278 1013.95 577.799C1015.79 577.319 1017.44 576.26 1018.64 574.777C1019.84 573.293 1020.53 571.464 1020.62 569.559C1020.7 567.653 1020.17 565.772 1019.1 564.192C1020.99 564.624 1022.96 564.431 1024.73 563.643C1026.49 562.855 1027.95 561.514 1028.89 559.823C1029.83 558.132 1030.19 556.182 1029.92 554.269C1029.66 552.355 1028.77 550.582 1027.41 549.215L1027.27 549.077C1029.13 548.843 1030.88 548.025 1032.25 546.74C1033.62 545.455 1034.55 543.769 1034.9 541.925C1035.26 540.08 1035.02 538.171 1034.22 536.472C1033.42 534.774 1032.1 533.372 1030.46 532.469C1032.16 531.7 1033.58 530.415 1034.51 528.797C1035.44 527.178 1035.84 525.309 1035.65 523.452C1035.46 521.595 1034.69 519.846 1033.45 518.452C1032.22 517.058 1030.57 516.089 1028.75 515.683C1028.96 515.504 1029.17 515.322 1029.37 515.123C1030.68 513.817 1031.55 512.136 1031.86 510.314C1032.17 508.491 1031.91 506.618 1031.11 504.953C1030.31 503.289 1029.01 501.916 1027.39 501.024C1025.77 500.132 1023.91 499.767 1022.08 499.978C1023.3 498.367 1023.94 496.387 1023.9 494.364C1023.85 492.342 1023.11 490.397 1021.81 488.851C1020.5 487.305 1018.71 486.25 1016.73 485.86C1014.74 485.47 1012.68 485.768 1010.89 486.704C1011.75 484.882 1011.97 482.822 1011.51 480.861C1011.05 478.9 1009.93 477.154 1008.35 475.909C1006.77 474.664 1004.81 473.994 1002.8 474.007C1000.78 474.02 998.829 474.717 997.26 475.983C997.376 474.178 996.939 472.38 996.008 470.831C995.076 469.281 993.694 468.053 992.045 467.31C990.397 466.567 988.561 466.344 986.781 466.671C985.001 466.998 983.363 467.859 982.084 469.14C981.815 469.413 981.564 469.702 981.332 470.007C980.849 468.206 979.814 466.604 978.371 465.424C976.928 464.245 975.151 463.548 973.291 463.432C971.43 463.317 969.579 463.788 967.998 464.78C966.418 465.771 965.188 467.233 964.481 468.96C963.509 467.353 962.054 466.097 960.322 465.369C958.591 464.641 956.674 464.481 954.844 464.91C953.015 465.339 951.367 466.335 950.137 467.757C948.907 469.179 948.158 470.953 947.998 472.825C946.592 471.45 944.771 470.58 942.817 470.351C940.864 470.121 938.888 470.545 937.2 471.556C935.511 472.567 934.204 474.109 933.483 475.94C932.761 477.771 932.666 479.789 933.212 481.678C931.63 480.665 929.768 480.178 927.891 480.289C926.015 480.4 924.221 481.102 922.766 482.295C921.312 483.488 920.272 485.11 919.795 486.929C919.319 488.747 919.43 490.67 920.113 492.42C918.502 491.792 916.743 491.648 915.05 492.004C913.357 492.36 911.803 493.202 910.579 494.425C909.355 495.649 908.514 497.203 908.158 498.896C907.802 500.589 907.946 502.348 908.574 503.959C906.963 503.331 905.204 503.186 903.511 503.541C901.818 503.897 900.264 504.738 899.04 505.962C897.817 507.186 896.975 508.739 896.62 510.433C896.264 512.126 896.409 513.885 897.038 515.496C895.427 514.867 893.668 514.722 891.975 515.078C890.281 515.433 888.728 516.274 887.504 517.498C886.28 518.722 885.439 520.276 885.084 521.969C884.728 523.662 884.873 525.421 885.502 527.032C883.891 526.403 882.132 526.258 880.438 526.614C878.745 526.969 877.192 527.811 875.968 529.034C874.744 530.258 873.903 531.812 873.547 533.505C873.192 535.198 873.337 536.957 873.965 538.568C872.354 537.94 870.595 537.796 868.902 538.152C867.209 538.508 865.655 539.35 864.431 540.573C863.207 541.797 862.366 543.351 862.01 545.044C861.654 546.737 861.798 548.496 862.426 550.107C860.815 549.479 859.056 549.334 857.363 549.689C855.67 550.045 854.116 550.886 852.892 552.11C851.669 553.334 850.827 554.887 850.472 556.581C850.116 558.274 850.261 560.033 850.89 561.644C849.279 561.015 847.52 560.87 845.827 561.226C844.133 561.581 842.58 562.422 841.356 563.646C840.132 564.87 839.291 566.424 838.936 568.117C838.58 569.81 838.725 571.569 839.354 573.18C837.743 572.552 835.983 572.408 834.29 572.764C832.597 573.12 831.043 573.961 829.82 575.185C828.596 576.409 827.754 577.963 827.398 579.656C827.042 581.349 827.186 583.108 827.814 584.719C826.203 584.091 824.444 583.946 822.751 584.301C821.058 584.657 819.504 585.498 818.281 586.722C817.057 587.946 816.216 589.499 815.86 591.192C815.504 592.885 815.649 594.645 816.278 596.255C814.667 595.627 812.908 595.482 811.215 595.837C809.522 596.193 807.968 597.034 806.744 598.258C805.521 599.482 804.679 601.035 804.324 602.728C803.968 604.422 804.113 606.181 804.742 607.792C803.131 607.164 801.371 607.02 799.678 607.376C797.985 607.732 796.432 608.573 795.208 609.797C793.984 611.021 793.142 612.574 792.786 614.267C792.43 615.961 792.575 617.72 793.202 619.331C791.592 618.703 789.832 618.557 788.139 618.913C786.446 619.269 784.893 620.11 783.669 621.334C782.445 622.558 781.604 624.111 781.248 625.804C780.892 627.497 781.038 629.257 781.666 630.867C780.055 630.239 778.296 630.094 776.603 630.449C774.91 630.805 773.356 631.646 772.133 632.87C770.909 634.094 770.068 635.647 769.712 637.34C769.356 639.033 769.501 640.793 770.13 642.403C768.519 641.776 766.759 641.631 765.066 641.988C763.373 642.344 761.82 643.185 760.596 644.409C759.372 645.633 758.531 647.186 758.174 648.879C757.818 650.572 757.963 652.332 758.59 653.943C756.98 653.315 755.22 653.169 753.527 653.525C751.834 653.881 750.281 654.722 749.057 655.946C747.833 657.169 746.992 658.723 746.636 660.416C746.281 662.109 746.426 663.869 747.054 665.479C745.367 664.821 743.519 664.694 741.756 665.115C739.993 665.535 738.4 666.483 737.189 667.832C735.978 669.18 735.206 670.866 734.977 672.663C734.749 674.461 735.073 676.284 735.908 677.891C734.069 677.197 732.052 677.132 730.17 677.705C728.289 678.279 726.649 679.459 725.508 681.062C724.367 682.665 723.788 684.599 723.862 686.564C723.936 688.529 724.658 690.413 725.917 691.923C724.011 691.835 722.128 692.364 720.545 693.431C718.962 694.497 717.764 696.045 717.129 697.845C716.494 699.644 716.455 701.6 717.018 703.422C717.582 705.244 718.717 706.835 720.257 707.959C718.465 708.477 716.88 709.545 715.726 711.011C714.572 712.477 713.908 714.268 713.826 716.131C713.745 717.994 714.25 719.835 715.271 721.393C716.293 722.952 717.778 724.15 719.518 724.818C717.924 725.823 716.689 727.307 715.991 729.057C715.293 730.807 715.167 732.732 715.633 734.556C716.098 736.38 717.13 738.009 718.581 739.208C720.031 740.407 721.826 741.115 723.705 741.229C722.345 742.665 721.502 744.513 721.308 746.48C721.114 748.448 721.58 750.423 722.633 752.094C723.686 753.766 725.266 755.038 727.124 755.711C728.982 756.384 731.011 756.419 732.893 755.811C731.816 757.533 731.359 759.571 731.599 761.587C731.838 763.603 732.76 765.475 734.21 766.894C735.66 768.313 737.553 769.193 739.573 769.388C741.594 769.584 743.621 769.083 745.32 767.968C744.826 769.86 744.969 771.861 745.726 773.662C746.483 775.463 747.813 776.964 749.509 777.934C751.205 778.903 753.174 779.286 755.112 779.024C757.049 778.762 758.848 777.87 760.229 776.485L760.256 776.458C760.448 778.328 761.228 780.089 762.485 781.486C763.742 782.883 765.41 783.845 767.249 784.233C769.088 784.621 771.004 784.416 772.72 783.647C774.437 782.877 775.866 781.583 776.802 779.951C777.536 781.664 778.79 783.102 780.387 784.062C781.984 785.022 783.843 785.456 785.701 785.302C787.559 785.148 789.323 784.415 790.743 783.205C792.163 781.995 793.167 780.37 793.614 778.559C793.818 778.817 794.038 779.064 794.271 779.296C795.562 780.585 797.22 781.445 799.018 781.76C800.817 782.074 802.669 781.828 804.324 781.055C805.979 780.282 807.358 779.019 808.272 777.437C809.186 775.855 809.592 774.031 809.436 772.212C810.976 773.413 812.871 774.074 814.826 774.091C816.781 774.108 818.688 773.482 820.253 772.308C821.818 771.134 822.954 769.479 823.486 767.596C824.018 765.714 823.915 763.71 823.194 761.894C824.804 762.675 826.612 762.953 828.383 762.691C830.153 762.429 831.805 761.639 833.121 760.424C834.437 759.21 835.357 757.627 835.761 755.883C836.165 754.139 836.033 752.314 835.384 750.647C836.995 751.274 838.755 751.419 840.448 751.063C842.141 750.707 843.694 749.865 844.918 748.641C846.142 747.417 846.983 745.864 847.339 744.171C847.696 742.478 847.551 740.718 846.924 739.107C848.534 739.736 850.294 739.881 851.987 739.525C853.68 739.17 855.233 738.328 856.457 737.105C857.681 735.881 858.522 734.327 858.878 732.634C859.233 730.941 859.088 729.182 858.46 727.571C860.07 728.2 861.83 728.345 863.523 727.989C865.216 727.633 866.769 726.792 867.993 725.568C869.217 724.345 870.058 722.791 870.414 721.098C870.77 719.405 870.624 717.646 869.996 716.035C871.607 716.663 873.366 716.807 875.06 716.451C876.753 716.095 878.306 715.253 879.53 714.029C880.754 712.806 881.595 711.252 881.951 709.559C882.307 707.866 882.163 706.106 881.535 704.495C883.146 705.124 884.905 705.269 886.599 704.913C888.292 704.558 889.845 703.717 891.069 702.493C892.293 701.269 893.134 699.716 893.49 698.022C893.845 696.329 893.7 694.57 893.072 692.959C894.682 693.588 896.442 693.733 898.135 693.377C899.828 693.022 901.381 692.18 902.605 690.957C903.829 689.733 904.67 688.179 905.026 686.486C905.381 684.793 905.236 683.034 904.608 681.423C906.218 682.052 907.978 682.197 909.671 681.841C911.364 681.485 912.917 680.644 914.141 679.421C915.365 678.197 916.206 676.643 916.562 674.95C916.918 673.257 916.772 671.498 916.144 669.887C917.755 670.515 919.514 670.659 921.208 670.303C922.901 669.947 924.454 669.105 925.678 667.881C926.902 666.658 927.743 665.104 928.099 663.411C928.455 661.718 928.311 659.959 927.683 658.347C929.294 658.976 931.053 659.121 932.747 658.765C934.44 658.41 935.993 657.569 937.217 656.345C938.441 655.121 939.282 653.568 939.638 651.874C939.993 650.181 939.848 648.422 939.22 646.811C940.83 647.44 942.59 647.585 944.283 647.229C945.976 646.874 947.529 646.032 948.753 644.809C949.977 643.585 950.818 642.031 951.174 640.338C951.529 638.645 951.384 636.886 950.756 635.275C952.367 635.903 954.126 636.047 955.819 635.691C957.512 635.335 959.066 634.494 960.29 633.27C961.514 632.046 962.355 630.492 962.711 628.799C963.067 627.106 962.923 625.347 962.295 623.736C963.906 624.364 965.665 624.509 967.358 624.154C969.051 623.798 970.605 622.957 971.829 621.733C973.053 620.509 973.894 618.956 974.249 617.263C974.605 615.57 974.46 613.81 973.831 612.199C975.442 612.828 977.201 612.973 978.895 612.617C980.588 612.262 982.141 611.421 983.365 610.197C984.589 608.973 985.43 607.42 985.786 605.726C986.141 604.033 985.996 602.274 985.368 600.663C986.977 601.287 988.734 601.429 990.425 601.073C992.115 600.716 993.666 599.877 994.89 598.656Z" stroke="black" stroke-width="8" mask="url(#path-8-outside-2_54_5130)"/>
<mask id="path-9-outside-3_54_5130" maskUnits="userSpaceOnUse" x="145.536" y="296.958" width="309.157" height="260.476" fill="black">
<rect fill="white" x="145.536" y="296.958" width="309.157" height="260.476"/>
<path d="M299.792 350.441C298.319 349.591 296.633 349.18 294.935 349.257C293.237 349.334 291.597 349.895 290.209 350.873C290.366 349.157 290.02 347.432 289.214 345.907C288.408 344.382 287.176 343.124 285.669 342.284C284.161 341.445 282.443 341.061 280.722 341.178C279.002 341.296 277.353 341.911 275.977 342.948C276.172 341.069 275.765 339.176 274.813 337.542C273.861 335.909 272.414 334.62 270.682 333.861C268.949 333.103 267.021 332.914 265.176 333.323C263.331 333.732 261.664 334.718 260.418 336.136C260.236 334.258 259.462 332.485 258.206 331.074C256.951 329.663 255.28 328.687 253.434 328.287C251.588 327.886 249.664 328.082 247.938 328.847C246.213 329.611 244.776 330.904 243.835 332.539L243.73 332.72C243.037 331.246 241.953 329.99 240.597 329.088C239.24 328.186 237.662 327.673 236.035 327.604C234.407 327.535 232.793 327.913 231.367 328.697C229.94 329.481 228.757 330.641 227.945 332.051C227.53 332.775 227.218 333.553 227.018 334.364C225.794 332.989 224.174 332.027 222.382 331.61C220.59 331.192 218.713 331.339 217.009 332.031C215.305 332.723 213.859 333.925 212.868 335.473C211.877 337.021 211.391 338.838 211.476 340.675C211.327 340.589 211.193 340.478 211.04 340.39C209.439 339.463 207.589 339.058 205.748 339.229C203.907 339.401 202.166 340.141 200.766 341.347C199.366 342.553 198.378 344.165 197.938 345.959C197.497 347.753 197.627 349.64 198.309 351.359C196.444 350.666 194.402 350.617 192.508 351.22C190.613 351.822 188.976 353.041 187.857 354.682C186.738 356.323 186.201 358.292 186.332 360.275C186.464 362.258 187.255 364.141 188.581 365.623C186.626 365.355 184.637 365.743 182.927 366.726C181.218 367.71 179.884 369.233 179.136 371.057C178.388 372.881 178.267 374.903 178.793 376.805C179.32 378.706 180.463 380.38 182.043 381.564C180.312 381.978 178.746 382.901 177.546 384.215C176.347 385.528 175.57 387.172 175.315 388.932C175.06 390.693 175.339 392.49 176.117 394.092C176.894 395.693 178.134 397.026 179.677 397.917C179.98 398.089 180.293 398.244 180.614 398.382C179.053 399.342 177.827 400.762 177.104 402.446C176.381 404.131 176.197 405.998 176.576 407.792C176.955 409.586 177.879 411.221 179.222 412.472C180.565 413.723 182.262 414.529 184.079 414.781C183.644 415.252 183.263 415.769 182.941 416.323C182.1 417.783 181.691 419.452 181.761 421.136C181.832 422.82 182.379 424.45 183.339 425.837C184.299 427.224 185.633 428.311 187.186 428.971C188.738 429.631 190.446 429.838 192.11 429.567C191.2 431.271 190.87 433.226 191.171 435.135C191.472 437.045 192.387 438.805 193.778 440.15C195.169 441.495 196.96 442.351 198.879 442.588C200.799 442.826 202.743 442.432 204.418 441.467C203.898 443.238 203.944 445.128 204.548 446.873C205.152 448.619 206.285 450.134 207.789 451.209C209.293 452.283 211.094 452.864 212.941 452.87C214.789 452.875 216.592 452.306 218.1 451.241C217.946 452.933 218.28 454.635 219.063 456.144C219.846 457.654 221.045 458.908 222.518 459.759C223.991 460.61 225.677 461.021 227.376 460.944C229.075 460.867 230.715 460.306 232.103 459.326C231.948 461.018 232.281 462.719 233.064 464.229C233.846 465.739 235.045 466.993 236.518 467.844C237.992 468.694 239.677 469.105 241.376 469.028C243.075 468.951 244.715 468.389 246.102 467.408C245.948 469.1 246.282 470.802 247.065 472.312C247.848 473.821 249.047 475.075 250.52 475.926C251.993 476.777 253.679 477.188 255.378 477.111C257.077 477.034 258.717 476.473 260.106 475.493C259.95 477.185 260.283 478.887 261.066 480.396C261.848 481.906 263.047 483.16 264.521 484.011C265.994 484.861 267.68 485.272 269.378 485.195C271.077 485.118 272.717 484.556 274.105 483.575C273.95 485.267 274.284 486.969 275.067 488.479C275.85 489.988 277.049 491.242 278.522 492.093C279.996 492.944 281.681 493.355 283.38 493.278C285.079 493.202 286.72 492.64 288.108 491.66C287.952 493.352 288.286 495.054 289.068 496.563C289.851 498.073 291.049 499.327 292.523 500.178C293.996 501.028 295.682 501.439 297.38 501.362C299.079 501.285 300.719 500.723 302.107 499.742C301.951 501.434 302.285 503.136 303.067 504.646C303.85 506.155 305.048 507.41 306.522 508.26C307.995 509.111 309.681 509.522 311.379 509.445C313.078 509.367 314.718 508.805 316.106 507.825C315.945 509.612 316.328 511.407 317.206 512.975C318.084 514.542 319.416 515.808 321.025 516.606C322.635 517.405 324.448 517.699 326.227 517.45C328.006 517.2 329.667 516.42 330.992 515.21C330.881 517.139 331.401 519.053 332.474 520.662C333.547 522.272 335.114 523.489 336.94 524.13C338.765 524.772 340.749 524.803 342.591 524.218C344.434 523.634 346.036 522.466 347.154 520.89C347.631 522.574 348.594 524.081 349.923 525.223C351.252 526.364 352.887 527.088 354.625 527.306C356.363 527.524 358.126 527.224 359.693 526.446C361.26 525.667 362.562 524.444 363.436 522.929C363.654 522.541 363.845 522.139 364.006 521.724C365.02 523.253 366.482 524.432 368.191 525.1C369.901 525.767 371.774 525.891 373.555 525.454C375.336 525.016 376.938 524.039 378.141 522.657C379.344 521.274 380.089 519.553 380.275 517.73C380.694 518.086 381.144 518.405 381.619 518.682C383.106 519.544 384.81 519.959 386.526 519.875C388.242 519.792 389.896 519.214 391.29 518.212C392.683 517.209 393.756 515.825 394.38 514.226C395.003 512.627 395.15 510.882 394.802 509.2C396.547 510.074 398.53 510.351 400.446 509.988C402.363 509.626 404.106 508.644 405.408 507.194C406.71 505.744 407.499 503.906 407.653 501.963C407.806 500.02 407.317 498.08 406.26 496.44C408.186 496.961 410.23 496.821 412.066 496.043C413.901 495.264 415.421 493.892 416.381 492.146C417.341 490.4 417.687 488.382 417.362 486.415C417.037 484.447 416.061 482.645 414.589 481.298C416.507 481.205 418.342 480.495 419.822 479.274C421.301 478.054 422.346 476.388 422.799 474.524C423.253 472.661 423.091 470.7 422.339 468.934C421.587 467.168 420.284 465.692 418.624 464.725C420.156 464.086 421.478 463.03 422.44 461.679C423.402 460.327 423.967 458.733 424.07 457.077C424.173 455.421 423.81 453.768 423.022 452.306C422.235 450.843 421.054 449.63 419.613 448.802C418.967 448.435 418.278 448.148 417.562 447.948C418.978 446.777 419.994 445.196 420.473 443.423C420.952 441.649 420.869 439.771 420.236 438.045C419.602 436.319 418.45 434.831 416.937 433.785C415.424 432.739 413.624 432.187 411.786 432.204C411.935 431.994 412.076 431.778 412.209 431.547C413.118 429.977 413.524 428.166 413.373 426.357C413.223 424.549 412.522 422.828 411.365 421.428C410.209 420.027 408.651 419.013 406.902 418.521C405.154 418.029 403.297 418.083 401.581 418.676C402.294 416.892 402.408 414.924 401.908 413.068C401.408 411.212 400.32 409.567 398.806 408.379C397.293 407.191 395.436 406.525 393.513 406.48C391.59 406.435 389.705 407.013 388.141 408.129C388.435 406.396 388.209 404.615 387.492 403.009C386.774 401.404 385.597 400.046 384.108 399.108C382.62 398.17 380.887 397.693 379.129 397.738C377.37 397.783 375.665 398.347 374.229 399.36C374.384 397.668 374.05 395.967 373.267 394.457C372.484 392.948 371.285 391.693 369.812 390.843C368.338 389.992 366.652 389.581 364.954 389.657C363.255 389.734 361.614 390.296 360.226 391.276C360.382 389.584 360.048 387.882 359.266 386.372C358.483 384.863 357.284 383.608 355.811 382.758C354.338 381.907 352.652 381.496 350.954 381.573C349.255 381.651 347.615 382.213 346.227 383.193C346.382 381.501 346.048 379.8 345.265 378.29C344.482 376.78 343.283 375.526 341.809 374.676C340.336 373.825 338.65 373.414 336.952 373.49C335.253 373.567 333.612 374.129 332.224 375.109C332.379 373.417 332.046 371.715 331.264 370.205C330.481 368.696 329.282 367.441 327.809 366.591C326.336 365.74 324.65 365.329 322.951 365.406C321.253 365.484 319.613 366.046 318.225 367.026C318.38 365.334 318.046 363.633 317.263 362.123C316.48 360.613 315.281 359.359 313.807 358.508C312.334 357.658 310.648 357.247 308.949 357.323C307.251 357.4 305.61 357.962 304.222 358.942C304.372 357.251 304.034 355.552 303.249 354.046C302.464 352.539 301.265 351.288 299.792 350.441V350.441Z"/>
</mask>
<path d="M299.792 350.441C298.319 349.591 296.633 349.18 294.935 349.257C293.237 349.334 291.597 349.895 290.209 350.873C290.366 349.157 290.02 347.432 289.214 345.907C288.408 344.382 287.176 343.124 285.669 342.284C284.161 341.445 282.443 341.061 280.722 341.178C279.002 341.296 277.353 341.911 275.977 342.948C276.172 341.069 275.765 339.176 274.813 337.542C273.861 335.909 272.414 334.62 270.682 333.861C268.949 333.103 267.021 332.914 265.176 333.323C263.331 333.732 261.664 334.718 260.418 336.136C260.236 334.258 259.462 332.485 258.206 331.074C256.951 329.663 255.28 328.687 253.434 328.287C251.588 327.886 249.664 328.082 247.938 328.847C246.213 329.611 244.776 330.904 243.835 332.539L243.73 332.72C243.037 331.246 241.953 329.99 240.597 329.088C239.24 328.186 237.662 327.673 236.035 327.604C234.407 327.535 232.793 327.913 231.367 328.697C229.94 329.481 228.757 330.641 227.945 332.051C227.53 332.775 227.218 333.553 227.018 334.364C225.794 332.989 224.174 332.027 222.382 331.61C220.59 331.192 218.713 331.339 217.009 332.031C215.305 332.723 213.859 333.925 212.868 335.473C211.877 337.021 211.391 338.838 211.476 340.675C211.327 340.589 211.193 340.478 211.04 340.39C209.439 339.463 207.589 339.058 205.748 339.229C203.907 339.401 202.166 340.141 200.766 341.347C199.366 342.553 198.378 344.165 197.938 345.959C197.497 347.753 197.627 349.64 198.309 351.359C196.444 350.666 194.402 350.617 192.508 351.22C190.613 351.822 188.976 353.041 187.857 354.682C186.738 356.323 186.201 358.292 186.332 360.275C186.464 362.258 187.255 364.141 188.581 365.623C186.626 365.355 184.637 365.743 182.927 366.726C181.218 367.71 179.884 369.233 179.136 371.057C178.388 372.881 178.267 374.903 178.793 376.805C179.32 378.706 180.463 380.38 182.043 381.564C180.312 381.978 178.746 382.901 177.546 384.215C176.347 385.528 175.57 387.172 175.315 388.932C175.06 390.693 175.339 392.49 176.117 394.092C176.894 395.693 178.134 397.026 179.677 397.917C179.98 398.089 180.293 398.244 180.614 398.382C179.053 399.342 177.827 400.762 177.104 402.446C176.381 404.131 176.197 405.998 176.576 407.792C176.955 409.586 177.879 411.221 179.222 412.472C180.565 413.723 182.262 414.529 184.079 414.781C183.644 415.252 183.263 415.769 182.941 416.323C182.1 417.783 181.691 419.452 181.761 421.136C181.832 422.82 182.379 424.45 183.339 425.837C184.299 427.224 185.633 428.311 187.186 428.971C188.738 429.631 190.446 429.838 192.11 429.567C191.2 431.271 190.87 433.226 191.171 435.135C191.472 437.045 192.387 438.805 193.778 440.15C195.169 441.495 196.96 442.351 198.879 442.588C200.799 442.826 202.743 442.432 204.418 441.467C203.898 443.238 203.944 445.128 204.548 446.873C205.152 448.619 206.285 450.134 207.789 451.209C209.293 452.283 211.094 452.864 212.941 452.87C214.789 452.875 216.592 452.306 218.1 451.241C217.946 452.933 218.28 454.635 219.063 456.144C219.846 457.654 221.045 458.908 222.518 459.759C223.991 460.61 225.677 461.021 227.376 460.944C229.075 460.867 230.715 460.306 232.103 459.326C231.948 461.018 232.281 462.719 233.064 464.229C233.846 465.739 235.045 466.993 236.518 467.844C237.992 468.694 239.677 469.105 241.376 469.028C243.075 468.951 244.715 468.389 246.102 467.408C245.948 469.1 246.282 470.802 247.065 472.312C247.848 473.821 249.047 475.075 250.52 475.926C251.993 476.777 253.679 477.188 255.378 477.111C257.077 477.034 258.717 476.473 260.106 475.493C259.95 477.185 260.283 478.887 261.066 480.396C261.848 481.906 263.047 483.16 264.521 484.011C265.994 484.861 267.68 485.272 269.378 485.195C271.077 485.118 272.717 484.556 274.105 483.575C273.95 485.267 274.284 486.969 275.067 488.479C275.85 489.988 277.049 491.242 278.522 492.093C279.996 492.944 281.681 493.355 283.38 493.278C285.079 493.202 286.72 492.64 288.108 491.66C287.952 493.352 288.286 495.054 289.068 496.563C289.851 498.073 291.049 499.327 292.523 500.178C293.996 501.028 295.682 501.439 297.38 501.362C299.079 501.285 300.719 500.723 302.107 499.742C301.951 501.434 302.285 503.136 303.067 504.646C303.85 506.155 305.048 507.41 306.522 508.26C307.995 509.111 309.681 509.522 311.379 509.445C313.078 509.367 314.718 508.805 316.106 507.825C315.945 509.612 316.328 511.407 317.206 512.975C318.084 514.542 319.416 515.808 321.025 516.606C322.635 517.405 324.448 517.699 326.227 517.45C328.006 517.2 329.667 516.42 330.992 515.21C330.881 517.139 331.401 519.053 332.474 520.662C333.547 522.272 335.114 523.489 336.94 524.13C338.765 524.772 340.749 524.803 342.591 524.218C344.434 523.634 346.036 522.466 347.154 520.89C347.631 522.574 348.594 524.081 349.923 525.223C351.252 526.364 352.887 527.088 354.625 527.306C356.363 527.524 358.126 527.224 359.693 526.446C361.26 525.667 362.562 524.444 363.436 522.929C363.654 522.541 363.845 522.139 364.006 521.724C365.02 523.253 366.482 524.432 368.191 525.1C369.901 525.767 371.774 525.891 373.555 525.454C375.336 525.016 376.938 524.039 378.141 522.657C379.344 521.274 380.089 519.553 380.275 517.73C380.694 518.086 381.144 518.405 381.619 518.682C383.106 519.544 384.81 519.959 386.526 519.875C388.242 519.792 389.896 519.214 391.29 518.212C392.683 517.209 393.756 515.825 394.38 514.226C395.003 512.627 395.15 510.882 394.802 509.2C396.547 510.074 398.53 510.351 400.446 509.988C402.363 509.626 404.106 508.644 405.408 507.194C406.71 505.744 407.499 503.906 407.653 501.963C407.806 500.02 407.317 498.08 406.26 496.44C408.186 496.961 410.23 496.821 412.066 496.043C413.901 495.264 415.421 493.892 416.381 492.146C417.341 490.4 417.687 488.382 417.362 486.415C417.037 484.447 416.061 482.645 414.589 481.298C416.507 481.205 418.342 480.495 419.822 479.274C421.301 478.054 422.346 476.388 422.799 474.524C423.253 472.661 423.091 470.7 422.339 468.934C421.587 467.168 420.284 465.692 418.624 464.725C420.156 464.086 421.478 463.03 422.44 461.679C423.402 460.327 423.967 458.733 424.07 457.077C424.173 455.421 423.81 453.768 423.022 452.306C422.235 450.843 421.054 449.63 419.613 448.802C418.967 448.435 418.278 448.148 417.562 447.948C418.978 446.777 419.994 445.196 420.473 443.423C420.952 441.649 420.869 439.771 420.236 438.045C419.602 436.319 418.45 434.831 416.937 433.785C415.424 432.739 413.624 432.187 411.786 432.204C411.935 431.994 412.076 431.778 412.209 431.547C413.118 429.977 413.524 428.166 413.373 426.357C413.223 424.549 412.522 422.828 411.365 421.428C410.209 420.027 408.651 419.013 406.902 418.521C405.154 418.029 403.297 418.083 401.581 418.676C402.294 416.892 402.408 414.924 401.908 413.068C401.408 411.212 400.32 409.567 398.806 408.379C397.293 407.191 395.436 406.525 393.513 406.48C391.59 406.435 389.705 407.013 388.141 408.129C388.435 406.396 388.209 404.615 387.492 403.009C386.774 401.404 385.597 400.046 384.108 399.108C382.62 398.17 380.887 397.693 379.129 397.738C377.37 397.783 375.665 398.347 374.229 399.36C374.384 397.668 374.05 395.967 373.267 394.457C372.484 392.948 371.285 391.693 369.812 390.843C368.338 389.992 366.652 389.581 364.954 389.657C363.255 389.734 361.614 390.296 360.226 391.276C360.382 389.584 360.048 387.882 359.266 386.372C358.483 384.863 357.284 383.608 355.811 382.758C354.338 381.907 352.652 381.496 350.954 381.573C349.255 381.651 347.615 382.213 346.227 383.193C346.382 381.501 346.048 379.8 345.265 378.29C344.482 376.78 343.283 375.526 341.809 374.676C340.336 373.825 338.65 373.414 336.952 373.49C335.253 373.567 333.612 374.129 332.224 375.109C332.379 373.417 332.046 371.715 331.264 370.205C330.481 368.696 329.282 367.441 327.809 366.591C326.336 365.74 324.65 365.329 322.951 365.406C321.253 365.484 319.613 366.046 318.225 367.026C318.38 365.334 318.046 363.633 317.263 362.123C316.48 360.613 315.281 359.359 313.807 358.508C312.334 357.658 310.648 357.247 308.949 357.323C307.251 357.4 305.61 357.962 304.222 358.942C304.372 357.251 304.034 355.552 303.249 354.046C302.464 352.539 301.265 351.288 299.792 350.441V350.441Z" fill="#010AC9"/>
<path d="M299.792 350.441C298.319 349.591 296.633 349.18 294.935 349.257C293.237 349.334 291.597 349.895 290.209 350.873C290.366 349.157 290.02 347.432 289.214 345.907C288.408 344.382 287.176 343.124 285.669 342.284C284.161 341.445 282.443 341.061 280.722 341.178C279.002 341.296 277.353 341.911 275.977 342.948C276.172 341.069 275.765 339.176 274.813 337.542C273.861 335.909 272.414 334.62 270.682 333.861C268.949 333.103 267.021 332.914 265.176 333.323C263.331 333.732 261.664 334.718 260.418 336.136C260.236 334.258 259.462 332.485 258.206 331.074C256.951 329.663 255.28 328.687 253.434 328.287C251.588 327.886 249.664 328.082 247.938 328.847C246.213 329.611 244.776 330.904 243.835 332.539L243.73 332.72C243.037 331.246 241.953 329.99 240.597 329.088C239.24 328.186 237.662 327.673 236.035 327.604C234.407 327.535 232.793 327.913 231.367 328.697C229.94 329.481 228.757 330.641 227.945 332.051C227.53 332.775 227.218 333.553 227.018 334.364C225.794 332.989 224.174 332.027 222.382 331.61C220.59 331.192 218.713 331.339 217.009 332.031C215.305 332.723 213.859 333.925 212.868 335.473C211.877 337.021 211.391 338.838 211.476 340.675C211.327 340.589 211.193 340.478 211.04 340.39C209.439 339.463 207.589 339.058 205.748 339.229C203.907 339.401 202.166 340.141 200.766 341.347C199.366 342.553 198.378 344.165 197.938 345.959C197.497 347.753 197.627 349.64 198.309 351.359C196.444 350.666 194.402 350.617 192.508 351.22C190.613 351.822 188.976 353.041 187.857 354.682C186.738 356.323 186.201 358.292 186.332 360.275C186.464 362.258 187.255 364.141 188.581 365.623C186.626 365.355 184.637 365.743 182.927 366.726C181.218 367.71 179.884 369.233 179.136 371.057C178.388 372.881 178.267 374.903 178.793 376.805C179.32 378.706 180.463 380.38 182.043 381.564C180.312 381.978 178.746 382.901 177.546 384.215C176.347 385.528 175.57 387.172 175.315 388.932C175.06 390.693 175.339 392.49 176.117 394.092C176.894 395.693 178.134 397.026 179.677 397.917C179.98 398.089 180.293 398.244 180.614 398.382C179.053 399.342 177.827 400.762 177.104 402.446C176.381 404.131 176.197 405.998 176.576 407.792C176.955 409.586 177.879 411.221 179.222 412.472C180.565 413.723 182.262 414.529 184.079 414.781C183.644 415.252 183.263 415.769 182.941 416.323C182.1 417.783 181.691 419.452 181.761 421.136C181.832 422.82 182.379 424.45 183.339 425.837C184.299 427.224 185.633 428.311 187.186 428.971C188.738 429.631 190.446 429.838 192.11 429.567C191.2 431.271 190.87 433.226 191.171 435.135C191.472 437.045 192.387 438.805 193.778 440.15C195.169 441.495 196.96 442.351 198.879 442.588C200.799 442.826 202.743 442.432 204.418 441.467C203.898 443.238 203.944 445.128 204.548 446.873C205.152 448.619 206.285 450.134 207.789 451.209C209.293 452.283 211.094 452.864 212.941 452.87C214.789 452.875 216.592 452.306 218.1 451.241C217.946 452.933 218.28 454.635 219.063 456.144C219.846 457.654 221.045 458.908 222.518 459.759C223.991 460.61 225.677 461.021 227.376 460.944C229.075 460.867 230.715 460.306 232.103 459.326C231.948 461.018 232.281 462.719 233.064 464.229C233.846 465.739 235.045 466.993 236.518 467.844C237.992 468.694 239.677 469.105 241.376 469.028C243.075 468.951 244.715 468.389 246.102 467.408C245.948 469.1 246.282 470.802 247.065 472.312C247.848 473.821 249.047 475.075 250.52 475.926C251.993 476.777 253.679 477.188 255.378 477.111C257.077 477.034 258.717 476.473 260.106 475.493C259.95 477.185 260.283 478.887 261.066 480.396C261.848 481.906 263.047 483.16 264.521 484.011C265.994 484.861 267.68 485.272 269.378 485.195C271.077 485.118 272.717 484.556 274.105 483.575C273.95 485.267 274.284 486.969 275.067 488.479C275.85 489.988 277.049 491.242 278.522 492.093C279.996 492.944 281.681 493.355 283.38 493.278C285.079 493.202 286.72 492.64 288.108 491.66C287.952 493.352 288.286 495.054 289.068 496.563C289.851 498.073 291.049 499.327 292.523 500.178C293.996 501.028 295.682 501.439 297.38 501.362C299.079 501.285 300.719 500.723 302.107 499.742C301.951 501.434 302.285 503.136 303.067 504.646C303.85 506.155 305.048 507.41 306.522 508.26C307.995 509.111 309.681 509.522 311.379 509.445C313.078 509.367 314.718 508.805 316.106 507.825C315.945 509.612 316.328 511.407 317.206 512.975C318.084 514.542 319.416 515.808 321.025 516.606C322.635 517.405 324.448 517.699 326.227 517.45C328.006 517.2 329.667 516.42 330.992 515.21C330.881 517.139 331.401 519.053 332.474 520.662C333.547 522.272 335.114 523.489 336.94 524.13C338.765 524.772 340.749 524.803 342.591 524.218C344.434 523.634 346.036 522.466 347.154 520.89C347.631 522.574 348.594 524.081 349.923 525.223C351.252 526.364 352.887 527.088 354.625 527.306C356.363 527.524 358.126 527.224 359.693 526.446C361.26 525.667 362.562 524.444 363.436 522.929C363.654 522.541 363.845 522.139 364.006 521.724C365.02 523.253 366.482 524.432 368.191 525.1C369.901 525.767 371.774 525.891 373.555 525.454C375.336 525.016 376.938 524.039 378.141 522.657C379.344 521.274 380.089 519.553 380.275 517.73C380.694 518.086 381.144 518.405 381.619 518.682C383.106 519.544 384.81 519.959 386.526 519.875C388.242 519.792 389.896 519.214 391.29 518.212C392.683 517.209 393.756 515.825 394.38 514.226C395.003 512.627 395.15 510.882 394.802 509.2C396.547 510.074 398.53 510.351 400.446 509.988C402.363 509.626 404.106 508.644 405.408 507.194C406.71 505.744 407.499 503.906 407.653 501.963C407.806 500.02 407.317 498.08 406.26 496.44C408.186 496.961 410.23 496.821 412.066 496.043C413.901 495.264 415.421 493.892 416.381 492.146C417.341 490.4 417.687 488.382 417.362 486.415C417.037 484.447 416.061 482.645 414.589 481.298C416.507 481.205 418.342 480.495 419.822 479.274C421.301 478.054 422.346 476.388 422.799 474.524C423.253 472.661 423.091 470.7 422.339 468.934C421.587 467.168 420.284 465.692 418.624 464.725C420.156 464.086 421.478 463.03 422.44 461.679C423.402 460.327 423.967 458.733 424.07 457.077C424.173 455.421 423.81 453.768 423.022 452.306C422.235 450.843 421.054 449.63 419.613 448.802C418.967 448.435 418.278 448.148 417.562 447.948C418.978 446.777 419.994 445.196 420.473 443.423C420.952 441.649 420.869 439.771 420.236 438.045C419.602 436.319 418.45 434.831 416.937 433.785C415.424 432.739 413.624 432.187 411.786 432.204C411.935 431.994 412.076 431.778 412.209 431.547C413.118 429.977 413.524 428.166 413.373 426.357C413.223 424.549 412.522 422.828 411.365 421.428C410.209 420.027 408.651 419.013 406.902 418.521C405.154 418.029 403.297 418.083 401.581 418.676C402.294 416.892 402.408 414.924 401.908 413.068C401.408 411.212 400.32 409.567 398.806 408.379C397.293 407.191 395.436 406.525 393.513 406.48C391.59 406.435 389.705 407.013 388.141 408.129C388.435 406.396 388.209 404.615 387.492 403.009C386.774 401.404 385.597 400.046 384.108 399.108C382.62 398.17 380.887 397.693 379.129 397.738C377.37 397.783 375.665 398.347 374.229 399.36C374.384 397.668 374.05 395.967 373.267 394.457C372.484 392.948 371.285 391.693 369.812 390.843C368.338 389.992 366.652 389.581 364.954 389.657C363.255 389.734 361.614 390.296 360.226 391.276C360.382 389.584 360.048 387.882 359.266 386.372C358.483 384.863 357.284 383.608 355.811 382.758C354.338 381.907 352.652 381.496 350.954 381.573C349.255 381.651 347.615 382.213 346.227 383.193C346.382 381.501 346.048 379.8 345.265 378.29C344.482 376.78 343.283 375.526 341.809 374.676C340.336 373.825 338.65 373.414 336.952 373.49C335.253 373.567 333.612 374.129 332.224 375.109C332.379 373.417 332.046 371.715 331.264 370.205C330.481 368.696 329.282 367.441 327.809 366.591C326.336 365.74 324.65 365.329 322.951 365.406C321.253 365.484 319.613 366.046 318.225 367.026C318.38 365.334 318.046 363.633 317.263 362.123C316.48 360.613 315.281 359.359 313.807 358.508C312.334 357.658 310.648 357.247 308.949 357.323C307.251 357.4 305.61 357.962 304.222 358.942C304.372 357.251 304.034 355.552 303.249 354.046C302.464 352.539 301.265 351.288 299.792 350.441V350.441Z" stroke="black" stroke-width="8" mask="url(#path-9-outside-3_54_5130)"/>
<path d="M494.053 1526.64C492.875 1526.19 491.636 1525.95 490.392 1525.92C490.534 1524.7 490.471 1523.45 490.198 1522.23C489.685 1519.94 488.455 1517.87 486.687 1516.33C484.918 1514.8 482.705 1513.87 480.372 1513.7C479.157 1513.61 477.945 1513.72 476.783 1514.03C476.52 1512.38 475.885 1510.81 474.917 1509.43C473.612 1507.57 471.765 1506.17 469.629 1505.41C467.493 1504.66 465.177 1504.59 463.002 1505.22C461.991 1505.51 461.034 1505.95 460.159 1506.52C459.627 1505.31 458.88 1504.2 457.946 1503.25C456.161 1501.44 453.801 1500.3 451.273 1500.05C448.744 1499.8 446.209 1500.45 444.105 1501.88C443.174 1502.51 442.354 1503.28 441.667 1504.15C440.979 1503.28 440.159 1502.51 439.228 1501.88C437.124 1500.45 434.589 1499.8 432.061 1500.05C429.532 1500.3 427.173 1501.44 425.388 1503.25C424.453 1504.2 423.706 1505.31 423.174 1506.52C422.299 1505.95 421.342 1505.51 420.33 1505.22C418.155 1504.59 415.838 1504.66 413.702 1505.41C411.566 1506.17 409.719 1507.57 408.414 1509.43C407.445 1510.81 406.81 1512.39 406.549 1514.04C405.388 1513.74 404.177 1513.62 402.964 1513.71C400.635 1513.89 398.425 1514.81 396.658 1516.35C394.892 1517.88 393.663 1519.95 393.148 1522.23C392.873 1523.45 392.808 1524.7 392.949 1525.93C391.703 1525.95 390.463 1526.2 389.284 1526.65C387.081 1527.51 385.214 1529.05 383.963 1531.06C382.711 1533.07 382.14 1535.44 382.333 1537.8C382.433 1539.02 382.735 1540.21 383.22 1541.32C381.912 1541.71 380.682 1542.36 379.596 1543.22C377.674 1544.75 376.322 1546.89 375.753 1549.28C375.185 1551.68 375.432 1554.2 376.455 1556.44C376.93 1557.47 377.558 1558.42 378.314 1559.25C377.266 1559.88 376.324 1560.69 375.531 1561.65C373.894 1563.62 373 1566.11 373 1568.68C373 1571.25 373.894 1573.74 375.531 1575.72C376.324 1576.68 377.266 1577.48 378.314 1578.11C377.558 1578.94 376.93 1579.89 376.455 1580.93C375.432 1583.17 375.185 1585.69 375.753 1588.08C376.322 1590.48 377.674 1592.61 379.596 1594.14C380.687 1595.01 381.925 1595.66 383.24 1596.05C382.764 1597.16 382.47 1598.34 382.376 1599.56C382.194 1601.91 382.769 1604.26 384.017 1606.26C385.265 1608.25 387.121 1609.8 389.311 1610.65C390.482 1611.1 391.714 1611.35 392.952 1611.38C392.811 1612.61 392.876 1613.86 393.152 1615.08C393.669 1617.37 394.899 1619.43 396.665 1620.96C398.431 1622.5 400.641 1623.42 402.969 1623.59C404.181 1623.68 405.39 1623.57 406.549 1623.26C406.811 1624.91 407.445 1626.49 408.414 1627.87C409.719 1629.73 411.566 1631.14 413.702 1631.89C415.838 1632.65 418.155 1632.71 420.33 1632.08C421.339 1631.79 422.294 1631.35 423.168 1630.79C423.698 1632 424.442 1633.1 425.374 1634.06C427.156 1635.88 429.515 1637.01 432.045 1637.27C434.575 1637.53 437.112 1636.88 439.219 1635.45C440.153 1634.82 440.975 1634.05 441.665 1633.18C442.352 1634.05 443.173 1634.82 444.104 1635.45C446.207 1636.88 448.741 1637.53 451.27 1637.28C453.799 1637.03 456.158 1635.9 457.943 1634.08C458.878 1633.13 459.626 1632.02 460.158 1630.82C461.034 1631.38 461.991 1631.82 463.003 1632.12C465.179 1632.75 467.495 1632.68 469.632 1631.93C471.768 1631.17 473.615 1629.76 474.919 1627.91C475.888 1626.53 476.523 1624.95 476.784 1623.29C477.946 1623.6 479.157 1623.72 480.371 1623.63C482.702 1623.45 484.913 1622.52 486.679 1620.99C488.446 1619.45 489.675 1617.39 490.19 1615.1C490.464 1613.88 490.528 1612.63 490.386 1611.4C491.629 1611.37 492.865 1611.13 494.04 1610.67C496.239 1609.82 498.101 1608.27 499.351 1606.27C500.601 1604.26 501.173 1601.9 500.984 1599.55C500.887 1598.33 500.587 1597.14 500.106 1596.03C501.416 1595.63 502.65 1594.99 503.737 1594.13C505.659 1592.6 507.011 1590.46 507.58 1588.06C508.149 1585.67 507.902 1583.15 506.878 1580.91C506.403 1579.87 505.773 1578.92 505.017 1578.09C506.065 1577.46 507.009 1576.65 507.802 1575.69C509.439 1573.72 510.333 1571.23 510.333 1568.66C510.333 1566.09 509.439 1563.6 507.802 1561.62C507.006 1560.66 506.058 1559.85 505.004 1559.22C505.753 1558.39 506.376 1557.44 506.846 1556.41C507.858 1554.17 508.1 1551.67 507.533 1549.28C506.966 1546.89 505.622 1544.77 503.711 1543.24C502.634 1542.38 501.412 1541.73 500.113 1541.33C500.602 1540.22 500.907 1539.03 501.009 1537.8C501.204 1535.44 500.634 1533.07 499.381 1531.06C498.128 1529.05 496.259 1527.5 494.053 1526.64Z" fill="#010AC9" stroke="black" stroke-width="4"/>
<path d="M710.397 118.835C737.213 92.0195 737.213 48.5422 710.397 21.7262C683.581 -5.08977 640.104 -5.08978 613.288 21.7262L424.726 210.288C397.91 237.104 397.91 280.581 424.726 307.397C451.542 334.213 495.02 334.213 521.836 307.397L710.397 118.835Z" fill="#F2F2F2" stroke="black" stroke-width="4"/>
<path d="M139.333 447.667C139.333 409.743 108.59 379 70.6666 379C32.7431 379 2 409.743 2 447.667C2 485.59 32.7431 516.333 70.6666 516.333C108.59 516.333 139.333 485.59 139.333 447.667Z" fill="#FFD916" stroke="black" stroke-width="4"/>
<path d="M806.578 100.073L814.089 107.665L814.058 107.697L814.103 107.721L809.089 117.197L808.164 118.946L809.903 119.89L818.952 124.802L816.823 134.964L816.415 136.913L818.362 137.33L828.26 139.45L828.962 149.668L829.099 151.666L831.097 151.526L841.227 150.813L844.709 160.462L845.393 162.356L847.282 161.66L857.046 158.062L863.213 166.512L864.409 168.151L866.031 166.932L874.521 160.547L874.667 160.746L874.813 160.547L883.308 166.932L884.925 168.148L886.122 166.516L892.318 158.069L902.072 161.656L903.959 162.35L904.643 160.458L908.129 150.809L918.255 151.521L920.253 151.661L920.39 149.663L921.092 139.445L930.99 137.325L932.937 136.908L932.529 134.959L930.401 124.797L939.449 119.885L941.19 118.94L940.262 117.19L935.251 107.742L935.299 107.716L935.239 107.656L942.755 100.059L944.147 98.6522L942.755 97.2456L935.235 89.6438L935.237 89.6411L935.225 89.6344L935.218 89.6271L940.266 80.1248L941.197 78.3732L939.453 77.4281L930.415 72.5303L932.543 62.369L932.951 60.4204L931.005 60.0034L921.106 57.8834L920.405 47.6656L920.268 45.6671L918.269 45.8076L908.138 46.5199L904.643 36.8552L903.958 34.9631L902.07 35.6589L892.303 39.2581L886.118 30.8178L884.923 29.1866L883.305 30.4L874.809 36.7721L874.667 36.5781L874.524 36.7721L866.029 30.4L864.412 29.1878L863.216 30.8162L857.017 39.2581L847.264 35.6592L845.374 34.9618L844.69 36.8566L841.208 46.5054L831.078 45.7931L829.082 45.6528L828.943 47.649L828.229 57.883L818.329 60.0034L816.382 60.4204L816.79 62.369L818.918 72.5314L809.87 77.4432L808.126 78.3895L809.058 80.1404L814.102 89.6186L814.096 89.6218L814.112 89.6382L814.114 89.6423L806.578 97.2601L805.187 98.6666L806.578 100.073Z" fill="#FF1A87" stroke="black" stroke-width="4"/>
</svg>
