<svg width="766" height="789" viewBox="0 0 766 789" fill="none" xmlns="http://www.w3.org/2000/svg">
<rect x="67.665" y="2.665" width="54.67" height="254.67" rx="27.335" fill="#F2F2F2" stroke="black" stroke-width="5.33"/>
<path d="M68.8314 98.1813L67.5523 98.96V100.458V230.427C67.5523 245.549 79.8494 257.792 94.9999 257.792C110.15 257.792 122.448 245.549 122.448 230.427V105.257V101.858L119.147 102.668C113.109 104.151 106.988 102.984 100.628 98.8412C95.4667 95.479 90.164 93.6553 84.7521 93.54C79.3365 93.4247 74.0161 95.0247 68.8314 98.1813Z" fill="#FF5903" stroke="black" stroke-width="5.33"/>
<rect x="131.665" y="266.665" width="54.67" height="254.67" rx="27.335" fill="#F2F2F2" stroke="black" stroke-width="5.33"/>
<path d="M132.831 362.181L131.552 362.96V364.458V494.427C131.552 509.549 143.849 521.792 159 521.792C174.15 521.792 186.448 509.549 186.448 494.427V369.257V365.858L183.147 366.668C177.109 368.151 170.988 366.984 164.628 362.841C159.467 359.479 154.164 357.655 148.752 357.54C143.337 357.425 138.016 359.025 132.831 362.181Z" fill="#FFD916" stroke="black" stroke-width="5.33"/>
<rect x="67.665" y="530.665" width="54.67" height="254.67" rx="27.335" fill="#F2F2F2" stroke="black" stroke-width="5.33"/>
<path d="M68.8314 626.181L67.5523 626.96V628.458V758.427C67.5523 773.549 79.8494 785.792 94.9999 785.792C110.15 785.792 122.448 773.549 122.448 758.427V633.257V629.858L119.147 630.668C113.109 632.151 106.988 630.984 100.628 626.841C95.4667 623.479 90.164 621.655 84.7521 621.54C79.3365 621.425 74.0161 623.025 68.8314 626.181Z" fill="#FF1A87" stroke="black" stroke-width="5.33"/>
<rect x="643.665" y="2.665" width="54.67" height="254.67" rx="27.335" fill="#F2F2F2" stroke="black" stroke-width="5.33"/>
<path d="M644.831 98.1815L643.552 98.9603V100.458V230.427C643.552 245.549 655.849 257.792 670.999 257.792C686.15 257.792 698.447 245.549 698.447 230.427V105.257V101.858L695.147 102.669C689.108 104.151 682.987 102.984 676.628 98.8412C671.466 95.479 666.164 93.6552 660.752 93.54C655.336 93.4247 650.016 95.0248 644.831 98.1815Z" fill="#FF5903" stroke="black" stroke-width="5.33"/>
<rect x="707.665" y="266.665" width="54.67" height="254.67" rx="27.335" fill="#F2F2F2" stroke="black" stroke-width="5.33"/>
<path d="M708.831 362.181L707.552 362.96V364.458V494.427C707.552 509.549 719.849 521.792 734.999 521.792C750.15 521.792 762.447 509.549 762.447 494.427V369.257V365.858L759.147 366.669C753.108 368.151 746.987 366.984 740.628 362.841C735.466 359.479 730.164 357.655 724.752 357.54C719.336 357.425 714.016 359.025 708.831 362.181Z" fill="#FFD916" stroke="black" stroke-width="5.33"/>
<rect x="643.665" y="530.665" width="54.67" height="254.67" rx="27.335" fill="#F2F2F2" stroke="black" stroke-width="5.33"/>
<path d="M644.831 626.181L643.552 626.96V628.458V758.427C643.552 773.549 655.849 785.792 670.999 785.792C686.15 785.792 698.447 773.549 698.447 758.427V633.257V629.858L695.147 630.669C689.108 632.151 682.987 630.984 676.628 626.841C671.466 623.479 666.164 621.655 660.752 621.54C655.336 621.425 650.016 623.025 644.831 626.181Z" fill="#FF1A87" stroke="black" stroke-width="5.33"/>
<rect x="259.665" y="2.665" width="54.67" height="254.67" rx="27.335" fill="#F2F2F2" stroke="black" stroke-width="5.33"/>
<path d="M263.65 98.6165L259.553 96.0058V100.864V230.427C259.553 245.549 271.85 257.792 287 257.792C302.151 257.792 314.448 245.549 314.448 230.427V96.6085V94.3995L312.277 93.9897C305.052 92.626 297.928 94.3439 291.024 98.8412C286.383 101.865 281.891 103.284 277.511 103.284C273.132 103.284 268.64 101.865 263.999 98.8412C263.882 98.7655 263.766 98.6906 263.65 98.6165Z" fill="#FF5903" stroke="black" stroke-width="5.33"/>
<rect x="323.665" y="266.665" width="54.67" height="254.67" rx="27.335" fill="#F2F2F2" stroke="black" stroke-width="5.33"/>
<path d="M327.65 362.617L323.553 360.006V364.864V494.427C323.553 509.549 335.85 521.792 351 521.792C366.151 521.792 378.448 509.549 378.448 494.427V360.608V358.399L376.277 357.99C369.052 356.626 361.928 358.344 355.024 362.841C350.383 365.865 345.891 367.284 341.511 367.284C337.132 367.284 332.64 365.865 327.999 362.841C327.882 362.766 327.766 362.691 327.65 362.617Z" fill="#FFD916" stroke="black" stroke-width="5.33"/>
<rect x="259.665" y="530.665" width="54.67" height="254.67" rx="27.335" fill="#F2F2F2" stroke="black" stroke-width="5.33"/>
<path d="M263.65 626.617L259.553 624.006V628.864V758.427C259.553 773.549 271.85 785.792 287 785.792C302.151 785.792 314.448 773.549 314.448 758.427V624.608V622.399L312.277 621.99C305.052 620.626 297.928 622.344 291.024 626.841C286.383 629.865 281.891 631.284 277.511 631.284C273.132 631.284 268.64 629.865 263.999 626.841C263.882 626.766 263.766 626.691 263.65 626.617Z" fill="#FF1A87" stroke="black" stroke-width="5.33"/>
<rect x="451.665" y="2.665" width="54.67" height="254.67" rx="27.335" fill="#F2F2F2" stroke="black" stroke-width="5.33"/>
<path d="M455.649 98.6161L451.552 96.0055V100.864V230.427C451.552 245.549 463.849 257.792 479 257.792C494.15 257.792 506.448 245.549 506.448 230.427V96.6084V94.3993L504.277 93.9896C497.052 92.6261 489.928 94.3441 483.024 98.8412C478.383 101.865 473.891 103.284 469.512 103.284C465.132 103.284 460.64 101.865 455.999 98.8412C455.882 98.7654 455.766 98.6903 455.649 98.6161Z" fill="#FF5903" stroke="black" stroke-width="5.33"/>
<rect x="515.665" y="266.665" width="54.67" height="254.67" rx="27.335" fill="#F2F2F2" stroke="black" stroke-width="5.33"/>
<path d="M519.649 362.616L515.552 360.005V364.864V494.427C515.552 509.549 527.849 521.792 543 521.792C558.15 521.792 570.448 509.549 570.448 494.427V360.608V358.399L568.277 357.99C561.052 356.626 553.928 358.344 547.024 362.841C542.383 365.865 537.891 367.284 533.512 367.284C529.132 367.284 524.64 365.865 519.999 362.841C519.882 362.765 519.766 362.69 519.649 362.616Z" fill="#FFD916" stroke="black" stroke-width="5.33"/>
<rect x="451.665" y="530.665" width="54.67" height="254.67" rx="27.335" fill="#F2F2F2" stroke="black" stroke-width="5.33"/>
<path d="M455.649 626.616L451.552 624.005V628.864V758.427C451.552 773.549 463.849 785.792 479 785.792C494.15 785.792 506.448 773.549 506.448 758.427V624.608V622.399L504.277 621.99C497.052 620.626 489.928 622.344 483.024 626.841C478.383 629.865 473.891 631.284 469.512 631.284C465.132 631.284 460.64 629.865 455.999 626.841C455.882 626.765 455.766 626.69 455.649 626.616Z" fill="#FF1A87" stroke="black" stroke-width="5.33"/>
<rect x="195.665" y="2.665" width="54.67" height="254.67" rx="27.335" fill="#F2F2F2" stroke="black" stroke-width="5.33"/>
<path d="M198.748 102.866L195.553 102.217V105.477V230.429C195.553 245.55 207.85 257.794 223.001 257.794C238.151 257.794 250.448 245.55 250.448 230.429V101.076V99.631L249.238 98.8425C243.901 95.366 238.415 93.5357 232.816 93.5357C227.218 93.5357 221.731 95.3661 216.394 98.8427C210.33 102.793 204.49 104.031 198.748 102.866Z" fill="#FF5903" stroke="black" stroke-width="5.33"/>
<rect x="259.665" y="266.665" width="54.67" height="254.67" rx="27.335" fill="#F2F2F2" stroke="black" stroke-width="5.33"/>
<path d="M262.748 366.866L259.553 366.217V369.477V494.429C259.553 509.55 271.85 521.794 287.001 521.794C302.151 521.794 314.448 509.55 314.448 494.429V365.076V363.631L313.238 362.843C307.901 359.366 302.415 357.536 296.816 357.536C291.218 357.536 285.731 359.366 280.394 362.843C274.33 366.793 268.49 368.031 262.748 366.866Z" fill="#FFD916" stroke="black" stroke-width="5.33"/>
<rect x="195.665" y="530.665" width="54.67" height="254.67" rx="27.335" fill="#F2F2F2" stroke="black" stroke-width="5.33"/>
<path d="M198.748 630.866L195.553 630.217V633.477V758.429C195.553 773.55 207.85 785.794 223.001 785.794C238.151 785.794 250.448 773.55 250.448 758.429V629.076V627.631L249.238 626.843C243.901 623.366 238.415 621.536 232.816 621.536C227.218 621.536 221.731 623.366 216.394 626.843C210.33 630.793 204.49 632.031 198.748 630.866Z" fill="#FF1A87" stroke="black" stroke-width="5.33"/>
<rect x="515.665" y="2.665" width="54.67" height="254.67" rx="27.335" fill="#F2F2F2" stroke="black" stroke-width="5.33"/>
<path d="M518.748 102.866L515.553 102.217V105.477V230.426C515.553 245.548 527.85 257.791 543.001 257.791C558.151 257.791 570.448 245.548 570.448 230.426V101.076V99.631L569.238 98.8425C563.901 95.366 558.415 93.5357 552.816 93.5357C547.218 93.5357 541.731 95.3661 536.394 98.8427C530.33 102.793 524.49 104.031 518.748 102.866Z" fill="#FF5903" stroke="black" stroke-width="5.33"/>
<rect x="579.665" y="266.665" width="54.67" height="254.67" rx="27.335" fill="#F2F2F2" stroke="black" stroke-width="5.33"/>
<path d="M582.748 366.866L579.553 366.217V369.477V494.426C579.553 509.548 591.85 521.791 607.001 521.791C622.151 521.791 634.448 509.548 634.448 494.426V365.076V363.631L633.238 362.843C627.901 359.366 622.415 357.536 616.816 357.536C611.218 357.536 605.731 359.366 600.394 362.843C594.33 366.793 588.49 368.031 582.748 366.866Z" fill="#FFD916" stroke="black" stroke-width="5.33"/>
<rect x="515.665" y="530.665" width="54.67" height="254.67" rx="27.335" fill="#F2F2F2" stroke="black" stroke-width="5.33"/>
<path d="M518.748 630.866L515.553 630.217V633.477V758.426C515.553 773.548 527.85 785.791 543.001 785.791C558.151 785.791 570.448 773.548 570.448 758.426V629.076V627.631L569.238 626.843C563.901 623.366 558.415 621.536 552.816 621.536C547.218 621.536 541.731 623.366 536.394 626.843C530.33 630.793 524.49 632.031 518.748 630.866Z" fill="#FF1A87" stroke="black" stroke-width="5.33"/>
<rect x="131.665" y="2.665" width="54.67" height="254.67" rx="27.335" fill="#F2F2F2" stroke="black" stroke-width="5.33"/>
<path d="M133.582 102.67L131.552 103.168V105.258V230.429C131.552 245.55 143.849 257.794 159 257.794C174.15 257.794 186.448 245.55 186.448 230.429V105.477V103.299L184.313 102.866C181.258 102.246 178.133 100.927 174.933 98.8427C169.596 95.3661 164.11 93.5357 158.511 93.5357C152.913 93.5357 147.426 95.3661 142.089 98.8427C139.192 100.73 136.357 101.989 133.582 102.67Z" fill="#FF5903" stroke="black" stroke-width="5.33"/>
<rect x="195.665" y="266.665" width="54.67" height="254.67" rx="27.335" fill="#F2F2F2" stroke="black" stroke-width="5.33"/>
<path d="M197.582 366.67L195.552 367.168V369.258V494.429C195.552 509.55 207.849 521.794 223 521.794C238.15 521.794 250.448 509.55 250.448 494.429V369.477V367.299L248.313 366.866C245.258 366.246 242.133 364.927 238.933 362.843C233.596 359.366 228.11 357.536 222.511 357.536C216.913 357.536 211.426 359.366 206.089 362.843C203.192 364.73 200.357 365.989 197.582 366.67Z" fill="#FFD916" stroke="black" stroke-width="5.33"/>
<rect x="131.665" y="530.665" width="54.67" height="254.67" rx="27.335" fill="#F2F2F2" stroke="black" stroke-width="5.33"/>
<path d="M133.582 630.67L131.552 631.168V633.258V758.429C131.552 773.55 143.849 785.794 159 785.794C174.15 785.794 186.448 773.55 186.448 758.429V633.477V631.299L184.313 630.866C181.258 630.246 178.133 628.927 174.933 626.843C169.596 623.366 164.11 621.536 158.511 621.536C152.913 621.536 147.426 623.366 142.089 626.843C139.192 628.73 136.357 629.989 133.582 630.67Z" fill="#FF1A87" stroke="black" stroke-width="5.33"/>
<rect x="579.665" y="2.665" width="54.67" height="254.67" rx="27.335" fill="#F2F2F2" stroke="black" stroke-width="5.33"/>
<path d="M581.582 102.67L579.552 103.168V105.258V230.429C579.552 245.551 591.849 257.794 607 257.794C622.15 257.794 634.448 245.551 634.448 230.429V105.477V103.299L632.313 102.866C629.258 102.246 626.133 100.927 622.933 98.8427C617.596 95.3661 612.11 93.5357 606.511 93.5357C600.913 93.5357 595.426 95.3661 590.089 98.8427C587.192 100.73 584.357 101.989 581.582 102.67Z" fill="#FF5903" stroke="black" stroke-width="5.33"/>
<rect x="643.665" y="266.665" width="54.67" height="254.67" rx="27.335" fill="#F2F2F2" stroke="black" stroke-width="5.33"/>
<path d="M645.582 366.67L643.552 367.168V369.258V494.429C643.552 509.551 655.849 521.794 671 521.794C686.15 521.794 698.448 509.551 698.448 494.429V369.477V367.299L696.313 366.866C693.258 366.246 690.133 364.927 686.933 362.843C681.596 359.366 676.11 357.536 670.511 357.536C664.913 357.536 659.426 359.366 654.089 362.843C651.192 364.73 648.357 365.989 645.582 366.67Z" fill="#FFD916" stroke="black" stroke-width="5.33"/>
<rect x="579.665" y="530.665" width="54.67" height="254.67" rx="27.335" fill="#F2F2F2" stroke="black" stroke-width="5.33"/>
<path d="M581.582 630.67L579.552 631.168V633.258V758.429C579.552 773.551 591.849 785.794 607 785.794C622.15 785.794 634.448 773.551 634.448 758.429V633.477V631.299L632.313 630.866C629.258 630.246 626.133 628.927 622.933 626.843C617.596 623.366 612.11 621.536 606.511 621.536C600.913 621.536 595.426 623.366 590.089 626.843C587.192 628.73 584.357 629.989 581.582 630.67Z" fill="#FF1A87" stroke="black" stroke-width="5.33"/>
<rect x="3.665" y="2.665" width="54.67" height="254.67" rx="27.335" fill="#F2F2F2" stroke="black" stroke-width="5.33"/>
<path d="M5.54732 94.3958L3.55229 94.914V96.9752V230.425C3.55229 245.547 15.8494 257.79 30.9999 257.79C46.1504 257.79 58.4475 245.547 58.4475 230.425V101.888V97.2029L54.4204 99.5975C50.0108 102.22 45.7321 103.396 41.5432 103.277C37.3495 103.158 33.0476 101.735 28.6072 98.8422C21.1078 93.957 13.3662 92.365 5.54732 94.3958Z" fill="#FF5903" stroke="black" stroke-width="5.33"/>
<rect x="67.665" y="266.665" width="54.67" height="254.67" rx="27.335" fill="#F2F2F2" stroke="black" stroke-width="5.33"/>
<path d="M69.5473 358.396L67.5523 358.914V360.975V494.425C67.5523 509.547 79.8494 521.79 94.9999 521.79C110.15 521.79 122.448 509.547 122.448 494.425V365.888V361.203L118.42 363.598C114.011 366.22 109.732 367.396 105.543 367.277C101.349 367.158 97.0476 365.735 92.6072 362.842C85.1078 357.957 77.3662 356.365 69.5473 358.396Z" fill="#FFD916" stroke="black" stroke-width="5.33"/>
<rect x="3.665" y="530.665" width="54.67" height="254.67" rx="27.335" fill="#F2F2F2" stroke="black" stroke-width="5.33"/>
<path d="M5.54732 622.396L3.55229 622.914V624.975V758.425C3.55229 773.547 15.8494 785.79 30.9999 785.79C46.1504 785.79 58.4475 773.547 58.4475 758.425V629.888V625.203L54.4204 627.598C50.0108 630.22 45.7321 631.396 41.5432 631.277C37.3495 631.158 33.0476 629.735 28.6072 626.842C21.1078 621.957 13.3662 620.365 5.54732 622.396Z" fill="#FF1A87" stroke="black" stroke-width="5.33"/>
<rect x="707.665" y="2.665" width="54.67" height="254.67" rx="27.335" fill="#F2F2F2" stroke="black" stroke-width="5.33"/>
<path d="M709.547 94.3958L707.552 94.914V96.9752V230.425C707.552 245.547 719.849 257.79 735 257.79C750.15 257.79 762.448 245.547 762.448 230.425V101.888V97.2029L758.42 99.5975C754.011 102.22 749.732 103.396 745.543 103.277C741.349 103.158 737.048 101.735 732.607 98.8422C725.108 93.957 717.366 92.365 709.547 94.3958Z" fill="#FF5903" stroke="black" stroke-width="5.33"/>
<rect x="3.665" y="266.665" width="54.67" height="254.67" rx="27.335" fill="#F2F2F2" stroke="black" stroke-width="5.33"/>
<path d="M5.54732 358.396L3.55229 358.914V360.975V494.425C3.55229 509.547 15.8494 521.79 30.9999 521.79C46.1504 521.79 58.4475 509.547 58.4475 494.425V365.888V361.203L54.4204 363.598C50.0108 366.22 45.7321 367.396 41.5432 367.277C37.3495 367.158 33.0476 365.735 28.6072 362.842C21.1078 357.957 13.3662 356.365 5.54732 358.396Z" fill="#FFD916" stroke="black" stroke-width="5.33"/>
<rect x="707.665" y="530.665" width="54.67" height="254.67" rx="27.335" fill="#F2F2F2" stroke="black" stroke-width="5.33"/>
<path d="M709.547 622.396L707.552 622.914V624.975V758.425C707.552 773.547 719.849 785.79 735 785.79C750.15 785.79 762.448 773.547 762.448 758.425V629.888V625.203L758.42 627.598C754.011 630.22 749.732 631.396 745.543 631.277C741.349 631.158 737.048 629.735 732.607 626.842C725.108 621.957 717.366 620.365 709.547 622.396Z" fill="#FF1A87" stroke="black" stroke-width="5.33"/>
<rect x="323.665" y="2.665" width="54.67" height="254.67" rx="27.335" fill="#F2F2F2" stroke="black" stroke-width="5.33"/>
<path d="M326.711 94.1268L323.552 93.5306V96.7456V230.564C323.552 245.685 335.849 257.929 350.999 257.929C366.15 257.929 378.447 245.685 378.447 230.564V97.1113V93.6657L375.112 94.5319C371.794 95.3936 368.532 96.891 365.328 98.9783C360.686 102.002 356.195 103.421 351.815 103.421C347.435 103.421 342.943 102.002 338.302 98.9783C334.516 96.5122 330.651 94.8704 326.711 94.1268Z" fill="#FF5903" stroke="black" stroke-width="5.33"/>
<rect x="387.665" y="266.665" width="54.67" height="254.67" rx="27.335" fill="#F2F2F2" stroke="black" stroke-width="5.33"/>
<path d="M390.711 358.127L387.552 357.531V360.746V494.564C387.552 509.685 399.849 521.929 414.999 521.929C430.15 521.929 442.447 509.685 442.447 494.564V361.111V357.666L439.112 358.532C435.794 359.394 432.532 360.891 429.328 362.978C424.686 366.002 420.195 367.421 415.815 367.421C411.435 367.421 406.943 366.002 402.302 362.978C398.516 360.512 394.651 358.87 390.711 358.127Z" fill="#FFD916" stroke="black" stroke-width="5.33"/>
<rect x="323.665" y="530.665" width="54.67" height="254.67" rx="27.335" fill="#F2F2F2" stroke="black" stroke-width="5.33"/>
<path d="M326.711 622.127L323.552 621.531V624.746V758.564C323.552 773.685 335.849 785.929 350.999 785.929C366.15 785.929 378.447 773.685 378.447 758.564V625.111V621.666L375.112 622.532C371.794 623.394 368.532 624.891 365.328 626.978C360.686 630.002 356.195 631.421 351.815 631.421C347.435 631.421 342.943 630.002 338.302 626.978C334.516 624.512 330.651 622.87 326.711 622.127Z" fill="#FF1A87" stroke="black" stroke-width="5.33"/>
<rect x="387.665" y="2.665" width="54.67" height="254.67" rx="27.335" fill="#F2F2F2" stroke="black" stroke-width="5.33"/>
<path d="M390.712 94.1269L387.552 93.5305V96.7456V230.563C387.552 245.685 399.849 257.928 415 257.928C430.15 257.928 442.448 245.685 442.448 230.564V97.1111V93.6656L439.113 94.5317C435.795 95.3934 432.532 96.8908 429.328 98.9783C424.686 102.002 420.195 103.421 415.815 103.421C411.435 103.421 406.943 102.002 402.302 98.9783C398.517 96.5123 394.651 94.8705 390.712 94.1269Z" fill="#FF5903" stroke="black" stroke-width="5.33"/>
<rect x="451.665" y="266.665" width="54.67" height="254.67" rx="27.335" fill="#F2F2F2" stroke="black" stroke-width="5.33"/>
<path d="M454.712 358.127L451.552 357.53V360.746V494.563C451.552 509.685 463.849 521.928 479 521.928C494.15 521.928 506.448 509.685 506.448 494.564V361.111V357.666L503.113 358.532C499.795 359.393 496.532 360.891 493.328 362.978C488.686 366.002 484.195 367.421 479.815 367.421C475.435 367.421 470.943 366.002 466.302 362.978C462.517 360.512 458.651 358.87 454.712 358.127Z" fill="#FFD916" stroke="black" stroke-width="5.33"/>
<rect x="387.665" y="530.665" width="54.67" height="254.67" rx="27.335" fill="#F2F2F2" stroke="black" stroke-width="5.33"/>
<path d="M390.712 622.127L387.552 621.53V624.746V758.563C387.552 773.685 399.849 785.928 415 785.928C430.15 785.928 442.448 773.685 442.448 758.564V625.111V621.666L439.113 622.532C435.795 623.393 432.532 624.891 429.328 626.978C424.686 630.002 420.195 631.421 415.815 631.421C411.435 631.421 406.943 630.002 402.302 626.978C398.517 624.512 394.651 622.87 390.712 622.127Z" fill="#FF1A87" stroke="black" stroke-width="5.33"/>
</svg>
