<svg width="597" height="597" viewBox="0 0 597 597" fill="none" xmlns="http://www.w3.org/2000/svg">
<path d="M-161.96 -543.898C-127.399 -522.661 -82.3123 -531.629 -58.5095 -564.476C-29.6607 -604.286 29.6606 -604.286 58.5095 -564.476C82.3123 -531.629 127.399 -522.661 161.96 -543.898C203.847 -569.638 258.653 -546.937 270.071 -499.117C279.492 -459.662 317.715 -434.122 357.772 -440.517C406.321 -448.268 448.268 -406.321 440.517 -357.772C434.122 -317.715 459.662 -279.492 499.117 -270.071C546.937 -258.653 569.638 -203.847 543.898 -161.96C522.661 -127.399 531.629 -82.3123 564.476 -58.5095C604.286 -29.6606 604.286 29.6607 564.476 58.5095C531.629 82.3123 522.661 127.399 543.898 161.96C569.638 203.847 546.937 258.653 499.117 270.071C459.662 279.492 434.122 317.715 440.517 357.772C448.268 406.321 406.321 448.268 357.772 440.517C317.715 434.122 279.492 459.662 270.071 499.117C258.653 546.937 203.847 569.638 161.96 543.898C127.399 522.661 82.3123 531.629 58.5095 564.476C29.6607 604.286 -29.6607 604.286 -58.5095 564.476C-82.3123 531.629 -127.399 522.661 -161.96 543.898C-203.847 569.638 -258.653 546.937 -270.071 499.117C-279.492 459.662 -317.715 434.122 -357.772 440.517C-406.321 448.268 -448.268 406.321 -440.517 357.772C-434.122 317.715 -459.662 279.492 -499.117 270.071C-546.937 258.653 -569.638 203.847 -543.898 161.96C-522.661 127.399 -531.629 82.3124 -564.476 58.5095C-604.286 29.6607 -604.286 -29.6606 -564.476 -58.5095C-531.629 -82.3123 -522.661 -127.399 -543.898 -161.96C-569.638 -203.847 -546.937 -258.653 -499.117 -270.071C-459.662 -279.492 -434.122 -317.715 -440.517 -357.772C-448.268 -406.321 -406.321 -448.268 -357.772 -440.517C-317.715 -434.122 -279.492 -459.662 -270.071 -499.117C-258.653 -546.937 -203.847 -569.638 -161.96 -543.898Z" fill="#FF5903" stroke="black" stroke-width="5.33333"/>
<circle cx="0.665924" cy="-0.666351" r="339.874" fill="#F2F2F2" stroke="black" stroke-width="5.33333"/>
</svg>
