<svg width="597" height="597" viewBox="0 0 597 597" fill="none" xmlns="http://www.w3.org/2000/svg">
<path d="M435.04 -543.898C469.601 -522.661 514.688 -531.629 538.49 -564.476C567.339 -604.286 626.661 -604.286 655.509 -564.476C679.312 -531.629 724.399 -522.661 758.96 -543.898C800.847 -569.638 855.653 -546.937 867.071 -499.117C876.492 -459.662 914.715 -434.122 954.772 -440.517C1003.32 -448.268 1045.27 -406.321 1037.52 -357.772C1031.12 -317.715 1056.66 -279.492 1096.12 -270.071C1143.94 -258.653 1166.64 -203.847 1140.9 -161.96C1119.66 -127.399 1128.63 -82.3123 1161.48 -58.5095C1201.29 -29.6606 1201.29 29.6607 1161.48 58.5095C1128.63 82.3123 1119.66 127.399 1140.9 161.96C1166.64 203.847 1143.94 258.653 1096.12 270.071C1056.66 279.492 1031.12 317.715 1037.52 357.772C1045.27 406.321 1003.32 448.268 954.772 440.517C914.715 434.122 876.492 459.662 867.071 499.117C855.653 546.937 800.847 569.638 758.96 543.898C724.399 522.661 679.312 531.629 655.509 564.476C626.661 604.286 567.339 604.286 538.49 564.476C514.688 531.629 469.601 522.661 435.04 543.898C393.153 569.638 338.347 546.937 326.929 499.117C317.508 459.662 279.285 434.122 239.228 440.517C190.679 448.268 148.732 406.321 156.483 357.772C162.878 317.715 137.338 279.492 97.8829 270.071C50.0634 258.653 27.3621 203.847 53.1017 161.96C74.3391 127.399 65.3708 82.3124 32.5241 58.5095C-7.28581 29.6607 -7.2858 -29.6606 32.5241 -58.5095C65.3708 -82.3123 74.3391 -127.399 53.1017 -161.96C27.3621 -203.847 50.0634 -258.653 97.8829 -270.071C137.338 -279.492 162.878 -317.715 156.483 -357.772C148.732 -406.321 190.679 -448.268 239.228 -440.517C279.285 -434.122 317.508 -459.662 326.929 -499.117C338.347 -546.937 393.153 -569.638 435.04 -543.898Z" fill="#FF5903" stroke="black" stroke-width="5.33333"/>
<circle cx="597.666" cy="-0.666351" r="339.874" fill="#F2F2F2" stroke="black" stroke-width="5.33333"/>
</svg>
