<svg width="1920" height="1678" viewBox="0 0 1920 1678" fill="none" xmlns="http://www.w3.org/2000/svg">
<mask id="path-1-inside-1_39_539" fill="white">
<path fill-rule="evenodd" clip-rule="evenodd" d="M1160 977.516V1677.67H759.998V977.511L0 -5.33398L1920 -5.33382L1160 977.516Z"/>
</mask>
<path fill-rule="evenodd" clip-rule="evenodd" d="M1160 977.516V1677.67H759.998V977.511L0 -5.33398L1920 -5.33382L1160 977.516Z" fill="#FFD916"/>
<path d="M1160 977.516L1155.78 974.254L1154.66 975.695V977.516H1160ZM1160 1677.67V1683H1165.33V1677.67H1160ZM759.998 1677.67H754.664V1683H759.998V1677.67ZM759.998 977.511H765.331V975.689L764.217 974.248L759.998 977.511ZM0 -5.33398L4.66439e-07 -10.6673L-10.8659 -10.6673L-4.21909 -2.07151L0 -5.33398ZM1920 -5.33382L1924.22 -2.07135L1930.87 -10.6671L1920 -10.6671L1920 -5.33382ZM1154.66 977.516V1677.67H1165.33V977.516H1154.66ZM1160 1672.33H759.998V1683H1160V1672.33ZM765.331 1677.67V977.511H754.664V1677.67H765.331ZM764.217 974.248L4.21909 -8.59645L-4.21909 -2.07151L755.779 980.773L764.217 974.248ZM-4.66439e-07 -0.000650883L1920 -0.000482965L1920 -10.6671L4.66439e-07 -10.6673L-4.66439e-07 -0.000650883ZM1915.78 -8.59629L1155.78 974.254L1164.22 980.779L1924.22 -2.07135L1915.78 -8.59629Z" fill="black" mask="url(#path-1-inside-1_39_539)"/>
</svg>
